G04 EAGLE Gerber RS-274X export*
G75*
%MOMM*%
%FSLAX34Y34*%
%LPD*%
%INTop Copper*%
%IPPOS*%
%AMOC8*
5,1,8,0,0,1.08239X$1,22.5*%
G01*
%ADD10C,1.879600*%
%ADD11C,0.254000*%
%ADD12C,1.905000*%


D10*
X101600Y73660D03*
X101600Y99060D03*
X101600Y124460D03*
X101600Y149860D03*
X101600Y175260D03*
X101600Y200660D03*
X101600Y226060D03*
X127000Y226060D03*
X152400Y226060D03*
X177800Y226060D03*
X203200Y226060D03*
X228600Y226060D03*
X254000Y226060D03*
X254000Y200660D03*
X254000Y175260D03*
X254000Y149860D03*
X254000Y124460D03*
X254000Y99060D03*
X254000Y73660D03*
X228600Y73660D03*
X203200Y73660D03*
X177800Y73660D03*
X152400Y73660D03*
X127000Y73660D03*
X323850Y209550D03*
X323850Y184150D03*
X323850Y158750D03*
X323850Y133350D03*
X323850Y107950D03*
X323850Y82550D03*
X292100Y209550D03*
X292100Y184150D03*
X292100Y158750D03*
X292100Y133350D03*
X292100Y107950D03*
X292100Y82550D03*
X31750Y82550D03*
X31750Y107950D03*
X31750Y133350D03*
X31750Y158750D03*
X31750Y184150D03*
X31750Y209550D03*
X63500Y82550D03*
X63500Y107950D03*
X63500Y133350D03*
X63500Y158750D03*
X63500Y184150D03*
X63500Y209550D03*
D11*
X63500Y82550D02*
X72390Y73660D01*
X101600Y73660D01*
X72390Y124460D02*
X63500Y133350D01*
X72390Y124460D02*
X101600Y124460D01*
X72390Y175260D02*
X63500Y184150D01*
X72390Y175260D02*
X101600Y175260D01*
X101600Y99060D02*
X72390Y99060D01*
X63500Y107950D01*
X72390Y149860D02*
X63500Y158750D01*
X72390Y149860D02*
X101600Y149860D01*
X72390Y200660D02*
X63500Y209550D01*
X72390Y200660D02*
X101600Y200660D01*
X127000Y226060D02*
X111760Y241300D01*
X88900Y241300D02*
X82550Y234950D01*
X38100Y234950D01*
X31750Y228600D01*
X25400Y228600D01*
X19050Y222250D01*
X19050Y196850D01*
X31750Y184150D01*
X88900Y241300D02*
X111760Y241300D01*
X177800Y226060D02*
X190500Y213360D01*
X266446Y213360D01*
X273050Y206756D01*
X273050Y201676D01*
X277876Y196850D01*
X304165Y196850D01*
X308102Y192913D01*
X308102Y172212D01*
X321564Y158750D01*
X323850Y158750D01*
X243840Y241300D02*
X228600Y226060D01*
X243840Y241300D02*
X260350Y241300D01*
X266700Y234950D01*
X279400Y234950D01*
X285750Y228600D01*
X304800Y228600D01*
X323850Y209550D01*
X275590Y226060D02*
X254000Y226060D01*
X275590Y226060D02*
X292100Y209550D01*
X275590Y175260D02*
X254000Y175260D01*
X275590Y175260D02*
X292100Y158750D01*
X275590Y124460D02*
X254000Y124460D01*
X275590Y124460D02*
X292100Y107950D01*
X275590Y99060D02*
X254000Y99060D01*
X275590Y99060D02*
X292100Y82550D01*
X323850Y107950D02*
X337819Y93981D01*
X337819Y69850D01*
X331469Y63500D01*
X317500Y63500D01*
X311150Y57150D01*
X245110Y57150D02*
X228600Y73660D01*
X245110Y57150D02*
X311150Y57150D01*
X177800Y73660D02*
X165100Y86360D01*
X78740Y86360D02*
X69850Y95250D01*
X47244Y98425D02*
X47244Y117983D01*
X31877Y133350D01*
X31750Y133350D01*
X78740Y86360D02*
X165100Y86360D01*
X69850Y95250D02*
X50419Y95250D01*
X47244Y98425D01*
X110490Y57150D02*
X127000Y73660D01*
X95250Y57150D02*
X88900Y63500D01*
X50800Y63500D01*
X31750Y82550D01*
X95250Y57150D02*
X110490Y57150D01*
X254000Y149860D02*
X275590Y149860D01*
X292100Y133350D01*
X256540Y200660D02*
X254000Y200660D01*
X256540Y200660D02*
X273050Y184150D01*
X292100Y184150D01*
X269240Y73660D02*
X254000Y73660D01*
X279400Y63500D02*
X304800Y63500D01*
X323850Y82550D01*
X279400Y63500D02*
X269240Y73660D01*
X85090Y213360D02*
X76200Y222250D01*
X50800Y222250D01*
X47625Y219075D01*
X47625Y174625D02*
X31750Y158750D01*
X47625Y174625D02*
X47625Y219075D01*
X139700Y213360D02*
X152400Y226060D01*
X139700Y213360D02*
X85090Y213360D01*
X203200Y226060D02*
X218440Y241300D01*
X228600Y241300D02*
X234950Y247650D01*
X266700Y247650D01*
X273050Y241300D01*
X285750Y241300D01*
X292100Y234950D01*
X311150Y234950D01*
X317500Y228600D01*
X330200Y228600D01*
X337821Y220979D01*
X337821Y196850D01*
X325121Y184150D01*
X323850Y184150D01*
X228600Y241300D02*
X218440Y241300D01*
X215900Y86360D02*
X203200Y73660D01*
X215900Y86360D02*
X269240Y86360D01*
X285750Y69850D01*
X303657Y69850D01*
X308102Y117602D02*
X323850Y133350D01*
X308102Y74295D02*
X303657Y69850D01*
X308102Y74295D02*
X308102Y117602D01*
X152400Y73660D02*
X135890Y57150D01*
X127000Y57150D01*
X120650Y50800D01*
X88900Y50800D01*
X82550Y57150D01*
X44450Y57150D01*
X38100Y63500D01*
X25400Y63500D01*
X19050Y69850D01*
X19050Y95250D01*
X31750Y107950D01*
X85090Y226060D02*
X101600Y226060D01*
X85090Y226060D02*
X82550Y228600D01*
X44450Y228600D01*
X31750Y215900D01*
X31750Y209550D01*
D12*
X133350Y196850D03*
X222250Y196850D03*
X133350Y101600D03*
X222250Y101600D03*
M02*
