G04 EAGLE Gerber RS-274X export*
G75*
%MOMM*%
%FSLAX34Y34*%
%LPD*%
%INSilkscreen Top*%
%IPPOS*%
%AMOC8*
5,1,8,0,0,1.08239X$1,22.5*%
G01*
%ADD10C,0.050800*%
%ADD11C,0.101600*%
%ADD12C,0.203200*%
%ADD13C,0.127000*%


D10*
X78825Y146304D02*
X78903Y146306D01*
X78980Y146312D01*
X79057Y146321D01*
X79133Y146334D01*
X79209Y146351D01*
X79284Y146372D01*
X79357Y146396D01*
X79430Y146424D01*
X79501Y146456D01*
X79570Y146491D01*
X79637Y146529D01*
X79703Y146570D01*
X79766Y146615D01*
X79827Y146663D01*
X79886Y146713D01*
X79942Y146767D01*
X79996Y146823D01*
X80046Y146882D01*
X80094Y146943D01*
X80139Y147006D01*
X80180Y147072D01*
X80218Y147139D01*
X80253Y147208D01*
X80285Y147279D01*
X80313Y147352D01*
X80337Y147425D01*
X80358Y147500D01*
X80375Y147576D01*
X80388Y147652D01*
X80397Y147729D01*
X80403Y147806D01*
X80405Y147884D01*
X78825Y146304D02*
X78710Y146306D01*
X78596Y146312D01*
X78482Y146322D01*
X78368Y146335D01*
X78255Y146353D01*
X78142Y146375D01*
X78030Y146400D01*
X77920Y146429D01*
X77810Y146462D01*
X77701Y146499D01*
X77594Y146539D01*
X77488Y146583D01*
X77384Y146631D01*
X77281Y146682D01*
X77181Y146737D01*
X77082Y146795D01*
X76985Y146857D01*
X76891Y146921D01*
X76798Y146989D01*
X76708Y147061D01*
X76621Y147135D01*
X76536Y147212D01*
X76454Y147292D01*
X76652Y151836D02*
X76654Y151914D01*
X76660Y151991D01*
X76669Y152068D01*
X76682Y152144D01*
X76699Y152220D01*
X76720Y152295D01*
X76744Y152368D01*
X76772Y152441D01*
X76804Y152512D01*
X76839Y152581D01*
X76877Y152648D01*
X76918Y152714D01*
X76963Y152777D01*
X77011Y152838D01*
X77061Y152897D01*
X77115Y152953D01*
X77171Y153007D01*
X77230Y153057D01*
X77291Y153105D01*
X77354Y153150D01*
X77420Y153191D01*
X77487Y153229D01*
X77556Y153264D01*
X77627Y153296D01*
X77700Y153324D01*
X77773Y153348D01*
X77848Y153369D01*
X77924Y153386D01*
X78000Y153399D01*
X78077Y153408D01*
X78155Y153414D01*
X78232Y153416D01*
X78338Y153414D01*
X78444Y153408D01*
X78549Y153399D01*
X78654Y153386D01*
X78759Y153369D01*
X78863Y153348D01*
X78966Y153324D01*
X79068Y153296D01*
X79169Y153264D01*
X79269Y153229D01*
X79367Y153190D01*
X79465Y153147D01*
X79560Y153102D01*
X79654Y153053D01*
X79746Y153000D01*
X79836Y152944D01*
X79924Y152885D01*
X80010Y152823D01*
X77442Y150453D02*
X77375Y150495D01*
X77310Y150540D01*
X77247Y150589D01*
X77186Y150640D01*
X77129Y150695D01*
X77074Y150752D01*
X77021Y150812D01*
X76972Y150874D01*
X76926Y150939D01*
X76884Y151005D01*
X76844Y151074D01*
X76808Y151145D01*
X76776Y151218D01*
X76747Y151292D01*
X76722Y151367D01*
X76701Y151443D01*
X76683Y151521D01*
X76670Y151599D01*
X76660Y151678D01*
X76654Y151757D01*
X76652Y151836D01*
X79615Y149267D02*
X79682Y149225D01*
X79747Y149180D01*
X79810Y149131D01*
X79871Y149080D01*
X79928Y149025D01*
X79983Y148968D01*
X80036Y148908D01*
X80085Y148846D01*
X80131Y148781D01*
X80173Y148715D01*
X80213Y148646D01*
X80249Y148575D01*
X80281Y148502D01*
X80310Y148428D01*
X80335Y148353D01*
X80356Y148277D01*
X80374Y148199D01*
X80387Y148121D01*
X80397Y148042D01*
X80403Y147963D01*
X80405Y147884D01*
X79615Y149267D02*
X77442Y150453D01*
X83083Y151836D02*
X85059Y153416D01*
X85059Y146304D01*
X87034Y146304D02*
X83083Y146304D01*
X270849Y143129D02*
X270927Y143131D01*
X271004Y143137D01*
X271081Y143146D01*
X271157Y143159D01*
X271233Y143176D01*
X271308Y143197D01*
X271381Y143221D01*
X271454Y143249D01*
X271525Y143281D01*
X271594Y143316D01*
X271661Y143354D01*
X271727Y143395D01*
X271790Y143440D01*
X271851Y143488D01*
X271910Y143538D01*
X271966Y143592D01*
X272020Y143648D01*
X272070Y143707D01*
X272118Y143768D01*
X272163Y143831D01*
X272204Y143897D01*
X272242Y143964D01*
X272277Y144033D01*
X272309Y144104D01*
X272337Y144177D01*
X272361Y144250D01*
X272382Y144325D01*
X272399Y144401D01*
X272412Y144477D01*
X272421Y144554D01*
X272427Y144631D01*
X272429Y144709D01*
X270849Y143129D02*
X270734Y143131D01*
X270620Y143137D01*
X270506Y143147D01*
X270392Y143160D01*
X270279Y143178D01*
X270166Y143200D01*
X270054Y143225D01*
X269944Y143254D01*
X269834Y143287D01*
X269725Y143324D01*
X269618Y143364D01*
X269512Y143408D01*
X269408Y143456D01*
X269305Y143507D01*
X269205Y143562D01*
X269106Y143620D01*
X269009Y143682D01*
X268915Y143746D01*
X268822Y143814D01*
X268732Y143886D01*
X268645Y143960D01*
X268560Y144037D01*
X268478Y144117D01*
X268676Y148661D02*
X268678Y148739D01*
X268684Y148816D01*
X268693Y148893D01*
X268706Y148969D01*
X268723Y149045D01*
X268744Y149120D01*
X268768Y149193D01*
X268796Y149266D01*
X268828Y149337D01*
X268863Y149406D01*
X268901Y149473D01*
X268942Y149539D01*
X268987Y149602D01*
X269035Y149663D01*
X269085Y149722D01*
X269139Y149778D01*
X269195Y149832D01*
X269254Y149882D01*
X269315Y149930D01*
X269378Y149975D01*
X269444Y150016D01*
X269511Y150054D01*
X269580Y150089D01*
X269651Y150121D01*
X269724Y150149D01*
X269797Y150173D01*
X269872Y150194D01*
X269948Y150211D01*
X270024Y150224D01*
X270101Y150233D01*
X270179Y150239D01*
X270256Y150241D01*
X270362Y150239D01*
X270468Y150233D01*
X270573Y150224D01*
X270678Y150211D01*
X270783Y150194D01*
X270887Y150173D01*
X270990Y150149D01*
X271092Y150121D01*
X271193Y150089D01*
X271293Y150054D01*
X271391Y150015D01*
X271489Y149972D01*
X271584Y149927D01*
X271678Y149878D01*
X271770Y149825D01*
X271860Y149769D01*
X271948Y149710D01*
X272034Y149648D01*
X269466Y147278D02*
X269399Y147320D01*
X269334Y147365D01*
X269271Y147414D01*
X269210Y147465D01*
X269153Y147520D01*
X269098Y147577D01*
X269045Y147637D01*
X268996Y147699D01*
X268950Y147764D01*
X268908Y147830D01*
X268868Y147899D01*
X268832Y147970D01*
X268800Y148043D01*
X268771Y148117D01*
X268746Y148192D01*
X268725Y148268D01*
X268707Y148346D01*
X268694Y148424D01*
X268684Y148503D01*
X268678Y148582D01*
X268676Y148661D01*
X271639Y146092D02*
X271706Y146050D01*
X271771Y146005D01*
X271834Y145956D01*
X271895Y145905D01*
X271952Y145850D01*
X272007Y145793D01*
X272060Y145733D01*
X272109Y145671D01*
X272155Y145606D01*
X272197Y145540D01*
X272237Y145471D01*
X272273Y145400D01*
X272305Y145327D01*
X272334Y145253D01*
X272359Y145178D01*
X272380Y145102D01*
X272398Y145024D01*
X272411Y144946D01*
X272421Y144867D01*
X272427Y144788D01*
X272429Y144709D01*
X271639Y146092D02*
X269466Y147278D01*
X275107Y143129D02*
X277083Y143129D01*
X277170Y143131D01*
X277258Y143137D01*
X277345Y143146D01*
X277431Y143160D01*
X277517Y143177D01*
X277601Y143198D01*
X277685Y143223D01*
X277768Y143252D01*
X277849Y143284D01*
X277929Y143319D01*
X278007Y143358D01*
X278084Y143401D01*
X278158Y143447D01*
X278230Y143496D01*
X278300Y143548D01*
X278368Y143604D01*
X278433Y143662D01*
X278496Y143723D01*
X278555Y143787D01*
X278612Y143854D01*
X278666Y143922D01*
X278717Y143994D01*
X278764Y144067D01*
X278809Y144142D01*
X278850Y144220D01*
X278887Y144299D01*
X278921Y144379D01*
X278951Y144461D01*
X278978Y144544D01*
X279001Y144629D01*
X279020Y144714D01*
X279035Y144800D01*
X279047Y144887D01*
X279055Y144974D01*
X279059Y145061D01*
X279059Y145149D01*
X279055Y145236D01*
X279047Y145323D01*
X279035Y145410D01*
X279020Y145496D01*
X279001Y145581D01*
X278978Y145666D01*
X278951Y145749D01*
X278921Y145831D01*
X278887Y145911D01*
X278850Y145990D01*
X278809Y146068D01*
X278764Y146143D01*
X278717Y146216D01*
X278666Y146288D01*
X278612Y146356D01*
X278555Y146423D01*
X278496Y146487D01*
X278433Y146548D01*
X278368Y146606D01*
X278300Y146662D01*
X278230Y146714D01*
X278158Y146763D01*
X278084Y146809D01*
X278007Y146852D01*
X277929Y146891D01*
X277849Y146926D01*
X277768Y146958D01*
X277685Y146987D01*
X277601Y147012D01*
X277517Y147033D01*
X277431Y147050D01*
X277345Y147064D01*
X277258Y147073D01*
X277170Y147079D01*
X277083Y147081D01*
X277478Y150241D02*
X275107Y150241D01*
X277478Y150241D02*
X277557Y150239D01*
X277635Y150233D01*
X277713Y150223D01*
X277791Y150210D01*
X277868Y150192D01*
X277944Y150171D01*
X278018Y150146D01*
X278092Y150117D01*
X278164Y150085D01*
X278234Y150049D01*
X278302Y150009D01*
X278368Y149966D01*
X278432Y149920D01*
X278494Y149871D01*
X278553Y149819D01*
X278609Y149764D01*
X278663Y149706D01*
X278713Y149646D01*
X278761Y149583D01*
X278805Y149518D01*
X278846Y149451D01*
X278884Y149382D01*
X278918Y149311D01*
X278949Y149238D01*
X278976Y149164D01*
X278999Y149089D01*
X279018Y149013D01*
X279034Y148935D01*
X279046Y148857D01*
X279054Y148779D01*
X279058Y148700D01*
X279058Y148622D01*
X279054Y148543D01*
X279046Y148465D01*
X279034Y148387D01*
X279018Y148309D01*
X278999Y148233D01*
X278976Y148158D01*
X278949Y148084D01*
X278918Y148011D01*
X278884Y147940D01*
X278846Y147871D01*
X278805Y147804D01*
X278761Y147739D01*
X278713Y147676D01*
X278663Y147616D01*
X278609Y147558D01*
X278553Y147503D01*
X278494Y147451D01*
X278432Y147402D01*
X278368Y147356D01*
X278302Y147313D01*
X278234Y147273D01*
X278164Y147237D01*
X278092Y147205D01*
X278018Y147176D01*
X277944Y147151D01*
X277868Y147130D01*
X277791Y147112D01*
X277713Y147099D01*
X277635Y147089D01*
X277557Y147083D01*
X277478Y147081D01*
X277478Y147080D02*
X275898Y147080D01*
D11*
X172099Y244404D02*
X172097Y244305D01*
X172091Y244205D01*
X172082Y244106D01*
X172069Y244008D01*
X172052Y243910D01*
X172031Y243812D01*
X172006Y243716D01*
X171978Y243621D01*
X171946Y243527D01*
X171911Y243434D01*
X171872Y243342D01*
X171829Y243252D01*
X171784Y243164D01*
X171734Y243077D01*
X171682Y242993D01*
X171626Y242910D01*
X171568Y242830D01*
X171506Y242752D01*
X171441Y242677D01*
X171373Y242604D01*
X171303Y242534D01*
X171230Y242466D01*
X171155Y242401D01*
X171077Y242339D01*
X170997Y242281D01*
X170914Y242225D01*
X170830Y242173D01*
X170743Y242123D01*
X170655Y242078D01*
X170565Y242035D01*
X170473Y241996D01*
X170380Y241961D01*
X170286Y241929D01*
X170191Y241901D01*
X170095Y241876D01*
X169997Y241855D01*
X169899Y241838D01*
X169801Y241825D01*
X169702Y241816D01*
X169602Y241810D01*
X169503Y241808D01*
X169359Y241810D01*
X169214Y241816D01*
X169070Y241825D01*
X168927Y241838D01*
X168783Y241855D01*
X168640Y241876D01*
X168498Y241901D01*
X168357Y241929D01*
X168216Y241961D01*
X168076Y241997D01*
X167937Y242036D01*
X167799Y242079D01*
X167663Y242126D01*
X167527Y242176D01*
X167393Y242230D01*
X167261Y242287D01*
X167130Y242348D01*
X167001Y242412D01*
X166873Y242480D01*
X166747Y242550D01*
X166623Y242625D01*
X166502Y242702D01*
X166382Y242783D01*
X166264Y242866D01*
X166149Y242953D01*
X166036Y243043D01*
X165925Y243136D01*
X165817Y243231D01*
X165711Y243330D01*
X165608Y243431D01*
X165933Y250896D02*
X165935Y250995D01*
X165941Y251095D01*
X165950Y251194D01*
X165963Y251292D01*
X165980Y251390D01*
X166001Y251488D01*
X166026Y251584D01*
X166054Y251679D01*
X166086Y251773D01*
X166121Y251866D01*
X166160Y251958D01*
X166203Y252048D01*
X166248Y252136D01*
X166298Y252223D01*
X166350Y252307D01*
X166406Y252390D01*
X166464Y252470D01*
X166526Y252548D01*
X166591Y252623D01*
X166659Y252696D01*
X166729Y252766D01*
X166802Y252834D01*
X166877Y252899D01*
X166955Y252961D01*
X167035Y253019D01*
X167118Y253075D01*
X167202Y253127D01*
X167289Y253177D01*
X167377Y253222D01*
X167467Y253265D01*
X167559Y253304D01*
X167652Y253339D01*
X167746Y253371D01*
X167841Y253399D01*
X167938Y253424D01*
X168035Y253445D01*
X168133Y253462D01*
X168231Y253475D01*
X168330Y253484D01*
X168430Y253490D01*
X168529Y253492D01*
X168665Y253490D01*
X168801Y253484D01*
X168937Y253475D01*
X169073Y253462D01*
X169208Y253444D01*
X169342Y253424D01*
X169476Y253399D01*
X169610Y253371D01*
X169742Y253338D01*
X169873Y253303D01*
X170004Y253263D01*
X170133Y253220D01*
X170261Y253174D01*
X170387Y253123D01*
X170513Y253070D01*
X170636Y253012D01*
X170758Y252952D01*
X170878Y252888D01*
X170997Y252820D01*
X171113Y252750D01*
X171227Y252676D01*
X171340Y252599D01*
X171450Y252518D01*
X167231Y248624D02*
X167145Y248677D01*
X167061Y248734D01*
X166979Y248793D01*
X166899Y248856D01*
X166822Y248922D01*
X166747Y248990D01*
X166675Y249062D01*
X166606Y249136D01*
X166540Y249213D01*
X166477Y249292D01*
X166417Y249374D01*
X166360Y249458D01*
X166306Y249544D01*
X166256Y249632D01*
X166209Y249722D01*
X166165Y249813D01*
X166126Y249907D01*
X166089Y250001D01*
X166057Y250097D01*
X166028Y250195D01*
X166003Y250293D01*
X165982Y250392D01*
X165964Y250492D01*
X165951Y250592D01*
X165941Y250693D01*
X165935Y250795D01*
X165933Y250896D01*
X170801Y246676D02*
X170887Y246623D01*
X170971Y246566D01*
X171053Y246507D01*
X171133Y246444D01*
X171210Y246378D01*
X171285Y246310D01*
X171357Y246238D01*
X171426Y246164D01*
X171492Y246087D01*
X171555Y246008D01*
X171615Y245926D01*
X171672Y245842D01*
X171726Y245756D01*
X171776Y245668D01*
X171823Y245578D01*
X171867Y245487D01*
X171906Y245393D01*
X171943Y245299D01*
X171975Y245203D01*
X172004Y245105D01*
X172029Y245007D01*
X172050Y244908D01*
X172068Y244808D01*
X172081Y244708D01*
X172091Y244607D01*
X172097Y244505D01*
X172099Y244404D01*
X170801Y246676D02*
X167231Y248624D01*
X180227Y253492D02*
X180334Y253490D01*
X180440Y253484D01*
X180546Y253474D01*
X180652Y253461D01*
X180758Y253443D01*
X180862Y253422D01*
X180966Y253397D01*
X181069Y253368D01*
X181170Y253336D01*
X181270Y253299D01*
X181369Y253259D01*
X181467Y253216D01*
X181563Y253169D01*
X181657Y253118D01*
X181749Y253064D01*
X181839Y253007D01*
X181927Y252947D01*
X182012Y252883D01*
X182095Y252816D01*
X182176Y252746D01*
X182254Y252674D01*
X182330Y252598D01*
X182402Y252520D01*
X182472Y252439D01*
X182539Y252356D01*
X182603Y252271D01*
X182663Y252183D01*
X182720Y252093D01*
X182774Y252001D01*
X182825Y251907D01*
X182872Y251811D01*
X182915Y251713D01*
X182955Y251614D01*
X182992Y251514D01*
X183024Y251413D01*
X183053Y251310D01*
X183078Y251206D01*
X183099Y251102D01*
X183117Y250996D01*
X183130Y250890D01*
X183140Y250784D01*
X183146Y250678D01*
X183148Y250571D01*
X180227Y253492D02*
X180106Y253490D01*
X179985Y253484D01*
X179865Y253474D01*
X179744Y253461D01*
X179625Y253443D01*
X179505Y253422D01*
X179387Y253397D01*
X179270Y253368D01*
X179153Y253335D01*
X179038Y253299D01*
X178924Y253258D01*
X178811Y253215D01*
X178699Y253167D01*
X178590Y253116D01*
X178482Y253061D01*
X178375Y253003D01*
X178271Y252942D01*
X178169Y252877D01*
X178069Y252809D01*
X177971Y252738D01*
X177875Y252664D01*
X177782Y252587D01*
X177692Y252506D01*
X177604Y252423D01*
X177519Y252337D01*
X177436Y252248D01*
X177357Y252157D01*
X177280Y252063D01*
X177207Y251967D01*
X177137Y251869D01*
X177070Y251768D01*
X177006Y251665D01*
X176946Y251560D01*
X176889Y251453D01*
X176835Y251345D01*
X176785Y251235D01*
X176739Y251123D01*
X176696Y251010D01*
X176657Y250895D01*
X182175Y248299D02*
X182254Y248376D01*
X182330Y248457D01*
X182403Y248540D01*
X182473Y248625D01*
X182540Y248713D01*
X182604Y248803D01*
X182664Y248895D01*
X182721Y248990D01*
X182775Y249086D01*
X182826Y249184D01*
X182873Y249284D01*
X182917Y249386D01*
X182957Y249489D01*
X182993Y249593D01*
X183025Y249699D01*
X183054Y249805D01*
X183079Y249913D01*
X183101Y250021D01*
X183118Y250131D01*
X183132Y250240D01*
X183141Y250350D01*
X183147Y250461D01*
X183149Y250571D01*
X182174Y248299D02*
X176657Y241808D01*
X183148Y241808D01*
X172099Y47554D02*
X172097Y47455D01*
X172091Y47355D01*
X172082Y47256D01*
X172069Y47158D01*
X172052Y47060D01*
X172031Y46962D01*
X172006Y46866D01*
X171978Y46771D01*
X171946Y46677D01*
X171911Y46584D01*
X171872Y46492D01*
X171829Y46402D01*
X171784Y46314D01*
X171734Y46227D01*
X171682Y46143D01*
X171626Y46060D01*
X171568Y45980D01*
X171506Y45902D01*
X171441Y45827D01*
X171373Y45754D01*
X171303Y45684D01*
X171230Y45616D01*
X171155Y45551D01*
X171077Y45489D01*
X170997Y45431D01*
X170914Y45375D01*
X170830Y45323D01*
X170743Y45273D01*
X170655Y45228D01*
X170565Y45185D01*
X170473Y45146D01*
X170380Y45111D01*
X170286Y45079D01*
X170191Y45051D01*
X170095Y45026D01*
X169997Y45005D01*
X169899Y44988D01*
X169801Y44975D01*
X169702Y44966D01*
X169602Y44960D01*
X169503Y44958D01*
X169359Y44960D01*
X169214Y44966D01*
X169070Y44975D01*
X168927Y44988D01*
X168783Y45005D01*
X168640Y45026D01*
X168498Y45051D01*
X168357Y45079D01*
X168216Y45111D01*
X168076Y45147D01*
X167937Y45186D01*
X167799Y45229D01*
X167663Y45276D01*
X167527Y45326D01*
X167393Y45380D01*
X167261Y45437D01*
X167130Y45498D01*
X167001Y45562D01*
X166873Y45630D01*
X166747Y45700D01*
X166623Y45775D01*
X166502Y45852D01*
X166382Y45933D01*
X166264Y46016D01*
X166149Y46103D01*
X166036Y46193D01*
X165925Y46286D01*
X165817Y46381D01*
X165711Y46480D01*
X165608Y46581D01*
X165933Y54046D02*
X165935Y54145D01*
X165941Y54245D01*
X165950Y54344D01*
X165963Y54442D01*
X165980Y54540D01*
X166001Y54638D01*
X166026Y54734D01*
X166054Y54829D01*
X166086Y54923D01*
X166121Y55016D01*
X166160Y55108D01*
X166203Y55198D01*
X166248Y55286D01*
X166298Y55373D01*
X166350Y55457D01*
X166406Y55540D01*
X166464Y55620D01*
X166526Y55698D01*
X166591Y55773D01*
X166659Y55846D01*
X166729Y55916D01*
X166802Y55984D01*
X166877Y56049D01*
X166955Y56111D01*
X167035Y56169D01*
X167118Y56225D01*
X167202Y56277D01*
X167289Y56327D01*
X167377Y56372D01*
X167467Y56415D01*
X167559Y56454D01*
X167652Y56489D01*
X167746Y56521D01*
X167841Y56549D01*
X167938Y56574D01*
X168035Y56595D01*
X168133Y56612D01*
X168231Y56625D01*
X168330Y56634D01*
X168430Y56640D01*
X168529Y56642D01*
X168665Y56640D01*
X168801Y56634D01*
X168937Y56625D01*
X169073Y56612D01*
X169208Y56594D01*
X169342Y56574D01*
X169476Y56549D01*
X169610Y56521D01*
X169742Y56488D01*
X169873Y56453D01*
X170004Y56413D01*
X170133Y56370D01*
X170261Y56324D01*
X170387Y56273D01*
X170513Y56220D01*
X170636Y56162D01*
X170758Y56102D01*
X170878Y56038D01*
X170997Y55970D01*
X171113Y55900D01*
X171227Y55826D01*
X171340Y55749D01*
X171450Y55668D01*
X167231Y51774D02*
X167145Y51827D01*
X167061Y51884D01*
X166979Y51943D01*
X166899Y52006D01*
X166822Y52072D01*
X166747Y52140D01*
X166675Y52212D01*
X166606Y52286D01*
X166540Y52363D01*
X166477Y52442D01*
X166417Y52524D01*
X166360Y52608D01*
X166306Y52694D01*
X166256Y52782D01*
X166209Y52872D01*
X166165Y52963D01*
X166126Y53057D01*
X166089Y53151D01*
X166057Y53247D01*
X166028Y53345D01*
X166003Y53443D01*
X165982Y53542D01*
X165964Y53642D01*
X165951Y53742D01*
X165941Y53843D01*
X165935Y53945D01*
X165933Y54046D01*
X170801Y49826D02*
X170887Y49773D01*
X170971Y49716D01*
X171053Y49657D01*
X171133Y49594D01*
X171210Y49528D01*
X171285Y49460D01*
X171357Y49388D01*
X171426Y49314D01*
X171492Y49237D01*
X171555Y49158D01*
X171615Y49076D01*
X171672Y48992D01*
X171726Y48906D01*
X171776Y48818D01*
X171823Y48728D01*
X171867Y48637D01*
X171906Y48543D01*
X171943Y48449D01*
X171975Y48353D01*
X172004Y48255D01*
X172029Y48157D01*
X172050Y48058D01*
X172068Y47958D01*
X172081Y47858D01*
X172091Y47757D01*
X172097Y47655D01*
X172099Y47554D01*
X170801Y49826D02*
X167231Y51774D01*
X176657Y47554D02*
X179253Y56642D01*
X176657Y47554D02*
X183148Y47554D01*
X181201Y50151D02*
X181201Y44958D01*
D10*
X84836Y65955D02*
X84834Y66025D01*
X84828Y66095D01*
X84819Y66165D01*
X84806Y66234D01*
X84789Y66302D01*
X84768Y66369D01*
X84744Y66435D01*
X84716Y66500D01*
X84685Y66563D01*
X84650Y66624D01*
X84612Y66683D01*
X84571Y66741D01*
X84527Y66795D01*
X84480Y66848D01*
X84431Y66897D01*
X84378Y66944D01*
X84324Y66988D01*
X84266Y67029D01*
X84207Y67067D01*
X84146Y67102D01*
X84083Y67133D01*
X84018Y67161D01*
X83952Y67185D01*
X83885Y67206D01*
X83817Y67223D01*
X83748Y67236D01*
X83678Y67245D01*
X83608Y67251D01*
X83538Y67253D01*
X84836Y65955D02*
X84834Y65852D01*
X84828Y65749D01*
X84819Y65646D01*
X84805Y65544D01*
X84788Y65443D01*
X84767Y65342D01*
X84742Y65242D01*
X84713Y65143D01*
X84681Y65045D01*
X84644Y64948D01*
X84605Y64853D01*
X84562Y64759D01*
X84515Y64667D01*
X84465Y64577D01*
X84411Y64489D01*
X84355Y64403D01*
X84295Y64319D01*
X84232Y64238D01*
X84166Y64159D01*
X84097Y64082D01*
X84025Y64008D01*
X80292Y64171D02*
X80222Y64173D01*
X80152Y64179D01*
X80082Y64188D01*
X80013Y64201D01*
X79945Y64218D01*
X79878Y64239D01*
X79812Y64263D01*
X79747Y64291D01*
X79684Y64322D01*
X79623Y64357D01*
X79564Y64395D01*
X79506Y64436D01*
X79452Y64480D01*
X79399Y64527D01*
X79350Y64576D01*
X79303Y64629D01*
X79259Y64683D01*
X79218Y64741D01*
X79180Y64800D01*
X79145Y64861D01*
X79114Y64924D01*
X79086Y64989D01*
X79062Y65055D01*
X79041Y65122D01*
X79024Y65190D01*
X79011Y65259D01*
X79002Y65329D01*
X78996Y65399D01*
X78994Y65469D01*
X78996Y65567D01*
X79002Y65665D01*
X79012Y65762D01*
X79025Y65859D01*
X79043Y65955D01*
X79065Y66051D01*
X79090Y66145D01*
X79119Y66239D01*
X79152Y66331D01*
X79188Y66422D01*
X79228Y66511D01*
X79272Y66599D01*
X79319Y66684D01*
X79370Y66768D01*
X79424Y66850D01*
X79481Y66929D01*
X81428Y64820D02*
X81391Y64762D01*
X81352Y64706D01*
X81310Y64652D01*
X81265Y64600D01*
X81218Y64551D01*
X81168Y64504D01*
X81116Y64460D01*
X81061Y64419D01*
X81004Y64380D01*
X80946Y64345D01*
X80886Y64312D01*
X80824Y64283D01*
X80761Y64257D01*
X80696Y64234D01*
X80630Y64215D01*
X80564Y64199D01*
X80496Y64187D01*
X80429Y64178D01*
X80360Y64173D01*
X80292Y64171D01*
X82402Y66605D02*
X82438Y66663D01*
X82477Y66719D01*
X82519Y66773D01*
X82564Y66825D01*
X82612Y66874D01*
X82662Y66921D01*
X82714Y66965D01*
X82768Y67006D01*
X82825Y67045D01*
X82884Y67080D01*
X82944Y67113D01*
X83006Y67142D01*
X83069Y67168D01*
X83134Y67191D01*
X83199Y67210D01*
X83266Y67226D01*
X83333Y67238D01*
X83401Y67247D01*
X83470Y67252D01*
X83538Y67254D01*
X82402Y66604D02*
X81428Y64819D01*
X80292Y69532D02*
X78994Y71155D01*
X84836Y71155D01*
X84836Y69532D02*
X84836Y72778D01*
X84836Y74993D02*
X84511Y74993D01*
X84511Y75318D01*
X84836Y75318D01*
X84836Y74993D01*
X80292Y77533D02*
X78994Y79156D01*
X84836Y79156D01*
X84836Y77533D02*
X84836Y80779D01*
X84709Y193971D02*
X84707Y194041D01*
X84701Y194111D01*
X84692Y194181D01*
X84679Y194250D01*
X84662Y194318D01*
X84641Y194385D01*
X84617Y194451D01*
X84589Y194516D01*
X84558Y194579D01*
X84523Y194640D01*
X84485Y194699D01*
X84444Y194757D01*
X84400Y194811D01*
X84353Y194864D01*
X84304Y194913D01*
X84251Y194960D01*
X84197Y195004D01*
X84139Y195045D01*
X84080Y195083D01*
X84019Y195118D01*
X83956Y195149D01*
X83891Y195177D01*
X83825Y195201D01*
X83758Y195222D01*
X83690Y195239D01*
X83621Y195252D01*
X83551Y195261D01*
X83481Y195267D01*
X83411Y195269D01*
X84709Y193971D02*
X84707Y193868D01*
X84701Y193765D01*
X84692Y193662D01*
X84678Y193560D01*
X84661Y193459D01*
X84640Y193358D01*
X84615Y193258D01*
X84586Y193159D01*
X84554Y193061D01*
X84517Y192964D01*
X84478Y192869D01*
X84435Y192775D01*
X84388Y192683D01*
X84338Y192593D01*
X84284Y192505D01*
X84228Y192419D01*
X84168Y192335D01*
X84105Y192254D01*
X84039Y192175D01*
X83970Y192098D01*
X83898Y192024D01*
X80165Y192187D02*
X80095Y192189D01*
X80025Y192195D01*
X79955Y192204D01*
X79886Y192217D01*
X79818Y192234D01*
X79751Y192255D01*
X79685Y192279D01*
X79620Y192307D01*
X79557Y192338D01*
X79496Y192373D01*
X79437Y192411D01*
X79379Y192452D01*
X79325Y192496D01*
X79272Y192543D01*
X79223Y192592D01*
X79176Y192645D01*
X79132Y192699D01*
X79091Y192757D01*
X79053Y192816D01*
X79018Y192877D01*
X78987Y192940D01*
X78959Y193005D01*
X78935Y193071D01*
X78914Y193138D01*
X78897Y193206D01*
X78884Y193275D01*
X78875Y193345D01*
X78869Y193415D01*
X78867Y193485D01*
X78869Y193583D01*
X78875Y193681D01*
X78885Y193778D01*
X78898Y193875D01*
X78916Y193971D01*
X78938Y194067D01*
X78963Y194161D01*
X78992Y194255D01*
X79025Y194347D01*
X79061Y194438D01*
X79101Y194527D01*
X79145Y194615D01*
X79192Y194700D01*
X79243Y194784D01*
X79297Y194866D01*
X79354Y194945D01*
X81301Y192836D02*
X81264Y192778D01*
X81225Y192722D01*
X81183Y192668D01*
X81138Y192616D01*
X81091Y192567D01*
X81041Y192520D01*
X80989Y192476D01*
X80934Y192435D01*
X80877Y192396D01*
X80819Y192361D01*
X80759Y192328D01*
X80697Y192299D01*
X80634Y192273D01*
X80569Y192250D01*
X80503Y192231D01*
X80437Y192215D01*
X80369Y192203D01*
X80302Y192194D01*
X80233Y192189D01*
X80165Y192187D01*
X82275Y194621D02*
X82311Y194679D01*
X82350Y194735D01*
X82392Y194789D01*
X82437Y194841D01*
X82485Y194890D01*
X82535Y194937D01*
X82587Y194981D01*
X82641Y195022D01*
X82698Y195061D01*
X82757Y195096D01*
X82817Y195129D01*
X82879Y195158D01*
X82942Y195184D01*
X83007Y195207D01*
X83072Y195226D01*
X83139Y195242D01*
X83206Y195254D01*
X83274Y195263D01*
X83343Y195268D01*
X83411Y195270D01*
X82275Y194620D02*
X81301Y192835D01*
X80165Y197548D02*
X78867Y199171D01*
X84709Y199171D01*
X84709Y197548D02*
X84709Y200794D01*
X84709Y203009D02*
X84384Y203009D01*
X84384Y203334D01*
X84709Y203334D01*
X84709Y203009D01*
X81463Y205549D02*
X81463Y207497D01*
X81464Y207497D02*
X81466Y207567D01*
X81472Y207637D01*
X81481Y207707D01*
X81494Y207776D01*
X81511Y207844D01*
X81532Y207911D01*
X81556Y207977D01*
X81584Y208042D01*
X81615Y208105D01*
X81650Y208166D01*
X81688Y208225D01*
X81729Y208283D01*
X81773Y208337D01*
X81820Y208390D01*
X81869Y208439D01*
X81922Y208486D01*
X81976Y208530D01*
X82034Y208571D01*
X82093Y208609D01*
X82154Y208644D01*
X82217Y208675D01*
X82282Y208703D01*
X82348Y208727D01*
X82415Y208748D01*
X82483Y208765D01*
X82552Y208778D01*
X82622Y208787D01*
X82692Y208793D01*
X82762Y208795D01*
X83086Y208795D01*
X83166Y208793D01*
X83245Y208787D01*
X83324Y208777D01*
X83403Y208764D01*
X83480Y208746D01*
X83557Y208725D01*
X83633Y208700D01*
X83707Y208671D01*
X83780Y208639D01*
X83851Y208603D01*
X83920Y208564D01*
X83988Y208521D01*
X84053Y208476D01*
X84116Y208427D01*
X84176Y208375D01*
X84234Y208320D01*
X84289Y208262D01*
X84341Y208202D01*
X84390Y208139D01*
X84435Y208074D01*
X84478Y208006D01*
X84517Y207937D01*
X84553Y207866D01*
X84585Y207793D01*
X84614Y207719D01*
X84639Y207643D01*
X84660Y207566D01*
X84678Y207489D01*
X84691Y207410D01*
X84701Y207331D01*
X84707Y207252D01*
X84709Y207172D01*
X84707Y207092D01*
X84701Y207013D01*
X84691Y206934D01*
X84678Y206855D01*
X84660Y206778D01*
X84639Y206701D01*
X84614Y206625D01*
X84585Y206551D01*
X84553Y206478D01*
X84517Y206407D01*
X84478Y206338D01*
X84435Y206270D01*
X84390Y206205D01*
X84341Y206142D01*
X84289Y206082D01*
X84234Y206024D01*
X84176Y205969D01*
X84116Y205917D01*
X84053Y205868D01*
X83988Y205823D01*
X83920Y205780D01*
X83851Y205741D01*
X83780Y205705D01*
X83707Y205673D01*
X83633Y205644D01*
X83557Y205619D01*
X83480Y205598D01*
X83403Y205580D01*
X83324Y205567D01*
X83245Y205557D01*
X83166Y205551D01*
X83086Y205549D01*
X81463Y205549D01*
X81364Y205551D01*
X81264Y205557D01*
X81165Y205566D01*
X81067Y205579D01*
X80969Y205597D01*
X80871Y205617D01*
X80775Y205642D01*
X80679Y205670D01*
X80585Y205702D01*
X80492Y205737D01*
X80401Y205776D01*
X80311Y205819D01*
X80222Y205864D01*
X80136Y205914D01*
X80051Y205966D01*
X79969Y206022D01*
X79889Y206081D01*
X79811Y206142D01*
X79735Y206207D01*
X79662Y206275D01*
X79592Y206345D01*
X79524Y206418D01*
X79459Y206494D01*
X79398Y206572D01*
X79339Y206652D01*
X79283Y206734D01*
X79231Y206819D01*
X79182Y206905D01*
X79136Y206994D01*
X79093Y207084D01*
X79054Y207175D01*
X79019Y207268D01*
X78987Y207362D01*
X78959Y207458D01*
X78934Y207554D01*
X78914Y207652D01*
X78896Y207750D01*
X78883Y207848D01*
X78874Y207947D01*
X78868Y208046D01*
X78866Y208146D01*
X97451Y241554D02*
X97521Y241556D01*
X97591Y241562D01*
X97661Y241571D01*
X97730Y241584D01*
X97798Y241601D01*
X97865Y241622D01*
X97931Y241646D01*
X97996Y241674D01*
X98059Y241705D01*
X98120Y241740D01*
X98179Y241778D01*
X98237Y241819D01*
X98291Y241863D01*
X98344Y241910D01*
X98393Y241959D01*
X98440Y242012D01*
X98484Y242066D01*
X98525Y242124D01*
X98563Y242183D01*
X98598Y242244D01*
X98629Y242307D01*
X98657Y242372D01*
X98681Y242438D01*
X98702Y242505D01*
X98719Y242573D01*
X98732Y242642D01*
X98741Y242712D01*
X98747Y242782D01*
X98749Y242852D01*
X97451Y241554D02*
X97348Y241556D01*
X97245Y241562D01*
X97142Y241571D01*
X97040Y241585D01*
X96939Y241602D01*
X96838Y241623D01*
X96738Y241648D01*
X96639Y241677D01*
X96541Y241709D01*
X96444Y241746D01*
X96349Y241785D01*
X96255Y241828D01*
X96163Y241875D01*
X96073Y241925D01*
X95985Y241979D01*
X95899Y242035D01*
X95815Y242095D01*
X95734Y242158D01*
X95655Y242224D01*
X95578Y242293D01*
X95504Y242365D01*
X95667Y246098D02*
X95669Y246168D01*
X95675Y246238D01*
X95684Y246308D01*
X95697Y246377D01*
X95714Y246445D01*
X95735Y246512D01*
X95759Y246578D01*
X95787Y246643D01*
X95818Y246706D01*
X95853Y246767D01*
X95891Y246826D01*
X95932Y246884D01*
X95976Y246938D01*
X96023Y246991D01*
X96072Y247040D01*
X96125Y247087D01*
X96179Y247131D01*
X96237Y247172D01*
X96296Y247210D01*
X96357Y247245D01*
X96420Y247276D01*
X96485Y247304D01*
X96551Y247328D01*
X96618Y247349D01*
X96686Y247366D01*
X96755Y247379D01*
X96825Y247388D01*
X96895Y247394D01*
X96965Y247396D01*
X97063Y247394D01*
X97161Y247388D01*
X97258Y247378D01*
X97355Y247365D01*
X97451Y247347D01*
X97547Y247325D01*
X97641Y247300D01*
X97735Y247271D01*
X97827Y247238D01*
X97918Y247202D01*
X98007Y247162D01*
X98095Y247118D01*
X98180Y247071D01*
X98264Y247020D01*
X98346Y246966D01*
X98425Y246909D01*
X96316Y244962D02*
X96258Y244999D01*
X96202Y245038D01*
X96148Y245080D01*
X96096Y245125D01*
X96047Y245172D01*
X96000Y245222D01*
X95956Y245274D01*
X95915Y245329D01*
X95876Y245386D01*
X95841Y245444D01*
X95808Y245504D01*
X95779Y245566D01*
X95753Y245629D01*
X95730Y245694D01*
X95711Y245760D01*
X95695Y245826D01*
X95683Y245894D01*
X95674Y245961D01*
X95669Y246030D01*
X95667Y246098D01*
X98101Y243988D02*
X98159Y243952D01*
X98215Y243913D01*
X98269Y243871D01*
X98321Y243826D01*
X98370Y243778D01*
X98417Y243728D01*
X98461Y243676D01*
X98502Y243622D01*
X98541Y243565D01*
X98576Y243506D01*
X98609Y243446D01*
X98638Y243384D01*
X98664Y243321D01*
X98687Y243256D01*
X98706Y243191D01*
X98722Y243124D01*
X98734Y243057D01*
X98743Y242989D01*
X98748Y242920D01*
X98750Y242852D01*
X98100Y243988D02*
X96315Y244962D01*
X102814Y247397D02*
X102888Y247395D01*
X102962Y247390D01*
X103035Y247380D01*
X103108Y247367D01*
X103180Y247350D01*
X103251Y247330D01*
X103321Y247306D01*
X103390Y247279D01*
X103457Y247248D01*
X103523Y247213D01*
X103587Y247176D01*
X103649Y247135D01*
X103708Y247091D01*
X103766Y247045D01*
X103821Y246995D01*
X103873Y246943D01*
X103923Y246888D01*
X103969Y246830D01*
X104013Y246771D01*
X104054Y246709D01*
X104091Y246645D01*
X104126Y246579D01*
X104157Y246512D01*
X104184Y246443D01*
X104208Y246373D01*
X104228Y246302D01*
X104245Y246230D01*
X104258Y246157D01*
X104268Y246084D01*
X104273Y246010D01*
X104275Y245936D01*
X102814Y247396D02*
X102730Y247394D01*
X102646Y247388D01*
X102562Y247379D01*
X102479Y247366D01*
X102396Y247349D01*
X102315Y247328D01*
X102234Y247304D01*
X102154Y247276D01*
X102076Y247245D01*
X101999Y247210D01*
X101924Y247172D01*
X101851Y247130D01*
X101780Y247085D01*
X101711Y247037D01*
X101644Y246986D01*
X101579Y246932D01*
X101517Y246875D01*
X101457Y246816D01*
X101400Y246753D01*
X101346Y246689D01*
X101295Y246622D01*
X101248Y246552D01*
X101203Y246481D01*
X101161Y246408D01*
X101123Y246332D01*
X101088Y246256D01*
X101057Y246178D01*
X101029Y246098D01*
X103787Y244800D02*
X103840Y244853D01*
X103890Y244908D01*
X103938Y244966D01*
X103983Y245025D01*
X104025Y245087D01*
X104064Y245151D01*
X104099Y245217D01*
X104132Y245284D01*
X104161Y245352D01*
X104188Y245423D01*
X104210Y245494D01*
X104230Y245566D01*
X104246Y245639D01*
X104258Y245713D01*
X104267Y245787D01*
X104272Y245861D01*
X104274Y245936D01*
X103787Y244800D02*
X101028Y241554D01*
X104274Y241554D01*
X106489Y241554D02*
X106489Y241879D01*
X106814Y241879D01*
X106814Y241554D01*
X106489Y241554D01*
X109029Y246098D02*
X110652Y247396D01*
X110652Y241554D01*
X109029Y241554D02*
X112275Y241554D01*
X224451Y241554D02*
X224521Y241556D01*
X224591Y241562D01*
X224661Y241571D01*
X224730Y241584D01*
X224798Y241601D01*
X224865Y241622D01*
X224931Y241646D01*
X224996Y241674D01*
X225059Y241705D01*
X225120Y241740D01*
X225179Y241778D01*
X225237Y241819D01*
X225291Y241863D01*
X225344Y241910D01*
X225393Y241959D01*
X225440Y242012D01*
X225484Y242066D01*
X225525Y242124D01*
X225563Y242183D01*
X225598Y242244D01*
X225629Y242307D01*
X225657Y242372D01*
X225681Y242438D01*
X225702Y242505D01*
X225719Y242573D01*
X225732Y242642D01*
X225741Y242712D01*
X225747Y242782D01*
X225749Y242852D01*
X224451Y241554D02*
X224348Y241556D01*
X224245Y241562D01*
X224142Y241571D01*
X224040Y241585D01*
X223939Y241602D01*
X223838Y241623D01*
X223738Y241648D01*
X223639Y241677D01*
X223541Y241709D01*
X223444Y241746D01*
X223349Y241785D01*
X223255Y241828D01*
X223163Y241875D01*
X223073Y241925D01*
X222985Y241979D01*
X222899Y242035D01*
X222815Y242095D01*
X222734Y242158D01*
X222655Y242224D01*
X222578Y242293D01*
X222504Y242365D01*
X222667Y246098D02*
X222669Y246168D01*
X222675Y246238D01*
X222684Y246308D01*
X222697Y246377D01*
X222714Y246445D01*
X222735Y246512D01*
X222759Y246578D01*
X222787Y246643D01*
X222818Y246706D01*
X222853Y246767D01*
X222891Y246826D01*
X222932Y246884D01*
X222976Y246938D01*
X223023Y246991D01*
X223072Y247040D01*
X223125Y247087D01*
X223179Y247131D01*
X223237Y247172D01*
X223296Y247210D01*
X223357Y247245D01*
X223420Y247276D01*
X223485Y247304D01*
X223551Y247328D01*
X223618Y247349D01*
X223686Y247366D01*
X223755Y247379D01*
X223825Y247388D01*
X223895Y247394D01*
X223965Y247396D01*
X224063Y247394D01*
X224161Y247388D01*
X224258Y247378D01*
X224355Y247365D01*
X224451Y247347D01*
X224547Y247325D01*
X224641Y247300D01*
X224735Y247271D01*
X224827Y247238D01*
X224918Y247202D01*
X225007Y247162D01*
X225095Y247118D01*
X225180Y247071D01*
X225264Y247020D01*
X225346Y246966D01*
X225425Y246909D01*
X223316Y244962D02*
X223258Y244999D01*
X223202Y245038D01*
X223148Y245080D01*
X223096Y245125D01*
X223047Y245172D01*
X223000Y245222D01*
X222956Y245274D01*
X222915Y245329D01*
X222876Y245386D01*
X222841Y245444D01*
X222808Y245504D01*
X222779Y245566D01*
X222753Y245629D01*
X222730Y245694D01*
X222711Y245760D01*
X222695Y245826D01*
X222683Y245894D01*
X222674Y245961D01*
X222669Y246030D01*
X222667Y246098D01*
X225101Y243988D02*
X225159Y243952D01*
X225215Y243913D01*
X225269Y243871D01*
X225321Y243826D01*
X225370Y243778D01*
X225417Y243728D01*
X225461Y243676D01*
X225502Y243622D01*
X225541Y243565D01*
X225576Y243506D01*
X225609Y243446D01*
X225638Y243384D01*
X225664Y243321D01*
X225687Y243256D01*
X225706Y243191D01*
X225722Y243124D01*
X225734Y243057D01*
X225743Y242989D01*
X225748Y242920D01*
X225750Y242852D01*
X225100Y243988D02*
X223315Y244962D01*
X229814Y247397D02*
X229888Y247395D01*
X229962Y247390D01*
X230035Y247380D01*
X230108Y247367D01*
X230180Y247350D01*
X230251Y247330D01*
X230321Y247306D01*
X230390Y247279D01*
X230457Y247248D01*
X230523Y247213D01*
X230587Y247176D01*
X230649Y247135D01*
X230708Y247091D01*
X230766Y247045D01*
X230821Y246995D01*
X230873Y246943D01*
X230923Y246888D01*
X230969Y246830D01*
X231013Y246771D01*
X231054Y246709D01*
X231091Y246645D01*
X231126Y246579D01*
X231157Y246512D01*
X231184Y246443D01*
X231208Y246373D01*
X231228Y246302D01*
X231245Y246230D01*
X231258Y246157D01*
X231268Y246084D01*
X231273Y246010D01*
X231275Y245936D01*
X229814Y247396D02*
X229730Y247394D01*
X229646Y247388D01*
X229562Y247379D01*
X229479Y247366D01*
X229396Y247349D01*
X229315Y247328D01*
X229234Y247304D01*
X229154Y247276D01*
X229076Y247245D01*
X228999Y247210D01*
X228924Y247172D01*
X228851Y247130D01*
X228780Y247085D01*
X228711Y247037D01*
X228644Y246986D01*
X228579Y246932D01*
X228517Y246875D01*
X228457Y246816D01*
X228400Y246753D01*
X228346Y246689D01*
X228295Y246622D01*
X228248Y246552D01*
X228203Y246481D01*
X228161Y246408D01*
X228123Y246332D01*
X228088Y246256D01*
X228057Y246178D01*
X228029Y246098D01*
X230787Y244800D02*
X230840Y244853D01*
X230890Y244908D01*
X230938Y244966D01*
X230983Y245025D01*
X231025Y245087D01*
X231064Y245151D01*
X231099Y245217D01*
X231132Y245284D01*
X231161Y245352D01*
X231188Y245423D01*
X231210Y245494D01*
X231230Y245566D01*
X231246Y245639D01*
X231258Y245713D01*
X231267Y245787D01*
X231272Y245861D01*
X231274Y245936D01*
X230787Y244800D02*
X228028Y241554D01*
X231274Y241554D01*
X233489Y241554D02*
X233489Y241879D01*
X233814Y241879D01*
X233814Y241554D01*
X233489Y241554D01*
X236029Y244800D02*
X237977Y244800D01*
X237977Y244799D02*
X238047Y244797D01*
X238117Y244791D01*
X238187Y244782D01*
X238256Y244769D01*
X238324Y244752D01*
X238391Y244731D01*
X238457Y244707D01*
X238522Y244679D01*
X238585Y244648D01*
X238646Y244613D01*
X238705Y244575D01*
X238763Y244534D01*
X238817Y244490D01*
X238870Y244443D01*
X238919Y244394D01*
X238966Y244341D01*
X239010Y244287D01*
X239051Y244229D01*
X239089Y244170D01*
X239124Y244109D01*
X239155Y244046D01*
X239183Y243981D01*
X239207Y243915D01*
X239228Y243848D01*
X239245Y243780D01*
X239258Y243711D01*
X239267Y243641D01*
X239273Y243571D01*
X239275Y243501D01*
X239275Y243177D01*
X239273Y243097D01*
X239267Y243018D01*
X239257Y242939D01*
X239244Y242860D01*
X239226Y242783D01*
X239205Y242706D01*
X239180Y242630D01*
X239151Y242556D01*
X239119Y242483D01*
X239083Y242412D01*
X239044Y242343D01*
X239001Y242275D01*
X238956Y242210D01*
X238907Y242147D01*
X238855Y242087D01*
X238800Y242029D01*
X238742Y241974D01*
X238682Y241922D01*
X238619Y241873D01*
X238554Y241828D01*
X238486Y241785D01*
X238417Y241746D01*
X238346Y241710D01*
X238273Y241678D01*
X238199Y241649D01*
X238123Y241624D01*
X238046Y241603D01*
X237969Y241585D01*
X237890Y241572D01*
X237811Y241562D01*
X237732Y241556D01*
X237652Y241554D01*
X237572Y241556D01*
X237493Y241562D01*
X237414Y241572D01*
X237335Y241585D01*
X237258Y241603D01*
X237181Y241624D01*
X237105Y241649D01*
X237031Y241678D01*
X236958Y241710D01*
X236887Y241746D01*
X236818Y241785D01*
X236750Y241828D01*
X236685Y241873D01*
X236622Y241922D01*
X236562Y241974D01*
X236504Y242029D01*
X236449Y242087D01*
X236397Y242147D01*
X236348Y242210D01*
X236303Y242275D01*
X236260Y242343D01*
X236221Y242412D01*
X236185Y242483D01*
X236153Y242556D01*
X236124Y242630D01*
X236099Y242706D01*
X236078Y242783D01*
X236060Y242860D01*
X236047Y242939D01*
X236037Y243018D01*
X236031Y243097D01*
X236029Y243177D01*
X236029Y244800D01*
X236030Y244800D02*
X236032Y244899D01*
X236038Y244999D01*
X236047Y245098D01*
X236060Y245196D01*
X236077Y245294D01*
X236098Y245392D01*
X236123Y245488D01*
X236151Y245583D01*
X236183Y245677D01*
X236218Y245770D01*
X236257Y245862D01*
X236300Y245952D01*
X236345Y246040D01*
X236395Y246127D01*
X236447Y246211D01*
X236503Y246294D01*
X236561Y246374D01*
X236623Y246452D01*
X236688Y246527D01*
X236756Y246600D01*
X236826Y246670D01*
X236899Y246738D01*
X236974Y246803D01*
X237052Y246865D01*
X237132Y246923D01*
X237215Y246979D01*
X237299Y247031D01*
X237386Y247081D01*
X237474Y247126D01*
X237564Y247169D01*
X237656Y247208D01*
X237748Y247243D01*
X237843Y247275D01*
X237938Y247303D01*
X238034Y247328D01*
X238132Y247349D01*
X238230Y247366D01*
X238328Y247379D01*
X238427Y247388D01*
X238527Y247394D01*
X238626Y247396D01*
X274673Y220542D02*
X274743Y220540D01*
X274813Y220534D01*
X274883Y220525D01*
X274952Y220512D01*
X275020Y220495D01*
X275087Y220474D01*
X275153Y220450D01*
X275218Y220422D01*
X275281Y220391D01*
X275342Y220356D01*
X275401Y220318D01*
X275459Y220277D01*
X275513Y220233D01*
X275566Y220186D01*
X275615Y220137D01*
X275662Y220084D01*
X275706Y220030D01*
X275747Y219972D01*
X275785Y219913D01*
X275820Y219852D01*
X275851Y219789D01*
X275879Y219724D01*
X275903Y219658D01*
X275924Y219591D01*
X275941Y219523D01*
X275954Y219454D01*
X275963Y219384D01*
X275969Y219314D01*
X275971Y219244D01*
X275969Y219141D01*
X275963Y219038D01*
X275954Y218935D01*
X275940Y218833D01*
X275923Y218732D01*
X275902Y218631D01*
X275877Y218531D01*
X275848Y218432D01*
X275816Y218334D01*
X275779Y218237D01*
X275740Y218142D01*
X275697Y218048D01*
X275650Y217956D01*
X275600Y217866D01*
X275546Y217778D01*
X275490Y217692D01*
X275430Y217608D01*
X275367Y217527D01*
X275301Y217448D01*
X275232Y217371D01*
X275160Y217297D01*
X271427Y217460D02*
X271357Y217462D01*
X271287Y217468D01*
X271217Y217477D01*
X271148Y217490D01*
X271080Y217507D01*
X271013Y217528D01*
X270947Y217552D01*
X270882Y217580D01*
X270819Y217611D01*
X270758Y217646D01*
X270699Y217684D01*
X270641Y217725D01*
X270587Y217769D01*
X270534Y217816D01*
X270485Y217865D01*
X270438Y217918D01*
X270394Y217972D01*
X270353Y218030D01*
X270315Y218089D01*
X270280Y218150D01*
X270249Y218213D01*
X270221Y218278D01*
X270197Y218344D01*
X270176Y218411D01*
X270159Y218479D01*
X270146Y218548D01*
X270137Y218618D01*
X270131Y218688D01*
X270129Y218758D01*
X270131Y218856D01*
X270137Y218954D01*
X270147Y219051D01*
X270160Y219148D01*
X270178Y219244D01*
X270200Y219340D01*
X270225Y219434D01*
X270254Y219528D01*
X270287Y219620D01*
X270323Y219711D01*
X270363Y219800D01*
X270407Y219888D01*
X270454Y219973D01*
X270505Y220057D01*
X270559Y220139D01*
X270616Y220218D01*
X272563Y218109D02*
X272526Y218051D01*
X272487Y217995D01*
X272445Y217941D01*
X272400Y217889D01*
X272353Y217840D01*
X272303Y217793D01*
X272251Y217749D01*
X272196Y217708D01*
X272139Y217669D01*
X272081Y217634D01*
X272021Y217601D01*
X271959Y217572D01*
X271896Y217546D01*
X271831Y217523D01*
X271765Y217504D01*
X271699Y217488D01*
X271631Y217476D01*
X271564Y217467D01*
X271495Y217462D01*
X271427Y217460D01*
X273537Y219894D02*
X273573Y219952D01*
X273612Y220008D01*
X273654Y220062D01*
X273699Y220114D01*
X273747Y220163D01*
X273797Y220210D01*
X273849Y220254D01*
X273903Y220295D01*
X273960Y220334D01*
X274019Y220369D01*
X274079Y220402D01*
X274141Y220431D01*
X274204Y220457D01*
X274269Y220480D01*
X274334Y220499D01*
X274401Y220515D01*
X274468Y220527D01*
X274536Y220536D01*
X274605Y220541D01*
X274673Y220543D01*
X273537Y219893D02*
X272563Y218108D01*
X275971Y222821D02*
X275971Y224444D01*
X275969Y224524D01*
X275963Y224603D01*
X275953Y224682D01*
X275940Y224761D01*
X275922Y224838D01*
X275901Y224915D01*
X275876Y224991D01*
X275847Y225065D01*
X275815Y225138D01*
X275779Y225209D01*
X275740Y225278D01*
X275697Y225346D01*
X275652Y225411D01*
X275603Y225474D01*
X275551Y225534D01*
X275496Y225592D01*
X275438Y225647D01*
X275378Y225699D01*
X275315Y225748D01*
X275250Y225793D01*
X275182Y225836D01*
X275113Y225875D01*
X275042Y225911D01*
X274969Y225943D01*
X274895Y225972D01*
X274819Y225997D01*
X274742Y226018D01*
X274665Y226036D01*
X274586Y226049D01*
X274507Y226059D01*
X274428Y226065D01*
X274348Y226067D01*
X274268Y226065D01*
X274189Y226059D01*
X274110Y226049D01*
X274031Y226036D01*
X273954Y226018D01*
X273877Y225997D01*
X273801Y225972D01*
X273727Y225943D01*
X273654Y225911D01*
X273583Y225875D01*
X273514Y225836D01*
X273446Y225793D01*
X273381Y225748D01*
X273318Y225699D01*
X273258Y225647D01*
X273200Y225592D01*
X273145Y225534D01*
X273093Y225474D01*
X273044Y225411D01*
X272999Y225346D01*
X272956Y225278D01*
X272917Y225209D01*
X272881Y225138D01*
X272849Y225065D01*
X272820Y224991D01*
X272795Y224915D01*
X272774Y224838D01*
X272756Y224761D01*
X272743Y224682D01*
X272733Y224603D01*
X272727Y224524D01*
X272725Y224444D01*
X270129Y224769D02*
X270129Y222821D01*
X270129Y224769D02*
X270131Y224839D01*
X270137Y224909D01*
X270146Y224979D01*
X270159Y225048D01*
X270176Y225116D01*
X270197Y225183D01*
X270221Y225249D01*
X270249Y225314D01*
X270280Y225377D01*
X270315Y225438D01*
X270353Y225497D01*
X270394Y225555D01*
X270438Y225609D01*
X270485Y225662D01*
X270534Y225711D01*
X270587Y225758D01*
X270641Y225802D01*
X270699Y225843D01*
X270758Y225881D01*
X270819Y225916D01*
X270882Y225947D01*
X270947Y225975D01*
X271013Y225999D01*
X271080Y226020D01*
X271148Y226037D01*
X271217Y226050D01*
X271287Y226059D01*
X271357Y226065D01*
X271427Y226067D01*
X271497Y226065D01*
X271567Y226059D01*
X271637Y226050D01*
X271706Y226037D01*
X271774Y226020D01*
X271841Y225999D01*
X271907Y225975D01*
X271972Y225947D01*
X272035Y225916D01*
X272096Y225881D01*
X272155Y225843D01*
X272213Y225802D01*
X272267Y225758D01*
X272320Y225711D01*
X272369Y225662D01*
X272416Y225609D01*
X272460Y225555D01*
X272501Y225497D01*
X272539Y225438D01*
X272574Y225377D01*
X272605Y225314D01*
X272633Y225249D01*
X272657Y225183D01*
X272678Y225116D01*
X272695Y225048D01*
X272708Y224979D01*
X272717Y224909D01*
X272723Y224839D01*
X272725Y224769D01*
X272725Y223471D01*
X275646Y228282D02*
X275971Y228282D01*
X275646Y228282D02*
X275646Y228607D01*
X275971Y228607D01*
X275971Y228282D01*
X271427Y230822D02*
X270129Y232445D01*
X275971Y232445D01*
X275971Y230822D02*
X275971Y234068D01*
X274292Y93415D02*
X274362Y93413D01*
X274432Y93407D01*
X274502Y93398D01*
X274571Y93385D01*
X274639Y93368D01*
X274706Y93347D01*
X274772Y93323D01*
X274837Y93295D01*
X274900Y93264D01*
X274961Y93229D01*
X275020Y93191D01*
X275078Y93150D01*
X275132Y93106D01*
X275185Y93059D01*
X275234Y93010D01*
X275281Y92957D01*
X275325Y92903D01*
X275366Y92845D01*
X275404Y92786D01*
X275439Y92725D01*
X275470Y92662D01*
X275498Y92597D01*
X275522Y92531D01*
X275543Y92464D01*
X275560Y92396D01*
X275573Y92327D01*
X275582Y92257D01*
X275588Y92187D01*
X275590Y92117D01*
X275588Y92014D01*
X275582Y91911D01*
X275573Y91808D01*
X275559Y91706D01*
X275542Y91605D01*
X275521Y91504D01*
X275496Y91404D01*
X275467Y91305D01*
X275435Y91207D01*
X275398Y91110D01*
X275359Y91015D01*
X275316Y90921D01*
X275269Y90829D01*
X275219Y90739D01*
X275165Y90651D01*
X275109Y90565D01*
X275049Y90481D01*
X274986Y90400D01*
X274920Y90321D01*
X274851Y90244D01*
X274779Y90170D01*
X271046Y90333D02*
X270976Y90335D01*
X270906Y90341D01*
X270836Y90350D01*
X270767Y90363D01*
X270699Y90380D01*
X270632Y90401D01*
X270566Y90425D01*
X270501Y90453D01*
X270438Y90484D01*
X270377Y90519D01*
X270318Y90557D01*
X270260Y90598D01*
X270206Y90642D01*
X270153Y90689D01*
X270104Y90738D01*
X270057Y90791D01*
X270013Y90845D01*
X269972Y90903D01*
X269934Y90962D01*
X269899Y91023D01*
X269868Y91086D01*
X269840Y91151D01*
X269816Y91217D01*
X269795Y91284D01*
X269778Y91352D01*
X269765Y91421D01*
X269756Y91491D01*
X269750Y91561D01*
X269748Y91631D01*
X269750Y91729D01*
X269756Y91827D01*
X269766Y91924D01*
X269779Y92021D01*
X269797Y92117D01*
X269819Y92213D01*
X269844Y92307D01*
X269873Y92401D01*
X269906Y92493D01*
X269942Y92584D01*
X269982Y92673D01*
X270026Y92761D01*
X270073Y92846D01*
X270124Y92930D01*
X270178Y93012D01*
X270235Y93091D01*
X272182Y90982D02*
X272145Y90924D01*
X272106Y90868D01*
X272064Y90814D01*
X272019Y90762D01*
X271972Y90713D01*
X271922Y90666D01*
X271870Y90622D01*
X271815Y90581D01*
X271758Y90542D01*
X271700Y90507D01*
X271640Y90474D01*
X271578Y90445D01*
X271515Y90419D01*
X271450Y90396D01*
X271384Y90377D01*
X271318Y90361D01*
X271250Y90349D01*
X271183Y90340D01*
X271114Y90335D01*
X271046Y90333D01*
X273156Y92767D02*
X273192Y92825D01*
X273231Y92881D01*
X273273Y92935D01*
X273318Y92987D01*
X273366Y93036D01*
X273416Y93083D01*
X273468Y93127D01*
X273522Y93168D01*
X273579Y93207D01*
X273638Y93242D01*
X273698Y93275D01*
X273760Y93304D01*
X273823Y93330D01*
X273888Y93353D01*
X273953Y93372D01*
X274020Y93388D01*
X274087Y93400D01*
X274155Y93409D01*
X274224Y93414D01*
X274292Y93416D01*
X273156Y92766D02*
X272182Y90981D01*
X275590Y95694D02*
X275590Y97317D01*
X275588Y97397D01*
X275582Y97476D01*
X275572Y97555D01*
X275559Y97634D01*
X275541Y97711D01*
X275520Y97788D01*
X275495Y97864D01*
X275466Y97938D01*
X275434Y98011D01*
X275398Y98082D01*
X275359Y98151D01*
X275316Y98219D01*
X275271Y98284D01*
X275222Y98347D01*
X275170Y98407D01*
X275115Y98465D01*
X275057Y98520D01*
X274997Y98572D01*
X274934Y98621D01*
X274869Y98666D01*
X274801Y98709D01*
X274732Y98748D01*
X274661Y98784D01*
X274588Y98816D01*
X274514Y98845D01*
X274438Y98870D01*
X274361Y98891D01*
X274284Y98909D01*
X274205Y98922D01*
X274126Y98932D01*
X274047Y98938D01*
X273967Y98940D01*
X273887Y98938D01*
X273808Y98932D01*
X273729Y98922D01*
X273650Y98909D01*
X273573Y98891D01*
X273496Y98870D01*
X273420Y98845D01*
X273346Y98816D01*
X273273Y98784D01*
X273202Y98748D01*
X273133Y98709D01*
X273065Y98666D01*
X273000Y98621D01*
X272937Y98572D01*
X272877Y98520D01*
X272819Y98465D01*
X272764Y98407D01*
X272712Y98347D01*
X272663Y98284D01*
X272618Y98219D01*
X272575Y98151D01*
X272536Y98082D01*
X272500Y98011D01*
X272468Y97938D01*
X272439Y97864D01*
X272414Y97788D01*
X272393Y97711D01*
X272375Y97634D01*
X272362Y97555D01*
X272352Y97476D01*
X272346Y97397D01*
X272344Y97317D01*
X269748Y97642D02*
X269748Y95694D01*
X269748Y97642D02*
X269750Y97712D01*
X269756Y97782D01*
X269765Y97852D01*
X269778Y97921D01*
X269795Y97989D01*
X269816Y98056D01*
X269840Y98122D01*
X269868Y98187D01*
X269899Y98250D01*
X269934Y98311D01*
X269972Y98370D01*
X270013Y98428D01*
X270057Y98482D01*
X270104Y98535D01*
X270153Y98584D01*
X270206Y98631D01*
X270260Y98675D01*
X270318Y98716D01*
X270377Y98754D01*
X270438Y98789D01*
X270501Y98820D01*
X270566Y98848D01*
X270632Y98872D01*
X270699Y98893D01*
X270767Y98910D01*
X270836Y98923D01*
X270906Y98932D01*
X270976Y98938D01*
X271046Y98940D01*
X271116Y98938D01*
X271186Y98932D01*
X271256Y98923D01*
X271325Y98910D01*
X271393Y98893D01*
X271460Y98872D01*
X271526Y98848D01*
X271591Y98820D01*
X271654Y98789D01*
X271715Y98754D01*
X271774Y98716D01*
X271832Y98675D01*
X271886Y98631D01*
X271939Y98584D01*
X271988Y98535D01*
X272035Y98482D01*
X272079Y98428D01*
X272120Y98370D01*
X272158Y98311D01*
X272193Y98250D01*
X272224Y98187D01*
X272252Y98122D01*
X272276Y98056D01*
X272297Y97989D01*
X272314Y97921D01*
X272327Y97852D01*
X272336Y97782D01*
X272342Y97712D01*
X272344Y97642D01*
X272344Y96344D01*
X275265Y101155D02*
X275590Y101155D01*
X275265Y101155D02*
X275265Y101480D01*
X275590Y101480D01*
X275590Y101155D01*
X272344Y103695D02*
X272344Y105643D01*
X272345Y105643D02*
X272347Y105713D01*
X272353Y105783D01*
X272362Y105853D01*
X272375Y105922D01*
X272392Y105990D01*
X272413Y106057D01*
X272437Y106123D01*
X272465Y106188D01*
X272496Y106251D01*
X272531Y106312D01*
X272569Y106371D01*
X272610Y106429D01*
X272654Y106483D01*
X272701Y106536D01*
X272750Y106585D01*
X272803Y106632D01*
X272857Y106676D01*
X272915Y106717D01*
X272974Y106755D01*
X273035Y106790D01*
X273098Y106821D01*
X273163Y106849D01*
X273229Y106873D01*
X273296Y106894D01*
X273364Y106911D01*
X273433Y106924D01*
X273503Y106933D01*
X273573Y106939D01*
X273643Y106941D01*
X273967Y106941D01*
X274047Y106939D01*
X274126Y106933D01*
X274205Y106923D01*
X274284Y106910D01*
X274361Y106892D01*
X274438Y106871D01*
X274514Y106846D01*
X274588Y106817D01*
X274661Y106785D01*
X274732Y106749D01*
X274801Y106710D01*
X274869Y106667D01*
X274934Y106622D01*
X274997Y106573D01*
X275057Y106521D01*
X275115Y106466D01*
X275170Y106408D01*
X275222Y106348D01*
X275271Y106285D01*
X275316Y106220D01*
X275359Y106152D01*
X275398Y106083D01*
X275434Y106012D01*
X275466Y105939D01*
X275495Y105865D01*
X275520Y105789D01*
X275541Y105712D01*
X275559Y105635D01*
X275572Y105556D01*
X275582Y105477D01*
X275588Y105398D01*
X275590Y105318D01*
X275588Y105238D01*
X275582Y105159D01*
X275572Y105080D01*
X275559Y105001D01*
X275541Y104924D01*
X275520Y104847D01*
X275495Y104771D01*
X275466Y104697D01*
X275434Y104624D01*
X275398Y104553D01*
X275359Y104484D01*
X275316Y104416D01*
X275271Y104351D01*
X275222Y104288D01*
X275170Y104228D01*
X275115Y104170D01*
X275057Y104115D01*
X274997Y104063D01*
X274934Y104014D01*
X274869Y103969D01*
X274801Y103926D01*
X274732Y103887D01*
X274661Y103851D01*
X274588Y103819D01*
X274514Y103790D01*
X274438Y103765D01*
X274361Y103744D01*
X274284Y103726D01*
X274205Y103713D01*
X274126Y103703D01*
X274047Y103697D01*
X273967Y103695D01*
X272344Y103695D01*
X272245Y103697D01*
X272145Y103703D01*
X272046Y103712D01*
X271948Y103725D01*
X271850Y103743D01*
X271752Y103763D01*
X271656Y103788D01*
X271560Y103816D01*
X271466Y103848D01*
X271373Y103883D01*
X271282Y103922D01*
X271192Y103965D01*
X271103Y104010D01*
X271017Y104060D01*
X270932Y104112D01*
X270850Y104168D01*
X270770Y104227D01*
X270692Y104288D01*
X270616Y104353D01*
X270543Y104421D01*
X270473Y104491D01*
X270405Y104564D01*
X270340Y104640D01*
X270279Y104718D01*
X270220Y104798D01*
X270164Y104880D01*
X270112Y104965D01*
X270063Y105051D01*
X270017Y105140D01*
X269974Y105230D01*
X269935Y105321D01*
X269900Y105414D01*
X269868Y105508D01*
X269840Y105604D01*
X269815Y105700D01*
X269795Y105798D01*
X269777Y105896D01*
X269764Y105994D01*
X269755Y106093D01*
X269749Y106192D01*
X269747Y106292D01*
X251149Y52352D02*
X251147Y52282D01*
X251141Y52212D01*
X251132Y52142D01*
X251119Y52073D01*
X251102Y52005D01*
X251081Y51938D01*
X251057Y51872D01*
X251029Y51807D01*
X250998Y51744D01*
X250963Y51683D01*
X250925Y51624D01*
X250884Y51566D01*
X250840Y51512D01*
X250793Y51459D01*
X250744Y51410D01*
X250691Y51363D01*
X250637Y51319D01*
X250579Y51278D01*
X250520Y51240D01*
X250459Y51205D01*
X250396Y51174D01*
X250331Y51146D01*
X250265Y51122D01*
X250198Y51101D01*
X250130Y51084D01*
X250061Y51071D01*
X249991Y51062D01*
X249921Y51056D01*
X249851Y51054D01*
X249748Y51056D01*
X249645Y51062D01*
X249542Y51071D01*
X249440Y51085D01*
X249339Y51102D01*
X249238Y51123D01*
X249138Y51148D01*
X249039Y51177D01*
X248941Y51209D01*
X248844Y51246D01*
X248749Y51285D01*
X248655Y51328D01*
X248563Y51375D01*
X248473Y51425D01*
X248385Y51479D01*
X248299Y51535D01*
X248215Y51595D01*
X248134Y51658D01*
X248055Y51724D01*
X247978Y51793D01*
X247904Y51865D01*
X248067Y55598D02*
X248069Y55668D01*
X248075Y55738D01*
X248084Y55808D01*
X248097Y55877D01*
X248114Y55945D01*
X248135Y56012D01*
X248159Y56078D01*
X248187Y56143D01*
X248218Y56206D01*
X248253Y56267D01*
X248291Y56326D01*
X248332Y56384D01*
X248376Y56438D01*
X248423Y56491D01*
X248472Y56540D01*
X248525Y56587D01*
X248579Y56631D01*
X248637Y56672D01*
X248696Y56710D01*
X248757Y56745D01*
X248820Y56776D01*
X248885Y56804D01*
X248951Y56828D01*
X249018Y56849D01*
X249086Y56866D01*
X249155Y56879D01*
X249225Y56888D01*
X249295Y56894D01*
X249365Y56896D01*
X249463Y56894D01*
X249561Y56888D01*
X249658Y56878D01*
X249755Y56865D01*
X249851Y56847D01*
X249947Y56825D01*
X250041Y56800D01*
X250135Y56771D01*
X250227Y56738D01*
X250318Y56702D01*
X250407Y56662D01*
X250495Y56618D01*
X250580Y56571D01*
X250664Y56520D01*
X250746Y56466D01*
X250825Y56409D01*
X248716Y54462D02*
X248658Y54499D01*
X248602Y54538D01*
X248548Y54580D01*
X248496Y54625D01*
X248447Y54672D01*
X248400Y54722D01*
X248356Y54774D01*
X248315Y54829D01*
X248276Y54886D01*
X248241Y54944D01*
X248208Y55004D01*
X248179Y55066D01*
X248153Y55129D01*
X248130Y55194D01*
X248111Y55260D01*
X248095Y55326D01*
X248083Y55394D01*
X248074Y55461D01*
X248069Y55530D01*
X248067Y55598D01*
X250501Y53488D02*
X250559Y53452D01*
X250615Y53413D01*
X250669Y53371D01*
X250721Y53326D01*
X250770Y53278D01*
X250817Y53228D01*
X250861Y53176D01*
X250902Y53122D01*
X250941Y53065D01*
X250976Y53006D01*
X251009Y52946D01*
X251038Y52884D01*
X251064Y52821D01*
X251087Y52756D01*
X251106Y52691D01*
X251122Y52624D01*
X251134Y52557D01*
X251143Y52489D01*
X251148Y52420D01*
X251150Y52352D01*
X250500Y53488D02*
X248715Y54462D01*
X253428Y52352D02*
X254727Y56896D01*
X253428Y52352D02*
X256674Y52352D01*
X255700Y53650D02*
X255700Y51054D01*
X258889Y51054D02*
X258889Y51379D01*
X259214Y51379D01*
X259214Y51054D01*
X258889Y51054D01*
X261429Y55598D02*
X263052Y56896D01*
X263052Y51054D01*
X261429Y51054D02*
X264675Y51054D01*
X121228Y52987D02*
X121226Y52917D01*
X121220Y52847D01*
X121211Y52777D01*
X121198Y52708D01*
X121181Y52640D01*
X121160Y52573D01*
X121136Y52507D01*
X121108Y52442D01*
X121077Y52379D01*
X121042Y52318D01*
X121004Y52259D01*
X120963Y52201D01*
X120919Y52147D01*
X120872Y52094D01*
X120823Y52045D01*
X120770Y51998D01*
X120716Y51954D01*
X120658Y51913D01*
X120599Y51875D01*
X120538Y51840D01*
X120475Y51809D01*
X120410Y51781D01*
X120344Y51757D01*
X120277Y51736D01*
X120209Y51719D01*
X120140Y51706D01*
X120070Y51697D01*
X120000Y51691D01*
X119930Y51689D01*
X119827Y51691D01*
X119724Y51697D01*
X119621Y51706D01*
X119519Y51720D01*
X119418Y51737D01*
X119317Y51758D01*
X119217Y51783D01*
X119118Y51812D01*
X119020Y51844D01*
X118923Y51881D01*
X118828Y51920D01*
X118734Y51963D01*
X118642Y52010D01*
X118552Y52060D01*
X118464Y52114D01*
X118378Y52170D01*
X118294Y52230D01*
X118213Y52293D01*
X118134Y52359D01*
X118057Y52428D01*
X117983Y52500D01*
X118146Y56233D02*
X118148Y56303D01*
X118154Y56373D01*
X118163Y56443D01*
X118176Y56512D01*
X118193Y56580D01*
X118214Y56647D01*
X118238Y56713D01*
X118266Y56778D01*
X118297Y56841D01*
X118332Y56902D01*
X118370Y56961D01*
X118411Y57019D01*
X118455Y57073D01*
X118502Y57126D01*
X118551Y57175D01*
X118604Y57222D01*
X118658Y57266D01*
X118716Y57307D01*
X118775Y57345D01*
X118836Y57380D01*
X118899Y57411D01*
X118964Y57439D01*
X119030Y57463D01*
X119097Y57484D01*
X119165Y57501D01*
X119234Y57514D01*
X119304Y57523D01*
X119374Y57529D01*
X119444Y57531D01*
X119542Y57529D01*
X119640Y57523D01*
X119737Y57513D01*
X119834Y57500D01*
X119930Y57482D01*
X120026Y57460D01*
X120120Y57435D01*
X120214Y57406D01*
X120306Y57373D01*
X120397Y57337D01*
X120486Y57297D01*
X120574Y57253D01*
X120659Y57206D01*
X120743Y57155D01*
X120825Y57101D01*
X120904Y57044D01*
X118795Y55097D02*
X118737Y55134D01*
X118681Y55173D01*
X118627Y55215D01*
X118575Y55260D01*
X118526Y55307D01*
X118479Y55357D01*
X118435Y55409D01*
X118394Y55464D01*
X118355Y55521D01*
X118320Y55579D01*
X118287Y55639D01*
X118258Y55701D01*
X118232Y55764D01*
X118209Y55829D01*
X118190Y55895D01*
X118174Y55961D01*
X118162Y56029D01*
X118153Y56096D01*
X118148Y56165D01*
X118146Y56233D01*
X120580Y54123D02*
X120638Y54087D01*
X120694Y54048D01*
X120748Y54006D01*
X120800Y53961D01*
X120849Y53913D01*
X120896Y53863D01*
X120940Y53811D01*
X120981Y53757D01*
X121020Y53700D01*
X121055Y53641D01*
X121088Y53581D01*
X121117Y53519D01*
X121143Y53456D01*
X121166Y53391D01*
X121185Y53326D01*
X121201Y53259D01*
X121213Y53192D01*
X121222Y53124D01*
X121227Y53055D01*
X121229Y52987D01*
X120579Y54123D02*
X118794Y55097D01*
X123507Y52987D02*
X124806Y57531D01*
X123507Y52987D02*
X126753Y52987D01*
X125779Y54285D02*
X125779Y51689D01*
X128968Y51689D02*
X128968Y52014D01*
X129293Y52014D01*
X129293Y51689D01*
X128968Y51689D01*
X131508Y54935D02*
X133456Y54935D01*
X133456Y54934D02*
X133526Y54932D01*
X133596Y54926D01*
X133666Y54917D01*
X133735Y54904D01*
X133803Y54887D01*
X133870Y54866D01*
X133936Y54842D01*
X134001Y54814D01*
X134064Y54783D01*
X134125Y54748D01*
X134184Y54710D01*
X134242Y54669D01*
X134296Y54625D01*
X134349Y54578D01*
X134398Y54529D01*
X134445Y54476D01*
X134489Y54422D01*
X134530Y54364D01*
X134568Y54305D01*
X134603Y54244D01*
X134634Y54181D01*
X134662Y54116D01*
X134686Y54050D01*
X134707Y53983D01*
X134724Y53915D01*
X134737Y53846D01*
X134746Y53776D01*
X134752Y53706D01*
X134754Y53636D01*
X134754Y53312D01*
X134752Y53232D01*
X134746Y53153D01*
X134736Y53074D01*
X134723Y52995D01*
X134705Y52918D01*
X134684Y52841D01*
X134659Y52765D01*
X134630Y52691D01*
X134598Y52618D01*
X134562Y52547D01*
X134523Y52478D01*
X134480Y52410D01*
X134435Y52345D01*
X134386Y52282D01*
X134334Y52222D01*
X134279Y52164D01*
X134221Y52109D01*
X134161Y52057D01*
X134098Y52008D01*
X134033Y51963D01*
X133965Y51920D01*
X133896Y51881D01*
X133825Y51845D01*
X133752Y51813D01*
X133678Y51784D01*
X133602Y51759D01*
X133525Y51738D01*
X133448Y51720D01*
X133369Y51707D01*
X133290Y51697D01*
X133211Y51691D01*
X133131Y51689D01*
X133051Y51691D01*
X132972Y51697D01*
X132893Y51707D01*
X132814Y51720D01*
X132737Y51738D01*
X132660Y51759D01*
X132584Y51784D01*
X132510Y51813D01*
X132437Y51845D01*
X132366Y51881D01*
X132297Y51920D01*
X132229Y51963D01*
X132164Y52008D01*
X132101Y52057D01*
X132041Y52109D01*
X131983Y52164D01*
X131928Y52222D01*
X131876Y52282D01*
X131827Y52345D01*
X131782Y52410D01*
X131739Y52478D01*
X131700Y52547D01*
X131664Y52618D01*
X131632Y52691D01*
X131603Y52765D01*
X131578Y52841D01*
X131557Y52918D01*
X131539Y52995D01*
X131526Y53074D01*
X131516Y53153D01*
X131510Y53232D01*
X131508Y53312D01*
X131508Y54935D01*
X131509Y54935D02*
X131511Y55034D01*
X131517Y55134D01*
X131526Y55233D01*
X131539Y55331D01*
X131556Y55429D01*
X131577Y55527D01*
X131602Y55623D01*
X131630Y55718D01*
X131662Y55812D01*
X131697Y55905D01*
X131736Y55997D01*
X131779Y56087D01*
X131824Y56175D01*
X131874Y56262D01*
X131926Y56346D01*
X131982Y56429D01*
X132040Y56509D01*
X132102Y56587D01*
X132167Y56662D01*
X132235Y56735D01*
X132305Y56805D01*
X132378Y56873D01*
X132453Y56938D01*
X132531Y57000D01*
X132611Y57058D01*
X132694Y57114D01*
X132778Y57166D01*
X132865Y57216D01*
X132953Y57261D01*
X133043Y57304D01*
X133135Y57343D01*
X133227Y57378D01*
X133322Y57410D01*
X133417Y57438D01*
X133513Y57463D01*
X133611Y57484D01*
X133709Y57501D01*
X133807Y57514D01*
X133906Y57523D01*
X134006Y57529D01*
X134105Y57531D01*
X24299Y226060D02*
X24369Y226062D01*
X24439Y226068D01*
X24509Y226077D01*
X24578Y226090D01*
X24646Y226107D01*
X24713Y226128D01*
X24779Y226152D01*
X24844Y226180D01*
X24907Y226211D01*
X24968Y226246D01*
X25027Y226284D01*
X25085Y226325D01*
X25139Y226369D01*
X25192Y226416D01*
X25241Y226465D01*
X25288Y226518D01*
X25332Y226572D01*
X25373Y226630D01*
X25411Y226689D01*
X25446Y226750D01*
X25477Y226813D01*
X25505Y226878D01*
X25529Y226944D01*
X25550Y227011D01*
X25567Y227079D01*
X25580Y227148D01*
X25589Y227218D01*
X25595Y227288D01*
X25597Y227358D01*
X24299Y226060D02*
X24196Y226062D01*
X24093Y226068D01*
X23990Y226077D01*
X23888Y226091D01*
X23787Y226108D01*
X23686Y226129D01*
X23586Y226154D01*
X23487Y226183D01*
X23389Y226215D01*
X23292Y226252D01*
X23197Y226291D01*
X23103Y226334D01*
X23011Y226381D01*
X22921Y226431D01*
X22833Y226485D01*
X22747Y226541D01*
X22663Y226601D01*
X22582Y226664D01*
X22503Y226730D01*
X22426Y226799D01*
X22352Y226871D01*
X22515Y230604D02*
X22517Y230674D01*
X22523Y230744D01*
X22532Y230814D01*
X22545Y230883D01*
X22562Y230951D01*
X22583Y231018D01*
X22607Y231084D01*
X22635Y231149D01*
X22666Y231212D01*
X22701Y231273D01*
X22739Y231332D01*
X22780Y231390D01*
X22824Y231444D01*
X22871Y231497D01*
X22920Y231546D01*
X22973Y231593D01*
X23027Y231637D01*
X23085Y231678D01*
X23144Y231716D01*
X23205Y231751D01*
X23268Y231782D01*
X23333Y231810D01*
X23399Y231834D01*
X23466Y231855D01*
X23534Y231872D01*
X23603Y231885D01*
X23673Y231894D01*
X23743Y231900D01*
X23813Y231902D01*
X23911Y231900D01*
X24009Y231894D01*
X24106Y231884D01*
X24203Y231871D01*
X24299Y231853D01*
X24395Y231831D01*
X24489Y231806D01*
X24583Y231777D01*
X24675Y231744D01*
X24766Y231708D01*
X24855Y231668D01*
X24943Y231624D01*
X25028Y231577D01*
X25112Y231526D01*
X25194Y231472D01*
X25273Y231415D01*
X23164Y229468D02*
X23106Y229505D01*
X23050Y229544D01*
X22996Y229586D01*
X22944Y229631D01*
X22895Y229678D01*
X22848Y229728D01*
X22804Y229780D01*
X22763Y229835D01*
X22724Y229892D01*
X22689Y229950D01*
X22656Y230010D01*
X22627Y230072D01*
X22601Y230135D01*
X22578Y230200D01*
X22559Y230266D01*
X22543Y230332D01*
X22531Y230400D01*
X22522Y230467D01*
X22517Y230536D01*
X22515Y230604D01*
X24949Y228494D02*
X25007Y228458D01*
X25063Y228419D01*
X25117Y228377D01*
X25169Y228332D01*
X25218Y228284D01*
X25265Y228234D01*
X25309Y228182D01*
X25350Y228128D01*
X25389Y228071D01*
X25424Y228012D01*
X25457Y227952D01*
X25486Y227890D01*
X25512Y227827D01*
X25535Y227762D01*
X25554Y227697D01*
X25570Y227630D01*
X25582Y227563D01*
X25591Y227495D01*
X25596Y227426D01*
X25598Y227358D01*
X24948Y228494D02*
X23163Y229468D01*
X29662Y231903D02*
X29736Y231901D01*
X29810Y231896D01*
X29883Y231886D01*
X29956Y231873D01*
X30028Y231856D01*
X30099Y231836D01*
X30169Y231812D01*
X30238Y231785D01*
X30305Y231754D01*
X30371Y231719D01*
X30435Y231682D01*
X30497Y231641D01*
X30556Y231597D01*
X30614Y231551D01*
X30669Y231501D01*
X30721Y231449D01*
X30771Y231394D01*
X30817Y231336D01*
X30861Y231277D01*
X30902Y231215D01*
X30939Y231151D01*
X30974Y231085D01*
X31005Y231018D01*
X31032Y230949D01*
X31056Y230879D01*
X31076Y230808D01*
X31093Y230736D01*
X31106Y230663D01*
X31116Y230590D01*
X31121Y230516D01*
X31123Y230442D01*
X29662Y231902D02*
X29578Y231900D01*
X29494Y231894D01*
X29410Y231885D01*
X29327Y231872D01*
X29244Y231855D01*
X29163Y231834D01*
X29082Y231810D01*
X29002Y231782D01*
X28924Y231751D01*
X28847Y231716D01*
X28772Y231678D01*
X28699Y231636D01*
X28628Y231591D01*
X28559Y231543D01*
X28492Y231492D01*
X28427Y231438D01*
X28365Y231381D01*
X28305Y231322D01*
X28248Y231259D01*
X28194Y231195D01*
X28143Y231128D01*
X28096Y231058D01*
X28051Y230987D01*
X28009Y230914D01*
X27971Y230838D01*
X27936Y230762D01*
X27905Y230684D01*
X27877Y230604D01*
X30635Y229306D02*
X30688Y229359D01*
X30738Y229414D01*
X30786Y229472D01*
X30831Y229531D01*
X30873Y229593D01*
X30912Y229657D01*
X30947Y229723D01*
X30980Y229790D01*
X31009Y229858D01*
X31036Y229929D01*
X31058Y230000D01*
X31078Y230072D01*
X31094Y230145D01*
X31106Y230219D01*
X31115Y230293D01*
X31120Y230367D01*
X31122Y230442D01*
X30635Y229306D02*
X27876Y226060D01*
X31122Y226060D01*
X33337Y226060D02*
X33337Y226385D01*
X33662Y226385D01*
X33662Y226060D01*
X33337Y226060D01*
X35877Y230604D02*
X37500Y231902D01*
X37500Y226060D01*
X35877Y226060D02*
X39123Y226060D01*
X15466Y152978D02*
X15536Y152976D01*
X15606Y152970D01*
X15676Y152961D01*
X15745Y152948D01*
X15813Y152931D01*
X15880Y152910D01*
X15946Y152886D01*
X16011Y152858D01*
X16074Y152827D01*
X16135Y152792D01*
X16194Y152754D01*
X16252Y152713D01*
X16306Y152669D01*
X16359Y152622D01*
X16408Y152573D01*
X16455Y152520D01*
X16499Y152466D01*
X16540Y152408D01*
X16578Y152349D01*
X16613Y152288D01*
X16644Y152225D01*
X16672Y152160D01*
X16696Y152094D01*
X16717Y152027D01*
X16734Y151959D01*
X16747Y151890D01*
X16756Y151820D01*
X16762Y151750D01*
X16764Y151680D01*
X16762Y151577D01*
X16756Y151474D01*
X16747Y151371D01*
X16733Y151269D01*
X16716Y151168D01*
X16695Y151067D01*
X16670Y150967D01*
X16641Y150868D01*
X16609Y150770D01*
X16572Y150673D01*
X16533Y150578D01*
X16490Y150484D01*
X16443Y150392D01*
X16393Y150302D01*
X16339Y150214D01*
X16283Y150128D01*
X16223Y150044D01*
X16160Y149963D01*
X16094Y149884D01*
X16025Y149807D01*
X15953Y149733D01*
X12220Y149896D02*
X12150Y149898D01*
X12080Y149904D01*
X12010Y149913D01*
X11941Y149926D01*
X11873Y149943D01*
X11806Y149964D01*
X11740Y149988D01*
X11675Y150016D01*
X11612Y150047D01*
X11551Y150082D01*
X11492Y150120D01*
X11434Y150161D01*
X11380Y150205D01*
X11327Y150252D01*
X11278Y150301D01*
X11231Y150354D01*
X11187Y150408D01*
X11146Y150466D01*
X11108Y150525D01*
X11073Y150586D01*
X11042Y150649D01*
X11014Y150714D01*
X10990Y150780D01*
X10969Y150847D01*
X10952Y150915D01*
X10939Y150984D01*
X10930Y151054D01*
X10924Y151124D01*
X10922Y151194D01*
X10924Y151292D01*
X10930Y151390D01*
X10940Y151487D01*
X10953Y151584D01*
X10971Y151680D01*
X10993Y151776D01*
X11018Y151870D01*
X11047Y151964D01*
X11080Y152056D01*
X11116Y152147D01*
X11156Y152236D01*
X11200Y152324D01*
X11247Y152409D01*
X11298Y152493D01*
X11352Y152575D01*
X11409Y152654D01*
X13356Y150545D02*
X13319Y150487D01*
X13280Y150431D01*
X13238Y150377D01*
X13193Y150325D01*
X13146Y150276D01*
X13096Y150229D01*
X13044Y150185D01*
X12989Y150144D01*
X12932Y150105D01*
X12874Y150070D01*
X12814Y150037D01*
X12752Y150008D01*
X12689Y149982D01*
X12624Y149959D01*
X12558Y149940D01*
X12492Y149924D01*
X12424Y149912D01*
X12357Y149903D01*
X12288Y149898D01*
X12220Y149896D01*
X14330Y152330D02*
X14366Y152388D01*
X14405Y152444D01*
X14447Y152498D01*
X14492Y152550D01*
X14540Y152599D01*
X14590Y152646D01*
X14642Y152690D01*
X14696Y152731D01*
X14753Y152770D01*
X14812Y152805D01*
X14872Y152838D01*
X14934Y152867D01*
X14997Y152893D01*
X15062Y152916D01*
X15127Y152935D01*
X15194Y152951D01*
X15261Y152963D01*
X15329Y152972D01*
X15398Y152977D01*
X15466Y152979D01*
X14330Y152329D02*
X13356Y150544D01*
X10922Y157043D02*
X10924Y157117D01*
X10929Y157191D01*
X10939Y157264D01*
X10952Y157337D01*
X10969Y157409D01*
X10989Y157480D01*
X11013Y157550D01*
X11040Y157619D01*
X11071Y157686D01*
X11106Y157752D01*
X11143Y157816D01*
X11184Y157878D01*
X11228Y157937D01*
X11274Y157995D01*
X11324Y158050D01*
X11376Y158102D01*
X11431Y158152D01*
X11489Y158198D01*
X11548Y158242D01*
X11610Y158283D01*
X11674Y158320D01*
X11740Y158355D01*
X11807Y158386D01*
X11876Y158413D01*
X11946Y158437D01*
X12017Y158457D01*
X12089Y158474D01*
X12162Y158487D01*
X12235Y158497D01*
X12309Y158502D01*
X12383Y158504D01*
X10922Y157043D02*
X10924Y156959D01*
X10930Y156875D01*
X10939Y156791D01*
X10952Y156708D01*
X10969Y156625D01*
X10990Y156544D01*
X11014Y156463D01*
X11042Y156383D01*
X11073Y156305D01*
X11108Y156228D01*
X11146Y156153D01*
X11188Y156080D01*
X11233Y156009D01*
X11281Y155940D01*
X11332Y155873D01*
X11386Y155808D01*
X11443Y155746D01*
X11502Y155686D01*
X11565Y155629D01*
X11629Y155575D01*
X11696Y155524D01*
X11766Y155477D01*
X11837Y155432D01*
X11910Y155390D01*
X11986Y155352D01*
X12062Y155317D01*
X12140Y155286D01*
X12220Y155258D01*
X13519Y158016D02*
X13466Y158069D01*
X13411Y158119D01*
X13353Y158167D01*
X13294Y158212D01*
X13232Y158254D01*
X13168Y158293D01*
X13102Y158328D01*
X13035Y158361D01*
X12967Y158390D01*
X12897Y158417D01*
X12825Y158439D01*
X12753Y158459D01*
X12680Y158475D01*
X12606Y158487D01*
X12532Y158496D01*
X12458Y158501D01*
X12383Y158503D01*
X13518Y158016D02*
X16764Y155257D01*
X16764Y158503D01*
X16764Y160718D02*
X16439Y160718D01*
X16439Y161043D01*
X16764Y161043D01*
X16764Y160718D01*
X16764Y163258D02*
X16764Y164881D01*
X16762Y164961D01*
X16756Y165040D01*
X16746Y165119D01*
X16733Y165198D01*
X16715Y165275D01*
X16694Y165352D01*
X16669Y165428D01*
X16640Y165502D01*
X16608Y165575D01*
X16572Y165646D01*
X16533Y165715D01*
X16490Y165783D01*
X16445Y165848D01*
X16396Y165911D01*
X16344Y165971D01*
X16289Y166029D01*
X16231Y166084D01*
X16171Y166136D01*
X16108Y166185D01*
X16043Y166230D01*
X15975Y166273D01*
X15906Y166312D01*
X15835Y166348D01*
X15762Y166380D01*
X15688Y166409D01*
X15612Y166434D01*
X15535Y166455D01*
X15458Y166473D01*
X15379Y166486D01*
X15300Y166496D01*
X15221Y166502D01*
X15141Y166504D01*
X15061Y166502D01*
X14982Y166496D01*
X14903Y166486D01*
X14824Y166473D01*
X14747Y166455D01*
X14670Y166434D01*
X14594Y166409D01*
X14520Y166380D01*
X14447Y166348D01*
X14376Y166312D01*
X14307Y166273D01*
X14239Y166230D01*
X14174Y166185D01*
X14111Y166136D01*
X14051Y166084D01*
X13993Y166029D01*
X13938Y165971D01*
X13886Y165911D01*
X13837Y165848D01*
X13792Y165783D01*
X13749Y165715D01*
X13710Y165646D01*
X13674Y165575D01*
X13642Y165502D01*
X13613Y165428D01*
X13588Y165352D01*
X13567Y165275D01*
X13549Y165198D01*
X13536Y165119D01*
X13526Y165040D01*
X13520Y164961D01*
X13518Y164881D01*
X10922Y165206D02*
X10922Y163258D01*
X10922Y165206D02*
X10924Y165276D01*
X10930Y165346D01*
X10939Y165416D01*
X10952Y165485D01*
X10969Y165553D01*
X10990Y165620D01*
X11014Y165686D01*
X11042Y165751D01*
X11073Y165814D01*
X11108Y165875D01*
X11146Y165934D01*
X11187Y165992D01*
X11231Y166046D01*
X11278Y166099D01*
X11327Y166148D01*
X11380Y166195D01*
X11434Y166239D01*
X11492Y166280D01*
X11551Y166318D01*
X11612Y166353D01*
X11675Y166384D01*
X11740Y166412D01*
X11806Y166436D01*
X11873Y166457D01*
X11941Y166474D01*
X12010Y166487D01*
X12080Y166496D01*
X12150Y166502D01*
X12220Y166504D01*
X12290Y166502D01*
X12360Y166496D01*
X12430Y166487D01*
X12499Y166474D01*
X12567Y166457D01*
X12634Y166436D01*
X12700Y166412D01*
X12765Y166384D01*
X12828Y166353D01*
X12889Y166318D01*
X12948Y166280D01*
X13006Y166239D01*
X13060Y166195D01*
X13113Y166148D01*
X13162Y166099D01*
X13209Y166046D01*
X13253Y165992D01*
X13294Y165934D01*
X13332Y165875D01*
X13367Y165814D01*
X13398Y165751D01*
X13426Y165686D01*
X13450Y165620D01*
X13471Y165553D01*
X13488Y165485D01*
X13501Y165416D01*
X13510Y165346D01*
X13516Y165276D01*
X13518Y165206D01*
X13518Y163908D01*
X318050Y225679D02*
X318120Y225681D01*
X318190Y225687D01*
X318260Y225696D01*
X318329Y225709D01*
X318397Y225726D01*
X318464Y225747D01*
X318530Y225771D01*
X318595Y225799D01*
X318658Y225830D01*
X318719Y225865D01*
X318778Y225903D01*
X318836Y225944D01*
X318890Y225988D01*
X318943Y226035D01*
X318992Y226084D01*
X319039Y226137D01*
X319083Y226191D01*
X319124Y226249D01*
X319162Y226308D01*
X319197Y226369D01*
X319228Y226432D01*
X319256Y226497D01*
X319280Y226563D01*
X319301Y226630D01*
X319318Y226698D01*
X319331Y226767D01*
X319340Y226837D01*
X319346Y226907D01*
X319348Y226977D01*
X318050Y225679D02*
X317947Y225681D01*
X317844Y225687D01*
X317741Y225696D01*
X317639Y225710D01*
X317538Y225727D01*
X317437Y225748D01*
X317337Y225773D01*
X317238Y225802D01*
X317140Y225834D01*
X317043Y225871D01*
X316948Y225910D01*
X316854Y225953D01*
X316762Y226000D01*
X316672Y226050D01*
X316584Y226104D01*
X316498Y226160D01*
X316414Y226220D01*
X316333Y226283D01*
X316254Y226349D01*
X316177Y226418D01*
X316103Y226490D01*
X316266Y230223D02*
X316268Y230293D01*
X316274Y230363D01*
X316283Y230433D01*
X316296Y230502D01*
X316313Y230570D01*
X316334Y230637D01*
X316358Y230703D01*
X316386Y230768D01*
X316417Y230831D01*
X316452Y230892D01*
X316490Y230951D01*
X316531Y231009D01*
X316575Y231063D01*
X316622Y231116D01*
X316671Y231165D01*
X316724Y231212D01*
X316778Y231256D01*
X316836Y231297D01*
X316895Y231335D01*
X316956Y231370D01*
X317019Y231401D01*
X317084Y231429D01*
X317150Y231453D01*
X317217Y231474D01*
X317285Y231491D01*
X317354Y231504D01*
X317424Y231513D01*
X317494Y231519D01*
X317564Y231521D01*
X317662Y231519D01*
X317760Y231513D01*
X317857Y231503D01*
X317954Y231490D01*
X318050Y231472D01*
X318146Y231450D01*
X318240Y231425D01*
X318334Y231396D01*
X318426Y231363D01*
X318517Y231327D01*
X318606Y231287D01*
X318694Y231243D01*
X318779Y231196D01*
X318863Y231145D01*
X318945Y231091D01*
X319024Y231034D01*
X316915Y229087D02*
X316857Y229124D01*
X316801Y229163D01*
X316747Y229205D01*
X316695Y229250D01*
X316646Y229297D01*
X316599Y229347D01*
X316555Y229399D01*
X316514Y229454D01*
X316475Y229511D01*
X316440Y229569D01*
X316407Y229629D01*
X316378Y229691D01*
X316352Y229754D01*
X316329Y229819D01*
X316310Y229885D01*
X316294Y229951D01*
X316282Y230019D01*
X316273Y230086D01*
X316268Y230155D01*
X316266Y230223D01*
X318700Y228113D02*
X318758Y228077D01*
X318814Y228038D01*
X318868Y227996D01*
X318920Y227951D01*
X318969Y227903D01*
X319016Y227853D01*
X319060Y227801D01*
X319101Y227747D01*
X319140Y227690D01*
X319175Y227631D01*
X319208Y227571D01*
X319237Y227509D01*
X319263Y227446D01*
X319286Y227381D01*
X319305Y227316D01*
X319321Y227249D01*
X319333Y227182D01*
X319342Y227114D01*
X319347Y227045D01*
X319349Y226977D01*
X318699Y228113D02*
X316914Y229087D01*
X323413Y231522D02*
X323487Y231520D01*
X323561Y231515D01*
X323634Y231505D01*
X323707Y231492D01*
X323779Y231475D01*
X323850Y231455D01*
X323920Y231431D01*
X323989Y231404D01*
X324056Y231373D01*
X324122Y231338D01*
X324186Y231301D01*
X324248Y231260D01*
X324307Y231216D01*
X324365Y231170D01*
X324420Y231120D01*
X324472Y231068D01*
X324522Y231013D01*
X324568Y230955D01*
X324612Y230896D01*
X324653Y230834D01*
X324690Y230770D01*
X324725Y230704D01*
X324756Y230637D01*
X324783Y230568D01*
X324807Y230498D01*
X324827Y230427D01*
X324844Y230355D01*
X324857Y230282D01*
X324867Y230209D01*
X324872Y230135D01*
X324874Y230061D01*
X323413Y231521D02*
X323329Y231519D01*
X323245Y231513D01*
X323161Y231504D01*
X323078Y231491D01*
X322995Y231474D01*
X322914Y231453D01*
X322833Y231429D01*
X322753Y231401D01*
X322675Y231370D01*
X322598Y231335D01*
X322523Y231297D01*
X322450Y231255D01*
X322379Y231210D01*
X322310Y231162D01*
X322243Y231111D01*
X322178Y231057D01*
X322116Y231000D01*
X322056Y230941D01*
X321999Y230878D01*
X321945Y230814D01*
X321894Y230747D01*
X321847Y230677D01*
X321802Y230606D01*
X321760Y230533D01*
X321722Y230457D01*
X321687Y230381D01*
X321656Y230303D01*
X321628Y230223D01*
X324386Y228925D02*
X324439Y228978D01*
X324489Y229033D01*
X324537Y229091D01*
X324582Y229150D01*
X324624Y229212D01*
X324663Y229276D01*
X324698Y229342D01*
X324731Y229409D01*
X324760Y229477D01*
X324787Y229548D01*
X324809Y229619D01*
X324829Y229691D01*
X324845Y229764D01*
X324857Y229838D01*
X324866Y229912D01*
X324871Y229986D01*
X324873Y230061D01*
X324386Y228925D02*
X321627Y225679D01*
X324873Y225679D01*
X327088Y225679D02*
X327088Y226004D01*
X327413Y226004D01*
X327413Y225679D01*
X327088Y225679D01*
X329628Y228925D02*
X331576Y228925D01*
X331576Y228924D02*
X331646Y228922D01*
X331716Y228916D01*
X331786Y228907D01*
X331855Y228894D01*
X331923Y228877D01*
X331990Y228856D01*
X332056Y228832D01*
X332121Y228804D01*
X332184Y228773D01*
X332245Y228738D01*
X332304Y228700D01*
X332362Y228659D01*
X332416Y228615D01*
X332469Y228568D01*
X332518Y228519D01*
X332565Y228466D01*
X332609Y228412D01*
X332650Y228354D01*
X332688Y228295D01*
X332723Y228234D01*
X332754Y228171D01*
X332782Y228106D01*
X332806Y228040D01*
X332827Y227973D01*
X332844Y227905D01*
X332857Y227836D01*
X332866Y227766D01*
X332872Y227696D01*
X332874Y227626D01*
X332874Y227302D01*
X332872Y227222D01*
X332866Y227143D01*
X332856Y227064D01*
X332843Y226985D01*
X332825Y226908D01*
X332804Y226831D01*
X332779Y226755D01*
X332750Y226681D01*
X332718Y226608D01*
X332682Y226537D01*
X332643Y226468D01*
X332600Y226400D01*
X332555Y226335D01*
X332506Y226272D01*
X332454Y226212D01*
X332399Y226154D01*
X332341Y226099D01*
X332281Y226047D01*
X332218Y225998D01*
X332153Y225953D01*
X332085Y225910D01*
X332016Y225871D01*
X331945Y225835D01*
X331872Y225803D01*
X331798Y225774D01*
X331722Y225749D01*
X331645Y225728D01*
X331568Y225710D01*
X331489Y225697D01*
X331410Y225687D01*
X331331Y225681D01*
X331251Y225679D01*
X331171Y225681D01*
X331092Y225687D01*
X331013Y225697D01*
X330934Y225710D01*
X330857Y225728D01*
X330780Y225749D01*
X330704Y225774D01*
X330630Y225803D01*
X330557Y225835D01*
X330486Y225871D01*
X330417Y225910D01*
X330349Y225953D01*
X330284Y225998D01*
X330221Y226047D01*
X330161Y226099D01*
X330103Y226154D01*
X330048Y226212D01*
X329996Y226272D01*
X329947Y226335D01*
X329902Y226400D01*
X329859Y226468D01*
X329820Y226537D01*
X329784Y226608D01*
X329752Y226681D01*
X329723Y226755D01*
X329698Y226831D01*
X329677Y226908D01*
X329659Y226985D01*
X329646Y227064D01*
X329636Y227143D01*
X329630Y227222D01*
X329628Y227302D01*
X329628Y228925D01*
X329629Y228925D02*
X329631Y229024D01*
X329637Y229124D01*
X329646Y229223D01*
X329659Y229321D01*
X329676Y229419D01*
X329697Y229517D01*
X329722Y229613D01*
X329750Y229708D01*
X329782Y229802D01*
X329817Y229895D01*
X329856Y229987D01*
X329899Y230077D01*
X329944Y230165D01*
X329994Y230252D01*
X330046Y230336D01*
X330102Y230419D01*
X330160Y230499D01*
X330222Y230577D01*
X330287Y230652D01*
X330355Y230725D01*
X330425Y230795D01*
X330498Y230863D01*
X330573Y230928D01*
X330651Y230990D01*
X330731Y231048D01*
X330814Y231104D01*
X330898Y231156D01*
X330985Y231206D01*
X331073Y231251D01*
X331163Y231294D01*
X331255Y231333D01*
X331347Y231368D01*
X331442Y231400D01*
X331537Y231428D01*
X331633Y231453D01*
X331731Y231474D01*
X331829Y231491D01*
X331927Y231504D01*
X332026Y231513D01*
X332126Y231519D01*
X332225Y231521D01*
X343507Y153613D02*
X343577Y153611D01*
X343647Y153605D01*
X343717Y153596D01*
X343786Y153583D01*
X343854Y153566D01*
X343921Y153545D01*
X343987Y153521D01*
X344052Y153493D01*
X344115Y153462D01*
X344176Y153427D01*
X344235Y153389D01*
X344293Y153348D01*
X344347Y153304D01*
X344400Y153257D01*
X344449Y153208D01*
X344496Y153155D01*
X344540Y153101D01*
X344581Y153043D01*
X344619Y152984D01*
X344654Y152923D01*
X344685Y152860D01*
X344713Y152795D01*
X344737Y152729D01*
X344758Y152662D01*
X344775Y152594D01*
X344788Y152525D01*
X344797Y152455D01*
X344803Y152385D01*
X344805Y152315D01*
X344803Y152212D01*
X344797Y152109D01*
X344788Y152006D01*
X344774Y151904D01*
X344757Y151803D01*
X344736Y151702D01*
X344711Y151602D01*
X344682Y151503D01*
X344650Y151405D01*
X344613Y151308D01*
X344574Y151213D01*
X344531Y151119D01*
X344484Y151027D01*
X344434Y150937D01*
X344380Y150849D01*
X344324Y150763D01*
X344264Y150679D01*
X344201Y150598D01*
X344135Y150519D01*
X344066Y150442D01*
X343994Y150368D01*
X340261Y150531D02*
X340191Y150533D01*
X340121Y150539D01*
X340051Y150548D01*
X339982Y150561D01*
X339914Y150578D01*
X339847Y150599D01*
X339781Y150623D01*
X339716Y150651D01*
X339653Y150682D01*
X339592Y150717D01*
X339533Y150755D01*
X339475Y150796D01*
X339421Y150840D01*
X339368Y150887D01*
X339319Y150936D01*
X339272Y150989D01*
X339228Y151043D01*
X339187Y151101D01*
X339149Y151160D01*
X339114Y151221D01*
X339083Y151284D01*
X339055Y151349D01*
X339031Y151415D01*
X339010Y151482D01*
X338993Y151550D01*
X338980Y151619D01*
X338971Y151689D01*
X338965Y151759D01*
X338963Y151829D01*
X338965Y151927D01*
X338971Y152025D01*
X338981Y152122D01*
X338994Y152219D01*
X339012Y152315D01*
X339034Y152411D01*
X339059Y152505D01*
X339088Y152599D01*
X339121Y152691D01*
X339157Y152782D01*
X339197Y152871D01*
X339241Y152959D01*
X339288Y153044D01*
X339339Y153128D01*
X339393Y153210D01*
X339450Y153289D01*
X341397Y151180D02*
X341360Y151122D01*
X341321Y151066D01*
X341279Y151012D01*
X341234Y150960D01*
X341187Y150911D01*
X341137Y150864D01*
X341085Y150820D01*
X341030Y150779D01*
X340973Y150740D01*
X340915Y150705D01*
X340855Y150672D01*
X340793Y150643D01*
X340730Y150617D01*
X340665Y150594D01*
X340599Y150575D01*
X340533Y150559D01*
X340465Y150547D01*
X340398Y150538D01*
X340329Y150533D01*
X340261Y150531D01*
X342371Y152965D02*
X342407Y153023D01*
X342446Y153079D01*
X342488Y153133D01*
X342533Y153185D01*
X342581Y153234D01*
X342631Y153281D01*
X342683Y153325D01*
X342737Y153366D01*
X342794Y153405D01*
X342853Y153440D01*
X342913Y153473D01*
X342975Y153502D01*
X343038Y153528D01*
X343103Y153551D01*
X343168Y153570D01*
X343235Y153586D01*
X343302Y153598D01*
X343370Y153607D01*
X343439Y153612D01*
X343507Y153614D01*
X342371Y152964D02*
X341397Y151179D01*
X338963Y157678D02*
X338965Y157752D01*
X338970Y157826D01*
X338980Y157899D01*
X338993Y157972D01*
X339010Y158044D01*
X339030Y158115D01*
X339054Y158185D01*
X339081Y158254D01*
X339112Y158321D01*
X339147Y158387D01*
X339184Y158451D01*
X339225Y158513D01*
X339269Y158572D01*
X339315Y158630D01*
X339365Y158685D01*
X339417Y158737D01*
X339472Y158787D01*
X339530Y158833D01*
X339589Y158877D01*
X339651Y158918D01*
X339715Y158955D01*
X339781Y158990D01*
X339848Y159021D01*
X339917Y159048D01*
X339987Y159072D01*
X340058Y159092D01*
X340130Y159109D01*
X340203Y159122D01*
X340276Y159132D01*
X340350Y159137D01*
X340424Y159139D01*
X338963Y157678D02*
X338965Y157594D01*
X338971Y157510D01*
X338980Y157426D01*
X338993Y157343D01*
X339010Y157260D01*
X339031Y157179D01*
X339055Y157098D01*
X339083Y157018D01*
X339114Y156940D01*
X339149Y156863D01*
X339187Y156788D01*
X339229Y156715D01*
X339274Y156644D01*
X339322Y156575D01*
X339373Y156508D01*
X339427Y156443D01*
X339484Y156381D01*
X339543Y156321D01*
X339606Y156264D01*
X339670Y156210D01*
X339737Y156159D01*
X339807Y156112D01*
X339878Y156067D01*
X339951Y156025D01*
X340027Y155987D01*
X340103Y155952D01*
X340181Y155921D01*
X340261Y155893D01*
X341560Y158651D02*
X341507Y158704D01*
X341452Y158754D01*
X341394Y158802D01*
X341335Y158847D01*
X341273Y158889D01*
X341209Y158928D01*
X341143Y158963D01*
X341076Y158996D01*
X341008Y159025D01*
X340938Y159052D01*
X340866Y159074D01*
X340794Y159094D01*
X340721Y159110D01*
X340647Y159122D01*
X340573Y159131D01*
X340499Y159136D01*
X340424Y159138D01*
X341559Y158651D02*
X344805Y155892D01*
X344805Y159138D01*
X344805Y161353D02*
X344480Y161353D01*
X344480Y161678D01*
X344805Y161678D01*
X344805Y161353D01*
X343507Y163893D02*
X338963Y165192D01*
X343507Y163893D02*
X343507Y167139D01*
X342209Y166165D02*
X344805Y166165D01*
X56839Y227612D02*
X56837Y227542D01*
X56831Y227472D01*
X56822Y227402D01*
X56809Y227333D01*
X56792Y227265D01*
X56771Y227198D01*
X56747Y227132D01*
X56719Y227067D01*
X56688Y227004D01*
X56653Y226943D01*
X56615Y226884D01*
X56574Y226826D01*
X56530Y226772D01*
X56483Y226719D01*
X56434Y226670D01*
X56381Y226623D01*
X56327Y226579D01*
X56269Y226538D01*
X56210Y226500D01*
X56149Y226465D01*
X56086Y226434D01*
X56021Y226406D01*
X55955Y226382D01*
X55888Y226361D01*
X55820Y226344D01*
X55751Y226331D01*
X55681Y226322D01*
X55611Y226316D01*
X55541Y226314D01*
X55438Y226316D01*
X55335Y226322D01*
X55232Y226331D01*
X55130Y226345D01*
X55029Y226362D01*
X54928Y226383D01*
X54828Y226408D01*
X54729Y226437D01*
X54631Y226469D01*
X54534Y226506D01*
X54439Y226545D01*
X54345Y226588D01*
X54253Y226635D01*
X54163Y226685D01*
X54075Y226739D01*
X53989Y226795D01*
X53905Y226855D01*
X53824Y226918D01*
X53745Y226984D01*
X53668Y227053D01*
X53594Y227125D01*
X53757Y230858D02*
X53759Y230928D01*
X53765Y230998D01*
X53774Y231068D01*
X53787Y231137D01*
X53804Y231205D01*
X53825Y231272D01*
X53849Y231338D01*
X53877Y231403D01*
X53908Y231466D01*
X53943Y231527D01*
X53981Y231586D01*
X54022Y231644D01*
X54066Y231698D01*
X54113Y231751D01*
X54162Y231800D01*
X54215Y231847D01*
X54269Y231891D01*
X54327Y231932D01*
X54386Y231970D01*
X54447Y232005D01*
X54510Y232036D01*
X54575Y232064D01*
X54641Y232088D01*
X54708Y232109D01*
X54776Y232126D01*
X54845Y232139D01*
X54915Y232148D01*
X54985Y232154D01*
X55055Y232156D01*
X55153Y232154D01*
X55251Y232148D01*
X55348Y232138D01*
X55445Y232125D01*
X55541Y232107D01*
X55637Y232085D01*
X55731Y232060D01*
X55825Y232031D01*
X55917Y231998D01*
X56008Y231962D01*
X56097Y231922D01*
X56185Y231878D01*
X56270Y231831D01*
X56354Y231780D01*
X56436Y231726D01*
X56515Y231669D01*
X54406Y229722D02*
X54348Y229759D01*
X54292Y229798D01*
X54238Y229840D01*
X54186Y229885D01*
X54137Y229932D01*
X54090Y229982D01*
X54046Y230034D01*
X54005Y230089D01*
X53966Y230146D01*
X53931Y230204D01*
X53898Y230264D01*
X53869Y230326D01*
X53843Y230389D01*
X53820Y230454D01*
X53801Y230520D01*
X53785Y230586D01*
X53773Y230654D01*
X53764Y230721D01*
X53759Y230790D01*
X53757Y230858D01*
X56191Y228748D02*
X56249Y228712D01*
X56305Y228673D01*
X56359Y228631D01*
X56411Y228586D01*
X56460Y228538D01*
X56507Y228488D01*
X56551Y228436D01*
X56592Y228382D01*
X56631Y228325D01*
X56666Y228266D01*
X56699Y228206D01*
X56728Y228144D01*
X56754Y228081D01*
X56777Y228016D01*
X56796Y227951D01*
X56812Y227884D01*
X56824Y227817D01*
X56833Y227749D01*
X56838Y227680D01*
X56840Y227612D01*
X56190Y228748D02*
X54405Y229722D01*
X59118Y230858D02*
X60741Y232156D01*
X60741Y226314D01*
X59118Y226314D02*
X62364Y226314D01*
X64579Y226314D02*
X64579Y226639D01*
X64904Y226639D01*
X64904Y226314D01*
X64579Y226314D01*
X67119Y229560D02*
X69067Y229560D01*
X69067Y229559D02*
X69137Y229557D01*
X69207Y229551D01*
X69277Y229542D01*
X69346Y229529D01*
X69414Y229512D01*
X69481Y229491D01*
X69547Y229467D01*
X69612Y229439D01*
X69675Y229408D01*
X69736Y229373D01*
X69795Y229335D01*
X69853Y229294D01*
X69907Y229250D01*
X69960Y229203D01*
X70009Y229154D01*
X70056Y229101D01*
X70100Y229047D01*
X70141Y228989D01*
X70179Y228930D01*
X70214Y228869D01*
X70245Y228806D01*
X70273Y228741D01*
X70297Y228675D01*
X70318Y228608D01*
X70335Y228540D01*
X70348Y228471D01*
X70357Y228401D01*
X70363Y228331D01*
X70365Y228261D01*
X70365Y227937D01*
X70363Y227857D01*
X70357Y227778D01*
X70347Y227699D01*
X70334Y227620D01*
X70316Y227543D01*
X70295Y227466D01*
X70270Y227390D01*
X70241Y227316D01*
X70209Y227243D01*
X70173Y227172D01*
X70134Y227103D01*
X70091Y227035D01*
X70046Y226970D01*
X69997Y226907D01*
X69945Y226847D01*
X69890Y226789D01*
X69832Y226734D01*
X69772Y226682D01*
X69709Y226633D01*
X69644Y226588D01*
X69576Y226545D01*
X69507Y226506D01*
X69436Y226470D01*
X69363Y226438D01*
X69289Y226409D01*
X69213Y226384D01*
X69136Y226363D01*
X69059Y226345D01*
X68980Y226332D01*
X68901Y226322D01*
X68822Y226316D01*
X68742Y226314D01*
X68662Y226316D01*
X68583Y226322D01*
X68504Y226332D01*
X68425Y226345D01*
X68348Y226363D01*
X68271Y226384D01*
X68195Y226409D01*
X68121Y226438D01*
X68048Y226470D01*
X67977Y226506D01*
X67908Y226545D01*
X67840Y226588D01*
X67775Y226633D01*
X67712Y226682D01*
X67652Y226734D01*
X67594Y226789D01*
X67539Y226847D01*
X67487Y226907D01*
X67438Y226970D01*
X67393Y227035D01*
X67350Y227103D01*
X67311Y227172D01*
X67275Y227243D01*
X67243Y227316D01*
X67214Y227390D01*
X67189Y227466D01*
X67168Y227543D01*
X67150Y227620D01*
X67137Y227699D01*
X67127Y227778D01*
X67121Y227857D01*
X67119Y227937D01*
X67119Y229560D01*
X67120Y229560D02*
X67122Y229659D01*
X67128Y229759D01*
X67137Y229858D01*
X67150Y229956D01*
X67167Y230054D01*
X67188Y230152D01*
X67213Y230248D01*
X67241Y230343D01*
X67273Y230437D01*
X67308Y230530D01*
X67347Y230622D01*
X67390Y230712D01*
X67435Y230800D01*
X67485Y230887D01*
X67537Y230971D01*
X67593Y231054D01*
X67651Y231134D01*
X67713Y231212D01*
X67778Y231287D01*
X67846Y231360D01*
X67916Y231430D01*
X67989Y231498D01*
X68064Y231563D01*
X68142Y231625D01*
X68222Y231683D01*
X68305Y231739D01*
X68389Y231791D01*
X68476Y231841D01*
X68564Y231886D01*
X68654Y231929D01*
X68746Y231968D01*
X68838Y232003D01*
X68933Y232035D01*
X69028Y232063D01*
X69124Y232088D01*
X69222Y232109D01*
X69320Y232126D01*
X69418Y232139D01*
X69517Y232148D01*
X69617Y232154D01*
X69716Y232156D01*
X286173Y225552D02*
X286243Y225554D01*
X286313Y225560D01*
X286383Y225569D01*
X286452Y225582D01*
X286520Y225599D01*
X286587Y225620D01*
X286653Y225644D01*
X286718Y225672D01*
X286781Y225703D01*
X286842Y225738D01*
X286901Y225776D01*
X286959Y225817D01*
X287013Y225861D01*
X287066Y225908D01*
X287115Y225957D01*
X287162Y226010D01*
X287206Y226064D01*
X287247Y226122D01*
X287285Y226181D01*
X287320Y226242D01*
X287351Y226305D01*
X287379Y226370D01*
X287403Y226436D01*
X287424Y226503D01*
X287441Y226571D01*
X287454Y226640D01*
X287463Y226710D01*
X287469Y226780D01*
X287471Y226850D01*
X286173Y225552D02*
X286070Y225554D01*
X285967Y225560D01*
X285864Y225569D01*
X285762Y225583D01*
X285661Y225600D01*
X285560Y225621D01*
X285460Y225646D01*
X285361Y225675D01*
X285263Y225707D01*
X285166Y225744D01*
X285071Y225783D01*
X284977Y225826D01*
X284885Y225873D01*
X284795Y225923D01*
X284707Y225977D01*
X284621Y226033D01*
X284537Y226093D01*
X284456Y226156D01*
X284377Y226222D01*
X284300Y226291D01*
X284226Y226363D01*
X284389Y230096D02*
X284391Y230166D01*
X284397Y230236D01*
X284406Y230306D01*
X284419Y230375D01*
X284436Y230443D01*
X284457Y230510D01*
X284481Y230576D01*
X284509Y230641D01*
X284540Y230704D01*
X284575Y230765D01*
X284613Y230824D01*
X284654Y230882D01*
X284698Y230936D01*
X284745Y230989D01*
X284794Y231038D01*
X284847Y231085D01*
X284901Y231129D01*
X284959Y231170D01*
X285018Y231208D01*
X285079Y231243D01*
X285142Y231274D01*
X285207Y231302D01*
X285273Y231326D01*
X285340Y231347D01*
X285408Y231364D01*
X285477Y231377D01*
X285547Y231386D01*
X285617Y231392D01*
X285687Y231394D01*
X285785Y231392D01*
X285883Y231386D01*
X285980Y231376D01*
X286077Y231363D01*
X286173Y231345D01*
X286269Y231323D01*
X286363Y231298D01*
X286457Y231269D01*
X286549Y231236D01*
X286640Y231200D01*
X286729Y231160D01*
X286817Y231116D01*
X286902Y231069D01*
X286986Y231018D01*
X287068Y230964D01*
X287147Y230907D01*
X285038Y228960D02*
X284980Y228997D01*
X284924Y229036D01*
X284870Y229078D01*
X284818Y229123D01*
X284769Y229170D01*
X284722Y229220D01*
X284678Y229272D01*
X284637Y229327D01*
X284598Y229384D01*
X284563Y229442D01*
X284530Y229502D01*
X284501Y229564D01*
X284475Y229627D01*
X284452Y229692D01*
X284433Y229758D01*
X284417Y229824D01*
X284405Y229892D01*
X284396Y229959D01*
X284391Y230028D01*
X284389Y230096D01*
X286823Y227986D02*
X286881Y227950D01*
X286937Y227911D01*
X286991Y227869D01*
X287043Y227824D01*
X287092Y227776D01*
X287139Y227726D01*
X287183Y227674D01*
X287224Y227620D01*
X287263Y227563D01*
X287298Y227504D01*
X287331Y227444D01*
X287360Y227382D01*
X287386Y227319D01*
X287409Y227254D01*
X287428Y227189D01*
X287444Y227122D01*
X287456Y227055D01*
X287465Y226987D01*
X287470Y226918D01*
X287472Y226850D01*
X286822Y227986D02*
X285037Y228960D01*
X289750Y225552D02*
X291373Y225552D01*
X291453Y225554D01*
X291532Y225560D01*
X291611Y225570D01*
X291690Y225583D01*
X291767Y225601D01*
X291844Y225622D01*
X291920Y225647D01*
X291994Y225676D01*
X292067Y225708D01*
X292138Y225744D01*
X292207Y225783D01*
X292275Y225826D01*
X292340Y225871D01*
X292403Y225920D01*
X292463Y225972D01*
X292521Y226027D01*
X292576Y226085D01*
X292628Y226145D01*
X292677Y226208D01*
X292722Y226273D01*
X292765Y226341D01*
X292804Y226410D01*
X292840Y226481D01*
X292872Y226554D01*
X292901Y226628D01*
X292926Y226704D01*
X292947Y226781D01*
X292965Y226858D01*
X292978Y226937D01*
X292988Y227016D01*
X292994Y227095D01*
X292996Y227175D01*
X292994Y227255D01*
X292988Y227334D01*
X292978Y227413D01*
X292965Y227492D01*
X292947Y227569D01*
X292926Y227646D01*
X292901Y227722D01*
X292872Y227796D01*
X292840Y227869D01*
X292804Y227940D01*
X292765Y228009D01*
X292722Y228077D01*
X292677Y228142D01*
X292628Y228205D01*
X292576Y228265D01*
X292521Y228323D01*
X292463Y228378D01*
X292403Y228430D01*
X292340Y228479D01*
X292275Y228524D01*
X292207Y228567D01*
X292138Y228606D01*
X292067Y228642D01*
X291994Y228674D01*
X291920Y228703D01*
X291844Y228728D01*
X291767Y228749D01*
X291690Y228767D01*
X291611Y228780D01*
X291532Y228790D01*
X291453Y228796D01*
X291373Y228798D01*
X291698Y231394D02*
X289750Y231394D01*
X291698Y231394D02*
X291768Y231392D01*
X291838Y231386D01*
X291908Y231377D01*
X291977Y231364D01*
X292045Y231347D01*
X292112Y231326D01*
X292178Y231302D01*
X292243Y231274D01*
X292306Y231243D01*
X292367Y231208D01*
X292426Y231170D01*
X292484Y231129D01*
X292538Y231085D01*
X292591Y231038D01*
X292640Y230989D01*
X292687Y230936D01*
X292731Y230882D01*
X292772Y230824D01*
X292810Y230765D01*
X292845Y230704D01*
X292876Y230641D01*
X292904Y230576D01*
X292928Y230510D01*
X292949Y230443D01*
X292966Y230375D01*
X292979Y230306D01*
X292988Y230236D01*
X292994Y230166D01*
X292996Y230096D01*
X292994Y230026D01*
X292988Y229956D01*
X292979Y229886D01*
X292966Y229817D01*
X292949Y229749D01*
X292928Y229682D01*
X292904Y229616D01*
X292876Y229551D01*
X292845Y229488D01*
X292810Y229427D01*
X292772Y229368D01*
X292731Y229310D01*
X292687Y229256D01*
X292640Y229203D01*
X292591Y229154D01*
X292538Y229107D01*
X292484Y229063D01*
X292426Y229022D01*
X292367Y228984D01*
X292306Y228949D01*
X292243Y228918D01*
X292178Y228890D01*
X292112Y228866D01*
X292045Y228845D01*
X291977Y228828D01*
X291908Y228815D01*
X291838Y228806D01*
X291768Y228800D01*
X291698Y228798D01*
X290400Y228798D01*
X295211Y225877D02*
X295211Y225552D01*
X295211Y225877D02*
X295536Y225877D01*
X295536Y225552D01*
X295211Y225552D01*
X297751Y230096D02*
X299374Y231394D01*
X299374Y225552D01*
X297751Y225552D02*
X300997Y225552D01*
X26105Y61496D02*
X26103Y61426D01*
X26097Y61356D01*
X26088Y61286D01*
X26075Y61217D01*
X26058Y61149D01*
X26037Y61082D01*
X26013Y61016D01*
X25985Y60951D01*
X25954Y60888D01*
X25919Y60827D01*
X25881Y60768D01*
X25840Y60710D01*
X25796Y60656D01*
X25749Y60603D01*
X25700Y60554D01*
X25647Y60507D01*
X25593Y60463D01*
X25535Y60422D01*
X25476Y60384D01*
X25415Y60349D01*
X25352Y60318D01*
X25287Y60290D01*
X25221Y60266D01*
X25154Y60245D01*
X25086Y60228D01*
X25017Y60215D01*
X24947Y60206D01*
X24877Y60200D01*
X24807Y60198D01*
X24704Y60200D01*
X24601Y60206D01*
X24498Y60215D01*
X24396Y60229D01*
X24295Y60246D01*
X24194Y60267D01*
X24094Y60292D01*
X23995Y60321D01*
X23897Y60353D01*
X23800Y60390D01*
X23705Y60429D01*
X23611Y60472D01*
X23519Y60519D01*
X23429Y60569D01*
X23341Y60623D01*
X23255Y60679D01*
X23171Y60739D01*
X23090Y60802D01*
X23011Y60868D01*
X22934Y60937D01*
X22860Y61009D01*
X23023Y64742D02*
X23025Y64812D01*
X23031Y64882D01*
X23040Y64952D01*
X23053Y65021D01*
X23070Y65089D01*
X23091Y65156D01*
X23115Y65222D01*
X23143Y65287D01*
X23174Y65350D01*
X23209Y65411D01*
X23247Y65470D01*
X23288Y65528D01*
X23332Y65582D01*
X23379Y65635D01*
X23428Y65684D01*
X23481Y65731D01*
X23535Y65775D01*
X23593Y65816D01*
X23652Y65854D01*
X23713Y65889D01*
X23776Y65920D01*
X23841Y65948D01*
X23907Y65972D01*
X23974Y65993D01*
X24042Y66010D01*
X24111Y66023D01*
X24181Y66032D01*
X24251Y66038D01*
X24321Y66040D01*
X24419Y66038D01*
X24517Y66032D01*
X24614Y66022D01*
X24711Y66009D01*
X24807Y65991D01*
X24903Y65969D01*
X24997Y65944D01*
X25091Y65915D01*
X25183Y65882D01*
X25274Y65846D01*
X25363Y65806D01*
X25451Y65762D01*
X25536Y65715D01*
X25620Y65664D01*
X25702Y65610D01*
X25781Y65553D01*
X23672Y63606D02*
X23614Y63643D01*
X23558Y63682D01*
X23504Y63724D01*
X23452Y63769D01*
X23403Y63816D01*
X23356Y63866D01*
X23312Y63918D01*
X23271Y63973D01*
X23232Y64030D01*
X23197Y64088D01*
X23164Y64148D01*
X23135Y64210D01*
X23109Y64273D01*
X23086Y64338D01*
X23067Y64404D01*
X23051Y64470D01*
X23039Y64538D01*
X23030Y64605D01*
X23025Y64674D01*
X23023Y64742D01*
X25457Y62632D02*
X25515Y62596D01*
X25571Y62557D01*
X25625Y62515D01*
X25677Y62470D01*
X25726Y62422D01*
X25773Y62372D01*
X25817Y62320D01*
X25858Y62266D01*
X25897Y62209D01*
X25932Y62150D01*
X25965Y62090D01*
X25994Y62028D01*
X26020Y61965D01*
X26043Y61900D01*
X26062Y61835D01*
X26078Y61768D01*
X26090Y61701D01*
X26099Y61633D01*
X26104Y61564D01*
X26106Y61496D01*
X25456Y62632D02*
X23671Y63606D01*
X28384Y61496D02*
X29683Y66040D01*
X28384Y61496D02*
X31630Y61496D01*
X30656Y62794D02*
X30656Y60198D01*
X33845Y60198D02*
X33845Y60523D01*
X34170Y60523D01*
X34170Y60198D01*
X33845Y60198D01*
X36385Y63444D02*
X38333Y63444D01*
X38333Y63443D02*
X38403Y63441D01*
X38473Y63435D01*
X38543Y63426D01*
X38612Y63413D01*
X38680Y63396D01*
X38747Y63375D01*
X38813Y63351D01*
X38878Y63323D01*
X38941Y63292D01*
X39002Y63257D01*
X39061Y63219D01*
X39119Y63178D01*
X39173Y63134D01*
X39226Y63087D01*
X39275Y63038D01*
X39322Y62985D01*
X39366Y62931D01*
X39407Y62873D01*
X39445Y62814D01*
X39480Y62753D01*
X39511Y62690D01*
X39539Y62625D01*
X39563Y62559D01*
X39584Y62492D01*
X39601Y62424D01*
X39614Y62355D01*
X39623Y62285D01*
X39629Y62215D01*
X39631Y62145D01*
X39631Y61821D01*
X39629Y61741D01*
X39623Y61662D01*
X39613Y61583D01*
X39600Y61504D01*
X39582Y61427D01*
X39561Y61350D01*
X39536Y61274D01*
X39507Y61200D01*
X39475Y61127D01*
X39439Y61056D01*
X39400Y60987D01*
X39357Y60919D01*
X39312Y60854D01*
X39263Y60791D01*
X39211Y60731D01*
X39156Y60673D01*
X39098Y60618D01*
X39038Y60566D01*
X38975Y60517D01*
X38910Y60472D01*
X38842Y60429D01*
X38773Y60390D01*
X38702Y60354D01*
X38629Y60322D01*
X38555Y60293D01*
X38479Y60268D01*
X38402Y60247D01*
X38325Y60229D01*
X38246Y60216D01*
X38167Y60206D01*
X38088Y60200D01*
X38008Y60198D01*
X37928Y60200D01*
X37849Y60206D01*
X37770Y60216D01*
X37691Y60229D01*
X37614Y60247D01*
X37537Y60268D01*
X37461Y60293D01*
X37387Y60322D01*
X37314Y60354D01*
X37243Y60390D01*
X37174Y60429D01*
X37106Y60472D01*
X37041Y60517D01*
X36978Y60566D01*
X36918Y60618D01*
X36860Y60673D01*
X36805Y60731D01*
X36753Y60791D01*
X36704Y60854D01*
X36659Y60919D01*
X36616Y60987D01*
X36577Y61056D01*
X36541Y61127D01*
X36509Y61200D01*
X36480Y61274D01*
X36455Y61350D01*
X36434Y61427D01*
X36416Y61504D01*
X36403Y61583D01*
X36393Y61662D01*
X36387Y61741D01*
X36385Y61821D01*
X36385Y63444D01*
X36386Y63444D02*
X36388Y63543D01*
X36394Y63643D01*
X36403Y63742D01*
X36416Y63840D01*
X36433Y63938D01*
X36454Y64036D01*
X36479Y64132D01*
X36507Y64227D01*
X36539Y64321D01*
X36574Y64414D01*
X36613Y64506D01*
X36656Y64596D01*
X36701Y64684D01*
X36751Y64771D01*
X36803Y64855D01*
X36859Y64938D01*
X36917Y65018D01*
X36979Y65096D01*
X37044Y65171D01*
X37112Y65244D01*
X37182Y65314D01*
X37255Y65382D01*
X37330Y65447D01*
X37408Y65509D01*
X37488Y65567D01*
X37571Y65623D01*
X37655Y65675D01*
X37742Y65725D01*
X37830Y65770D01*
X37920Y65813D01*
X38012Y65852D01*
X38104Y65887D01*
X38199Y65919D01*
X38294Y65947D01*
X38390Y65972D01*
X38488Y65993D01*
X38586Y66010D01*
X38684Y66023D01*
X38783Y66032D01*
X38883Y66038D01*
X38982Y66040D01*
X56303Y59817D02*
X56373Y59819D01*
X56443Y59825D01*
X56513Y59834D01*
X56582Y59847D01*
X56650Y59864D01*
X56717Y59885D01*
X56783Y59909D01*
X56848Y59937D01*
X56911Y59968D01*
X56972Y60003D01*
X57031Y60041D01*
X57089Y60082D01*
X57143Y60126D01*
X57196Y60173D01*
X57245Y60222D01*
X57292Y60275D01*
X57336Y60329D01*
X57377Y60387D01*
X57415Y60446D01*
X57450Y60507D01*
X57481Y60570D01*
X57509Y60635D01*
X57533Y60701D01*
X57554Y60768D01*
X57571Y60836D01*
X57584Y60905D01*
X57593Y60975D01*
X57599Y61045D01*
X57601Y61115D01*
X56303Y59817D02*
X56200Y59819D01*
X56097Y59825D01*
X55994Y59834D01*
X55892Y59848D01*
X55791Y59865D01*
X55690Y59886D01*
X55590Y59911D01*
X55491Y59940D01*
X55393Y59972D01*
X55296Y60009D01*
X55201Y60048D01*
X55107Y60091D01*
X55015Y60138D01*
X54925Y60188D01*
X54837Y60242D01*
X54751Y60298D01*
X54667Y60358D01*
X54586Y60421D01*
X54507Y60487D01*
X54430Y60556D01*
X54356Y60628D01*
X54519Y64361D02*
X54521Y64431D01*
X54527Y64501D01*
X54536Y64571D01*
X54549Y64640D01*
X54566Y64708D01*
X54587Y64775D01*
X54611Y64841D01*
X54639Y64906D01*
X54670Y64969D01*
X54705Y65030D01*
X54743Y65089D01*
X54784Y65147D01*
X54828Y65201D01*
X54875Y65254D01*
X54924Y65303D01*
X54977Y65350D01*
X55031Y65394D01*
X55089Y65435D01*
X55148Y65473D01*
X55209Y65508D01*
X55272Y65539D01*
X55337Y65567D01*
X55403Y65591D01*
X55470Y65612D01*
X55538Y65629D01*
X55607Y65642D01*
X55677Y65651D01*
X55747Y65657D01*
X55817Y65659D01*
X55915Y65657D01*
X56013Y65651D01*
X56110Y65641D01*
X56207Y65628D01*
X56303Y65610D01*
X56399Y65588D01*
X56493Y65563D01*
X56587Y65534D01*
X56679Y65501D01*
X56770Y65465D01*
X56859Y65425D01*
X56947Y65381D01*
X57032Y65334D01*
X57116Y65283D01*
X57198Y65229D01*
X57277Y65172D01*
X55168Y63225D02*
X55110Y63262D01*
X55054Y63301D01*
X55000Y63343D01*
X54948Y63388D01*
X54899Y63435D01*
X54852Y63485D01*
X54808Y63537D01*
X54767Y63592D01*
X54728Y63649D01*
X54693Y63707D01*
X54660Y63767D01*
X54631Y63829D01*
X54605Y63892D01*
X54582Y63957D01*
X54563Y64023D01*
X54547Y64089D01*
X54535Y64157D01*
X54526Y64224D01*
X54521Y64293D01*
X54519Y64361D01*
X56953Y62251D02*
X57011Y62215D01*
X57067Y62176D01*
X57121Y62134D01*
X57173Y62089D01*
X57222Y62041D01*
X57269Y61991D01*
X57313Y61939D01*
X57354Y61885D01*
X57393Y61828D01*
X57428Y61769D01*
X57461Y61709D01*
X57490Y61647D01*
X57516Y61584D01*
X57539Y61519D01*
X57558Y61454D01*
X57574Y61387D01*
X57586Y61320D01*
X57595Y61252D01*
X57600Y61183D01*
X57602Y61115D01*
X56952Y62251D02*
X55167Y63225D01*
X59880Y64361D02*
X61503Y65659D01*
X61503Y59817D01*
X59880Y59817D02*
X63126Y59817D01*
X65341Y59817D02*
X65341Y60142D01*
X65666Y60142D01*
X65666Y59817D01*
X65341Y59817D01*
X67881Y64361D02*
X69504Y65659D01*
X69504Y59817D01*
X67881Y59817D02*
X71127Y59817D01*
X16891Y124756D02*
X16889Y124826D01*
X16883Y124896D01*
X16874Y124966D01*
X16861Y125035D01*
X16844Y125103D01*
X16823Y125170D01*
X16799Y125236D01*
X16771Y125301D01*
X16740Y125364D01*
X16705Y125425D01*
X16667Y125484D01*
X16626Y125542D01*
X16582Y125596D01*
X16535Y125649D01*
X16486Y125698D01*
X16433Y125745D01*
X16379Y125789D01*
X16321Y125830D01*
X16262Y125868D01*
X16201Y125903D01*
X16138Y125934D01*
X16073Y125962D01*
X16007Y125986D01*
X15940Y126007D01*
X15872Y126024D01*
X15803Y126037D01*
X15733Y126046D01*
X15663Y126052D01*
X15593Y126054D01*
X16891Y124756D02*
X16889Y124653D01*
X16883Y124550D01*
X16874Y124447D01*
X16860Y124345D01*
X16843Y124244D01*
X16822Y124143D01*
X16797Y124043D01*
X16768Y123944D01*
X16736Y123846D01*
X16699Y123749D01*
X16660Y123654D01*
X16617Y123560D01*
X16570Y123468D01*
X16520Y123378D01*
X16466Y123290D01*
X16410Y123204D01*
X16350Y123120D01*
X16287Y123039D01*
X16221Y122960D01*
X16152Y122883D01*
X16080Y122809D01*
X12347Y122972D02*
X12277Y122974D01*
X12207Y122980D01*
X12137Y122989D01*
X12068Y123002D01*
X12000Y123019D01*
X11933Y123040D01*
X11867Y123064D01*
X11802Y123092D01*
X11739Y123123D01*
X11678Y123158D01*
X11619Y123196D01*
X11561Y123237D01*
X11507Y123281D01*
X11454Y123328D01*
X11405Y123377D01*
X11358Y123430D01*
X11314Y123484D01*
X11273Y123542D01*
X11235Y123601D01*
X11200Y123662D01*
X11169Y123725D01*
X11141Y123790D01*
X11117Y123856D01*
X11096Y123923D01*
X11079Y123991D01*
X11066Y124060D01*
X11057Y124130D01*
X11051Y124200D01*
X11049Y124270D01*
X11051Y124368D01*
X11057Y124466D01*
X11067Y124563D01*
X11080Y124660D01*
X11098Y124756D01*
X11120Y124852D01*
X11145Y124946D01*
X11174Y125040D01*
X11207Y125132D01*
X11243Y125223D01*
X11283Y125312D01*
X11327Y125400D01*
X11374Y125485D01*
X11425Y125569D01*
X11479Y125651D01*
X11536Y125730D01*
X13483Y123621D02*
X13446Y123563D01*
X13407Y123507D01*
X13365Y123453D01*
X13320Y123401D01*
X13273Y123352D01*
X13223Y123305D01*
X13171Y123261D01*
X13116Y123220D01*
X13059Y123181D01*
X13001Y123146D01*
X12941Y123113D01*
X12879Y123084D01*
X12816Y123058D01*
X12751Y123035D01*
X12685Y123016D01*
X12619Y123000D01*
X12551Y122988D01*
X12484Y122979D01*
X12415Y122974D01*
X12347Y122972D01*
X14457Y125406D02*
X14493Y125464D01*
X14532Y125520D01*
X14574Y125574D01*
X14619Y125626D01*
X14667Y125675D01*
X14717Y125722D01*
X14769Y125766D01*
X14823Y125807D01*
X14880Y125846D01*
X14939Y125881D01*
X14999Y125914D01*
X15061Y125943D01*
X15124Y125969D01*
X15189Y125992D01*
X15254Y126011D01*
X15321Y126027D01*
X15388Y126039D01*
X15456Y126048D01*
X15525Y126053D01*
X15593Y126055D01*
X14457Y125405D02*
X13483Y123620D01*
X15593Y128333D02*
X11049Y129632D01*
X15593Y128333D02*
X15593Y131579D01*
X14295Y130605D02*
X16891Y130605D01*
X16891Y133794D02*
X16566Y133794D01*
X16566Y134119D01*
X16891Y134119D01*
X16891Y133794D01*
X15593Y136334D02*
X11049Y137633D01*
X15593Y136334D02*
X15593Y139580D01*
X14295Y138606D02*
X16891Y138606D01*
X318050Y60579D02*
X318120Y60581D01*
X318190Y60587D01*
X318260Y60596D01*
X318329Y60609D01*
X318397Y60626D01*
X318464Y60647D01*
X318530Y60671D01*
X318595Y60699D01*
X318658Y60730D01*
X318719Y60765D01*
X318778Y60803D01*
X318836Y60844D01*
X318890Y60888D01*
X318943Y60935D01*
X318992Y60984D01*
X319039Y61037D01*
X319083Y61091D01*
X319124Y61149D01*
X319162Y61208D01*
X319197Y61269D01*
X319228Y61332D01*
X319256Y61397D01*
X319280Y61463D01*
X319301Y61530D01*
X319318Y61598D01*
X319331Y61667D01*
X319340Y61737D01*
X319346Y61807D01*
X319348Y61877D01*
X318050Y60579D02*
X317947Y60581D01*
X317844Y60587D01*
X317741Y60596D01*
X317639Y60610D01*
X317538Y60627D01*
X317437Y60648D01*
X317337Y60673D01*
X317238Y60702D01*
X317140Y60734D01*
X317043Y60771D01*
X316948Y60810D01*
X316854Y60853D01*
X316762Y60900D01*
X316672Y60950D01*
X316584Y61004D01*
X316498Y61060D01*
X316414Y61120D01*
X316333Y61183D01*
X316254Y61249D01*
X316177Y61318D01*
X316103Y61390D01*
X316266Y65123D02*
X316268Y65193D01*
X316274Y65263D01*
X316283Y65333D01*
X316296Y65402D01*
X316313Y65470D01*
X316334Y65537D01*
X316358Y65603D01*
X316386Y65668D01*
X316417Y65731D01*
X316452Y65792D01*
X316490Y65851D01*
X316531Y65909D01*
X316575Y65963D01*
X316622Y66016D01*
X316671Y66065D01*
X316724Y66112D01*
X316778Y66156D01*
X316836Y66197D01*
X316895Y66235D01*
X316956Y66270D01*
X317019Y66301D01*
X317084Y66329D01*
X317150Y66353D01*
X317217Y66374D01*
X317285Y66391D01*
X317354Y66404D01*
X317424Y66413D01*
X317494Y66419D01*
X317564Y66421D01*
X317662Y66419D01*
X317760Y66413D01*
X317857Y66403D01*
X317954Y66390D01*
X318050Y66372D01*
X318146Y66350D01*
X318240Y66325D01*
X318334Y66296D01*
X318426Y66263D01*
X318517Y66227D01*
X318606Y66187D01*
X318694Y66143D01*
X318779Y66096D01*
X318863Y66045D01*
X318945Y65991D01*
X319024Y65934D01*
X316915Y63987D02*
X316857Y64024D01*
X316801Y64063D01*
X316747Y64105D01*
X316695Y64150D01*
X316646Y64197D01*
X316599Y64247D01*
X316555Y64299D01*
X316514Y64354D01*
X316475Y64411D01*
X316440Y64469D01*
X316407Y64529D01*
X316378Y64591D01*
X316352Y64654D01*
X316329Y64719D01*
X316310Y64785D01*
X316294Y64851D01*
X316282Y64919D01*
X316273Y64986D01*
X316268Y65055D01*
X316266Y65123D01*
X318700Y63013D02*
X318758Y62977D01*
X318814Y62938D01*
X318868Y62896D01*
X318920Y62851D01*
X318969Y62803D01*
X319016Y62753D01*
X319060Y62701D01*
X319101Y62647D01*
X319140Y62590D01*
X319175Y62531D01*
X319208Y62471D01*
X319237Y62409D01*
X319263Y62346D01*
X319286Y62281D01*
X319305Y62216D01*
X319321Y62149D01*
X319333Y62082D01*
X319342Y62014D01*
X319347Y61945D01*
X319349Y61877D01*
X318699Y63013D02*
X316914Y63987D01*
X321627Y61877D02*
X322926Y66421D01*
X321627Y61877D02*
X324873Y61877D01*
X323899Y63175D02*
X323899Y60579D01*
X327088Y60579D02*
X327088Y60904D01*
X327413Y60904D01*
X327413Y60579D01*
X327088Y60579D01*
X329628Y65123D02*
X331251Y66421D01*
X331251Y60579D01*
X329628Y60579D02*
X332874Y60579D01*
X287979Y61877D02*
X287977Y61807D01*
X287971Y61737D01*
X287962Y61667D01*
X287949Y61598D01*
X287932Y61530D01*
X287911Y61463D01*
X287887Y61397D01*
X287859Y61332D01*
X287828Y61269D01*
X287793Y61208D01*
X287755Y61149D01*
X287714Y61091D01*
X287670Y61037D01*
X287623Y60984D01*
X287574Y60935D01*
X287521Y60888D01*
X287467Y60844D01*
X287409Y60803D01*
X287350Y60765D01*
X287289Y60730D01*
X287226Y60699D01*
X287161Y60671D01*
X287095Y60647D01*
X287028Y60626D01*
X286960Y60609D01*
X286891Y60596D01*
X286821Y60587D01*
X286751Y60581D01*
X286681Y60579D01*
X286578Y60581D01*
X286475Y60587D01*
X286372Y60596D01*
X286270Y60610D01*
X286169Y60627D01*
X286068Y60648D01*
X285968Y60673D01*
X285869Y60702D01*
X285771Y60734D01*
X285674Y60771D01*
X285579Y60810D01*
X285485Y60853D01*
X285393Y60900D01*
X285303Y60950D01*
X285215Y61004D01*
X285129Y61060D01*
X285045Y61120D01*
X284964Y61183D01*
X284885Y61249D01*
X284808Y61318D01*
X284734Y61390D01*
X284897Y65123D02*
X284899Y65193D01*
X284905Y65263D01*
X284914Y65333D01*
X284927Y65402D01*
X284944Y65470D01*
X284965Y65537D01*
X284989Y65603D01*
X285017Y65668D01*
X285048Y65731D01*
X285083Y65792D01*
X285121Y65851D01*
X285162Y65909D01*
X285206Y65963D01*
X285253Y66016D01*
X285302Y66065D01*
X285355Y66112D01*
X285409Y66156D01*
X285467Y66197D01*
X285526Y66235D01*
X285587Y66270D01*
X285650Y66301D01*
X285715Y66329D01*
X285781Y66353D01*
X285848Y66374D01*
X285916Y66391D01*
X285985Y66404D01*
X286055Y66413D01*
X286125Y66419D01*
X286195Y66421D01*
X286293Y66419D01*
X286391Y66413D01*
X286488Y66403D01*
X286585Y66390D01*
X286681Y66372D01*
X286777Y66350D01*
X286871Y66325D01*
X286965Y66296D01*
X287057Y66263D01*
X287148Y66227D01*
X287237Y66187D01*
X287325Y66143D01*
X287410Y66096D01*
X287494Y66045D01*
X287576Y65991D01*
X287655Y65934D01*
X285546Y63987D02*
X285488Y64024D01*
X285432Y64063D01*
X285378Y64105D01*
X285326Y64150D01*
X285277Y64197D01*
X285230Y64247D01*
X285186Y64299D01*
X285145Y64354D01*
X285106Y64411D01*
X285071Y64469D01*
X285038Y64529D01*
X285009Y64591D01*
X284983Y64654D01*
X284960Y64719D01*
X284941Y64785D01*
X284925Y64851D01*
X284913Y64919D01*
X284904Y64986D01*
X284899Y65055D01*
X284897Y65123D01*
X287331Y63013D02*
X287389Y62977D01*
X287445Y62938D01*
X287499Y62896D01*
X287551Y62851D01*
X287600Y62803D01*
X287647Y62753D01*
X287691Y62701D01*
X287732Y62647D01*
X287771Y62590D01*
X287806Y62531D01*
X287839Y62471D01*
X287868Y62409D01*
X287894Y62346D01*
X287917Y62281D01*
X287936Y62216D01*
X287952Y62149D01*
X287964Y62082D01*
X287973Y62014D01*
X287978Y61945D01*
X287980Y61877D01*
X287330Y63013D02*
X285545Y63987D01*
X290258Y60579D02*
X291881Y60579D01*
X291961Y60581D01*
X292040Y60587D01*
X292119Y60597D01*
X292198Y60610D01*
X292275Y60628D01*
X292352Y60649D01*
X292428Y60674D01*
X292502Y60703D01*
X292575Y60735D01*
X292646Y60771D01*
X292715Y60810D01*
X292783Y60853D01*
X292848Y60898D01*
X292911Y60947D01*
X292971Y60999D01*
X293029Y61054D01*
X293084Y61112D01*
X293136Y61172D01*
X293185Y61235D01*
X293230Y61300D01*
X293273Y61368D01*
X293312Y61437D01*
X293348Y61508D01*
X293380Y61581D01*
X293409Y61655D01*
X293434Y61731D01*
X293455Y61808D01*
X293473Y61885D01*
X293486Y61964D01*
X293496Y62043D01*
X293502Y62122D01*
X293504Y62202D01*
X293502Y62282D01*
X293496Y62361D01*
X293486Y62440D01*
X293473Y62519D01*
X293455Y62596D01*
X293434Y62673D01*
X293409Y62749D01*
X293380Y62823D01*
X293348Y62896D01*
X293312Y62967D01*
X293273Y63036D01*
X293230Y63104D01*
X293185Y63169D01*
X293136Y63232D01*
X293084Y63292D01*
X293029Y63350D01*
X292971Y63405D01*
X292911Y63457D01*
X292848Y63506D01*
X292783Y63551D01*
X292715Y63594D01*
X292646Y63633D01*
X292575Y63669D01*
X292502Y63701D01*
X292428Y63730D01*
X292352Y63755D01*
X292275Y63776D01*
X292198Y63794D01*
X292119Y63807D01*
X292040Y63817D01*
X291961Y63823D01*
X291881Y63825D01*
X292206Y66421D02*
X290258Y66421D01*
X292206Y66421D02*
X292276Y66419D01*
X292346Y66413D01*
X292416Y66404D01*
X292485Y66391D01*
X292553Y66374D01*
X292620Y66353D01*
X292686Y66329D01*
X292751Y66301D01*
X292814Y66270D01*
X292875Y66235D01*
X292934Y66197D01*
X292992Y66156D01*
X293046Y66112D01*
X293099Y66065D01*
X293148Y66016D01*
X293195Y65963D01*
X293239Y65909D01*
X293280Y65851D01*
X293318Y65792D01*
X293353Y65731D01*
X293384Y65668D01*
X293412Y65603D01*
X293436Y65537D01*
X293457Y65470D01*
X293474Y65402D01*
X293487Y65333D01*
X293496Y65263D01*
X293502Y65193D01*
X293504Y65123D01*
X293502Y65053D01*
X293496Y64983D01*
X293487Y64913D01*
X293474Y64844D01*
X293457Y64776D01*
X293436Y64709D01*
X293412Y64643D01*
X293384Y64578D01*
X293353Y64515D01*
X293318Y64454D01*
X293280Y64395D01*
X293239Y64337D01*
X293195Y64283D01*
X293148Y64230D01*
X293099Y64181D01*
X293046Y64134D01*
X292992Y64090D01*
X292934Y64049D01*
X292875Y64011D01*
X292814Y63976D01*
X292751Y63945D01*
X292686Y63917D01*
X292620Y63893D01*
X292553Y63872D01*
X292485Y63855D01*
X292416Y63842D01*
X292346Y63833D01*
X292276Y63827D01*
X292206Y63825D01*
X290908Y63825D01*
X295719Y60904D02*
X295719Y60579D01*
X295719Y60904D02*
X296044Y60904D01*
X296044Y60579D01*
X295719Y60579D01*
X298259Y63825D02*
X300207Y63825D01*
X300207Y63824D02*
X300277Y63822D01*
X300347Y63816D01*
X300417Y63807D01*
X300486Y63794D01*
X300554Y63777D01*
X300621Y63756D01*
X300687Y63732D01*
X300752Y63704D01*
X300815Y63673D01*
X300876Y63638D01*
X300935Y63600D01*
X300993Y63559D01*
X301047Y63515D01*
X301100Y63468D01*
X301149Y63419D01*
X301196Y63366D01*
X301240Y63312D01*
X301281Y63254D01*
X301319Y63195D01*
X301354Y63134D01*
X301385Y63071D01*
X301413Y63006D01*
X301437Y62940D01*
X301458Y62873D01*
X301475Y62805D01*
X301488Y62736D01*
X301497Y62666D01*
X301503Y62596D01*
X301505Y62526D01*
X301505Y62202D01*
X301503Y62122D01*
X301497Y62043D01*
X301487Y61964D01*
X301474Y61885D01*
X301456Y61808D01*
X301435Y61731D01*
X301410Y61655D01*
X301381Y61581D01*
X301349Y61508D01*
X301313Y61437D01*
X301274Y61368D01*
X301231Y61300D01*
X301186Y61235D01*
X301137Y61172D01*
X301085Y61112D01*
X301030Y61054D01*
X300972Y60999D01*
X300912Y60947D01*
X300849Y60898D01*
X300784Y60853D01*
X300716Y60810D01*
X300647Y60771D01*
X300576Y60735D01*
X300503Y60703D01*
X300429Y60674D01*
X300353Y60649D01*
X300276Y60628D01*
X300199Y60610D01*
X300120Y60597D01*
X300041Y60587D01*
X299962Y60581D01*
X299882Y60579D01*
X299802Y60581D01*
X299723Y60587D01*
X299644Y60597D01*
X299565Y60610D01*
X299488Y60628D01*
X299411Y60649D01*
X299335Y60674D01*
X299261Y60703D01*
X299188Y60735D01*
X299117Y60771D01*
X299048Y60810D01*
X298980Y60853D01*
X298915Y60898D01*
X298852Y60947D01*
X298792Y60999D01*
X298734Y61054D01*
X298679Y61112D01*
X298627Y61172D01*
X298578Y61235D01*
X298533Y61300D01*
X298490Y61368D01*
X298451Y61437D01*
X298415Y61508D01*
X298383Y61581D01*
X298354Y61655D01*
X298329Y61731D01*
X298308Y61808D01*
X298290Y61885D01*
X298277Y61964D01*
X298267Y62043D01*
X298261Y62122D01*
X298259Y62202D01*
X298259Y63825D01*
X298260Y63825D02*
X298262Y63924D01*
X298268Y64024D01*
X298277Y64123D01*
X298290Y64221D01*
X298307Y64319D01*
X298328Y64417D01*
X298353Y64513D01*
X298381Y64608D01*
X298413Y64702D01*
X298448Y64795D01*
X298487Y64887D01*
X298530Y64977D01*
X298575Y65065D01*
X298625Y65152D01*
X298677Y65236D01*
X298733Y65319D01*
X298791Y65399D01*
X298853Y65477D01*
X298918Y65552D01*
X298986Y65625D01*
X299056Y65695D01*
X299129Y65763D01*
X299204Y65828D01*
X299282Y65890D01*
X299362Y65948D01*
X299445Y66004D01*
X299529Y66056D01*
X299616Y66106D01*
X299704Y66151D01*
X299794Y66194D01*
X299886Y66233D01*
X299978Y66268D01*
X300073Y66300D01*
X300168Y66328D01*
X300264Y66353D01*
X300362Y66374D01*
X300460Y66391D01*
X300558Y66404D01*
X300657Y66413D01*
X300757Y66419D01*
X300856Y66421D01*
X345440Y127169D02*
X345438Y127239D01*
X345432Y127309D01*
X345423Y127379D01*
X345410Y127448D01*
X345393Y127516D01*
X345372Y127583D01*
X345348Y127649D01*
X345320Y127714D01*
X345289Y127777D01*
X345254Y127838D01*
X345216Y127897D01*
X345175Y127955D01*
X345131Y128009D01*
X345084Y128062D01*
X345035Y128111D01*
X344982Y128158D01*
X344928Y128202D01*
X344870Y128243D01*
X344811Y128281D01*
X344750Y128316D01*
X344687Y128347D01*
X344622Y128375D01*
X344556Y128399D01*
X344489Y128420D01*
X344421Y128437D01*
X344352Y128450D01*
X344282Y128459D01*
X344212Y128465D01*
X344142Y128467D01*
X345440Y127169D02*
X345438Y127066D01*
X345432Y126963D01*
X345423Y126860D01*
X345409Y126758D01*
X345392Y126657D01*
X345371Y126556D01*
X345346Y126456D01*
X345317Y126357D01*
X345285Y126259D01*
X345248Y126162D01*
X345209Y126067D01*
X345166Y125973D01*
X345119Y125881D01*
X345069Y125791D01*
X345015Y125703D01*
X344959Y125617D01*
X344899Y125533D01*
X344836Y125452D01*
X344770Y125373D01*
X344701Y125296D01*
X344629Y125222D01*
X340896Y125385D02*
X340826Y125387D01*
X340756Y125393D01*
X340686Y125402D01*
X340617Y125415D01*
X340549Y125432D01*
X340482Y125453D01*
X340416Y125477D01*
X340351Y125505D01*
X340288Y125536D01*
X340227Y125571D01*
X340168Y125609D01*
X340110Y125650D01*
X340056Y125694D01*
X340003Y125741D01*
X339954Y125790D01*
X339907Y125843D01*
X339863Y125897D01*
X339822Y125955D01*
X339784Y126014D01*
X339749Y126075D01*
X339718Y126138D01*
X339690Y126203D01*
X339666Y126269D01*
X339645Y126336D01*
X339628Y126404D01*
X339615Y126473D01*
X339606Y126543D01*
X339600Y126613D01*
X339598Y126683D01*
X339600Y126781D01*
X339606Y126879D01*
X339616Y126976D01*
X339629Y127073D01*
X339647Y127169D01*
X339669Y127265D01*
X339694Y127359D01*
X339723Y127453D01*
X339756Y127545D01*
X339792Y127636D01*
X339832Y127725D01*
X339876Y127813D01*
X339923Y127898D01*
X339974Y127982D01*
X340028Y128064D01*
X340085Y128143D01*
X342032Y126034D02*
X341995Y125976D01*
X341956Y125920D01*
X341914Y125866D01*
X341869Y125814D01*
X341822Y125765D01*
X341772Y125718D01*
X341720Y125674D01*
X341665Y125633D01*
X341608Y125594D01*
X341550Y125559D01*
X341490Y125526D01*
X341428Y125497D01*
X341365Y125471D01*
X341300Y125448D01*
X341234Y125429D01*
X341168Y125413D01*
X341100Y125401D01*
X341033Y125392D01*
X340964Y125387D01*
X340896Y125385D01*
X343006Y127819D02*
X343042Y127877D01*
X343081Y127933D01*
X343123Y127987D01*
X343168Y128039D01*
X343216Y128088D01*
X343266Y128135D01*
X343318Y128179D01*
X343372Y128220D01*
X343429Y128259D01*
X343488Y128294D01*
X343548Y128327D01*
X343610Y128356D01*
X343673Y128382D01*
X343738Y128405D01*
X343803Y128424D01*
X343870Y128440D01*
X343937Y128452D01*
X344005Y128461D01*
X344074Y128466D01*
X344142Y128468D01*
X343006Y127818D02*
X342032Y126033D01*
X344142Y130746D02*
X339598Y132045D01*
X344142Y130746D02*
X344142Y133992D01*
X342844Y133018D02*
X345440Y133018D01*
X345440Y136207D02*
X345115Y136207D01*
X345115Y136532D01*
X345440Y136532D01*
X345440Y136207D01*
X345440Y138747D02*
X345440Y140370D01*
X345438Y140450D01*
X345432Y140529D01*
X345422Y140608D01*
X345409Y140687D01*
X345391Y140764D01*
X345370Y140841D01*
X345345Y140917D01*
X345316Y140991D01*
X345284Y141064D01*
X345248Y141135D01*
X345209Y141204D01*
X345166Y141272D01*
X345121Y141337D01*
X345072Y141400D01*
X345020Y141460D01*
X344965Y141518D01*
X344907Y141573D01*
X344847Y141625D01*
X344784Y141674D01*
X344719Y141719D01*
X344651Y141762D01*
X344582Y141801D01*
X344511Y141837D01*
X344438Y141869D01*
X344364Y141898D01*
X344288Y141923D01*
X344211Y141944D01*
X344134Y141962D01*
X344055Y141975D01*
X343976Y141985D01*
X343897Y141991D01*
X343817Y141993D01*
X343737Y141991D01*
X343658Y141985D01*
X343579Y141975D01*
X343500Y141962D01*
X343423Y141944D01*
X343346Y141923D01*
X343270Y141898D01*
X343196Y141869D01*
X343123Y141837D01*
X343052Y141801D01*
X342983Y141762D01*
X342915Y141719D01*
X342850Y141674D01*
X342787Y141625D01*
X342727Y141573D01*
X342669Y141518D01*
X342614Y141460D01*
X342562Y141400D01*
X342513Y141337D01*
X342468Y141272D01*
X342425Y141204D01*
X342386Y141135D01*
X342350Y141064D01*
X342318Y140991D01*
X342289Y140917D01*
X342264Y140841D01*
X342243Y140764D01*
X342225Y140687D01*
X342212Y140608D01*
X342202Y140529D01*
X342196Y140450D01*
X342194Y140370D01*
X339598Y140695D02*
X339598Y138747D01*
X339598Y140695D02*
X339600Y140765D01*
X339606Y140835D01*
X339615Y140905D01*
X339628Y140974D01*
X339645Y141042D01*
X339666Y141109D01*
X339690Y141175D01*
X339718Y141240D01*
X339749Y141303D01*
X339784Y141364D01*
X339822Y141423D01*
X339863Y141481D01*
X339907Y141535D01*
X339954Y141588D01*
X340003Y141637D01*
X340056Y141684D01*
X340110Y141728D01*
X340168Y141769D01*
X340227Y141807D01*
X340288Y141842D01*
X340351Y141873D01*
X340416Y141901D01*
X340482Y141925D01*
X340549Y141946D01*
X340617Y141963D01*
X340686Y141976D01*
X340756Y141985D01*
X340826Y141991D01*
X340896Y141993D01*
X340966Y141991D01*
X341036Y141985D01*
X341106Y141976D01*
X341175Y141963D01*
X341243Y141946D01*
X341310Y141925D01*
X341376Y141901D01*
X341441Y141873D01*
X341504Y141842D01*
X341565Y141807D01*
X341624Y141769D01*
X341682Y141728D01*
X341736Y141684D01*
X341789Y141637D01*
X341838Y141588D01*
X341885Y141535D01*
X341929Y141481D01*
X341970Y141423D01*
X342008Y141364D01*
X342043Y141303D01*
X342074Y141240D01*
X342102Y141175D01*
X342126Y141109D01*
X342147Y141042D01*
X342164Y140974D01*
X342177Y140905D01*
X342186Y140835D01*
X342192Y140765D01*
X342194Y140695D01*
X342194Y139397D01*
D11*
X129286Y132419D02*
X129284Y132518D01*
X129278Y132618D01*
X129269Y132717D01*
X129256Y132815D01*
X129239Y132913D01*
X129218Y133011D01*
X129193Y133107D01*
X129165Y133202D01*
X129133Y133296D01*
X129098Y133389D01*
X129059Y133481D01*
X129016Y133571D01*
X128971Y133659D01*
X128921Y133746D01*
X128869Y133830D01*
X128813Y133913D01*
X128755Y133993D01*
X128693Y134071D01*
X128628Y134146D01*
X128560Y134219D01*
X128490Y134289D01*
X128417Y134357D01*
X128342Y134422D01*
X128264Y134484D01*
X128184Y134542D01*
X128101Y134598D01*
X128017Y134650D01*
X127930Y134700D01*
X127842Y134745D01*
X127752Y134788D01*
X127660Y134827D01*
X127567Y134862D01*
X127473Y134894D01*
X127378Y134922D01*
X127282Y134947D01*
X127184Y134968D01*
X127086Y134985D01*
X126988Y134998D01*
X126889Y135007D01*
X126789Y135013D01*
X126690Y135015D01*
X129286Y132419D02*
X129284Y132275D01*
X129278Y132130D01*
X129269Y131986D01*
X129256Y131843D01*
X129239Y131699D01*
X129218Y131556D01*
X129193Y131414D01*
X129165Y131273D01*
X129133Y131132D01*
X129097Y130992D01*
X129058Y130853D01*
X129015Y130715D01*
X128968Y130579D01*
X128918Y130443D01*
X128864Y130309D01*
X128807Y130177D01*
X128746Y130046D01*
X128682Y129917D01*
X128614Y129789D01*
X128544Y129663D01*
X128469Y129539D01*
X128392Y129418D01*
X128311Y129298D01*
X128228Y129180D01*
X128141Y129065D01*
X128051Y128952D01*
X127958Y128841D01*
X127863Y128733D01*
X127764Y128627D01*
X127663Y128524D01*
X120198Y128849D02*
X120099Y128851D01*
X119999Y128857D01*
X119900Y128866D01*
X119802Y128879D01*
X119704Y128896D01*
X119606Y128917D01*
X119510Y128942D01*
X119415Y128970D01*
X119321Y129002D01*
X119228Y129037D01*
X119136Y129076D01*
X119046Y129119D01*
X118958Y129164D01*
X118871Y129214D01*
X118787Y129266D01*
X118704Y129322D01*
X118624Y129380D01*
X118546Y129442D01*
X118471Y129507D01*
X118398Y129575D01*
X118328Y129645D01*
X118260Y129718D01*
X118195Y129793D01*
X118133Y129871D01*
X118075Y129951D01*
X118019Y130034D01*
X117967Y130118D01*
X117917Y130205D01*
X117872Y130293D01*
X117829Y130383D01*
X117790Y130475D01*
X117755Y130568D01*
X117723Y130662D01*
X117695Y130757D01*
X117670Y130853D01*
X117649Y130951D01*
X117632Y131049D01*
X117619Y131147D01*
X117610Y131246D01*
X117604Y131346D01*
X117602Y131445D01*
X117604Y131581D01*
X117610Y131717D01*
X117619Y131853D01*
X117632Y131989D01*
X117650Y132124D01*
X117670Y132258D01*
X117695Y132392D01*
X117723Y132526D01*
X117756Y132658D01*
X117791Y132789D01*
X117831Y132920D01*
X117874Y133049D01*
X117920Y133177D01*
X117971Y133303D01*
X118024Y133429D01*
X118082Y133552D01*
X118142Y133674D01*
X118206Y133794D01*
X118274Y133913D01*
X118344Y134029D01*
X118418Y134143D01*
X118495Y134256D01*
X118576Y134366D01*
X122470Y130147D02*
X122417Y130061D01*
X122360Y129977D01*
X122301Y129895D01*
X122238Y129815D01*
X122172Y129738D01*
X122104Y129663D01*
X122032Y129591D01*
X121958Y129522D01*
X121881Y129456D01*
X121802Y129393D01*
X121720Y129333D01*
X121636Y129276D01*
X121550Y129222D01*
X121462Y129172D01*
X121372Y129125D01*
X121281Y129081D01*
X121187Y129042D01*
X121093Y129005D01*
X120997Y128973D01*
X120899Y128944D01*
X120801Y128919D01*
X120702Y128898D01*
X120602Y128880D01*
X120502Y128867D01*
X120401Y128857D01*
X120299Y128851D01*
X120198Y128849D01*
X124418Y133717D02*
X124471Y133803D01*
X124528Y133887D01*
X124587Y133969D01*
X124650Y134049D01*
X124716Y134126D01*
X124784Y134201D01*
X124856Y134273D01*
X124930Y134342D01*
X125007Y134408D01*
X125086Y134471D01*
X125168Y134531D01*
X125252Y134588D01*
X125338Y134642D01*
X125426Y134692D01*
X125516Y134739D01*
X125607Y134783D01*
X125701Y134822D01*
X125795Y134859D01*
X125891Y134891D01*
X125989Y134920D01*
X126087Y134945D01*
X126186Y134966D01*
X126286Y134984D01*
X126386Y134997D01*
X126487Y135007D01*
X126589Y135013D01*
X126690Y135015D01*
X124418Y133717D02*
X122470Y130147D01*
X121497Y139390D02*
X129286Y139390D01*
X118251Y139065D02*
X117602Y139065D01*
X117602Y139714D01*
X118251Y139714D01*
X118251Y139065D01*
X117602Y149166D02*
X129286Y149166D01*
X129286Y145920D01*
X129284Y145833D01*
X129278Y145745D01*
X129268Y145659D01*
X129255Y145572D01*
X129237Y145487D01*
X129216Y145402D01*
X129191Y145318D01*
X129162Y145236D01*
X129129Y145155D01*
X129093Y145075D01*
X129054Y144997D01*
X129010Y144921D01*
X128964Y144847D01*
X128914Y144776D01*
X128861Y144706D01*
X128805Y144639D01*
X128746Y144575D01*
X128684Y144513D01*
X128620Y144454D01*
X128553Y144398D01*
X128483Y144345D01*
X128412Y144295D01*
X128338Y144249D01*
X128262Y144205D01*
X128184Y144166D01*
X128104Y144130D01*
X128023Y144097D01*
X127941Y144068D01*
X127857Y144043D01*
X127772Y144022D01*
X127687Y144004D01*
X127600Y143991D01*
X127514Y143981D01*
X127426Y143975D01*
X127339Y143973D01*
X123444Y143973D01*
X123357Y143975D01*
X123269Y143981D01*
X123183Y143991D01*
X123096Y144004D01*
X123011Y144022D01*
X122926Y144043D01*
X122842Y144068D01*
X122760Y144097D01*
X122679Y144130D01*
X122599Y144166D01*
X122521Y144205D01*
X122445Y144249D01*
X122371Y144295D01*
X122300Y144345D01*
X122230Y144398D01*
X122163Y144454D01*
X122099Y144513D01*
X122037Y144575D01*
X121978Y144639D01*
X121922Y144706D01*
X121869Y144776D01*
X121819Y144847D01*
X121773Y144921D01*
X121729Y144997D01*
X121690Y145075D01*
X121654Y145155D01*
X121621Y145236D01*
X121592Y145318D01*
X121567Y145402D01*
X121546Y145487D01*
X121528Y145572D01*
X121515Y145659D01*
X121505Y145745D01*
X121499Y145833D01*
X121497Y145920D01*
X121497Y149166D01*
X129286Y156266D02*
X129286Y159512D01*
X129286Y156266D02*
X129284Y156179D01*
X129278Y156091D01*
X129268Y156005D01*
X129255Y155918D01*
X129237Y155833D01*
X129216Y155748D01*
X129191Y155664D01*
X129162Y155582D01*
X129129Y155501D01*
X129093Y155421D01*
X129054Y155343D01*
X129010Y155267D01*
X128964Y155193D01*
X128914Y155122D01*
X128861Y155052D01*
X128805Y154985D01*
X128746Y154921D01*
X128684Y154859D01*
X128620Y154800D01*
X128553Y154744D01*
X128483Y154691D01*
X128412Y154641D01*
X128338Y154595D01*
X128262Y154551D01*
X128184Y154512D01*
X128104Y154476D01*
X128023Y154443D01*
X127941Y154414D01*
X127857Y154389D01*
X127772Y154368D01*
X127687Y154350D01*
X127600Y154337D01*
X127514Y154327D01*
X127426Y154321D01*
X127339Y154319D01*
X124093Y154319D01*
X123992Y154321D01*
X123892Y154327D01*
X123792Y154337D01*
X123692Y154350D01*
X123593Y154368D01*
X123494Y154389D01*
X123397Y154414D01*
X123300Y154443D01*
X123205Y154476D01*
X123111Y154512D01*
X123019Y154552D01*
X122928Y154595D01*
X122839Y154642D01*
X122752Y154692D01*
X122666Y154746D01*
X122583Y154803D01*
X122503Y154863D01*
X122424Y154926D01*
X122348Y154993D01*
X122275Y155062D01*
X122205Y155134D01*
X122137Y155208D01*
X122072Y155285D01*
X122011Y155365D01*
X121952Y155447D01*
X121897Y155531D01*
X121845Y155617D01*
X121796Y155705D01*
X121751Y155795D01*
X121709Y155887D01*
X121671Y155980D01*
X121637Y156075D01*
X121606Y156170D01*
X121579Y156267D01*
X121556Y156365D01*
X121536Y156464D01*
X121521Y156564D01*
X121509Y156664D01*
X121501Y156764D01*
X121497Y156865D01*
X121497Y156965D01*
X121501Y157066D01*
X121509Y157166D01*
X121521Y157266D01*
X121536Y157366D01*
X121556Y157465D01*
X121579Y157563D01*
X121606Y157660D01*
X121637Y157755D01*
X121671Y157850D01*
X121709Y157943D01*
X121751Y158035D01*
X121796Y158125D01*
X121845Y158213D01*
X121897Y158299D01*
X121952Y158383D01*
X122011Y158465D01*
X122072Y158545D01*
X122137Y158622D01*
X122205Y158696D01*
X122275Y158768D01*
X122348Y158837D01*
X122424Y158904D01*
X122503Y158967D01*
X122583Y159027D01*
X122666Y159084D01*
X122752Y159138D01*
X122839Y159188D01*
X122928Y159235D01*
X123019Y159278D01*
X123111Y159318D01*
X123205Y159354D01*
X123300Y159387D01*
X123397Y159416D01*
X123494Y159441D01*
X123593Y159462D01*
X123692Y159480D01*
X123792Y159493D01*
X123892Y159503D01*
X123992Y159509D01*
X124093Y159511D01*
X124093Y159512D02*
X125391Y159512D01*
X125391Y154319D01*
X120198Y164338D02*
X117602Y167583D01*
X129286Y167583D01*
X129286Y164338D02*
X129286Y170829D01*
X158708Y198628D02*
X158807Y198630D01*
X158907Y198636D01*
X159006Y198645D01*
X159104Y198658D01*
X159202Y198675D01*
X159300Y198696D01*
X159396Y198721D01*
X159491Y198749D01*
X159585Y198781D01*
X159678Y198816D01*
X159770Y198855D01*
X159860Y198898D01*
X159948Y198943D01*
X160035Y198993D01*
X160119Y199045D01*
X160202Y199101D01*
X160282Y199159D01*
X160360Y199221D01*
X160435Y199286D01*
X160508Y199354D01*
X160578Y199424D01*
X160646Y199497D01*
X160711Y199572D01*
X160773Y199650D01*
X160831Y199730D01*
X160887Y199813D01*
X160939Y199897D01*
X160989Y199984D01*
X161034Y200072D01*
X161077Y200162D01*
X161116Y200254D01*
X161151Y200347D01*
X161183Y200441D01*
X161211Y200536D01*
X161236Y200632D01*
X161257Y200730D01*
X161274Y200828D01*
X161287Y200926D01*
X161296Y201025D01*
X161302Y201125D01*
X161304Y201224D01*
X158708Y198628D02*
X158564Y198630D01*
X158419Y198636D01*
X158275Y198645D01*
X158132Y198658D01*
X157988Y198675D01*
X157845Y198696D01*
X157703Y198721D01*
X157562Y198749D01*
X157421Y198781D01*
X157281Y198817D01*
X157142Y198856D01*
X157004Y198899D01*
X156868Y198946D01*
X156732Y198996D01*
X156598Y199050D01*
X156466Y199107D01*
X156335Y199168D01*
X156206Y199232D01*
X156078Y199300D01*
X155952Y199370D01*
X155828Y199445D01*
X155707Y199522D01*
X155587Y199603D01*
X155469Y199686D01*
X155354Y199773D01*
X155241Y199863D01*
X155130Y199956D01*
X155022Y200051D01*
X154916Y200150D01*
X154813Y200251D01*
X155138Y207716D02*
X155140Y207815D01*
X155146Y207915D01*
X155155Y208014D01*
X155168Y208112D01*
X155185Y208210D01*
X155206Y208308D01*
X155231Y208404D01*
X155259Y208499D01*
X155291Y208593D01*
X155326Y208686D01*
X155365Y208778D01*
X155408Y208868D01*
X155453Y208956D01*
X155503Y209043D01*
X155555Y209127D01*
X155611Y209210D01*
X155669Y209290D01*
X155731Y209368D01*
X155796Y209443D01*
X155864Y209516D01*
X155934Y209586D01*
X156007Y209654D01*
X156082Y209719D01*
X156160Y209781D01*
X156240Y209839D01*
X156323Y209895D01*
X156407Y209947D01*
X156494Y209997D01*
X156582Y210042D01*
X156672Y210085D01*
X156764Y210124D01*
X156857Y210159D01*
X156951Y210191D01*
X157046Y210219D01*
X157143Y210244D01*
X157240Y210265D01*
X157338Y210282D01*
X157436Y210295D01*
X157535Y210304D01*
X157635Y210310D01*
X157734Y210312D01*
X157870Y210310D01*
X158006Y210304D01*
X158142Y210295D01*
X158278Y210282D01*
X158413Y210264D01*
X158547Y210244D01*
X158681Y210219D01*
X158815Y210191D01*
X158947Y210158D01*
X159078Y210123D01*
X159209Y210083D01*
X159338Y210040D01*
X159466Y209994D01*
X159592Y209943D01*
X159718Y209890D01*
X159841Y209832D01*
X159963Y209772D01*
X160083Y209708D01*
X160202Y209640D01*
X160318Y209570D01*
X160432Y209496D01*
X160545Y209419D01*
X160655Y209338D01*
X156436Y205444D02*
X156350Y205497D01*
X156266Y205554D01*
X156184Y205613D01*
X156104Y205676D01*
X156027Y205742D01*
X155952Y205810D01*
X155880Y205882D01*
X155811Y205956D01*
X155745Y206033D01*
X155682Y206112D01*
X155622Y206194D01*
X155565Y206278D01*
X155511Y206364D01*
X155461Y206452D01*
X155414Y206542D01*
X155370Y206633D01*
X155331Y206727D01*
X155294Y206821D01*
X155262Y206917D01*
X155233Y207015D01*
X155208Y207113D01*
X155187Y207212D01*
X155169Y207312D01*
X155156Y207412D01*
X155146Y207513D01*
X155140Y207615D01*
X155138Y207716D01*
X160006Y203496D02*
X160092Y203443D01*
X160176Y203386D01*
X160258Y203327D01*
X160338Y203264D01*
X160415Y203198D01*
X160490Y203130D01*
X160562Y203058D01*
X160631Y202984D01*
X160697Y202907D01*
X160760Y202828D01*
X160820Y202746D01*
X160877Y202662D01*
X160931Y202576D01*
X160981Y202488D01*
X161028Y202398D01*
X161072Y202307D01*
X161111Y202213D01*
X161148Y202119D01*
X161180Y202023D01*
X161209Y201925D01*
X161234Y201827D01*
X161255Y201728D01*
X161273Y201628D01*
X161286Y201528D01*
X161296Y201427D01*
X161302Y201325D01*
X161304Y201224D01*
X160006Y203496D02*
X156436Y205444D01*
X165679Y206417D02*
X165679Y198628D01*
X165354Y209663D02*
X165354Y210312D01*
X166003Y210312D01*
X166003Y209663D01*
X165354Y209663D01*
X175455Y210312D02*
X175455Y198628D01*
X172209Y198628D01*
X172122Y198630D01*
X172034Y198636D01*
X171948Y198646D01*
X171861Y198659D01*
X171776Y198677D01*
X171691Y198698D01*
X171607Y198723D01*
X171525Y198752D01*
X171444Y198785D01*
X171364Y198821D01*
X171286Y198860D01*
X171210Y198904D01*
X171136Y198950D01*
X171065Y199000D01*
X170995Y199053D01*
X170928Y199109D01*
X170864Y199168D01*
X170802Y199230D01*
X170743Y199294D01*
X170687Y199361D01*
X170634Y199431D01*
X170584Y199502D01*
X170538Y199576D01*
X170494Y199652D01*
X170455Y199730D01*
X170419Y199810D01*
X170386Y199891D01*
X170357Y199973D01*
X170332Y200057D01*
X170311Y200142D01*
X170293Y200227D01*
X170280Y200314D01*
X170270Y200400D01*
X170264Y200488D01*
X170262Y200575D01*
X170262Y204470D01*
X170264Y204557D01*
X170270Y204645D01*
X170280Y204731D01*
X170293Y204818D01*
X170311Y204903D01*
X170332Y204988D01*
X170357Y205072D01*
X170386Y205154D01*
X170419Y205235D01*
X170455Y205315D01*
X170494Y205393D01*
X170538Y205469D01*
X170584Y205543D01*
X170634Y205614D01*
X170687Y205684D01*
X170743Y205751D01*
X170802Y205815D01*
X170864Y205877D01*
X170928Y205936D01*
X170995Y205992D01*
X171065Y206045D01*
X171136Y206095D01*
X171210Y206141D01*
X171286Y206185D01*
X171364Y206224D01*
X171444Y206260D01*
X171525Y206293D01*
X171607Y206322D01*
X171691Y206347D01*
X171776Y206368D01*
X171861Y206386D01*
X171948Y206399D01*
X172034Y206409D01*
X172122Y206415D01*
X172209Y206417D01*
X175455Y206417D01*
X182555Y198628D02*
X185801Y198628D01*
X182555Y198628D02*
X182468Y198630D01*
X182380Y198636D01*
X182294Y198646D01*
X182207Y198659D01*
X182122Y198677D01*
X182037Y198698D01*
X181953Y198723D01*
X181871Y198752D01*
X181790Y198785D01*
X181710Y198821D01*
X181632Y198860D01*
X181556Y198904D01*
X181482Y198950D01*
X181411Y199000D01*
X181341Y199053D01*
X181274Y199109D01*
X181210Y199168D01*
X181148Y199230D01*
X181089Y199294D01*
X181033Y199361D01*
X180980Y199431D01*
X180930Y199502D01*
X180884Y199576D01*
X180840Y199652D01*
X180801Y199730D01*
X180765Y199810D01*
X180732Y199891D01*
X180703Y199973D01*
X180678Y200057D01*
X180657Y200142D01*
X180639Y200227D01*
X180626Y200314D01*
X180616Y200400D01*
X180610Y200488D01*
X180608Y200575D01*
X180608Y203821D01*
X180610Y203922D01*
X180616Y204022D01*
X180626Y204122D01*
X180639Y204222D01*
X180657Y204321D01*
X180678Y204420D01*
X180703Y204517D01*
X180732Y204614D01*
X180765Y204709D01*
X180801Y204803D01*
X180841Y204895D01*
X180884Y204986D01*
X180931Y205075D01*
X180981Y205162D01*
X181035Y205248D01*
X181092Y205331D01*
X181152Y205411D01*
X181215Y205490D01*
X181282Y205566D01*
X181351Y205639D01*
X181423Y205709D01*
X181497Y205777D01*
X181574Y205842D01*
X181654Y205903D01*
X181736Y205962D01*
X181820Y206017D01*
X181906Y206069D01*
X181994Y206118D01*
X182084Y206163D01*
X182176Y206205D01*
X182269Y206243D01*
X182364Y206277D01*
X182459Y206308D01*
X182556Y206335D01*
X182654Y206358D01*
X182753Y206378D01*
X182853Y206393D01*
X182953Y206405D01*
X183053Y206413D01*
X183154Y206417D01*
X183254Y206417D01*
X183355Y206413D01*
X183455Y206405D01*
X183555Y206393D01*
X183655Y206378D01*
X183754Y206358D01*
X183852Y206335D01*
X183949Y206308D01*
X184044Y206277D01*
X184139Y206243D01*
X184232Y206205D01*
X184324Y206163D01*
X184414Y206118D01*
X184502Y206069D01*
X184588Y206017D01*
X184672Y205962D01*
X184754Y205903D01*
X184834Y205842D01*
X184911Y205777D01*
X184985Y205709D01*
X185057Y205639D01*
X185126Y205566D01*
X185193Y205490D01*
X185256Y205411D01*
X185316Y205331D01*
X185373Y205248D01*
X185427Y205162D01*
X185477Y205075D01*
X185524Y204986D01*
X185567Y204895D01*
X185607Y204803D01*
X185643Y204709D01*
X185676Y204614D01*
X185705Y204517D01*
X185730Y204420D01*
X185751Y204321D01*
X185769Y204222D01*
X185782Y204122D01*
X185792Y204022D01*
X185798Y203922D01*
X185800Y203821D01*
X185801Y203821D02*
X185801Y202523D01*
X180608Y202523D01*
X194197Y210312D02*
X194304Y210310D01*
X194410Y210304D01*
X194516Y210294D01*
X194622Y210281D01*
X194728Y210263D01*
X194832Y210242D01*
X194936Y210217D01*
X195039Y210188D01*
X195140Y210156D01*
X195240Y210119D01*
X195339Y210079D01*
X195437Y210036D01*
X195533Y209989D01*
X195627Y209938D01*
X195719Y209884D01*
X195809Y209827D01*
X195897Y209767D01*
X195982Y209703D01*
X196065Y209636D01*
X196146Y209566D01*
X196224Y209494D01*
X196300Y209418D01*
X196372Y209340D01*
X196442Y209259D01*
X196509Y209176D01*
X196573Y209091D01*
X196633Y209003D01*
X196690Y208913D01*
X196744Y208821D01*
X196795Y208727D01*
X196842Y208631D01*
X196885Y208533D01*
X196925Y208434D01*
X196962Y208334D01*
X196994Y208233D01*
X197023Y208130D01*
X197048Y208026D01*
X197069Y207922D01*
X197087Y207816D01*
X197100Y207710D01*
X197110Y207604D01*
X197116Y207498D01*
X197118Y207391D01*
X194197Y210312D02*
X194076Y210310D01*
X193955Y210304D01*
X193835Y210294D01*
X193714Y210281D01*
X193595Y210263D01*
X193475Y210242D01*
X193357Y210217D01*
X193240Y210188D01*
X193123Y210155D01*
X193008Y210119D01*
X192894Y210078D01*
X192781Y210035D01*
X192669Y209987D01*
X192560Y209936D01*
X192452Y209881D01*
X192345Y209823D01*
X192241Y209762D01*
X192139Y209697D01*
X192039Y209629D01*
X191941Y209558D01*
X191845Y209484D01*
X191752Y209407D01*
X191662Y209326D01*
X191574Y209243D01*
X191489Y209157D01*
X191406Y209068D01*
X191327Y208977D01*
X191250Y208883D01*
X191177Y208787D01*
X191107Y208689D01*
X191040Y208588D01*
X190976Y208485D01*
X190916Y208380D01*
X190859Y208273D01*
X190805Y208165D01*
X190755Y208055D01*
X190709Y207943D01*
X190666Y207830D01*
X190627Y207715D01*
X196145Y205119D02*
X196224Y205196D01*
X196300Y205277D01*
X196373Y205360D01*
X196443Y205445D01*
X196510Y205533D01*
X196574Y205623D01*
X196634Y205715D01*
X196691Y205810D01*
X196745Y205906D01*
X196796Y206004D01*
X196843Y206104D01*
X196887Y206206D01*
X196927Y206309D01*
X196963Y206413D01*
X196995Y206519D01*
X197024Y206625D01*
X197049Y206733D01*
X197071Y206841D01*
X197088Y206951D01*
X197102Y207060D01*
X197111Y207170D01*
X197117Y207281D01*
X197119Y207391D01*
X196144Y205119D02*
X190627Y198628D01*
X197118Y198628D01*
X236291Y135015D02*
X236390Y135013D01*
X236490Y135007D01*
X236589Y134998D01*
X236687Y134985D01*
X236785Y134968D01*
X236883Y134947D01*
X236979Y134922D01*
X237074Y134894D01*
X237168Y134862D01*
X237261Y134827D01*
X237353Y134788D01*
X237443Y134745D01*
X237531Y134700D01*
X237618Y134650D01*
X237702Y134598D01*
X237785Y134542D01*
X237865Y134484D01*
X237943Y134422D01*
X238018Y134357D01*
X238091Y134289D01*
X238161Y134219D01*
X238229Y134146D01*
X238294Y134071D01*
X238356Y133993D01*
X238414Y133913D01*
X238470Y133830D01*
X238522Y133746D01*
X238572Y133659D01*
X238617Y133571D01*
X238660Y133481D01*
X238699Y133389D01*
X238734Y133296D01*
X238766Y133202D01*
X238794Y133107D01*
X238819Y133011D01*
X238840Y132913D01*
X238857Y132815D01*
X238870Y132717D01*
X238879Y132618D01*
X238885Y132518D01*
X238887Y132419D01*
X238885Y132275D01*
X238879Y132130D01*
X238870Y131986D01*
X238857Y131843D01*
X238840Y131699D01*
X238819Y131556D01*
X238794Y131414D01*
X238766Y131273D01*
X238734Y131132D01*
X238698Y130992D01*
X238659Y130853D01*
X238616Y130715D01*
X238569Y130579D01*
X238519Y130443D01*
X238465Y130309D01*
X238408Y130177D01*
X238347Y130046D01*
X238283Y129917D01*
X238215Y129789D01*
X238145Y129663D01*
X238070Y129539D01*
X237993Y129418D01*
X237912Y129298D01*
X237829Y129180D01*
X237742Y129065D01*
X237652Y128952D01*
X237559Y128841D01*
X237464Y128733D01*
X237365Y128627D01*
X237264Y128524D01*
X229799Y128849D02*
X229700Y128851D01*
X229600Y128857D01*
X229501Y128866D01*
X229403Y128879D01*
X229305Y128896D01*
X229207Y128917D01*
X229111Y128942D01*
X229016Y128970D01*
X228922Y129002D01*
X228829Y129037D01*
X228737Y129076D01*
X228647Y129119D01*
X228559Y129164D01*
X228472Y129214D01*
X228388Y129266D01*
X228305Y129322D01*
X228225Y129380D01*
X228147Y129442D01*
X228072Y129507D01*
X227999Y129575D01*
X227929Y129645D01*
X227861Y129718D01*
X227796Y129793D01*
X227734Y129871D01*
X227676Y129951D01*
X227620Y130034D01*
X227568Y130118D01*
X227518Y130205D01*
X227473Y130293D01*
X227430Y130383D01*
X227391Y130475D01*
X227356Y130568D01*
X227324Y130662D01*
X227296Y130757D01*
X227271Y130853D01*
X227250Y130951D01*
X227233Y131049D01*
X227220Y131147D01*
X227211Y131246D01*
X227205Y131346D01*
X227203Y131445D01*
X227205Y131581D01*
X227211Y131717D01*
X227220Y131853D01*
X227233Y131989D01*
X227251Y132124D01*
X227271Y132258D01*
X227296Y132392D01*
X227324Y132526D01*
X227357Y132658D01*
X227392Y132789D01*
X227432Y132920D01*
X227475Y133049D01*
X227521Y133177D01*
X227572Y133303D01*
X227625Y133429D01*
X227683Y133552D01*
X227743Y133674D01*
X227807Y133794D01*
X227875Y133913D01*
X227945Y134029D01*
X228019Y134143D01*
X228096Y134256D01*
X228177Y134366D01*
X232071Y130147D02*
X232018Y130061D01*
X231961Y129977D01*
X231902Y129895D01*
X231839Y129815D01*
X231773Y129738D01*
X231705Y129663D01*
X231633Y129591D01*
X231559Y129522D01*
X231482Y129456D01*
X231403Y129393D01*
X231321Y129333D01*
X231237Y129276D01*
X231151Y129222D01*
X231063Y129172D01*
X230973Y129125D01*
X230882Y129081D01*
X230788Y129042D01*
X230694Y129005D01*
X230598Y128973D01*
X230500Y128944D01*
X230402Y128919D01*
X230303Y128898D01*
X230203Y128880D01*
X230103Y128867D01*
X230002Y128857D01*
X229900Y128851D01*
X229799Y128849D01*
X234019Y133717D02*
X234072Y133803D01*
X234129Y133887D01*
X234188Y133969D01*
X234251Y134049D01*
X234317Y134126D01*
X234385Y134201D01*
X234457Y134273D01*
X234531Y134342D01*
X234608Y134408D01*
X234687Y134471D01*
X234769Y134531D01*
X234853Y134588D01*
X234939Y134642D01*
X235027Y134692D01*
X235117Y134739D01*
X235208Y134783D01*
X235302Y134822D01*
X235396Y134859D01*
X235492Y134891D01*
X235590Y134920D01*
X235688Y134945D01*
X235787Y134966D01*
X235887Y134984D01*
X235987Y134997D01*
X236088Y135007D01*
X236190Y135013D01*
X236291Y135015D01*
X234019Y133717D02*
X232071Y130147D01*
X231098Y139390D02*
X238887Y139390D01*
X227852Y139065D02*
X227203Y139065D01*
X227203Y139714D01*
X227852Y139714D01*
X227852Y139065D01*
X227203Y149166D02*
X238887Y149166D01*
X238887Y145920D01*
X238885Y145833D01*
X238879Y145745D01*
X238869Y145659D01*
X238856Y145572D01*
X238838Y145487D01*
X238817Y145402D01*
X238792Y145318D01*
X238763Y145236D01*
X238730Y145155D01*
X238694Y145075D01*
X238655Y144997D01*
X238611Y144921D01*
X238565Y144847D01*
X238515Y144776D01*
X238462Y144706D01*
X238406Y144639D01*
X238347Y144575D01*
X238285Y144513D01*
X238221Y144454D01*
X238154Y144398D01*
X238084Y144345D01*
X238013Y144295D01*
X237939Y144249D01*
X237863Y144205D01*
X237785Y144166D01*
X237705Y144130D01*
X237624Y144097D01*
X237542Y144068D01*
X237458Y144043D01*
X237373Y144022D01*
X237288Y144004D01*
X237201Y143991D01*
X237115Y143981D01*
X237027Y143975D01*
X236940Y143973D01*
X233045Y143973D01*
X232958Y143975D01*
X232870Y143981D01*
X232784Y143991D01*
X232697Y144004D01*
X232612Y144022D01*
X232527Y144043D01*
X232443Y144068D01*
X232361Y144097D01*
X232280Y144130D01*
X232200Y144166D01*
X232122Y144205D01*
X232046Y144249D01*
X231972Y144295D01*
X231901Y144345D01*
X231831Y144398D01*
X231764Y144454D01*
X231700Y144513D01*
X231638Y144575D01*
X231579Y144639D01*
X231523Y144706D01*
X231470Y144776D01*
X231420Y144847D01*
X231374Y144921D01*
X231330Y144997D01*
X231291Y145075D01*
X231255Y145155D01*
X231222Y145236D01*
X231193Y145318D01*
X231168Y145402D01*
X231147Y145487D01*
X231129Y145572D01*
X231116Y145659D01*
X231106Y145745D01*
X231100Y145833D01*
X231098Y145920D01*
X231098Y149166D01*
X238887Y156266D02*
X238887Y159512D01*
X238887Y156266D02*
X238885Y156179D01*
X238879Y156091D01*
X238869Y156005D01*
X238856Y155918D01*
X238838Y155833D01*
X238817Y155748D01*
X238792Y155664D01*
X238763Y155582D01*
X238730Y155501D01*
X238694Y155421D01*
X238655Y155343D01*
X238611Y155267D01*
X238565Y155193D01*
X238515Y155122D01*
X238462Y155052D01*
X238406Y154985D01*
X238347Y154921D01*
X238285Y154859D01*
X238221Y154800D01*
X238154Y154744D01*
X238084Y154691D01*
X238013Y154641D01*
X237939Y154595D01*
X237863Y154551D01*
X237785Y154512D01*
X237705Y154476D01*
X237624Y154443D01*
X237542Y154414D01*
X237458Y154389D01*
X237373Y154368D01*
X237288Y154350D01*
X237201Y154337D01*
X237115Y154327D01*
X237027Y154321D01*
X236940Y154319D01*
X233694Y154319D01*
X233593Y154321D01*
X233493Y154327D01*
X233393Y154337D01*
X233293Y154350D01*
X233194Y154368D01*
X233095Y154389D01*
X232998Y154414D01*
X232901Y154443D01*
X232806Y154476D01*
X232712Y154512D01*
X232620Y154552D01*
X232529Y154595D01*
X232440Y154642D01*
X232353Y154692D01*
X232267Y154746D01*
X232184Y154803D01*
X232104Y154863D01*
X232025Y154926D01*
X231949Y154993D01*
X231876Y155062D01*
X231806Y155134D01*
X231738Y155208D01*
X231673Y155285D01*
X231612Y155365D01*
X231553Y155447D01*
X231498Y155531D01*
X231446Y155617D01*
X231397Y155705D01*
X231352Y155795D01*
X231310Y155887D01*
X231272Y155980D01*
X231238Y156075D01*
X231207Y156170D01*
X231180Y156267D01*
X231157Y156365D01*
X231137Y156464D01*
X231122Y156564D01*
X231110Y156664D01*
X231102Y156764D01*
X231098Y156865D01*
X231098Y156965D01*
X231102Y157066D01*
X231110Y157166D01*
X231122Y157266D01*
X231137Y157366D01*
X231157Y157465D01*
X231180Y157563D01*
X231207Y157660D01*
X231238Y157755D01*
X231272Y157850D01*
X231310Y157943D01*
X231352Y158035D01*
X231397Y158125D01*
X231446Y158213D01*
X231498Y158299D01*
X231553Y158383D01*
X231612Y158465D01*
X231673Y158545D01*
X231738Y158622D01*
X231806Y158696D01*
X231876Y158768D01*
X231949Y158837D01*
X232025Y158904D01*
X232104Y158967D01*
X232184Y159027D01*
X232267Y159084D01*
X232353Y159138D01*
X232440Y159188D01*
X232529Y159235D01*
X232620Y159278D01*
X232712Y159318D01*
X232806Y159354D01*
X232901Y159387D01*
X232998Y159416D01*
X233095Y159441D01*
X233194Y159462D01*
X233293Y159480D01*
X233393Y159493D01*
X233493Y159503D01*
X233593Y159509D01*
X233694Y159511D01*
X233694Y159512D02*
X234992Y159512D01*
X234992Y154319D01*
X238887Y164338D02*
X238887Y167583D01*
X238885Y167696D01*
X238879Y167809D01*
X238869Y167922D01*
X238855Y168035D01*
X238838Y168147D01*
X238816Y168258D01*
X238791Y168368D01*
X238761Y168478D01*
X238728Y168586D01*
X238691Y168693D01*
X238651Y168799D01*
X238606Y168903D01*
X238558Y169006D01*
X238507Y169107D01*
X238452Y169206D01*
X238394Y169303D01*
X238332Y169398D01*
X238267Y169491D01*
X238199Y169581D01*
X238128Y169669D01*
X238053Y169755D01*
X237976Y169838D01*
X237896Y169918D01*
X237813Y169995D01*
X237727Y170070D01*
X237639Y170141D01*
X237549Y170209D01*
X237456Y170274D01*
X237361Y170336D01*
X237264Y170394D01*
X237165Y170449D01*
X237064Y170500D01*
X236961Y170548D01*
X236857Y170593D01*
X236751Y170633D01*
X236644Y170670D01*
X236536Y170703D01*
X236426Y170733D01*
X236316Y170758D01*
X236205Y170780D01*
X236093Y170797D01*
X235980Y170811D01*
X235867Y170821D01*
X235754Y170827D01*
X235641Y170829D01*
X235528Y170827D01*
X235415Y170821D01*
X235302Y170811D01*
X235189Y170797D01*
X235077Y170780D01*
X234966Y170758D01*
X234856Y170733D01*
X234746Y170703D01*
X234638Y170670D01*
X234531Y170633D01*
X234425Y170593D01*
X234321Y170548D01*
X234218Y170500D01*
X234117Y170449D01*
X234018Y170394D01*
X233921Y170336D01*
X233826Y170274D01*
X233733Y170209D01*
X233643Y170141D01*
X233555Y170070D01*
X233469Y169995D01*
X233386Y169918D01*
X233306Y169838D01*
X233229Y169755D01*
X233154Y169669D01*
X233083Y169581D01*
X233015Y169491D01*
X232950Y169398D01*
X232888Y169303D01*
X232830Y169206D01*
X232775Y169107D01*
X232724Y169006D01*
X232676Y168903D01*
X232631Y168799D01*
X232591Y168693D01*
X232554Y168586D01*
X232521Y168478D01*
X232491Y168368D01*
X232466Y168258D01*
X232444Y168147D01*
X232427Y168035D01*
X232413Y167922D01*
X232403Y167809D01*
X232397Y167696D01*
X232395Y167583D01*
X227203Y168233D02*
X227203Y164338D01*
X227203Y168233D02*
X227205Y168334D01*
X227211Y168434D01*
X227221Y168534D01*
X227234Y168634D01*
X227252Y168733D01*
X227273Y168832D01*
X227298Y168929D01*
X227327Y169026D01*
X227360Y169121D01*
X227396Y169215D01*
X227436Y169307D01*
X227479Y169398D01*
X227526Y169487D01*
X227576Y169574D01*
X227630Y169660D01*
X227687Y169743D01*
X227747Y169823D01*
X227810Y169902D01*
X227877Y169978D01*
X227946Y170051D01*
X228018Y170121D01*
X228092Y170189D01*
X228169Y170254D01*
X228249Y170315D01*
X228331Y170374D01*
X228415Y170429D01*
X228501Y170481D01*
X228589Y170530D01*
X228679Y170575D01*
X228771Y170617D01*
X228864Y170655D01*
X228959Y170689D01*
X229054Y170720D01*
X229151Y170747D01*
X229249Y170770D01*
X229348Y170790D01*
X229448Y170805D01*
X229548Y170817D01*
X229648Y170825D01*
X229749Y170829D01*
X229849Y170829D01*
X229950Y170825D01*
X230050Y170817D01*
X230150Y170805D01*
X230250Y170790D01*
X230349Y170770D01*
X230447Y170747D01*
X230544Y170720D01*
X230639Y170689D01*
X230734Y170655D01*
X230827Y170617D01*
X230919Y170575D01*
X231009Y170530D01*
X231097Y170481D01*
X231183Y170429D01*
X231267Y170374D01*
X231349Y170315D01*
X231429Y170254D01*
X231506Y170189D01*
X231580Y170121D01*
X231652Y170051D01*
X231721Y169978D01*
X231788Y169902D01*
X231851Y169823D01*
X231911Y169743D01*
X231968Y169660D01*
X232022Y169574D01*
X232072Y169487D01*
X232119Y169398D01*
X232162Y169307D01*
X232202Y169215D01*
X232238Y169121D01*
X232271Y169026D01*
X232300Y168929D01*
X232325Y168832D01*
X232346Y168733D01*
X232364Y168634D01*
X232377Y168534D01*
X232387Y168434D01*
X232393Y168334D01*
X232395Y168233D01*
X232396Y168233D02*
X232396Y165636D01*
X162066Y92004D02*
X162064Y91905D01*
X162058Y91805D01*
X162049Y91706D01*
X162036Y91608D01*
X162019Y91510D01*
X161998Y91412D01*
X161973Y91316D01*
X161945Y91221D01*
X161913Y91127D01*
X161878Y91034D01*
X161839Y90942D01*
X161796Y90852D01*
X161751Y90764D01*
X161701Y90677D01*
X161649Y90593D01*
X161593Y90510D01*
X161535Y90430D01*
X161473Y90352D01*
X161408Y90277D01*
X161340Y90204D01*
X161270Y90134D01*
X161197Y90066D01*
X161122Y90001D01*
X161044Y89939D01*
X160964Y89881D01*
X160881Y89825D01*
X160797Y89773D01*
X160710Y89723D01*
X160622Y89678D01*
X160532Y89635D01*
X160440Y89596D01*
X160347Y89561D01*
X160253Y89529D01*
X160158Y89501D01*
X160062Y89476D01*
X159964Y89455D01*
X159866Y89438D01*
X159768Y89425D01*
X159669Y89416D01*
X159569Y89410D01*
X159470Y89408D01*
X159326Y89410D01*
X159181Y89416D01*
X159037Y89425D01*
X158894Y89438D01*
X158750Y89455D01*
X158607Y89476D01*
X158465Y89501D01*
X158324Y89529D01*
X158183Y89561D01*
X158043Y89597D01*
X157904Y89636D01*
X157766Y89679D01*
X157630Y89726D01*
X157494Y89776D01*
X157360Y89830D01*
X157228Y89887D01*
X157097Y89948D01*
X156968Y90012D01*
X156840Y90080D01*
X156714Y90150D01*
X156590Y90225D01*
X156469Y90302D01*
X156349Y90383D01*
X156231Y90466D01*
X156116Y90553D01*
X156003Y90643D01*
X155892Y90736D01*
X155784Y90831D01*
X155678Y90930D01*
X155575Y91031D01*
X155900Y98496D02*
X155902Y98595D01*
X155908Y98695D01*
X155917Y98794D01*
X155930Y98892D01*
X155947Y98990D01*
X155968Y99088D01*
X155993Y99184D01*
X156021Y99279D01*
X156053Y99373D01*
X156088Y99466D01*
X156127Y99558D01*
X156170Y99648D01*
X156215Y99736D01*
X156265Y99823D01*
X156317Y99907D01*
X156373Y99990D01*
X156431Y100070D01*
X156493Y100148D01*
X156558Y100223D01*
X156626Y100296D01*
X156696Y100366D01*
X156769Y100434D01*
X156844Y100499D01*
X156922Y100561D01*
X157002Y100619D01*
X157085Y100675D01*
X157169Y100727D01*
X157256Y100777D01*
X157344Y100822D01*
X157434Y100865D01*
X157526Y100904D01*
X157619Y100939D01*
X157713Y100971D01*
X157808Y100999D01*
X157905Y101024D01*
X158002Y101045D01*
X158100Y101062D01*
X158198Y101075D01*
X158297Y101084D01*
X158397Y101090D01*
X158496Y101092D01*
X158632Y101090D01*
X158768Y101084D01*
X158904Y101075D01*
X159040Y101062D01*
X159175Y101044D01*
X159309Y101024D01*
X159443Y100999D01*
X159577Y100971D01*
X159709Y100938D01*
X159840Y100903D01*
X159971Y100863D01*
X160100Y100820D01*
X160228Y100774D01*
X160354Y100723D01*
X160480Y100670D01*
X160603Y100612D01*
X160725Y100552D01*
X160845Y100488D01*
X160964Y100420D01*
X161080Y100350D01*
X161194Y100276D01*
X161307Y100199D01*
X161417Y100118D01*
X157198Y96224D02*
X157112Y96277D01*
X157028Y96334D01*
X156946Y96393D01*
X156866Y96456D01*
X156789Y96522D01*
X156714Y96590D01*
X156642Y96662D01*
X156573Y96736D01*
X156507Y96813D01*
X156444Y96892D01*
X156384Y96974D01*
X156327Y97058D01*
X156273Y97144D01*
X156223Y97232D01*
X156176Y97322D01*
X156132Y97413D01*
X156093Y97507D01*
X156056Y97601D01*
X156024Y97697D01*
X155995Y97795D01*
X155970Y97893D01*
X155949Y97992D01*
X155931Y98092D01*
X155918Y98192D01*
X155908Y98293D01*
X155902Y98395D01*
X155900Y98496D01*
X160768Y94276D02*
X160854Y94223D01*
X160938Y94166D01*
X161020Y94107D01*
X161100Y94044D01*
X161177Y93978D01*
X161252Y93910D01*
X161324Y93838D01*
X161393Y93764D01*
X161459Y93687D01*
X161522Y93608D01*
X161582Y93526D01*
X161639Y93442D01*
X161693Y93356D01*
X161743Y93268D01*
X161790Y93178D01*
X161834Y93087D01*
X161873Y92993D01*
X161910Y92899D01*
X161942Y92803D01*
X161971Y92705D01*
X161996Y92607D01*
X162017Y92508D01*
X162035Y92408D01*
X162048Y92308D01*
X162058Y92207D01*
X162064Y92105D01*
X162066Y92004D01*
X160768Y94276D02*
X157198Y96224D01*
X166441Y97197D02*
X166441Y89408D01*
X166116Y100443D02*
X166116Y101092D01*
X166765Y101092D01*
X166765Y100443D01*
X166116Y100443D01*
X176217Y101092D02*
X176217Y89408D01*
X172971Y89408D01*
X172884Y89410D01*
X172796Y89416D01*
X172710Y89426D01*
X172623Y89439D01*
X172538Y89457D01*
X172453Y89478D01*
X172369Y89503D01*
X172287Y89532D01*
X172206Y89565D01*
X172126Y89601D01*
X172048Y89640D01*
X171972Y89684D01*
X171898Y89730D01*
X171827Y89780D01*
X171757Y89833D01*
X171690Y89889D01*
X171626Y89948D01*
X171564Y90010D01*
X171505Y90074D01*
X171449Y90141D01*
X171396Y90211D01*
X171346Y90282D01*
X171300Y90356D01*
X171256Y90432D01*
X171217Y90510D01*
X171181Y90590D01*
X171148Y90671D01*
X171119Y90753D01*
X171094Y90837D01*
X171073Y90922D01*
X171055Y91007D01*
X171042Y91094D01*
X171032Y91180D01*
X171026Y91268D01*
X171024Y91355D01*
X171024Y95250D01*
X171026Y95337D01*
X171032Y95425D01*
X171042Y95511D01*
X171055Y95598D01*
X171073Y95683D01*
X171094Y95768D01*
X171119Y95852D01*
X171148Y95934D01*
X171181Y96015D01*
X171217Y96095D01*
X171256Y96173D01*
X171300Y96249D01*
X171346Y96323D01*
X171396Y96394D01*
X171449Y96464D01*
X171505Y96531D01*
X171564Y96595D01*
X171626Y96657D01*
X171690Y96716D01*
X171757Y96772D01*
X171827Y96825D01*
X171898Y96875D01*
X171972Y96921D01*
X172048Y96965D01*
X172126Y97004D01*
X172206Y97040D01*
X172287Y97073D01*
X172369Y97102D01*
X172453Y97127D01*
X172538Y97148D01*
X172623Y97166D01*
X172710Y97179D01*
X172796Y97189D01*
X172884Y97195D01*
X172971Y97197D01*
X176217Y97197D01*
X183317Y89408D02*
X186563Y89408D01*
X183317Y89408D02*
X183230Y89410D01*
X183142Y89416D01*
X183056Y89426D01*
X182969Y89439D01*
X182884Y89457D01*
X182799Y89478D01*
X182715Y89503D01*
X182633Y89532D01*
X182552Y89565D01*
X182472Y89601D01*
X182394Y89640D01*
X182318Y89684D01*
X182244Y89730D01*
X182173Y89780D01*
X182103Y89833D01*
X182036Y89889D01*
X181972Y89948D01*
X181910Y90010D01*
X181851Y90074D01*
X181795Y90141D01*
X181742Y90211D01*
X181692Y90282D01*
X181646Y90356D01*
X181602Y90432D01*
X181563Y90510D01*
X181527Y90590D01*
X181494Y90671D01*
X181465Y90753D01*
X181440Y90837D01*
X181419Y90922D01*
X181401Y91007D01*
X181388Y91094D01*
X181378Y91180D01*
X181372Y91268D01*
X181370Y91355D01*
X181370Y94601D01*
X181372Y94702D01*
X181378Y94802D01*
X181388Y94902D01*
X181401Y95002D01*
X181419Y95101D01*
X181440Y95200D01*
X181465Y95297D01*
X181494Y95394D01*
X181527Y95489D01*
X181563Y95583D01*
X181603Y95675D01*
X181646Y95766D01*
X181693Y95855D01*
X181743Y95942D01*
X181797Y96028D01*
X181854Y96111D01*
X181914Y96191D01*
X181977Y96270D01*
X182044Y96346D01*
X182113Y96419D01*
X182185Y96489D01*
X182259Y96557D01*
X182336Y96622D01*
X182416Y96683D01*
X182498Y96742D01*
X182582Y96797D01*
X182668Y96849D01*
X182756Y96898D01*
X182846Y96943D01*
X182938Y96985D01*
X183031Y97023D01*
X183126Y97057D01*
X183221Y97088D01*
X183318Y97115D01*
X183416Y97138D01*
X183515Y97158D01*
X183615Y97173D01*
X183715Y97185D01*
X183815Y97193D01*
X183916Y97197D01*
X184016Y97197D01*
X184117Y97193D01*
X184217Y97185D01*
X184317Y97173D01*
X184417Y97158D01*
X184516Y97138D01*
X184614Y97115D01*
X184711Y97088D01*
X184806Y97057D01*
X184901Y97023D01*
X184994Y96985D01*
X185086Y96943D01*
X185176Y96898D01*
X185264Y96849D01*
X185350Y96797D01*
X185434Y96742D01*
X185516Y96683D01*
X185596Y96622D01*
X185673Y96557D01*
X185747Y96489D01*
X185819Y96419D01*
X185888Y96346D01*
X185955Y96270D01*
X186018Y96191D01*
X186078Y96111D01*
X186135Y96028D01*
X186189Y95942D01*
X186239Y95855D01*
X186286Y95766D01*
X186329Y95675D01*
X186369Y95583D01*
X186405Y95489D01*
X186438Y95394D01*
X186467Y95297D01*
X186492Y95200D01*
X186513Y95101D01*
X186531Y95002D01*
X186544Y94902D01*
X186554Y94802D01*
X186560Y94702D01*
X186562Y94601D01*
X186563Y94601D02*
X186563Y93303D01*
X181370Y93303D01*
X191389Y92004D02*
X193985Y101092D01*
X191389Y92004D02*
X197880Y92004D01*
X195933Y94601D02*
X195933Y89408D01*
D12*
X95250Y187960D02*
X88900Y194310D01*
X88900Y207010D01*
X95250Y213360D01*
X107950Y213360D02*
X114300Y207010D01*
X114300Y194310D01*
X107950Y187960D01*
X88900Y156210D02*
X88900Y143510D01*
X88900Y156210D02*
X95250Y162560D01*
X107950Y162560D02*
X114300Y156210D01*
X95250Y162560D02*
X88900Y168910D01*
X88900Y181610D01*
X95250Y187960D01*
X107950Y187960D02*
X114300Y181610D01*
X114300Y168910D01*
X107950Y162560D01*
X88900Y118110D02*
X95250Y111760D01*
X88900Y118110D02*
X88900Y130810D01*
X95250Y137160D01*
X107950Y137160D02*
X114300Y130810D01*
X114300Y118110D01*
X107950Y111760D01*
X95250Y137160D02*
X88900Y143510D01*
X107950Y137160D02*
X114300Y143510D01*
X114300Y156210D01*
X88900Y80010D02*
X88900Y67310D01*
X88900Y80010D02*
X95250Y86360D01*
X107950Y86360D02*
X114300Y80010D01*
X95250Y86360D02*
X88900Y92710D01*
X88900Y105410D01*
X95250Y111760D01*
X107950Y111760D02*
X114300Y105410D01*
X114300Y92710D01*
X107950Y86360D01*
X107950Y60960D02*
X95250Y60960D01*
X88900Y67310D01*
X107950Y60960D02*
X114300Y67310D01*
X114300Y80010D01*
X107950Y213360D02*
X95250Y213360D01*
D13*
X85923Y63204D02*
X82169Y63204D01*
X85923Y63203D02*
X85988Y63201D01*
X86052Y63195D01*
X86116Y63185D01*
X86180Y63172D01*
X86242Y63154D01*
X86303Y63133D01*
X86363Y63109D01*
X86421Y63080D01*
X86478Y63048D01*
X86532Y63013D01*
X86584Y62975D01*
X86634Y62933D01*
X86681Y62889D01*
X86725Y62842D01*
X86767Y62792D01*
X86805Y62740D01*
X86840Y62686D01*
X86872Y62629D01*
X86901Y62571D01*
X86925Y62511D01*
X86946Y62450D01*
X86964Y62388D01*
X86977Y62324D01*
X86987Y62260D01*
X86993Y62196D01*
X86995Y62131D01*
X86995Y61595D01*
X83241Y66152D02*
X82169Y67492D01*
X86995Y67492D01*
X86995Y66152D02*
X86995Y68833D01*
D12*
X215900Y232410D02*
X222250Y238760D01*
X234950Y238760D01*
X241300Y232410D01*
X241300Y219710D02*
X234950Y213360D01*
X222250Y213360D01*
X215900Y219710D01*
X184150Y238760D02*
X171450Y238760D01*
X184150Y238760D02*
X190500Y232410D01*
X190500Y219710D02*
X184150Y213360D01*
X190500Y232410D02*
X196850Y238760D01*
X209550Y238760D01*
X215900Y232410D01*
X215900Y219710D02*
X209550Y213360D01*
X196850Y213360D01*
X190500Y219710D01*
X146050Y238760D02*
X139700Y232410D01*
X146050Y238760D02*
X158750Y238760D01*
X165100Y232410D01*
X165100Y219710D02*
X158750Y213360D01*
X146050Y213360D01*
X139700Y219710D01*
X165100Y232410D02*
X171450Y238760D01*
X165100Y219710D02*
X171450Y213360D01*
X184150Y213360D01*
X107950Y238760D02*
X95250Y238760D01*
X107950Y238760D02*
X114300Y232410D01*
X114300Y219710D02*
X107950Y213360D01*
X114300Y232410D02*
X120650Y238760D01*
X133350Y238760D01*
X139700Y232410D01*
X139700Y219710D02*
X133350Y213360D01*
X120650Y213360D01*
X114300Y219710D01*
X88900Y219710D02*
X88900Y232410D01*
X95250Y238760D01*
X88900Y219710D02*
X95250Y213360D01*
X107950Y213360D01*
X241300Y219710D02*
X241300Y232410D01*
D13*
X91144Y241737D02*
X91144Y245491D01*
X91143Y241737D02*
X91141Y241672D01*
X91135Y241608D01*
X91125Y241544D01*
X91112Y241480D01*
X91094Y241418D01*
X91073Y241357D01*
X91049Y241297D01*
X91020Y241239D01*
X90988Y241182D01*
X90953Y241128D01*
X90915Y241076D01*
X90873Y241026D01*
X90829Y240979D01*
X90782Y240935D01*
X90732Y240893D01*
X90680Y240855D01*
X90626Y240820D01*
X90569Y240788D01*
X90511Y240759D01*
X90451Y240735D01*
X90390Y240714D01*
X90328Y240696D01*
X90264Y240683D01*
X90200Y240673D01*
X90136Y240667D01*
X90071Y240665D01*
X89535Y240665D01*
X95566Y245491D02*
X95634Y245489D01*
X95701Y245483D01*
X95768Y245474D01*
X95835Y245461D01*
X95900Y245444D01*
X95965Y245423D01*
X96028Y245399D01*
X96090Y245371D01*
X96150Y245340D01*
X96208Y245306D01*
X96264Y245268D01*
X96319Y245228D01*
X96370Y245184D01*
X96419Y245137D01*
X96466Y245088D01*
X96510Y245037D01*
X96550Y244982D01*
X96588Y244926D01*
X96622Y244868D01*
X96653Y244808D01*
X96681Y244746D01*
X96705Y244683D01*
X96726Y244618D01*
X96743Y244553D01*
X96756Y244486D01*
X96765Y244419D01*
X96771Y244352D01*
X96773Y244284D01*
X95566Y245491D02*
X95488Y245489D01*
X95410Y245483D01*
X95333Y245473D01*
X95256Y245460D01*
X95180Y245442D01*
X95105Y245421D01*
X95031Y245396D01*
X94959Y245367D01*
X94888Y245335D01*
X94819Y245299D01*
X94751Y245260D01*
X94686Y245217D01*
X94623Y245171D01*
X94562Y245122D01*
X94504Y245070D01*
X94449Y245015D01*
X94396Y244958D01*
X94347Y244898D01*
X94300Y244835D01*
X94257Y244771D01*
X94217Y244704D01*
X94180Y244635D01*
X94147Y244564D01*
X94117Y244492D01*
X94091Y244419D01*
X96371Y243346D02*
X96420Y243395D01*
X96467Y243447D01*
X96510Y243502D01*
X96551Y243559D01*
X96589Y243618D01*
X96623Y243679D01*
X96654Y243742D01*
X96682Y243806D01*
X96706Y243872D01*
X96726Y243938D01*
X96743Y244006D01*
X96756Y244075D01*
X96765Y244144D01*
X96771Y244214D01*
X96773Y244284D01*
X96371Y243346D02*
X94092Y240665D01*
X96773Y240665D01*
D12*
X260350Y111760D02*
X266700Y105410D01*
X266700Y92710D01*
X260350Y86360D01*
X247650Y86360D02*
X241300Y92710D01*
X241300Y105410D01*
X247650Y111760D01*
X266700Y143510D02*
X266700Y156210D01*
X266700Y143510D02*
X260350Y137160D01*
X247650Y137160D02*
X241300Y143510D01*
X260350Y137160D02*
X266700Y130810D01*
X266700Y118110D01*
X260350Y111760D01*
X247650Y111760D02*
X241300Y118110D01*
X241300Y130810D01*
X247650Y137160D01*
X266700Y181610D02*
X260350Y187960D01*
X266700Y181610D02*
X266700Y168910D01*
X260350Y162560D01*
X247650Y162560D02*
X241300Y168910D01*
X241300Y181610D01*
X247650Y187960D01*
X260350Y162560D02*
X266700Y156210D01*
X247650Y162560D02*
X241300Y156210D01*
X241300Y143510D01*
X266700Y219710D02*
X266700Y232410D01*
X266700Y219710D02*
X260350Y213360D01*
X247650Y213360D02*
X241300Y219710D01*
X260350Y213360D02*
X266700Y207010D01*
X266700Y194310D01*
X260350Y187960D01*
X247650Y187960D02*
X241300Y194310D01*
X241300Y207010D01*
X247650Y213360D01*
X247650Y238760D02*
X260350Y238760D01*
X266700Y232410D01*
X247650Y238760D02*
X241300Y232410D01*
X241300Y219710D01*
X247650Y86360D02*
X260350Y86360D01*
D13*
X268605Y232496D02*
X272359Y232496D01*
X272424Y232494D01*
X272488Y232488D01*
X272552Y232478D01*
X272616Y232465D01*
X272678Y232447D01*
X272739Y232426D01*
X272799Y232402D01*
X272857Y232373D01*
X272914Y232341D01*
X272968Y232306D01*
X273020Y232268D01*
X273070Y232226D01*
X273117Y232182D01*
X273161Y232135D01*
X273203Y232085D01*
X273241Y232033D01*
X273276Y231979D01*
X273308Y231922D01*
X273337Y231864D01*
X273361Y231804D01*
X273382Y231743D01*
X273400Y231681D01*
X273413Y231617D01*
X273423Y231553D01*
X273429Y231489D01*
X273431Y231424D01*
X273431Y230887D01*
X273431Y235444D02*
X273431Y236784D01*
X273429Y236855D01*
X273423Y236927D01*
X273414Y236997D01*
X273401Y237067D01*
X273384Y237137D01*
X273363Y237205D01*
X273339Y237272D01*
X273311Y237338D01*
X273280Y237402D01*
X273245Y237465D01*
X273207Y237525D01*
X273166Y237584D01*
X273122Y237640D01*
X273075Y237694D01*
X273026Y237745D01*
X272973Y237793D01*
X272918Y237839D01*
X272861Y237881D01*
X272801Y237921D01*
X272740Y237957D01*
X272676Y237990D01*
X272611Y238019D01*
X272545Y238045D01*
X272477Y238068D01*
X272408Y238087D01*
X272338Y238102D01*
X272268Y238113D01*
X272197Y238121D01*
X272126Y238125D01*
X272054Y238125D01*
X271983Y238121D01*
X271912Y238113D01*
X271842Y238102D01*
X271772Y238087D01*
X271703Y238068D01*
X271635Y238045D01*
X271569Y238019D01*
X271504Y237990D01*
X271440Y237957D01*
X271379Y237921D01*
X271319Y237881D01*
X271262Y237839D01*
X271207Y237793D01*
X271154Y237745D01*
X271105Y237694D01*
X271058Y237640D01*
X271014Y237584D01*
X270973Y237525D01*
X270935Y237465D01*
X270900Y237402D01*
X270869Y237338D01*
X270841Y237272D01*
X270817Y237205D01*
X270796Y237137D01*
X270779Y237067D01*
X270766Y236997D01*
X270757Y236927D01*
X270751Y236855D01*
X270749Y236784D01*
X268605Y237053D02*
X268605Y235444D01*
X268605Y237053D02*
X268607Y237118D01*
X268613Y237182D01*
X268623Y237246D01*
X268636Y237310D01*
X268654Y237372D01*
X268675Y237433D01*
X268699Y237493D01*
X268728Y237551D01*
X268760Y237608D01*
X268795Y237662D01*
X268833Y237714D01*
X268875Y237764D01*
X268919Y237811D01*
X268966Y237855D01*
X269016Y237897D01*
X269068Y237935D01*
X269122Y237970D01*
X269179Y238002D01*
X269237Y238031D01*
X269297Y238055D01*
X269358Y238076D01*
X269420Y238094D01*
X269484Y238107D01*
X269548Y238117D01*
X269612Y238123D01*
X269677Y238125D01*
X269742Y238123D01*
X269806Y238117D01*
X269870Y238107D01*
X269934Y238094D01*
X269996Y238076D01*
X270057Y238055D01*
X270117Y238031D01*
X270175Y238002D01*
X270232Y237970D01*
X270286Y237935D01*
X270338Y237897D01*
X270388Y237855D01*
X270435Y237811D01*
X270479Y237764D01*
X270521Y237714D01*
X270559Y237662D01*
X270594Y237608D01*
X270626Y237551D01*
X270655Y237493D01*
X270679Y237433D01*
X270700Y237372D01*
X270718Y237310D01*
X270731Y237246D01*
X270741Y237182D01*
X270747Y237118D01*
X270749Y237053D01*
X270750Y237053D02*
X270750Y235980D01*
D12*
X139700Y67310D02*
X133350Y60960D01*
X120650Y60960D01*
X114300Y67310D01*
X114300Y80010D02*
X120650Y86360D01*
X133350Y86360D01*
X139700Y80010D01*
X171450Y60960D02*
X184150Y60960D01*
X171450Y60960D02*
X165100Y67310D01*
X165100Y80010D02*
X171450Y86360D01*
X165100Y67310D02*
X158750Y60960D01*
X146050Y60960D01*
X139700Y67310D01*
X139700Y80010D02*
X146050Y86360D01*
X158750Y86360D01*
X165100Y80010D01*
X209550Y60960D02*
X215900Y67310D01*
X209550Y60960D02*
X196850Y60960D01*
X190500Y67310D01*
X190500Y80010D02*
X196850Y86360D01*
X209550Y86360D01*
X215900Y80010D01*
X190500Y67310D02*
X184150Y60960D01*
X190500Y80010D02*
X184150Y86360D01*
X171450Y86360D01*
X247650Y60960D02*
X260350Y60960D01*
X247650Y60960D02*
X241300Y67310D01*
X241300Y80010D02*
X247650Y86360D01*
X241300Y67310D02*
X234950Y60960D01*
X222250Y60960D01*
X215900Y67310D01*
X215900Y80010D02*
X222250Y86360D01*
X234950Y86360D01*
X241300Y80010D01*
X266700Y80010D02*
X266700Y67310D01*
X260350Y60960D01*
X266700Y80010D02*
X260350Y86360D01*
X247650Y86360D01*
X114300Y80010D02*
X114300Y67310D01*
D13*
X260436Y59055D02*
X260436Y55301D01*
X260434Y55236D01*
X260428Y55172D01*
X260418Y55108D01*
X260405Y55044D01*
X260387Y54982D01*
X260366Y54921D01*
X260342Y54861D01*
X260313Y54803D01*
X260281Y54746D01*
X260246Y54692D01*
X260208Y54640D01*
X260166Y54590D01*
X260122Y54543D01*
X260075Y54499D01*
X260025Y54457D01*
X259973Y54419D01*
X259919Y54384D01*
X259862Y54352D01*
X259804Y54323D01*
X259744Y54299D01*
X259683Y54278D01*
X259621Y54260D01*
X259557Y54247D01*
X259493Y54237D01*
X259429Y54231D01*
X259364Y54229D01*
X258827Y54229D01*
X263384Y55301D02*
X264456Y59055D01*
X263384Y55301D02*
X266065Y55301D01*
X265261Y56374D02*
X265261Y54229D01*
D12*
X330200Y95250D02*
X336550Y88900D01*
X336550Y76200D01*
X330200Y69850D01*
X317500Y69850D02*
X311150Y76200D01*
X311150Y88900D01*
X317500Y95250D01*
X336550Y127000D02*
X336550Y139700D01*
X336550Y127000D02*
X330200Y120650D01*
X317500Y120650D02*
X311150Y127000D01*
X330200Y120650D02*
X336550Y114300D01*
X336550Y101600D01*
X330200Y95250D01*
X317500Y95250D02*
X311150Y101600D01*
X311150Y114300D01*
X317500Y120650D01*
X336550Y165100D02*
X330200Y171450D01*
X336550Y165100D02*
X336550Y152400D01*
X330200Y146050D01*
X317500Y146050D02*
X311150Y152400D01*
X311150Y165100D01*
X317500Y171450D01*
X330200Y146050D02*
X336550Y139700D01*
X317500Y146050D02*
X311150Y139700D01*
X311150Y127000D01*
X336550Y203200D02*
X336550Y215900D01*
X336550Y203200D02*
X330200Y196850D01*
X317500Y196850D02*
X311150Y203200D01*
X330200Y196850D02*
X336550Y190500D01*
X336550Y177800D01*
X330200Y171450D01*
X317500Y171450D02*
X311150Y177800D01*
X311150Y190500D01*
X317500Y196850D01*
X317500Y222250D02*
X330200Y222250D01*
X336550Y215900D01*
X317500Y222250D02*
X311150Y215900D01*
X311150Y203200D01*
X317500Y69850D02*
X330200Y69850D01*
D13*
X338455Y215986D02*
X342209Y215986D01*
X342274Y215984D01*
X342338Y215978D01*
X342402Y215968D01*
X342466Y215955D01*
X342528Y215937D01*
X342589Y215916D01*
X342649Y215892D01*
X342707Y215863D01*
X342764Y215831D01*
X342818Y215796D01*
X342870Y215758D01*
X342920Y215716D01*
X342967Y215672D01*
X343011Y215625D01*
X343053Y215575D01*
X343091Y215523D01*
X343126Y215469D01*
X343158Y215412D01*
X343187Y215354D01*
X343211Y215294D01*
X343232Y215233D01*
X343250Y215171D01*
X343263Y215107D01*
X343273Y215043D01*
X343279Y214979D01*
X343281Y214914D01*
X343281Y214377D01*
X343281Y218934D02*
X343281Y220543D01*
X343279Y220608D01*
X343273Y220672D01*
X343263Y220736D01*
X343250Y220800D01*
X343232Y220862D01*
X343211Y220923D01*
X343187Y220983D01*
X343158Y221041D01*
X343126Y221098D01*
X343091Y221152D01*
X343053Y221204D01*
X343011Y221254D01*
X342967Y221301D01*
X342920Y221345D01*
X342870Y221387D01*
X342818Y221425D01*
X342764Y221460D01*
X342707Y221492D01*
X342649Y221521D01*
X342589Y221545D01*
X342528Y221566D01*
X342466Y221584D01*
X342402Y221597D01*
X342338Y221607D01*
X342274Y221613D01*
X342209Y221615D01*
X341672Y221615D01*
X341607Y221613D01*
X341543Y221607D01*
X341479Y221597D01*
X341415Y221584D01*
X341353Y221566D01*
X341292Y221545D01*
X341232Y221521D01*
X341174Y221492D01*
X341117Y221460D01*
X341063Y221425D01*
X341011Y221387D01*
X340961Y221345D01*
X340914Y221301D01*
X340870Y221254D01*
X340828Y221204D01*
X340790Y221152D01*
X340755Y221098D01*
X340723Y221041D01*
X340694Y220983D01*
X340670Y220923D01*
X340649Y220862D01*
X340631Y220800D01*
X340618Y220736D01*
X340608Y220672D01*
X340602Y220608D01*
X340600Y220543D01*
X340600Y218934D01*
X338455Y218934D01*
X338455Y221615D01*
D12*
X298450Y95250D02*
X304800Y88900D01*
X304800Y76200D01*
X298450Y69850D01*
X285750Y69850D02*
X279400Y76200D01*
X279400Y88900D01*
X285750Y95250D01*
X304800Y127000D02*
X304800Y139700D01*
X304800Y127000D02*
X298450Y120650D01*
X285750Y120650D02*
X279400Y127000D01*
X298450Y120650D02*
X304800Y114300D01*
X304800Y101600D01*
X298450Y95250D01*
X285750Y95250D02*
X279400Y101600D01*
X279400Y114300D01*
X285750Y120650D01*
X304800Y165100D02*
X298450Y171450D01*
X304800Y165100D02*
X304800Y152400D01*
X298450Y146050D01*
X285750Y146050D02*
X279400Y152400D01*
X279400Y165100D01*
X285750Y171450D01*
X298450Y146050D02*
X304800Y139700D01*
X285750Y146050D02*
X279400Y139700D01*
X279400Y127000D01*
X304800Y203200D02*
X304800Y215900D01*
X304800Y203200D02*
X298450Y196850D01*
X285750Y196850D02*
X279400Y203200D01*
X298450Y196850D02*
X304800Y190500D01*
X304800Y177800D01*
X298450Y171450D01*
X285750Y171450D02*
X279400Y177800D01*
X279400Y190500D01*
X285750Y196850D01*
X285750Y222250D02*
X298450Y222250D01*
X304800Y215900D01*
X285750Y222250D02*
X279400Y215900D01*
X279400Y203200D01*
X285750Y69850D02*
X298450Y69850D01*
D13*
X311531Y215239D02*
X311529Y215304D01*
X311523Y215368D01*
X311513Y215432D01*
X311500Y215496D01*
X311482Y215558D01*
X311461Y215619D01*
X311437Y215679D01*
X311408Y215737D01*
X311376Y215794D01*
X311341Y215848D01*
X311303Y215900D01*
X311261Y215950D01*
X311217Y215997D01*
X311170Y216041D01*
X311120Y216083D01*
X311068Y216121D01*
X311014Y216156D01*
X310957Y216188D01*
X310899Y216217D01*
X310839Y216241D01*
X310778Y216262D01*
X310716Y216280D01*
X310652Y216293D01*
X310588Y216303D01*
X310524Y216309D01*
X310459Y216311D01*
X311531Y215239D02*
X311529Y215145D01*
X311523Y215051D01*
X311513Y214957D01*
X311500Y214864D01*
X311482Y214772D01*
X311461Y214680D01*
X311436Y214589D01*
X311407Y214499D01*
X311374Y214411D01*
X311338Y214324D01*
X311298Y214239D01*
X311255Y214155D01*
X311208Y214074D01*
X311158Y213994D01*
X311105Y213916D01*
X311048Y213841D01*
X310989Y213768D01*
X310926Y213698D01*
X310861Y213630D01*
X307777Y213765D02*
X307712Y213767D01*
X307648Y213773D01*
X307584Y213783D01*
X307520Y213796D01*
X307458Y213814D01*
X307397Y213835D01*
X307337Y213859D01*
X307279Y213888D01*
X307222Y213920D01*
X307168Y213955D01*
X307116Y213993D01*
X307066Y214035D01*
X307019Y214079D01*
X306975Y214126D01*
X306933Y214176D01*
X306895Y214228D01*
X306860Y214282D01*
X306828Y214339D01*
X306799Y214397D01*
X306775Y214457D01*
X306754Y214518D01*
X306736Y214580D01*
X306723Y214644D01*
X306713Y214708D01*
X306707Y214772D01*
X306705Y214837D01*
X306707Y214923D01*
X306712Y215009D01*
X306722Y215095D01*
X306735Y215180D01*
X306751Y215265D01*
X306771Y215349D01*
X306795Y215432D01*
X306822Y215514D01*
X306853Y215594D01*
X306887Y215674D01*
X306925Y215751D01*
X306966Y215827D01*
X307010Y215901D01*
X307057Y215974D01*
X307107Y216044D01*
X308715Y214301D02*
X308682Y214248D01*
X308645Y214197D01*
X308606Y214148D01*
X308564Y214101D01*
X308519Y214057D01*
X308472Y214016D01*
X308423Y213977D01*
X308371Y213941D01*
X308317Y213908D01*
X308262Y213879D01*
X308205Y213853D01*
X308146Y213830D01*
X308087Y213810D01*
X308026Y213794D01*
X307965Y213781D01*
X307902Y213772D01*
X307840Y213767D01*
X307777Y213765D01*
X309521Y215775D02*
X309554Y215828D01*
X309591Y215879D01*
X309630Y215928D01*
X309672Y215975D01*
X309717Y216019D01*
X309764Y216060D01*
X309813Y216099D01*
X309865Y216135D01*
X309919Y216168D01*
X309974Y216197D01*
X310031Y216223D01*
X310090Y216246D01*
X310149Y216266D01*
X310210Y216282D01*
X310271Y216295D01*
X310334Y216304D01*
X310396Y216309D01*
X310459Y216311D01*
X309520Y215775D02*
X308716Y214301D01*
X311531Y218934D02*
X311531Y220274D01*
X311529Y220345D01*
X311523Y220417D01*
X311514Y220487D01*
X311501Y220557D01*
X311484Y220627D01*
X311463Y220695D01*
X311439Y220762D01*
X311411Y220828D01*
X311380Y220892D01*
X311345Y220955D01*
X311307Y221015D01*
X311266Y221074D01*
X311222Y221130D01*
X311175Y221184D01*
X311126Y221235D01*
X311073Y221283D01*
X311018Y221329D01*
X310961Y221371D01*
X310901Y221411D01*
X310840Y221447D01*
X310776Y221480D01*
X310711Y221509D01*
X310645Y221535D01*
X310577Y221558D01*
X310508Y221577D01*
X310438Y221592D01*
X310368Y221603D01*
X310297Y221611D01*
X310226Y221615D01*
X310154Y221615D01*
X310083Y221611D01*
X310012Y221603D01*
X309942Y221592D01*
X309872Y221577D01*
X309803Y221558D01*
X309735Y221535D01*
X309669Y221509D01*
X309604Y221480D01*
X309540Y221447D01*
X309479Y221411D01*
X309419Y221371D01*
X309362Y221329D01*
X309307Y221283D01*
X309254Y221235D01*
X309205Y221184D01*
X309158Y221130D01*
X309114Y221074D01*
X309073Y221015D01*
X309035Y220955D01*
X309000Y220892D01*
X308969Y220828D01*
X308941Y220762D01*
X308917Y220695D01*
X308896Y220627D01*
X308879Y220557D01*
X308866Y220487D01*
X308857Y220417D01*
X308851Y220345D01*
X308849Y220274D01*
X306705Y220543D02*
X306705Y218934D01*
X306705Y220543D02*
X306707Y220608D01*
X306713Y220672D01*
X306723Y220736D01*
X306736Y220800D01*
X306754Y220862D01*
X306775Y220923D01*
X306799Y220983D01*
X306828Y221041D01*
X306860Y221098D01*
X306895Y221152D01*
X306933Y221204D01*
X306975Y221254D01*
X307019Y221301D01*
X307066Y221345D01*
X307116Y221387D01*
X307168Y221425D01*
X307222Y221460D01*
X307279Y221492D01*
X307337Y221521D01*
X307397Y221545D01*
X307458Y221566D01*
X307520Y221584D01*
X307584Y221597D01*
X307648Y221607D01*
X307712Y221613D01*
X307777Y221615D01*
X307842Y221613D01*
X307906Y221607D01*
X307970Y221597D01*
X308034Y221584D01*
X308096Y221566D01*
X308157Y221545D01*
X308217Y221521D01*
X308275Y221492D01*
X308332Y221460D01*
X308386Y221425D01*
X308438Y221387D01*
X308488Y221345D01*
X308535Y221301D01*
X308579Y221254D01*
X308621Y221204D01*
X308659Y221152D01*
X308694Y221098D01*
X308726Y221041D01*
X308755Y220983D01*
X308779Y220923D01*
X308800Y220862D01*
X308818Y220800D01*
X308831Y220736D01*
X308841Y220672D01*
X308847Y220608D01*
X308849Y220543D01*
X308850Y220543D02*
X308850Y219470D01*
D12*
X25400Y196850D02*
X19050Y203200D01*
X19050Y215900D01*
X25400Y222250D01*
X38100Y222250D02*
X44450Y215900D01*
X44450Y203200D01*
X38100Y196850D01*
X19050Y165100D02*
X19050Y152400D01*
X19050Y165100D02*
X25400Y171450D01*
X38100Y171450D02*
X44450Y165100D01*
X25400Y171450D02*
X19050Y177800D01*
X19050Y190500D01*
X25400Y196850D01*
X38100Y196850D02*
X44450Y190500D01*
X44450Y177800D01*
X38100Y171450D01*
X19050Y127000D02*
X25400Y120650D01*
X19050Y127000D02*
X19050Y139700D01*
X25400Y146050D01*
X38100Y146050D02*
X44450Y139700D01*
X44450Y127000D01*
X38100Y120650D01*
X25400Y146050D02*
X19050Y152400D01*
X38100Y146050D02*
X44450Y152400D01*
X44450Y165100D01*
X19050Y88900D02*
X19050Y76200D01*
X19050Y88900D02*
X25400Y95250D01*
X38100Y95250D02*
X44450Y88900D01*
X25400Y95250D02*
X19050Y101600D01*
X19050Y114300D01*
X25400Y120650D01*
X38100Y120650D02*
X44450Y114300D01*
X44450Y101600D01*
X38100Y95250D01*
X38100Y69850D02*
X25400Y69850D01*
X19050Y76200D01*
X38100Y69850D02*
X44450Y76200D01*
X44450Y88900D01*
X38100Y222250D02*
X25400Y222250D01*
D13*
X16073Y72094D02*
X12319Y72094D01*
X16073Y72093D02*
X16138Y72091D01*
X16202Y72085D01*
X16266Y72075D01*
X16330Y72062D01*
X16392Y72044D01*
X16453Y72023D01*
X16513Y71999D01*
X16571Y71970D01*
X16628Y71938D01*
X16682Y71903D01*
X16734Y71865D01*
X16784Y71823D01*
X16831Y71779D01*
X16875Y71732D01*
X16917Y71682D01*
X16955Y71630D01*
X16990Y71576D01*
X17022Y71519D01*
X17051Y71461D01*
X17075Y71401D01*
X17096Y71340D01*
X17114Y71278D01*
X17127Y71214D01*
X17137Y71150D01*
X17143Y71086D01*
X17145Y71021D01*
X17145Y70485D01*
X12855Y75042D02*
X12319Y75042D01*
X12319Y77723D01*
X17145Y76382D01*
D12*
X57150Y196850D02*
X50800Y203200D01*
X50800Y215900D01*
X57150Y222250D01*
X69850Y222250D02*
X76200Y215900D01*
X76200Y203200D01*
X69850Y196850D01*
X50800Y165100D02*
X50800Y152400D01*
X50800Y165100D02*
X57150Y171450D01*
X69850Y171450D02*
X76200Y165100D01*
X57150Y171450D02*
X50800Y177800D01*
X50800Y190500D01*
X57150Y196850D01*
X69850Y196850D02*
X76200Y190500D01*
X76200Y177800D01*
X69850Y171450D01*
X50800Y127000D02*
X57150Y120650D01*
X50800Y127000D02*
X50800Y139700D01*
X57150Y146050D01*
X69850Y146050D02*
X76200Y139700D01*
X76200Y127000D01*
X69850Y120650D01*
X57150Y146050D02*
X50800Y152400D01*
X69850Y146050D02*
X76200Y152400D01*
X76200Y165100D01*
X50800Y88900D02*
X50800Y76200D01*
X50800Y88900D02*
X57150Y95250D01*
X69850Y95250D02*
X76200Y88900D01*
X57150Y95250D02*
X50800Y101600D01*
X50800Y114300D01*
X57150Y120650D01*
X69850Y120650D02*
X76200Y114300D01*
X76200Y101600D01*
X69850Y95250D01*
X69850Y69850D02*
X57150Y69850D01*
X50800Y76200D01*
X69850Y69850D02*
X76200Y76200D01*
X76200Y88900D01*
X69850Y222250D02*
X57150Y222250D01*
D13*
X47823Y72094D02*
X44069Y72094D01*
X47823Y72093D02*
X47888Y72091D01*
X47952Y72085D01*
X48016Y72075D01*
X48080Y72062D01*
X48142Y72044D01*
X48203Y72023D01*
X48263Y71999D01*
X48321Y71970D01*
X48378Y71938D01*
X48432Y71903D01*
X48484Y71865D01*
X48534Y71823D01*
X48581Y71779D01*
X48625Y71732D01*
X48667Y71682D01*
X48705Y71630D01*
X48740Y71576D01*
X48772Y71519D01*
X48801Y71461D01*
X48825Y71401D01*
X48846Y71340D01*
X48864Y71278D01*
X48877Y71214D01*
X48887Y71150D01*
X48893Y71086D01*
X48895Y71021D01*
X48895Y70485D01*
X47554Y75041D02*
X47483Y75043D01*
X47411Y75049D01*
X47341Y75058D01*
X47271Y75071D01*
X47201Y75088D01*
X47133Y75109D01*
X47066Y75133D01*
X47000Y75161D01*
X46936Y75192D01*
X46873Y75227D01*
X46813Y75265D01*
X46754Y75306D01*
X46698Y75350D01*
X46644Y75397D01*
X46593Y75446D01*
X46545Y75499D01*
X46499Y75554D01*
X46457Y75611D01*
X46417Y75671D01*
X46381Y75732D01*
X46348Y75796D01*
X46319Y75861D01*
X46293Y75927D01*
X46270Y75995D01*
X46251Y76064D01*
X46236Y76134D01*
X46225Y76204D01*
X46217Y76275D01*
X46213Y76346D01*
X46213Y76418D01*
X46217Y76489D01*
X46225Y76560D01*
X46236Y76630D01*
X46251Y76700D01*
X46270Y76769D01*
X46293Y76837D01*
X46319Y76903D01*
X46348Y76968D01*
X46381Y77032D01*
X46417Y77093D01*
X46457Y77153D01*
X46499Y77210D01*
X46545Y77265D01*
X46593Y77318D01*
X46644Y77367D01*
X46698Y77414D01*
X46754Y77458D01*
X46813Y77499D01*
X46873Y77537D01*
X46936Y77572D01*
X47000Y77603D01*
X47066Y77631D01*
X47133Y77655D01*
X47201Y77676D01*
X47271Y77693D01*
X47341Y77706D01*
X47411Y77715D01*
X47483Y77721D01*
X47554Y77723D01*
X47625Y77721D01*
X47697Y77715D01*
X47767Y77706D01*
X47837Y77693D01*
X47907Y77676D01*
X47975Y77655D01*
X48042Y77631D01*
X48108Y77603D01*
X48172Y77572D01*
X48235Y77537D01*
X48295Y77499D01*
X48354Y77458D01*
X48410Y77414D01*
X48464Y77367D01*
X48515Y77318D01*
X48563Y77265D01*
X48609Y77210D01*
X48651Y77153D01*
X48691Y77093D01*
X48727Y77032D01*
X48760Y76968D01*
X48789Y76903D01*
X48815Y76837D01*
X48838Y76769D01*
X48857Y76700D01*
X48872Y76630D01*
X48883Y76560D01*
X48891Y76489D01*
X48895Y76418D01*
X48895Y76346D01*
X48891Y76275D01*
X48883Y76204D01*
X48872Y76134D01*
X48857Y76064D01*
X48838Y75995D01*
X48815Y75927D01*
X48789Y75861D01*
X48760Y75796D01*
X48727Y75732D01*
X48691Y75671D01*
X48651Y75611D01*
X48609Y75554D01*
X48563Y75499D01*
X48515Y75446D01*
X48464Y75397D01*
X48410Y75350D01*
X48354Y75306D01*
X48295Y75265D01*
X48235Y75227D01*
X48172Y75192D01*
X48108Y75161D01*
X48042Y75133D01*
X47975Y75109D01*
X47907Y75088D01*
X47837Y75071D01*
X47767Y75058D01*
X47697Y75049D01*
X47625Y75043D01*
X47554Y75041D01*
X45141Y75310D02*
X45076Y75312D01*
X45012Y75318D01*
X44948Y75328D01*
X44884Y75341D01*
X44822Y75359D01*
X44761Y75380D01*
X44701Y75404D01*
X44643Y75433D01*
X44586Y75465D01*
X44532Y75500D01*
X44480Y75538D01*
X44430Y75580D01*
X44383Y75624D01*
X44339Y75671D01*
X44297Y75721D01*
X44259Y75773D01*
X44224Y75827D01*
X44192Y75884D01*
X44163Y75942D01*
X44139Y76002D01*
X44118Y76063D01*
X44100Y76125D01*
X44087Y76189D01*
X44077Y76253D01*
X44071Y76317D01*
X44069Y76382D01*
X44071Y76447D01*
X44077Y76511D01*
X44087Y76575D01*
X44100Y76639D01*
X44118Y76701D01*
X44139Y76762D01*
X44163Y76822D01*
X44192Y76880D01*
X44224Y76937D01*
X44259Y76991D01*
X44297Y77043D01*
X44339Y77093D01*
X44383Y77140D01*
X44430Y77184D01*
X44480Y77226D01*
X44532Y77264D01*
X44586Y77299D01*
X44643Y77331D01*
X44701Y77360D01*
X44761Y77384D01*
X44822Y77405D01*
X44884Y77423D01*
X44948Y77436D01*
X45012Y77446D01*
X45076Y77452D01*
X45141Y77454D01*
X45206Y77452D01*
X45270Y77446D01*
X45334Y77436D01*
X45398Y77423D01*
X45460Y77405D01*
X45521Y77384D01*
X45581Y77360D01*
X45639Y77331D01*
X45696Y77299D01*
X45750Y77264D01*
X45802Y77226D01*
X45852Y77184D01*
X45899Y77140D01*
X45943Y77093D01*
X45985Y77043D01*
X46023Y76991D01*
X46058Y76937D01*
X46090Y76880D01*
X46119Y76822D01*
X46143Y76762D01*
X46164Y76701D01*
X46182Y76639D01*
X46195Y76575D01*
X46205Y76511D01*
X46211Y76447D01*
X46213Y76382D01*
X46211Y76317D01*
X46205Y76253D01*
X46195Y76189D01*
X46182Y76125D01*
X46164Y76063D01*
X46143Y76002D01*
X46119Y75942D01*
X46090Y75884D01*
X46058Y75827D01*
X46023Y75773D01*
X45985Y75721D01*
X45943Y75671D01*
X45899Y75624D01*
X45852Y75580D01*
X45802Y75538D01*
X45750Y75500D01*
X45696Y75465D01*
X45639Y75433D01*
X45581Y75404D01*
X45521Y75380D01*
X45460Y75359D01*
X45398Y75341D01*
X45334Y75328D01*
X45270Y75318D01*
X45206Y75312D01*
X45141Y75310D01*
M02*
