G75*
%MOIN*%
%OFA0B0*%
%FSLAX25Y25*%
%IPPOS*%
%LPD*%
%AMOC8*
5,1,8,0,0,1.08239X$1,22.5*
%
%ADD10C,0.00800*%
%ADD11C,0.00600*%
%ADD12C,0.00300*%
%ADD13C,0.01000*%
D10*
X0049529Y0038279D02*
X0051650Y0036158D01*
X0065792Y0050300D01*
X0063671Y0052421D01*
X0064378Y0053128D01*
X0063671Y0052421D02*
X0061550Y0054542D01*
X0047408Y0040400D01*
X0049529Y0038279D01*
X0048822Y0037572D01*
X0078600Y0041600D02*
X0078600Y0021600D01*
X0081600Y0021600D01*
X0081600Y0020600D01*
X0081600Y0021600D02*
X0084600Y0021600D01*
X0084600Y0041600D01*
X0081600Y0041600D01*
X0081600Y0042600D01*
X0081600Y0041600D02*
X0078600Y0041600D01*
X0088600Y0041600D02*
X0091600Y0041600D01*
X0091600Y0042600D01*
X0091600Y0041600D02*
X0094600Y0041600D01*
X0094600Y0021600D01*
X0091600Y0021600D01*
X0091600Y0020600D01*
X0091600Y0021600D02*
X0088600Y0021600D01*
X0088600Y0041600D01*
X0109679Y0050850D02*
X0113679Y0050850D01*
X0119521Y0050850D02*
X0123521Y0050850D01*
X0121521Y0052850D02*
X0121521Y0048850D01*
X0106757Y0045350D02*
X0106760Y0045592D01*
X0106769Y0045833D01*
X0106784Y0046074D01*
X0106804Y0046315D01*
X0106831Y0046555D01*
X0106864Y0046794D01*
X0106902Y0047033D01*
X0106946Y0047270D01*
X0106996Y0047507D01*
X0107052Y0047742D01*
X0107114Y0047975D01*
X0107181Y0048207D01*
X0107254Y0048438D01*
X0107332Y0048666D01*
X0107417Y0048892D01*
X0107506Y0049117D01*
X0107601Y0049339D01*
X0107702Y0049558D01*
X0107808Y0049776D01*
X0107919Y0049990D01*
X0108036Y0050202D01*
X0108157Y0050410D01*
X0108284Y0050616D01*
X0108416Y0050818D01*
X0108553Y0051018D01*
X0108694Y0051213D01*
X0108840Y0051406D01*
X0108991Y0051594D01*
X0109147Y0051779D01*
X0109307Y0051960D01*
X0109471Y0052137D01*
X0109640Y0052310D01*
X0109813Y0052479D01*
X0109990Y0052643D01*
X0110171Y0052803D01*
X0110356Y0052959D01*
X0110544Y0053110D01*
X0110737Y0053256D01*
X0110932Y0053397D01*
X0111132Y0053534D01*
X0111334Y0053666D01*
X0111540Y0053793D01*
X0111748Y0053914D01*
X0111960Y0054031D01*
X0112174Y0054142D01*
X0112392Y0054248D01*
X0112611Y0054349D01*
X0112833Y0054444D01*
X0113058Y0054533D01*
X0113284Y0054618D01*
X0113512Y0054696D01*
X0113743Y0054769D01*
X0113975Y0054836D01*
X0114208Y0054898D01*
X0114443Y0054954D01*
X0114680Y0055004D01*
X0114917Y0055048D01*
X0115156Y0055086D01*
X0115395Y0055119D01*
X0115635Y0055146D01*
X0115876Y0055166D01*
X0116117Y0055181D01*
X0116358Y0055190D01*
X0116600Y0055193D01*
X0116842Y0055190D01*
X0117083Y0055181D01*
X0117324Y0055166D01*
X0117565Y0055146D01*
X0117805Y0055119D01*
X0118044Y0055086D01*
X0118283Y0055048D01*
X0118520Y0055004D01*
X0118757Y0054954D01*
X0118992Y0054898D01*
X0119225Y0054836D01*
X0119457Y0054769D01*
X0119688Y0054696D01*
X0119916Y0054618D01*
X0120142Y0054533D01*
X0120367Y0054444D01*
X0120589Y0054349D01*
X0120808Y0054248D01*
X0121026Y0054142D01*
X0121240Y0054031D01*
X0121452Y0053914D01*
X0121660Y0053793D01*
X0121866Y0053666D01*
X0122068Y0053534D01*
X0122268Y0053397D01*
X0122463Y0053256D01*
X0122656Y0053110D01*
X0122844Y0052959D01*
X0123029Y0052803D01*
X0123210Y0052643D01*
X0123387Y0052479D01*
X0123560Y0052310D01*
X0123729Y0052137D01*
X0123893Y0051960D01*
X0124053Y0051779D01*
X0124209Y0051594D01*
X0124360Y0051406D01*
X0124506Y0051213D01*
X0124647Y0051018D01*
X0124784Y0050818D01*
X0124916Y0050616D01*
X0125043Y0050410D01*
X0125164Y0050202D01*
X0125281Y0049990D01*
X0125392Y0049776D01*
X0125498Y0049558D01*
X0125599Y0049339D01*
X0125694Y0049117D01*
X0125783Y0048892D01*
X0125868Y0048666D01*
X0125946Y0048438D01*
X0126019Y0048207D01*
X0126086Y0047975D01*
X0126148Y0047742D01*
X0126204Y0047507D01*
X0126254Y0047270D01*
X0126298Y0047033D01*
X0126336Y0046794D01*
X0126369Y0046555D01*
X0126396Y0046315D01*
X0126416Y0046074D01*
X0126431Y0045833D01*
X0126440Y0045592D01*
X0126443Y0045350D01*
X0126440Y0045108D01*
X0126431Y0044867D01*
X0126416Y0044626D01*
X0126396Y0044385D01*
X0126369Y0044145D01*
X0126336Y0043906D01*
X0126298Y0043667D01*
X0126254Y0043430D01*
X0126204Y0043193D01*
X0126148Y0042958D01*
X0126086Y0042725D01*
X0126019Y0042493D01*
X0125946Y0042262D01*
X0125868Y0042034D01*
X0125783Y0041808D01*
X0125694Y0041583D01*
X0125599Y0041361D01*
X0125498Y0041142D01*
X0125392Y0040924D01*
X0125281Y0040710D01*
X0125164Y0040498D01*
X0125043Y0040290D01*
X0124916Y0040084D01*
X0124784Y0039882D01*
X0124647Y0039682D01*
X0124506Y0039487D01*
X0124360Y0039294D01*
X0124209Y0039106D01*
X0124053Y0038921D01*
X0123893Y0038740D01*
X0123729Y0038563D01*
X0123560Y0038390D01*
X0123387Y0038221D01*
X0123210Y0038057D01*
X0123029Y0037897D01*
X0122844Y0037741D01*
X0122656Y0037590D01*
X0122463Y0037444D01*
X0122268Y0037303D01*
X0122068Y0037166D01*
X0121866Y0037034D01*
X0121660Y0036907D01*
X0121452Y0036786D01*
X0121240Y0036669D01*
X0121026Y0036558D01*
X0120808Y0036452D01*
X0120589Y0036351D01*
X0120367Y0036256D01*
X0120142Y0036167D01*
X0119916Y0036082D01*
X0119688Y0036004D01*
X0119457Y0035931D01*
X0119225Y0035864D01*
X0118992Y0035802D01*
X0118757Y0035746D01*
X0118520Y0035696D01*
X0118283Y0035652D01*
X0118044Y0035614D01*
X0117805Y0035581D01*
X0117565Y0035554D01*
X0117324Y0035534D01*
X0117083Y0035519D01*
X0116842Y0035510D01*
X0116600Y0035507D01*
X0116358Y0035510D01*
X0116117Y0035519D01*
X0115876Y0035534D01*
X0115635Y0035554D01*
X0115395Y0035581D01*
X0115156Y0035614D01*
X0114917Y0035652D01*
X0114680Y0035696D01*
X0114443Y0035746D01*
X0114208Y0035802D01*
X0113975Y0035864D01*
X0113743Y0035931D01*
X0113512Y0036004D01*
X0113284Y0036082D01*
X0113058Y0036167D01*
X0112833Y0036256D01*
X0112611Y0036351D01*
X0112392Y0036452D01*
X0112174Y0036558D01*
X0111960Y0036669D01*
X0111748Y0036786D01*
X0111540Y0036907D01*
X0111334Y0037034D01*
X0111132Y0037166D01*
X0110932Y0037303D01*
X0110737Y0037444D01*
X0110544Y0037590D01*
X0110356Y0037741D01*
X0110171Y0037897D01*
X0109990Y0038057D01*
X0109813Y0038221D01*
X0109640Y0038390D01*
X0109471Y0038563D01*
X0109307Y0038740D01*
X0109147Y0038921D01*
X0108991Y0039106D01*
X0108840Y0039294D01*
X0108694Y0039487D01*
X0108553Y0039682D01*
X0108416Y0039882D01*
X0108284Y0040084D01*
X0108157Y0040290D01*
X0108036Y0040498D01*
X0107919Y0040710D01*
X0107808Y0040924D01*
X0107702Y0041142D01*
X0107601Y0041361D01*
X0107506Y0041583D01*
X0107417Y0041808D01*
X0107332Y0042034D01*
X0107254Y0042262D01*
X0107181Y0042493D01*
X0107114Y0042725D01*
X0107052Y0042958D01*
X0106996Y0043193D01*
X0106946Y0043430D01*
X0106902Y0043667D01*
X0106864Y0043906D01*
X0106831Y0044145D01*
X0106804Y0044385D01*
X0106784Y0044626D01*
X0106769Y0044867D01*
X0106760Y0045108D01*
X0106757Y0045350D01*
X0107100Y0057179D02*
X0107100Y0061179D01*
X0109100Y0059179D02*
X0105100Y0059179D01*
X0091757Y0064100D02*
X0091760Y0064342D01*
X0091769Y0064583D01*
X0091784Y0064824D01*
X0091804Y0065065D01*
X0091831Y0065305D01*
X0091864Y0065544D01*
X0091902Y0065783D01*
X0091946Y0066020D01*
X0091996Y0066257D01*
X0092052Y0066492D01*
X0092114Y0066725D01*
X0092181Y0066957D01*
X0092254Y0067188D01*
X0092332Y0067416D01*
X0092417Y0067642D01*
X0092506Y0067867D01*
X0092601Y0068089D01*
X0092702Y0068308D01*
X0092808Y0068526D01*
X0092919Y0068740D01*
X0093036Y0068952D01*
X0093157Y0069160D01*
X0093284Y0069366D01*
X0093416Y0069568D01*
X0093553Y0069768D01*
X0093694Y0069963D01*
X0093840Y0070156D01*
X0093991Y0070344D01*
X0094147Y0070529D01*
X0094307Y0070710D01*
X0094471Y0070887D01*
X0094640Y0071060D01*
X0094813Y0071229D01*
X0094990Y0071393D01*
X0095171Y0071553D01*
X0095356Y0071709D01*
X0095544Y0071860D01*
X0095737Y0072006D01*
X0095932Y0072147D01*
X0096132Y0072284D01*
X0096334Y0072416D01*
X0096540Y0072543D01*
X0096748Y0072664D01*
X0096960Y0072781D01*
X0097174Y0072892D01*
X0097392Y0072998D01*
X0097611Y0073099D01*
X0097833Y0073194D01*
X0098058Y0073283D01*
X0098284Y0073368D01*
X0098512Y0073446D01*
X0098743Y0073519D01*
X0098975Y0073586D01*
X0099208Y0073648D01*
X0099443Y0073704D01*
X0099680Y0073754D01*
X0099917Y0073798D01*
X0100156Y0073836D01*
X0100395Y0073869D01*
X0100635Y0073896D01*
X0100876Y0073916D01*
X0101117Y0073931D01*
X0101358Y0073940D01*
X0101600Y0073943D01*
X0101842Y0073940D01*
X0102083Y0073931D01*
X0102324Y0073916D01*
X0102565Y0073896D01*
X0102805Y0073869D01*
X0103044Y0073836D01*
X0103283Y0073798D01*
X0103520Y0073754D01*
X0103757Y0073704D01*
X0103992Y0073648D01*
X0104225Y0073586D01*
X0104457Y0073519D01*
X0104688Y0073446D01*
X0104916Y0073368D01*
X0105142Y0073283D01*
X0105367Y0073194D01*
X0105589Y0073099D01*
X0105808Y0072998D01*
X0106026Y0072892D01*
X0106240Y0072781D01*
X0106452Y0072664D01*
X0106660Y0072543D01*
X0106866Y0072416D01*
X0107068Y0072284D01*
X0107268Y0072147D01*
X0107463Y0072006D01*
X0107656Y0071860D01*
X0107844Y0071709D01*
X0108029Y0071553D01*
X0108210Y0071393D01*
X0108387Y0071229D01*
X0108560Y0071060D01*
X0108729Y0070887D01*
X0108893Y0070710D01*
X0109053Y0070529D01*
X0109209Y0070344D01*
X0109360Y0070156D01*
X0109506Y0069963D01*
X0109647Y0069768D01*
X0109784Y0069568D01*
X0109916Y0069366D01*
X0110043Y0069160D01*
X0110164Y0068952D01*
X0110281Y0068740D01*
X0110392Y0068526D01*
X0110498Y0068308D01*
X0110599Y0068089D01*
X0110694Y0067867D01*
X0110783Y0067642D01*
X0110868Y0067416D01*
X0110946Y0067188D01*
X0111019Y0066957D01*
X0111086Y0066725D01*
X0111148Y0066492D01*
X0111204Y0066257D01*
X0111254Y0066020D01*
X0111298Y0065783D01*
X0111336Y0065544D01*
X0111369Y0065305D01*
X0111396Y0065065D01*
X0111416Y0064824D01*
X0111431Y0064583D01*
X0111440Y0064342D01*
X0111443Y0064100D01*
X0111440Y0063858D01*
X0111431Y0063617D01*
X0111416Y0063376D01*
X0111396Y0063135D01*
X0111369Y0062895D01*
X0111336Y0062656D01*
X0111298Y0062417D01*
X0111254Y0062180D01*
X0111204Y0061943D01*
X0111148Y0061708D01*
X0111086Y0061475D01*
X0111019Y0061243D01*
X0110946Y0061012D01*
X0110868Y0060784D01*
X0110783Y0060558D01*
X0110694Y0060333D01*
X0110599Y0060111D01*
X0110498Y0059892D01*
X0110392Y0059674D01*
X0110281Y0059460D01*
X0110164Y0059248D01*
X0110043Y0059040D01*
X0109916Y0058834D01*
X0109784Y0058632D01*
X0109647Y0058432D01*
X0109506Y0058237D01*
X0109360Y0058044D01*
X0109209Y0057856D01*
X0109053Y0057671D01*
X0108893Y0057490D01*
X0108729Y0057313D01*
X0108560Y0057140D01*
X0108387Y0056971D01*
X0108210Y0056807D01*
X0108029Y0056647D01*
X0107844Y0056491D01*
X0107656Y0056340D01*
X0107463Y0056194D01*
X0107268Y0056053D01*
X0107068Y0055916D01*
X0106866Y0055784D01*
X0106660Y0055657D01*
X0106452Y0055536D01*
X0106240Y0055419D01*
X0106026Y0055308D01*
X0105808Y0055202D01*
X0105589Y0055101D01*
X0105367Y0055006D01*
X0105142Y0054917D01*
X0104916Y0054832D01*
X0104688Y0054754D01*
X0104457Y0054681D01*
X0104225Y0054614D01*
X0103992Y0054552D01*
X0103757Y0054496D01*
X0103520Y0054446D01*
X0103283Y0054402D01*
X0103044Y0054364D01*
X0102805Y0054331D01*
X0102565Y0054304D01*
X0102324Y0054284D01*
X0102083Y0054269D01*
X0101842Y0054260D01*
X0101600Y0054257D01*
X0101358Y0054260D01*
X0101117Y0054269D01*
X0100876Y0054284D01*
X0100635Y0054304D01*
X0100395Y0054331D01*
X0100156Y0054364D01*
X0099917Y0054402D01*
X0099680Y0054446D01*
X0099443Y0054496D01*
X0099208Y0054552D01*
X0098975Y0054614D01*
X0098743Y0054681D01*
X0098512Y0054754D01*
X0098284Y0054832D01*
X0098058Y0054917D01*
X0097833Y0055006D01*
X0097611Y0055101D01*
X0097392Y0055202D01*
X0097174Y0055308D01*
X0096960Y0055419D01*
X0096748Y0055536D01*
X0096540Y0055657D01*
X0096334Y0055784D01*
X0096132Y0055916D01*
X0095932Y0056053D01*
X0095737Y0056194D01*
X0095544Y0056340D01*
X0095356Y0056491D01*
X0095171Y0056647D01*
X0094990Y0056807D01*
X0094813Y0056971D01*
X0094640Y0057140D01*
X0094471Y0057313D01*
X0094307Y0057490D01*
X0094147Y0057671D01*
X0093991Y0057856D01*
X0093840Y0058044D01*
X0093694Y0058237D01*
X0093553Y0058432D01*
X0093416Y0058632D01*
X0093284Y0058834D01*
X0093157Y0059040D01*
X0093036Y0059248D01*
X0092919Y0059460D01*
X0092808Y0059674D01*
X0092702Y0059892D01*
X0092601Y0060111D01*
X0092506Y0060333D01*
X0092417Y0060558D01*
X0092332Y0060784D01*
X0092254Y0061012D01*
X0092181Y0061243D01*
X0092114Y0061475D01*
X0092052Y0061708D01*
X0091996Y0061943D01*
X0091946Y0062180D01*
X0091902Y0062417D01*
X0091864Y0062656D01*
X0091831Y0062895D01*
X0091804Y0063135D01*
X0091784Y0063376D01*
X0091769Y0063617D01*
X0091760Y0063858D01*
X0091757Y0064100D01*
X0089600Y0069100D02*
X0086600Y0069100D01*
X0086600Y0068100D01*
X0086600Y0069100D02*
X0083600Y0069100D01*
X0083600Y0089100D01*
X0086600Y0089100D01*
X0086600Y0090100D01*
X0086600Y0089100D02*
X0089600Y0089100D01*
X0089600Y0069100D01*
X0079600Y0061600D02*
X0076600Y0061600D01*
X0076600Y0060600D01*
X0076600Y0061600D02*
X0073600Y0061600D01*
X0073600Y0081600D01*
X0076600Y0081600D01*
X0076600Y0082600D01*
X0076600Y0081600D02*
X0079600Y0081600D01*
X0079600Y0061600D01*
X0107100Y0067021D02*
X0107100Y0071021D01*
X0116757Y0064100D02*
X0116760Y0064342D01*
X0116769Y0064583D01*
X0116784Y0064824D01*
X0116804Y0065065D01*
X0116831Y0065305D01*
X0116864Y0065544D01*
X0116902Y0065783D01*
X0116946Y0066020D01*
X0116996Y0066257D01*
X0117052Y0066492D01*
X0117114Y0066725D01*
X0117181Y0066957D01*
X0117254Y0067188D01*
X0117332Y0067416D01*
X0117417Y0067642D01*
X0117506Y0067867D01*
X0117601Y0068089D01*
X0117702Y0068308D01*
X0117808Y0068526D01*
X0117919Y0068740D01*
X0118036Y0068952D01*
X0118157Y0069160D01*
X0118284Y0069366D01*
X0118416Y0069568D01*
X0118553Y0069768D01*
X0118694Y0069963D01*
X0118840Y0070156D01*
X0118991Y0070344D01*
X0119147Y0070529D01*
X0119307Y0070710D01*
X0119471Y0070887D01*
X0119640Y0071060D01*
X0119813Y0071229D01*
X0119990Y0071393D01*
X0120171Y0071553D01*
X0120356Y0071709D01*
X0120544Y0071860D01*
X0120737Y0072006D01*
X0120932Y0072147D01*
X0121132Y0072284D01*
X0121334Y0072416D01*
X0121540Y0072543D01*
X0121748Y0072664D01*
X0121960Y0072781D01*
X0122174Y0072892D01*
X0122392Y0072998D01*
X0122611Y0073099D01*
X0122833Y0073194D01*
X0123058Y0073283D01*
X0123284Y0073368D01*
X0123512Y0073446D01*
X0123743Y0073519D01*
X0123975Y0073586D01*
X0124208Y0073648D01*
X0124443Y0073704D01*
X0124680Y0073754D01*
X0124917Y0073798D01*
X0125156Y0073836D01*
X0125395Y0073869D01*
X0125635Y0073896D01*
X0125876Y0073916D01*
X0126117Y0073931D01*
X0126358Y0073940D01*
X0126600Y0073943D01*
X0126842Y0073940D01*
X0127083Y0073931D01*
X0127324Y0073916D01*
X0127565Y0073896D01*
X0127805Y0073869D01*
X0128044Y0073836D01*
X0128283Y0073798D01*
X0128520Y0073754D01*
X0128757Y0073704D01*
X0128992Y0073648D01*
X0129225Y0073586D01*
X0129457Y0073519D01*
X0129688Y0073446D01*
X0129916Y0073368D01*
X0130142Y0073283D01*
X0130367Y0073194D01*
X0130589Y0073099D01*
X0130808Y0072998D01*
X0131026Y0072892D01*
X0131240Y0072781D01*
X0131452Y0072664D01*
X0131660Y0072543D01*
X0131866Y0072416D01*
X0132068Y0072284D01*
X0132268Y0072147D01*
X0132463Y0072006D01*
X0132656Y0071860D01*
X0132844Y0071709D01*
X0133029Y0071553D01*
X0133210Y0071393D01*
X0133387Y0071229D01*
X0133560Y0071060D01*
X0133729Y0070887D01*
X0133893Y0070710D01*
X0134053Y0070529D01*
X0134209Y0070344D01*
X0134360Y0070156D01*
X0134506Y0069963D01*
X0134647Y0069768D01*
X0134784Y0069568D01*
X0134916Y0069366D01*
X0135043Y0069160D01*
X0135164Y0068952D01*
X0135281Y0068740D01*
X0135392Y0068526D01*
X0135498Y0068308D01*
X0135599Y0068089D01*
X0135694Y0067867D01*
X0135783Y0067642D01*
X0135868Y0067416D01*
X0135946Y0067188D01*
X0136019Y0066957D01*
X0136086Y0066725D01*
X0136148Y0066492D01*
X0136204Y0066257D01*
X0136254Y0066020D01*
X0136298Y0065783D01*
X0136336Y0065544D01*
X0136369Y0065305D01*
X0136396Y0065065D01*
X0136416Y0064824D01*
X0136431Y0064583D01*
X0136440Y0064342D01*
X0136443Y0064100D01*
X0136440Y0063858D01*
X0136431Y0063617D01*
X0136416Y0063376D01*
X0136396Y0063135D01*
X0136369Y0062895D01*
X0136336Y0062656D01*
X0136298Y0062417D01*
X0136254Y0062180D01*
X0136204Y0061943D01*
X0136148Y0061708D01*
X0136086Y0061475D01*
X0136019Y0061243D01*
X0135946Y0061012D01*
X0135868Y0060784D01*
X0135783Y0060558D01*
X0135694Y0060333D01*
X0135599Y0060111D01*
X0135498Y0059892D01*
X0135392Y0059674D01*
X0135281Y0059460D01*
X0135164Y0059248D01*
X0135043Y0059040D01*
X0134916Y0058834D01*
X0134784Y0058632D01*
X0134647Y0058432D01*
X0134506Y0058237D01*
X0134360Y0058044D01*
X0134209Y0057856D01*
X0134053Y0057671D01*
X0133893Y0057490D01*
X0133729Y0057313D01*
X0133560Y0057140D01*
X0133387Y0056971D01*
X0133210Y0056807D01*
X0133029Y0056647D01*
X0132844Y0056491D01*
X0132656Y0056340D01*
X0132463Y0056194D01*
X0132268Y0056053D01*
X0132068Y0055916D01*
X0131866Y0055784D01*
X0131660Y0055657D01*
X0131452Y0055536D01*
X0131240Y0055419D01*
X0131026Y0055308D01*
X0130808Y0055202D01*
X0130589Y0055101D01*
X0130367Y0055006D01*
X0130142Y0054917D01*
X0129916Y0054832D01*
X0129688Y0054754D01*
X0129457Y0054681D01*
X0129225Y0054614D01*
X0128992Y0054552D01*
X0128757Y0054496D01*
X0128520Y0054446D01*
X0128283Y0054402D01*
X0128044Y0054364D01*
X0127805Y0054331D01*
X0127565Y0054304D01*
X0127324Y0054284D01*
X0127083Y0054269D01*
X0126842Y0054260D01*
X0126600Y0054257D01*
X0126358Y0054260D01*
X0126117Y0054269D01*
X0125876Y0054284D01*
X0125635Y0054304D01*
X0125395Y0054331D01*
X0125156Y0054364D01*
X0124917Y0054402D01*
X0124680Y0054446D01*
X0124443Y0054496D01*
X0124208Y0054552D01*
X0123975Y0054614D01*
X0123743Y0054681D01*
X0123512Y0054754D01*
X0123284Y0054832D01*
X0123058Y0054917D01*
X0122833Y0055006D01*
X0122611Y0055101D01*
X0122392Y0055202D01*
X0122174Y0055308D01*
X0121960Y0055419D01*
X0121748Y0055536D01*
X0121540Y0055657D01*
X0121334Y0055784D01*
X0121132Y0055916D01*
X0120932Y0056053D01*
X0120737Y0056194D01*
X0120544Y0056340D01*
X0120356Y0056491D01*
X0120171Y0056647D01*
X0119990Y0056807D01*
X0119813Y0056971D01*
X0119640Y0057140D01*
X0119471Y0057313D01*
X0119307Y0057490D01*
X0119147Y0057671D01*
X0118991Y0057856D01*
X0118840Y0058044D01*
X0118694Y0058237D01*
X0118553Y0058432D01*
X0118416Y0058632D01*
X0118284Y0058834D01*
X0118157Y0059040D01*
X0118036Y0059248D01*
X0117919Y0059460D01*
X0117808Y0059674D01*
X0117702Y0059892D01*
X0117601Y0060111D01*
X0117506Y0060333D01*
X0117417Y0060558D01*
X0117332Y0060784D01*
X0117254Y0061012D01*
X0117181Y0061243D01*
X0117114Y0061475D01*
X0117052Y0061708D01*
X0116996Y0061943D01*
X0116946Y0062180D01*
X0116902Y0062417D01*
X0116864Y0062656D01*
X0116831Y0062895D01*
X0116804Y0063135D01*
X0116784Y0063376D01*
X0116769Y0063617D01*
X0116760Y0063858D01*
X0116757Y0064100D01*
X0130100Y0059179D02*
X0134100Y0059179D01*
X0132100Y0057179D02*
X0132100Y0061179D01*
X0132100Y0067021D02*
X0132100Y0071021D01*
X0138600Y0069100D02*
X0141600Y0069100D01*
X0141600Y0068100D01*
X0141600Y0069100D02*
X0144600Y0069100D01*
X0144600Y0089100D01*
X0141600Y0089100D01*
X0141600Y0090100D01*
X0141600Y0089100D02*
X0138600Y0089100D01*
X0138600Y0069100D01*
X0148600Y0059100D02*
X0151600Y0059100D01*
X0151600Y0058100D01*
X0151600Y0059100D02*
X0154600Y0059100D01*
X0154600Y0079100D01*
X0151600Y0079100D01*
X0151600Y0080100D01*
X0151600Y0079100D02*
X0148600Y0079100D01*
X0148600Y0059100D01*
X0166911Y0051156D02*
X0167678Y0050514D01*
X0169603Y0052816D01*
X0184946Y0039987D01*
X0183022Y0037685D01*
X0183789Y0037044D01*
X0183022Y0037685D02*
X0181097Y0035384D01*
X0165754Y0048213D01*
X0167678Y0050514D01*
X0151600Y0037600D02*
X0151600Y0036600D01*
X0154600Y0036600D01*
X0154600Y0016600D01*
X0151600Y0016600D01*
X0151600Y0015600D01*
X0151600Y0016600D02*
X0148600Y0016600D01*
X0148600Y0036600D01*
X0151600Y0036600D01*
X0144600Y0036600D02*
X0141600Y0036600D01*
X0141600Y0037600D01*
X0141600Y0036600D02*
X0138600Y0036600D01*
X0138600Y0016600D01*
X0141600Y0016600D01*
X0141600Y0015600D01*
X0141600Y0016600D02*
X0144600Y0016600D01*
X0144600Y0036600D01*
X0204769Y0071502D02*
X0213431Y0071502D01*
X0221698Y0079769D02*
X0221698Y0088431D01*
X0202407Y0084100D02*
X0202409Y0084264D01*
X0202415Y0084428D01*
X0202425Y0084592D01*
X0202439Y0084756D01*
X0202457Y0084919D01*
X0202479Y0085082D01*
X0202506Y0085244D01*
X0202536Y0085406D01*
X0202570Y0085566D01*
X0202608Y0085726D01*
X0202649Y0085885D01*
X0202695Y0086043D01*
X0202745Y0086199D01*
X0202798Y0086355D01*
X0202855Y0086509D01*
X0202916Y0086661D01*
X0202981Y0086812D01*
X0203050Y0086962D01*
X0203122Y0087109D01*
X0203197Y0087255D01*
X0203277Y0087399D01*
X0203359Y0087541D01*
X0203445Y0087681D01*
X0203535Y0087818D01*
X0203628Y0087954D01*
X0203724Y0088087D01*
X0203824Y0088218D01*
X0203926Y0088346D01*
X0204032Y0088472D01*
X0204141Y0088595D01*
X0204253Y0088715D01*
X0204367Y0088833D01*
X0204485Y0088947D01*
X0204605Y0089059D01*
X0204728Y0089168D01*
X0204854Y0089274D01*
X0204982Y0089376D01*
X0205113Y0089476D01*
X0205246Y0089572D01*
X0205382Y0089665D01*
X0205519Y0089755D01*
X0205659Y0089841D01*
X0205801Y0089923D01*
X0205945Y0090003D01*
X0206091Y0090078D01*
X0206238Y0090150D01*
X0206388Y0090219D01*
X0206539Y0090284D01*
X0206691Y0090345D01*
X0206845Y0090402D01*
X0207001Y0090455D01*
X0207157Y0090505D01*
X0207315Y0090551D01*
X0207474Y0090592D01*
X0207634Y0090630D01*
X0207794Y0090664D01*
X0207956Y0090694D01*
X0208118Y0090721D01*
X0208281Y0090743D01*
X0208444Y0090761D01*
X0208608Y0090775D01*
X0208772Y0090785D01*
X0208936Y0090791D01*
X0209100Y0090793D01*
X0209264Y0090791D01*
X0209428Y0090785D01*
X0209592Y0090775D01*
X0209756Y0090761D01*
X0209919Y0090743D01*
X0210082Y0090721D01*
X0210244Y0090694D01*
X0210406Y0090664D01*
X0210566Y0090630D01*
X0210726Y0090592D01*
X0210885Y0090551D01*
X0211043Y0090505D01*
X0211199Y0090455D01*
X0211355Y0090402D01*
X0211509Y0090345D01*
X0211661Y0090284D01*
X0211812Y0090219D01*
X0211962Y0090150D01*
X0212109Y0090078D01*
X0212255Y0090003D01*
X0212399Y0089923D01*
X0212541Y0089841D01*
X0212681Y0089755D01*
X0212818Y0089665D01*
X0212954Y0089572D01*
X0213087Y0089476D01*
X0213218Y0089376D01*
X0213346Y0089274D01*
X0213472Y0089168D01*
X0213595Y0089059D01*
X0213715Y0088947D01*
X0213833Y0088833D01*
X0213947Y0088715D01*
X0214059Y0088595D01*
X0214168Y0088472D01*
X0214274Y0088346D01*
X0214376Y0088218D01*
X0214476Y0088087D01*
X0214572Y0087954D01*
X0214665Y0087818D01*
X0214755Y0087681D01*
X0214841Y0087541D01*
X0214923Y0087399D01*
X0215003Y0087255D01*
X0215078Y0087109D01*
X0215150Y0086962D01*
X0215219Y0086812D01*
X0215284Y0086661D01*
X0215345Y0086509D01*
X0215402Y0086355D01*
X0215455Y0086199D01*
X0215505Y0086043D01*
X0215551Y0085885D01*
X0215592Y0085726D01*
X0215630Y0085566D01*
X0215664Y0085406D01*
X0215694Y0085244D01*
X0215721Y0085082D01*
X0215743Y0084919D01*
X0215761Y0084756D01*
X0215775Y0084592D01*
X0215785Y0084428D01*
X0215791Y0084264D01*
X0215793Y0084100D01*
X0215791Y0083936D01*
X0215785Y0083772D01*
X0215775Y0083608D01*
X0215761Y0083444D01*
X0215743Y0083281D01*
X0215721Y0083118D01*
X0215694Y0082956D01*
X0215664Y0082794D01*
X0215630Y0082634D01*
X0215592Y0082474D01*
X0215551Y0082315D01*
X0215505Y0082157D01*
X0215455Y0082001D01*
X0215402Y0081845D01*
X0215345Y0081691D01*
X0215284Y0081539D01*
X0215219Y0081388D01*
X0215150Y0081238D01*
X0215078Y0081091D01*
X0215003Y0080945D01*
X0214923Y0080801D01*
X0214841Y0080659D01*
X0214755Y0080519D01*
X0214665Y0080382D01*
X0214572Y0080246D01*
X0214476Y0080113D01*
X0214376Y0079982D01*
X0214274Y0079854D01*
X0214168Y0079728D01*
X0214059Y0079605D01*
X0213947Y0079485D01*
X0213833Y0079367D01*
X0213715Y0079253D01*
X0213595Y0079141D01*
X0213472Y0079032D01*
X0213346Y0078926D01*
X0213218Y0078824D01*
X0213087Y0078724D01*
X0212954Y0078628D01*
X0212818Y0078535D01*
X0212681Y0078445D01*
X0212541Y0078359D01*
X0212399Y0078277D01*
X0212255Y0078197D01*
X0212109Y0078122D01*
X0211962Y0078050D01*
X0211812Y0077981D01*
X0211661Y0077916D01*
X0211509Y0077855D01*
X0211355Y0077798D01*
X0211199Y0077745D01*
X0211043Y0077695D01*
X0210885Y0077649D01*
X0210726Y0077608D01*
X0210566Y0077570D01*
X0210406Y0077536D01*
X0210244Y0077506D01*
X0210082Y0077479D01*
X0209919Y0077457D01*
X0209756Y0077439D01*
X0209592Y0077425D01*
X0209428Y0077415D01*
X0209264Y0077409D01*
X0209100Y0077407D01*
X0208936Y0077409D01*
X0208772Y0077415D01*
X0208608Y0077425D01*
X0208444Y0077439D01*
X0208281Y0077457D01*
X0208118Y0077479D01*
X0207956Y0077506D01*
X0207794Y0077536D01*
X0207634Y0077570D01*
X0207474Y0077608D01*
X0207315Y0077649D01*
X0207157Y0077695D01*
X0207001Y0077745D01*
X0206845Y0077798D01*
X0206691Y0077855D01*
X0206539Y0077916D01*
X0206388Y0077981D01*
X0206238Y0078050D01*
X0206091Y0078122D01*
X0205945Y0078197D01*
X0205801Y0078277D01*
X0205659Y0078359D01*
X0205519Y0078445D01*
X0205382Y0078535D01*
X0205246Y0078628D01*
X0205113Y0078724D01*
X0204982Y0078824D01*
X0204854Y0078926D01*
X0204728Y0079032D01*
X0204605Y0079141D01*
X0204485Y0079253D01*
X0204367Y0079367D01*
X0204253Y0079485D01*
X0204141Y0079605D01*
X0204032Y0079728D01*
X0203926Y0079854D01*
X0203824Y0079982D01*
X0203724Y0080113D01*
X0203628Y0080246D01*
X0203535Y0080382D01*
X0203445Y0080519D01*
X0203359Y0080659D01*
X0203277Y0080801D01*
X0203197Y0080945D01*
X0203122Y0081091D01*
X0203050Y0081238D01*
X0202981Y0081388D01*
X0202916Y0081539D01*
X0202855Y0081691D01*
X0202798Y0081845D01*
X0202745Y0082001D01*
X0202695Y0082157D01*
X0202649Y0082315D01*
X0202608Y0082474D01*
X0202570Y0082634D01*
X0202536Y0082794D01*
X0202506Y0082956D01*
X0202479Y0083118D01*
X0202457Y0083281D01*
X0202439Y0083444D01*
X0202425Y0083608D01*
X0202415Y0083772D01*
X0202409Y0083936D01*
X0202407Y0084100D01*
X0196502Y0079769D02*
X0196502Y0088431D01*
X0187600Y0084100D02*
X0186600Y0084100D01*
X0186600Y0081100D01*
X0166600Y0081100D01*
X0166600Y0084100D01*
X0165600Y0084100D01*
X0166600Y0084100D02*
X0166600Y0087100D01*
X0186600Y0087100D01*
X0186600Y0084100D01*
X0204769Y0096698D02*
X0213431Y0096698D01*
X0126600Y0094179D02*
X0122600Y0094179D01*
X0124600Y0092179D02*
X0124600Y0096179D01*
X0109257Y0099100D02*
X0109260Y0099342D01*
X0109269Y0099583D01*
X0109284Y0099824D01*
X0109304Y0100065D01*
X0109331Y0100305D01*
X0109364Y0100544D01*
X0109402Y0100783D01*
X0109446Y0101020D01*
X0109496Y0101257D01*
X0109552Y0101492D01*
X0109614Y0101725D01*
X0109681Y0101957D01*
X0109754Y0102188D01*
X0109832Y0102416D01*
X0109917Y0102642D01*
X0110006Y0102867D01*
X0110101Y0103089D01*
X0110202Y0103308D01*
X0110308Y0103526D01*
X0110419Y0103740D01*
X0110536Y0103952D01*
X0110657Y0104160D01*
X0110784Y0104366D01*
X0110916Y0104568D01*
X0111053Y0104768D01*
X0111194Y0104963D01*
X0111340Y0105156D01*
X0111491Y0105344D01*
X0111647Y0105529D01*
X0111807Y0105710D01*
X0111971Y0105887D01*
X0112140Y0106060D01*
X0112313Y0106229D01*
X0112490Y0106393D01*
X0112671Y0106553D01*
X0112856Y0106709D01*
X0113044Y0106860D01*
X0113237Y0107006D01*
X0113432Y0107147D01*
X0113632Y0107284D01*
X0113834Y0107416D01*
X0114040Y0107543D01*
X0114248Y0107664D01*
X0114460Y0107781D01*
X0114674Y0107892D01*
X0114892Y0107998D01*
X0115111Y0108099D01*
X0115333Y0108194D01*
X0115558Y0108283D01*
X0115784Y0108368D01*
X0116012Y0108446D01*
X0116243Y0108519D01*
X0116475Y0108586D01*
X0116708Y0108648D01*
X0116943Y0108704D01*
X0117180Y0108754D01*
X0117417Y0108798D01*
X0117656Y0108836D01*
X0117895Y0108869D01*
X0118135Y0108896D01*
X0118376Y0108916D01*
X0118617Y0108931D01*
X0118858Y0108940D01*
X0119100Y0108943D01*
X0119342Y0108940D01*
X0119583Y0108931D01*
X0119824Y0108916D01*
X0120065Y0108896D01*
X0120305Y0108869D01*
X0120544Y0108836D01*
X0120783Y0108798D01*
X0121020Y0108754D01*
X0121257Y0108704D01*
X0121492Y0108648D01*
X0121725Y0108586D01*
X0121957Y0108519D01*
X0122188Y0108446D01*
X0122416Y0108368D01*
X0122642Y0108283D01*
X0122867Y0108194D01*
X0123089Y0108099D01*
X0123308Y0107998D01*
X0123526Y0107892D01*
X0123740Y0107781D01*
X0123952Y0107664D01*
X0124160Y0107543D01*
X0124366Y0107416D01*
X0124568Y0107284D01*
X0124768Y0107147D01*
X0124963Y0107006D01*
X0125156Y0106860D01*
X0125344Y0106709D01*
X0125529Y0106553D01*
X0125710Y0106393D01*
X0125887Y0106229D01*
X0126060Y0106060D01*
X0126229Y0105887D01*
X0126393Y0105710D01*
X0126553Y0105529D01*
X0126709Y0105344D01*
X0126860Y0105156D01*
X0127006Y0104963D01*
X0127147Y0104768D01*
X0127284Y0104568D01*
X0127416Y0104366D01*
X0127543Y0104160D01*
X0127664Y0103952D01*
X0127781Y0103740D01*
X0127892Y0103526D01*
X0127998Y0103308D01*
X0128099Y0103089D01*
X0128194Y0102867D01*
X0128283Y0102642D01*
X0128368Y0102416D01*
X0128446Y0102188D01*
X0128519Y0101957D01*
X0128586Y0101725D01*
X0128648Y0101492D01*
X0128704Y0101257D01*
X0128754Y0101020D01*
X0128798Y0100783D01*
X0128836Y0100544D01*
X0128869Y0100305D01*
X0128896Y0100065D01*
X0128916Y0099824D01*
X0128931Y0099583D01*
X0128940Y0099342D01*
X0128943Y0099100D01*
X0128940Y0098858D01*
X0128931Y0098617D01*
X0128916Y0098376D01*
X0128896Y0098135D01*
X0128869Y0097895D01*
X0128836Y0097656D01*
X0128798Y0097417D01*
X0128754Y0097180D01*
X0128704Y0096943D01*
X0128648Y0096708D01*
X0128586Y0096475D01*
X0128519Y0096243D01*
X0128446Y0096012D01*
X0128368Y0095784D01*
X0128283Y0095558D01*
X0128194Y0095333D01*
X0128099Y0095111D01*
X0127998Y0094892D01*
X0127892Y0094674D01*
X0127781Y0094460D01*
X0127664Y0094248D01*
X0127543Y0094040D01*
X0127416Y0093834D01*
X0127284Y0093632D01*
X0127147Y0093432D01*
X0127006Y0093237D01*
X0126860Y0093044D01*
X0126709Y0092856D01*
X0126553Y0092671D01*
X0126393Y0092490D01*
X0126229Y0092313D01*
X0126060Y0092140D01*
X0125887Y0091971D01*
X0125710Y0091807D01*
X0125529Y0091647D01*
X0125344Y0091491D01*
X0125156Y0091340D01*
X0124963Y0091194D01*
X0124768Y0091053D01*
X0124568Y0090916D01*
X0124366Y0090784D01*
X0124160Y0090657D01*
X0123952Y0090536D01*
X0123740Y0090419D01*
X0123526Y0090308D01*
X0123308Y0090202D01*
X0123089Y0090101D01*
X0122867Y0090006D01*
X0122642Y0089917D01*
X0122416Y0089832D01*
X0122188Y0089754D01*
X0121957Y0089681D01*
X0121725Y0089614D01*
X0121492Y0089552D01*
X0121257Y0089496D01*
X0121020Y0089446D01*
X0120783Y0089402D01*
X0120544Y0089364D01*
X0120305Y0089331D01*
X0120065Y0089304D01*
X0119824Y0089284D01*
X0119583Y0089269D01*
X0119342Y0089260D01*
X0119100Y0089257D01*
X0118858Y0089260D01*
X0118617Y0089269D01*
X0118376Y0089284D01*
X0118135Y0089304D01*
X0117895Y0089331D01*
X0117656Y0089364D01*
X0117417Y0089402D01*
X0117180Y0089446D01*
X0116943Y0089496D01*
X0116708Y0089552D01*
X0116475Y0089614D01*
X0116243Y0089681D01*
X0116012Y0089754D01*
X0115784Y0089832D01*
X0115558Y0089917D01*
X0115333Y0090006D01*
X0115111Y0090101D01*
X0114892Y0090202D01*
X0114674Y0090308D01*
X0114460Y0090419D01*
X0114248Y0090536D01*
X0114040Y0090657D01*
X0113834Y0090784D01*
X0113632Y0090916D01*
X0113432Y0091053D01*
X0113237Y0091194D01*
X0113044Y0091340D01*
X0112856Y0091491D01*
X0112671Y0091647D01*
X0112490Y0091807D01*
X0112313Y0091971D01*
X0112140Y0092140D01*
X0111971Y0092313D01*
X0111807Y0092490D01*
X0111647Y0092671D01*
X0111491Y0092856D01*
X0111340Y0093044D01*
X0111194Y0093237D01*
X0111053Y0093432D01*
X0110916Y0093632D01*
X0110784Y0093834D01*
X0110657Y0094040D01*
X0110536Y0094248D01*
X0110419Y0094460D01*
X0110308Y0094674D01*
X0110202Y0094892D01*
X0110101Y0095111D01*
X0110006Y0095333D01*
X0109917Y0095558D01*
X0109832Y0095784D01*
X0109754Y0096012D01*
X0109681Y0096243D01*
X0109614Y0096475D01*
X0109552Y0096708D01*
X0109496Y0096943D01*
X0109446Y0097180D01*
X0109402Y0097417D01*
X0109364Y0097656D01*
X0109331Y0097895D01*
X0109304Y0098135D01*
X0109284Y0098376D01*
X0109269Y0098617D01*
X0109260Y0098858D01*
X0109257Y0099100D01*
X0102100Y0096179D02*
X0102100Y0092179D01*
X0104100Y0094179D02*
X0100100Y0094179D01*
X0086757Y0099100D02*
X0086760Y0099342D01*
X0086769Y0099583D01*
X0086784Y0099824D01*
X0086804Y0100065D01*
X0086831Y0100305D01*
X0086864Y0100544D01*
X0086902Y0100783D01*
X0086946Y0101020D01*
X0086996Y0101257D01*
X0087052Y0101492D01*
X0087114Y0101725D01*
X0087181Y0101957D01*
X0087254Y0102188D01*
X0087332Y0102416D01*
X0087417Y0102642D01*
X0087506Y0102867D01*
X0087601Y0103089D01*
X0087702Y0103308D01*
X0087808Y0103526D01*
X0087919Y0103740D01*
X0088036Y0103952D01*
X0088157Y0104160D01*
X0088284Y0104366D01*
X0088416Y0104568D01*
X0088553Y0104768D01*
X0088694Y0104963D01*
X0088840Y0105156D01*
X0088991Y0105344D01*
X0089147Y0105529D01*
X0089307Y0105710D01*
X0089471Y0105887D01*
X0089640Y0106060D01*
X0089813Y0106229D01*
X0089990Y0106393D01*
X0090171Y0106553D01*
X0090356Y0106709D01*
X0090544Y0106860D01*
X0090737Y0107006D01*
X0090932Y0107147D01*
X0091132Y0107284D01*
X0091334Y0107416D01*
X0091540Y0107543D01*
X0091748Y0107664D01*
X0091960Y0107781D01*
X0092174Y0107892D01*
X0092392Y0107998D01*
X0092611Y0108099D01*
X0092833Y0108194D01*
X0093058Y0108283D01*
X0093284Y0108368D01*
X0093512Y0108446D01*
X0093743Y0108519D01*
X0093975Y0108586D01*
X0094208Y0108648D01*
X0094443Y0108704D01*
X0094680Y0108754D01*
X0094917Y0108798D01*
X0095156Y0108836D01*
X0095395Y0108869D01*
X0095635Y0108896D01*
X0095876Y0108916D01*
X0096117Y0108931D01*
X0096358Y0108940D01*
X0096600Y0108943D01*
X0096842Y0108940D01*
X0097083Y0108931D01*
X0097324Y0108916D01*
X0097565Y0108896D01*
X0097805Y0108869D01*
X0098044Y0108836D01*
X0098283Y0108798D01*
X0098520Y0108754D01*
X0098757Y0108704D01*
X0098992Y0108648D01*
X0099225Y0108586D01*
X0099457Y0108519D01*
X0099688Y0108446D01*
X0099916Y0108368D01*
X0100142Y0108283D01*
X0100367Y0108194D01*
X0100589Y0108099D01*
X0100808Y0107998D01*
X0101026Y0107892D01*
X0101240Y0107781D01*
X0101452Y0107664D01*
X0101660Y0107543D01*
X0101866Y0107416D01*
X0102068Y0107284D01*
X0102268Y0107147D01*
X0102463Y0107006D01*
X0102656Y0106860D01*
X0102844Y0106709D01*
X0103029Y0106553D01*
X0103210Y0106393D01*
X0103387Y0106229D01*
X0103560Y0106060D01*
X0103729Y0105887D01*
X0103893Y0105710D01*
X0104053Y0105529D01*
X0104209Y0105344D01*
X0104360Y0105156D01*
X0104506Y0104963D01*
X0104647Y0104768D01*
X0104784Y0104568D01*
X0104916Y0104366D01*
X0105043Y0104160D01*
X0105164Y0103952D01*
X0105281Y0103740D01*
X0105392Y0103526D01*
X0105498Y0103308D01*
X0105599Y0103089D01*
X0105694Y0102867D01*
X0105783Y0102642D01*
X0105868Y0102416D01*
X0105946Y0102188D01*
X0106019Y0101957D01*
X0106086Y0101725D01*
X0106148Y0101492D01*
X0106204Y0101257D01*
X0106254Y0101020D01*
X0106298Y0100783D01*
X0106336Y0100544D01*
X0106369Y0100305D01*
X0106396Y0100065D01*
X0106416Y0099824D01*
X0106431Y0099583D01*
X0106440Y0099342D01*
X0106443Y0099100D01*
X0106440Y0098858D01*
X0106431Y0098617D01*
X0106416Y0098376D01*
X0106396Y0098135D01*
X0106369Y0097895D01*
X0106336Y0097656D01*
X0106298Y0097417D01*
X0106254Y0097180D01*
X0106204Y0096943D01*
X0106148Y0096708D01*
X0106086Y0096475D01*
X0106019Y0096243D01*
X0105946Y0096012D01*
X0105868Y0095784D01*
X0105783Y0095558D01*
X0105694Y0095333D01*
X0105599Y0095111D01*
X0105498Y0094892D01*
X0105392Y0094674D01*
X0105281Y0094460D01*
X0105164Y0094248D01*
X0105043Y0094040D01*
X0104916Y0093834D01*
X0104784Y0093632D01*
X0104647Y0093432D01*
X0104506Y0093237D01*
X0104360Y0093044D01*
X0104209Y0092856D01*
X0104053Y0092671D01*
X0103893Y0092490D01*
X0103729Y0092313D01*
X0103560Y0092140D01*
X0103387Y0091971D01*
X0103210Y0091807D01*
X0103029Y0091647D01*
X0102844Y0091491D01*
X0102656Y0091340D01*
X0102463Y0091194D01*
X0102268Y0091053D01*
X0102068Y0090916D01*
X0101866Y0090784D01*
X0101660Y0090657D01*
X0101452Y0090536D01*
X0101240Y0090419D01*
X0101026Y0090308D01*
X0100808Y0090202D01*
X0100589Y0090101D01*
X0100367Y0090006D01*
X0100142Y0089917D01*
X0099916Y0089832D01*
X0099688Y0089754D01*
X0099457Y0089681D01*
X0099225Y0089614D01*
X0098992Y0089552D01*
X0098757Y0089496D01*
X0098520Y0089446D01*
X0098283Y0089402D01*
X0098044Y0089364D01*
X0097805Y0089331D01*
X0097565Y0089304D01*
X0097324Y0089284D01*
X0097083Y0089269D01*
X0096842Y0089260D01*
X0096600Y0089257D01*
X0096358Y0089260D01*
X0096117Y0089269D01*
X0095876Y0089284D01*
X0095635Y0089304D01*
X0095395Y0089331D01*
X0095156Y0089364D01*
X0094917Y0089402D01*
X0094680Y0089446D01*
X0094443Y0089496D01*
X0094208Y0089552D01*
X0093975Y0089614D01*
X0093743Y0089681D01*
X0093512Y0089754D01*
X0093284Y0089832D01*
X0093058Y0089917D01*
X0092833Y0090006D01*
X0092611Y0090101D01*
X0092392Y0090202D01*
X0092174Y0090308D01*
X0091960Y0090419D01*
X0091748Y0090536D01*
X0091540Y0090657D01*
X0091334Y0090784D01*
X0091132Y0090916D01*
X0090932Y0091053D01*
X0090737Y0091194D01*
X0090544Y0091340D01*
X0090356Y0091491D01*
X0090171Y0091647D01*
X0089990Y0091807D01*
X0089813Y0091971D01*
X0089640Y0092140D01*
X0089471Y0092313D01*
X0089307Y0092490D01*
X0089147Y0092671D01*
X0088991Y0092856D01*
X0088840Y0093044D01*
X0088694Y0093237D01*
X0088553Y0093432D01*
X0088416Y0093632D01*
X0088284Y0093834D01*
X0088157Y0094040D01*
X0088036Y0094248D01*
X0087919Y0094460D01*
X0087808Y0094674D01*
X0087702Y0094892D01*
X0087601Y0095111D01*
X0087506Y0095333D01*
X0087417Y0095558D01*
X0087332Y0095784D01*
X0087254Y0096012D01*
X0087181Y0096243D01*
X0087114Y0096475D01*
X0087052Y0096708D01*
X0086996Y0096943D01*
X0086946Y0097180D01*
X0086902Y0097417D01*
X0086864Y0097656D01*
X0086831Y0097895D01*
X0086804Y0098135D01*
X0086784Y0098376D01*
X0086769Y0098617D01*
X0086760Y0098858D01*
X0086757Y0099100D01*
X0102100Y0102021D02*
X0102100Y0106021D01*
X0124600Y0106021D02*
X0124600Y0102021D01*
X0062600Y0086600D02*
X0061600Y0086600D01*
X0061600Y0083600D01*
X0041600Y0083600D01*
X0041600Y0086600D01*
X0040600Y0086600D01*
X0041600Y0086600D02*
X0041600Y0089600D01*
X0061600Y0089600D01*
X0061600Y0086600D01*
X0031698Y0090931D02*
X0031698Y0082269D01*
X0012407Y0086600D02*
X0012409Y0086764D01*
X0012415Y0086928D01*
X0012425Y0087092D01*
X0012439Y0087256D01*
X0012457Y0087419D01*
X0012479Y0087582D01*
X0012506Y0087744D01*
X0012536Y0087906D01*
X0012570Y0088066D01*
X0012608Y0088226D01*
X0012649Y0088385D01*
X0012695Y0088543D01*
X0012745Y0088699D01*
X0012798Y0088855D01*
X0012855Y0089009D01*
X0012916Y0089161D01*
X0012981Y0089312D01*
X0013050Y0089462D01*
X0013122Y0089609D01*
X0013197Y0089755D01*
X0013277Y0089899D01*
X0013359Y0090041D01*
X0013445Y0090181D01*
X0013535Y0090318D01*
X0013628Y0090454D01*
X0013724Y0090587D01*
X0013824Y0090718D01*
X0013926Y0090846D01*
X0014032Y0090972D01*
X0014141Y0091095D01*
X0014253Y0091215D01*
X0014367Y0091333D01*
X0014485Y0091447D01*
X0014605Y0091559D01*
X0014728Y0091668D01*
X0014854Y0091774D01*
X0014982Y0091876D01*
X0015113Y0091976D01*
X0015246Y0092072D01*
X0015382Y0092165D01*
X0015519Y0092255D01*
X0015659Y0092341D01*
X0015801Y0092423D01*
X0015945Y0092503D01*
X0016091Y0092578D01*
X0016238Y0092650D01*
X0016388Y0092719D01*
X0016539Y0092784D01*
X0016691Y0092845D01*
X0016845Y0092902D01*
X0017001Y0092955D01*
X0017157Y0093005D01*
X0017315Y0093051D01*
X0017474Y0093092D01*
X0017634Y0093130D01*
X0017794Y0093164D01*
X0017956Y0093194D01*
X0018118Y0093221D01*
X0018281Y0093243D01*
X0018444Y0093261D01*
X0018608Y0093275D01*
X0018772Y0093285D01*
X0018936Y0093291D01*
X0019100Y0093293D01*
X0019264Y0093291D01*
X0019428Y0093285D01*
X0019592Y0093275D01*
X0019756Y0093261D01*
X0019919Y0093243D01*
X0020082Y0093221D01*
X0020244Y0093194D01*
X0020406Y0093164D01*
X0020566Y0093130D01*
X0020726Y0093092D01*
X0020885Y0093051D01*
X0021043Y0093005D01*
X0021199Y0092955D01*
X0021355Y0092902D01*
X0021509Y0092845D01*
X0021661Y0092784D01*
X0021812Y0092719D01*
X0021962Y0092650D01*
X0022109Y0092578D01*
X0022255Y0092503D01*
X0022399Y0092423D01*
X0022541Y0092341D01*
X0022681Y0092255D01*
X0022818Y0092165D01*
X0022954Y0092072D01*
X0023087Y0091976D01*
X0023218Y0091876D01*
X0023346Y0091774D01*
X0023472Y0091668D01*
X0023595Y0091559D01*
X0023715Y0091447D01*
X0023833Y0091333D01*
X0023947Y0091215D01*
X0024059Y0091095D01*
X0024168Y0090972D01*
X0024274Y0090846D01*
X0024376Y0090718D01*
X0024476Y0090587D01*
X0024572Y0090454D01*
X0024665Y0090318D01*
X0024755Y0090181D01*
X0024841Y0090041D01*
X0024923Y0089899D01*
X0025003Y0089755D01*
X0025078Y0089609D01*
X0025150Y0089462D01*
X0025219Y0089312D01*
X0025284Y0089161D01*
X0025345Y0089009D01*
X0025402Y0088855D01*
X0025455Y0088699D01*
X0025505Y0088543D01*
X0025551Y0088385D01*
X0025592Y0088226D01*
X0025630Y0088066D01*
X0025664Y0087906D01*
X0025694Y0087744D01*
X0025721Y0087582D01*
X0025743Y0087419D01*
X0025761Y0087256D01*
X0025775Y0087092D01*
X0025785Y0086928D01*
X0025791Y0086764D01*
X0025793Y0086600D01*
X0025791Y0086436D01*
X0025785Y0086272D01*
X0025775Y0086108D01*
X0025761Y0085944D01*
X0025743Y0085781D01*
X0025721Y0085618D01*
X0025694Y0085456D01*
X0025664Y0085294D01*
X0025630Y0085134D01*
X0025592Y0084974D01*
X0025551Y0084815D01*
X0025505Y0084657D01*
X0025455Y0084501D01*
X0025402Y0084345D01*
X0025345Y0084191D01*
X0025284Y0084039D01*
X0025219Y0083888D01*
X0025150Y0083738D01*
X0025078Y0083591D01*
X0025003Y0083445D01*
X0024923Y0083301D01*
X0024841Y0083159D01*
X0024755Y0083019D01*
X0024665Y0082882D01*
X0024572Y0082746D01*
X0024476Y0082613D01*
X0024376Y0082482D01*
X0024274Y0082354D01*
X0024168Y0082228D01*
X0024059Y0082105D01*
X0023947Y0081985D01*
X0023833Y0081867D01*
X0023715Y0081753D01*
X0023595Y0081641D01*
X0023472Y0081532D01*
X0023346Y0081426D01*
X0023218Y0081324D01*
X0023087Y0081224D01*
X0022954Y0081128D01*
X0022818Y0081035D01*
X0022681Y0080945D01*
X0022541Y0080859D01*
X0022399Y0080777D01*
X0022255Y0080697D01*
X0022109Y0080622D01*
X0021962Y0080550D01*
X0021812Y0080481D01*
X0021661Y0080416D01*
X0021509Y0080355D01*
X0021355Y0080298D01*
X0021199Y0080245D01*
X0021043Y0080195D01*
X0020885Y0080149D01*
X0020726Y0080108D01*
X0020566Y0080070D01*
X0020406Y0080036D01*
X0020244Y0080006D01*
X0020082Y0079979D01*
X0019919Y0079957D01*
X0019756Y0079939D01*
X0019592Y0079925D01*
X0019428Y0079915D01*
X0019264Y0079909D01*
X0019100Y0079907D01*
X0018936Y0079909D01*
X0018772Y0079915D01*
X0018608Y0079925D01*
X0018444Y0079939D01*
X0018281Y0079957D01*
X0018118Y0079979D01*
X0017956Y0080006D01*
X0017794Y0080036D01*
X0017634Y0080070D01*
X0017474Y0080108D01*
X0017315Y0080149D01*
X0017157Y0080195D01*
X0017001Y0080245D01*
X0016845Y0080298D01*
X0016691Y0080355D01*
X0016539Y0080416D01*
X0016388Y0080481D01*
X0016238Y0080550D01*
X0016091Y0080622D01*
X0015945Y0080697D01*
X0015801Y0080777D01*
X0015659Y0080859D01*
X0015519Y0080945D01*
X0015382Y0081035D01*
X0015246Y0081128D01*
X0015113Y0081224D01*
X0014982Y0081324D01*
X0014854Y0081426D01*
X0014728Y0081532D01*
X0014605Y0081641D01*
X0014485Y0081753D01*
X0014367Y0081867D01*
X0014253Y0081985D01*
X0014141Y0082105D01*
X0014032Y0082228D01*
X0013926Y0082354D01*
X0013824Y0082482D01*
X0013724Y0082613D01*
X0013628Y0082746D01*
X0013535Y0082882D01*
X0013445Y0083019D01*
X0013359Y0083159D01*
X0013277Y0083301D01*
X0013197Y0083445D01*
X0013122Y0083591D01*
X0013050Y0083738D01*
X0012981Y0083888D01*
X0012916Y0084039D01*
X0012855Y0084191D01*
X0012798Y0084345D01*
X0012745Y0084501D01*
X0012695Y0084657D01*
X0012649Y0084815D01*
X0012608Y0084974D01*
X0012570Y0085134D01*
X0012536Y0085294D01*
X0012506Y0085456D01*
X0012479Y0085618D01*
X0012457Y0085781D01*
X0012439Y0085944D01*
X0012425Y0086108D01*
X0012415Y0086272D01*
X0012409Y0086436D01*
X0012407Y0086600D01*
X0006502Y0082269D02*
X0006502Y0090931D01*
X0014769Y0099198D02*
X0023431Y0099198D01*
X0023431Y0074002D02*
X0014769Y0074002D01*
D11*
X0103550Y0076050D02*
X0103550Y0076750D01*
X0103550Y0076050D02*
X0117150Y0076050D01*
X0117150Y0076750D01*
X0117150Y0088950D02*
X0117150Y0089650D01*
X0103550Y0089650D01*
X0103550Y0088950D01*
D12*
X0101350Y0088853D02*
X0100436Y0090028D01*
X0099000Y0090550D01*
X0100436Y0090028D02*
X0101872Y0090550D01*
X0100436Y0090028D02*
X0099522Y0088853D01*
X0100436Y0090028D02*
X0100436Y0091594D01*
D13*
X0051600Y0026600D02*
X0051600Y0009100D01*
X0071600Y0009100D01*
X0071600Y0026600D01*
X0051600Y0026600D01*
X0051600Y0034100D01*
X0071600Y0034100D01*
X0071600Y0026600D01*
X0101600Y0026600D02*
X0101600Y0009100D01*
X0131600Y0009100D01*
X0131600Y0026600D01*
X0101600Y0026600D01*
X0101600Y0034100D01*
X0131600Y0034100D01*
X0131600Y0026600D01*
X0161600Y0026600D02*
X0161600Y0009100D01*
X0181600Y0009100D01*
X0181600Y0026600D01*
X0161600Y0026600D01*
X0161600Y0034100D01*
X0181600Y0034100D01*
X0181600Y0026600D01*
M02*
