G75*
%MOIN*%
%OFA0B0*%
%FSLAX25Y25*%
%IPPOS*%
%LPD*%
%AMOC8*
5,1,8,0,0,1.08239X$1,22.5*
%
%ADD10R,0.06900X0.06900*%
%ADD11C,0.06900*%
%ADD12C,0.07800*%
%ADD13C,0.07900*%
%ADD14C,0.10900*%
%ADD15R,0.08600X0.02300*%
%ADD16C,0.06337*%
%ADD17C,0.16400*%
D10*
X0101600Y0059179D03*
X0121521Y0045350D03*
X0126600Y0059179D03*
X0119100Y0094179D03*
X0096600Y0094179D03*
D11*
X0096600Y0104021D03*
X0119100Y0104021D03*
X0126600Y0069021D03*
X0101600Y0069021D03*
X0111679Y0045350D03*
D12*
X0091600Y0046600D03*
X0081600Y0046600D03*
X0067207Y0055957D03*
X0076600Y0056600D03*
X0086600Y0064100D03*
X0076600Y0086600D03*
X0066600Y0086600D03*
X0086600Y0094100D03*
X0036600Y0086600D03*
X0045993Y0034743D03*
X0081600Y0016600D03*
X0091600Y0016600D03*
X0141600Y0011600D03*
X0151600Y0011600D03*
X0186857Y0034478D03*
X0163843Y0053722D03*
X0151600Y0054100D03*
X0141600Y0064100D03*
X0151600Y0084100D03*
X0161600Y0084100D03*
X0141600Y0094100D03*
X0191600Y0084100D03*
X0151600Y0041600D03*
X0141600Y0041600D03*
D13*
X0209100Y0084100D03*
X0019100Y0086600D03*
D14*
X0009061Y0076561D03*
X0029139Y0076561D03*
X0029139Y0096639D03*
X0009061Y0096639D03*
X0199061Y0094139D03*
X0219139Y0094139D03*
X0219139Y0074061D03*
X0199061Y0074061D03*
D15*
X0118600Y0079011D03*
X0118600Y0081570D03*
X0118600Y0084130D03*
X0118600Y0086689D03*
X0102100Y0086689D03*
X0102100Y0084130D03*
X0102100Y0081570D03*
X0102100Y0079011D03*
D16*
X0106600Y0024569D02*
X0106600Y0018631D01*
X0116600Y0018631D02*
X0116600Y0024569D01*
X0126600Y0024569D02*
X0126600Y0018631D01*
X0166600Y0018631D02*
X0166600Y0024569D01*
X0176600Y0024569D02*
X0176600Y0018631D01*
X0066600Y0018631D02*
X0066600Y0024569D01*
X0056600Y0024569D02*
X0056600Y0018631D01*
D17*
X0019317Y0015380D03*
X0058687Y0113805D03*
X0176797Y0113805D03*
X0216167Y0015380D03*
M02*
