%
M48
M72
T01C0.02756
T02C0.03543
T03C0.03937
T04C0.05000
T05C0.07000
T06C0.12000
%
T01
X101600Y59179
X101600Y69021
X126600Y69021
X126600Y59179
X121521Y45350
X111679Y45350
X119100Y94179
X119100Y104021
X96600Y104021
X96600Y94179
T02
X86600Y94100
X76600Y86600
X66600Y86600
X36600Y86600
X86600Y64100
X76600Y56600
X67207Y55957
X81600Y46600
X91600Y46600
X45993Y34743
X81600Y16600
X91600Y16600
X141600Y11600
X151600Y11600
X186857Y34478
X163843Y53722
X151600Y54100
X141600Y64100
X151600Y84100
X161600Y84100
X141600Y94100
X191600Y84100
X151600Y41600
X141600Y41600
T03
X126600Y21600
X116600Y21600
X106600Y21600
X66600Y21600
X56600Y21600
X166600Y21600
X176600Y21600
T04
X209100Y84100
X19100Y86600
T05
X9061Y76561
X29139Y76561
X29139Y96639
X9061Y96639
X199061Y94139
X219139Y94139
X219139Y74061
X199061Y74061
T06
X19317Y15380
X58687Y113805
X176797Y113805
X216167Y15380
M30
