G75*
%MOIN*%
%OFA0B0*%
%FSLAX25Y25*%
%IPPOS*%
%LPD*%
%AMOC8*
5,1,8,0,0,1.08239X$1,22.5*
%
%ADD10R,0.06500X0.06500*%
%ADD11C,0.06500*%
%ADD12C,0.07400*%
%ADD13C,0.07500*%
%ADD14C,0.10500*%
%ADD15C,0.05937*%
%ADD16C,0.16000*%
%ADD17C,0.01000*%
%ADD18C,0.01200*%
D10*
X0101600Y0059179D03*
X0121521Y0045350D03*
X0126600Y0059179D03*
X0119100Y0094179D03*
X0096600Y0094179D03*
D11*
X0096600Y0104021D03*
X0119100Y0104021D03*
X0126600Y0069021D03*
X0101600Y0069021D03*
X0111679Y0045350D03*
D12*
X0091600Y0046600D03*
X0081600Y0046600D03*
X0067207Y0055957D03*
X0076600Y0056600D03*
X0086600Y0064100D03*
X0076600Y0086600D03*
X0066600Y0086600D03*
X0086600Y0094100D03*
X0036600Y0086600D03*
X0045993Y0034743D03*
X0081600Y0016600D03*
X0091600Y0016600D03*
X0141600Y0011600D03*
X0151600Y0011600D03*
X0186857Y0034478D03*
X0163843Y0053722D03*
X0151600Y0054100D03*
X0141600Y0064100D03*
X0151600Y0084100D03*
X0161600Y0084100D03*
X0141600Y0094100D03*
X0191600Y0084100D03*
X0151600Y0041600D03*
X0141600Y0041600D03*
D13*
X0209100Y0084100D03*
X0019100Y0086600D03*
D14*
X0009061Y0076561D03*
X0029139Y0076561D03*
X0029139Y0096639D03*
X0009061Y0096639D03*
X0199061Y0094139D03*
X0219139Y0094139D03*
X0219139Y0074061D03*
X0199061Y0074061D03*
D15*
X0176600Y0024569D02*
X0176600Y0018631D01*
X0166600Y0018631D02*
X0166600Y0024569D01*
X0126600Y0024569D02*
X0126600Y0018631D01*
X0116600Y0018631D02*
X0116600Y0024569D01*
X0106600Y0024569D02*
X0106600Y0018631D01*
X0066600Y0018631D02*
X0066600Y0024569D01*
X0056600Y0024569D02*
X0056600Y0018631D01*
D16*
X0019317Y0015380D03*
X0058687Y0113805D03*
X0176797Y0113805D03*
X0216167Y0015380D03*
D17*
X0221600Y0020350D02*
X0206600Y0005350D01*
X0147850Y0005350D01*
X0141600Y0011600D01*
X0116600Y0011600D01*
X0091600Y0011600D01*
X0091600Y0016600D01*
X0091600Y0011600D02*
X0087850Y0011600D01*
X0085350Y0009100D01*
X0025350Y0009100D01*
X0009100Y0025350D01*
X0009100Y0075350D01*
X0009100Y0076600D02*
X0010350Y0075350D01*
X0029100Y0075350D01*
X0009100Y0076600D02*
X0009100Y0096600D01*
X0041600Y0096600D01*
X0059100Y0114100D01*
X0086600Y0114100D01*
X0096600Y0104100D01*
X0119100Y0104100D01*
X0129100Y0114100D01*
X0176600Y0114100D01*
X0196600Y0094100D01*
X0221600Y0094100D01*
X0221600Y0074100D01*
X0221600Y0020350D01*
X0127850Y0039100D02*
X0127850Y0057850D01*
X0126600Y0059100D01*
X0101600Y0059100D01*
X0127850Y0039100D02*
X0116600Y0027850D01*
X0116600Y0021600D01*
X0116600Y0011600D01*
X0201600Y0074100D02*
X0221600Y0074100D01*
D18*
X0003500Y0072556D02*
X0003500Y0003500D01*
X0225950Y0003500D01*
X0225950Y0073316D01*
X0225872Y0072722D01*
X0225639Y0071854D01*
X0225296Y0071025D01*
X0224847Y0070247D01*
X0224300Y0069535D01*
X0223665Y0068900D01*
X0222953Y0068353D01*
X0222175Y0067904D01*
X0221346Y0067561D01*
X0220478Y0067328D01*
X0219739Y0067231D01*
X0219739Y0073461D01*
X0219739Y0074661D01*
X0225950Y0074661D01*
X0225950Y0073461D01*
X0219739Y0073461D01*
X0218539Y0073461D01*
X0218539Y0067231D01*
X0217800Y0067328D01*
X0216932Y0067561D01*
X0216103Y0067904D01*
X0215325Y0068353D01*
X0214613Y0068900D01*
X0213978Y0069535D01*
X0213431Y0070247D01*
X0212982Y0071025D01*
X0212639Y0071854D01*
X0212406Y0072722D01*
X0212309Y0073461D01*
X0218539Y0073461D01*
X0218539Y0074661D01*
X0218539Y0080891D01*
X0217800Y0080794D01*
X0216932Y0080561D01*
X0216103Y0080218D01*
X0215325Y0079769D01*
X0214613Y0079222D01*
X0213978Y0078587D01*
X0213431Y0077875D01*
X0212982Y0077097D01*
X0212639Y0076268D01*
X0212406Y0075400D01*
X0212309Y0074661D01*
X0218539Y0074661D01*
X0219739Y0074661D01*
X0219739Y0080891D01*
X0220478Y0080794D01*
X0221346Y0080561D01*
X0222175Y0080218D01*
X0222953Y0079769D01*
X0223665Y0079222D01*
X0224300Y0078587D01*
X0224847Y0077875D01*
X0225296Y0077097D01*
X0225639Y0076268D01*
X0225872Y0075400D01*
X0225950Y0074806D01*
X0225950Y0093394D01*
X0225872Y0092800D01*
X0225639Y0091932D01*
X0225296Y0091103D01*
X0224847Y0090325D01*
X0224300Y0089613D01*
X0223665Y0088978D01*
X0222953Y0088431D01*
X0222175Y0087982D01*
X0221346Y0087639D01*
X0220478Y0087406D01*
X0219739Y0087309D01*
X0219739Y0093539D01*
X0219739Y0094739D01*
X0218539Y0094739D01*
X0218539Y0100969D01*
X0217800Y0100872D01*
X0216932Y0100639D01*
X0216103Y0100296D01*
X0215325Y0099847D01*
X0214613Y0099300D01*
X0213978Y0098665D01*
X0213431Y0097953D01*
X0212982Y0097175D01*
X0212639Y0096346D01*
X0212406Y0095478D01*
X0212309Y0094739D01*
X0218539Y0094739D01*
X0218539Y0093539D01*
X0219739Y0093539D01*
X0225950Y0093539D01*
X0225950Y0094739D01*
X0219739Y0094739D01*
X0219739Y0100969D01*
X0220478Y0100872D01*
X0221346Y0100639D01*
X0222175Y0100296D01*
X0222953Y0099847D01*
X0223665Y0099300D01*
X0224300Y0098665D01*
X0224847Y0097953D01*
X0225296Y0097175D01*
X0225639Y0096346D01*
X0225872Y0095478D01*
X0225950Y0094884D01*
X0225950Y0124700D01*
X0003500Y0124700D01*
X0003500Y0100644D01*
X0003900Y0101165D01*
X0004535Y0101800D01*
X0005247Y0102347D01*
X0006025Y0102796D01*
X0006854Y0103139D01*
X0007722Y0103372D01*
X0008461Y0103469D01*
X0008461Y0097239D01*
X0009661Y0097239D01*
X0009661Y0103469D01*
X0010400Y0103372D01*
X0011268Y0103139D01*
X0012097Y0102796D01*
X0012875Y0102347D01*
X0013587Y0101800D01*
X0014222Y0101165D01*
X0014769Y0100453D01*
X0015218Y0099675D01*
X0015561Y0098846D01*
X0015794Y0097978D01*
X0015891Y0097239D01*
X0009661Y0097239D01*
X0009661Y0096039D01*
X0015891Y0096039D01*
X0015794Y0095300D01*
X0015561Y0094432D01*
X0015218Y0093603D01*
X0014769Y0092825D01*
X0014222Y0092113D01*
X0013587Y0091478D01*
X0012875Y0090931D01*
X0012097Y0090482D01*
X0011268Y0090139D01*
X0010400Y0089906D01*
X0009661Y0089809D01*
X0009661Y0096039D01*
X0008461Y0096039D01*
X0008461Y0089809D01*
X0007722Y0089906D01*
X0006854Y0090139D01*
X0006025Y0090482D01*
X0005247Y0090931D01*
X0004535Y0091478D01*
X0003900Y0092113D01*
X0003500Y0092634D01*
X0003500Y0080566D01*
X0003900Y0081087D01*
X0004535Y0081722D01*
X0005247Y0082269D01*
X0006025Y0082718D01*
X0006854Y0083061D01*
X0007722Y0083294D01*
X0008461Y0083391D01*
X0008461Y0077161D01*
X0009661Y0077161D01*
X0009661Y0083391D01*
X0010400Y0083294D01*
X0011268Y0083061D01*
X0012097Y0082718D01*
X0012875Y0082269D01*
X0013587Y0081722D01*
X0014222Y0081087D01*
X0014769Y0080375D01*
X0015218Y0079597D01*
X0015561Y0078768D01*
X0015794Y0077900D01*
X0015891Y0077161D01*
X0009661Y0077161D01*
X0009661Y0075961D01*
X0009661Y0069731D01*
X0010400Y0069828D01*
X0011268Y0070061D01*
X0012097Y0070404D01*
X0012875Y0070853D01*
X0013587Y0071400D01*
X0014222Y0072035D01*
X0014769Y0072747D01*
X0015218Y0073525D01*
X0015561Y0074354D01*
X0015794Y0075222D01*
X0015891Y0075961D01*
X0009661Y0075961D01*
X0008461Y0075961D01*
X0008461Y0069731D01*
X0007722Y0069828D01*
X0006854Y0070061D01*
X0006025Y0070404D01*
X0005247Y0070853D01*
X0004535Y0071400D01*
X0003900Y0072035D01*
X0003500Y0072556D01*
X0003500Y0072312D02*
X0003687Y0072312D01*
X0003500Y0071114D02*
X0004908Y0071114D01*
X0003500Y0069915D02*
X0007397Y0069915D01*
X0008461Y0069915D02*
X0009661Y0069915D01*
X0010725Y0069915D02*
X0027475Y0069915D01*
X0027800Y0069828D02*
X0026932Y0070061D01*
X0026103Y0070404D01*
X0025325Y0070853D01*
X0024613Y0071400D01*
X0023978Y0072035D01*
X0023431Y0072747D01*
X0022982Y0073525D01*
X0022639Y0074354D01*
X0022406Y0075222D01*
X0022309Y0075961D01*
X0028539Y0075961D01*
X0029739Y0075961D01*
X0029739Y0077161D01*
X0035969Y0077161D01*
X0035872Y0077900D01*
X0035639Y0078768D01*
X0035296Y0079597D01*
X0034847Y0080375D01*
X0034300Y0081087D01*
X0033665Y0081722D01*
X0032953Y0082269D01*
X0032175Y0082718D01*
X0031346Y0083061D01*
X0030478Y0083294D01*
X0029739Y0083391D01*
X0029739Y0077161D01*
X0028539Y0077161D01*
X0028539Y0083391D01*
X0027800Y0083294D01*
X0026932Y0083061D01*
X0026103Y0082718D01*
X0025325Y0082269D01*
X0024613Y0081722D01*
X0023978Y0081087D01*
X0023431Y0080375D01*
X0022982Y0079597D01*
X0022639Y0078768D01*
X0022406Y0077900D01*
X0022309Y0077161D01*
X0028539Y0077161D01*
X0028539Y0075961D01*
X0028539Y0069731D01*
X0027800Y0069828D01*
X0028539Y0069915D02*
X0029739Y0069915D01*
X0029739Y0069731D02*
X0030478Y0069828D01*
X0031346Y0070061D01*
X0032175Y0070404D01*
X0032953Y0070853D01*
X0033665Y0071400D01*
X0034300Y0072035D01*
X0034847Y0072747D01*
X0035296Y0073525D01*
X0035639Y0074354D01*
X0035872Y0075222D01*
X0035969Y0075961D01*
X0029739Y0075961D01*
X0029739Y0069731D01*
X0030803Y0069915D02*
X0097154Y0069915D01*
X0097150Y0069906D02*
X0097150Y0068136D01*
X0097827Y0066501D01*
X0099079Y0065249D01*
X0100715Y0064571D01*
X0102485Y0064571D01*
X0104121Y0065249D01*
X0105373Y0066501D01*
X0106050Y0068136D01*
X0106050Y0069906D01*
X0105373Y0071542D01*
X0104121Y0072794D01*
X0102485Y0073471D01*
X0100715Y0073471D01*
X0099079Y0072794D01*
X0097827Y0071542D01*
X0097150Y0069906D01*
X0097150Y0068717D02*
X0088259Y0068717D01*
X0087575Y0069000D02*
X0085625Y0069000D01*
X0083824Y0068254D01*
X0082446Y0066876D01*
X0081700Y0065075D01*
X0081700Y0063125D01*
X0082446Y0061324D01*
X0083824Y0059946D01*
X0085625Y0059200D01*
X0087575Y0059200D01*
X0089376Y0059946D01*
X0090754Y0061324D01*
X0091500Y0063125D01*
X0091500Y0065075D01*
X0090754Y0066876D01*
X0089376Y0068254D01*
X0087575Y0069000D01*
X0084941Y0068717D02*
X0003500Y0068717D01*
X0003500Y0067518D02*
X0083088Y0067518D01*
X0082216Y0066320D02*
X0003500Y0066320D01*
X0003500Y0065121D02*
X0081719Y0065121D01*
X0081700Y0063923D02*
X0003500Y0063923D01*
X0003500Y0062724D02*
X0081866Y0062724D01*
X0082363Y0061526D02*
X0003500Y0061526D01*
X0003500Y0060327D02*
X0064954Y0060327D01*
X0064431Y0060111D02*
X0066232Y0060857D01*
X0068181Y0060857D01*
X0069982Y0060111D01*
X0071361Y0058732D01*
X0071770Y0057744D01*
X0072446Y0059376D01*
X0073824Y0060754D01*
X0075625Y0061500D01*
X0077575Y0061500D01*
X0079376Y0060754D01*
X0080754Y0059376D01*
X0081500Y0057575D01*
X0081500Y0055625D01*
X0080754Y0053824D01*
X0079376Y0052446D01*
X0077575Y0051700D01*
X0075625Y0051700D01*
X0073824Y0052446D01*
X0072446Y0053824D01*
X0072037Y0054813D01*
X0071361Y0053181D01*
X0069982Y0051803D01*
X0068181Y0051057D01*
X0066232Y0051057D01*
X0064431Y0051803D01*
X0063053Y0053181D01*
X0062307Y0054982D01*
X0062307Y0056931D01*
X0063053Y0058732D01*
X0064431Y0060111D01*
X0063449Y0059129D02*
X0003500Y0059129D01*
X0003500Y0057930D02*
X0062720Y0057930D01*
X0062307Y0056732D02*
X0003500Y0056732D01*
X0003500Y0055533D02*
X0062307Y0055533D01*
X0062575Y0054334D02*
X0003500Y0054334D01*
X0003500Y0053136D02*
X0063098Y0053136D01*
X0064296Y0051937D02*
X0003500Y0051937D01*
X0003500Y0050739D02*
X0078809Y0050739D01*
X0078824Y0050754D02*
X0077446Y0049376D01*
X0076700Y0047575D01*
X0076700Y0045625D01*
X0077446Y0043824D01*
X0078824Y0042446D01*
X0080625Y0041700D01*
X0082575Y0041700D01*
X0084376Y0042446D01*
X0085754Y0043824D01*
X0086500Y0045625D01*
X0086500Y0047575D01*
X0085754Y0049376D01*
X0084376Y0050754D01*
X0082575Y0051500D01*
X0080625Y0051500D01*
X0078824Y0050754D01*
X0078148Y0051937D02*
X0147192Y0051937D01*
X0147446Y0051324D02*
X0148824Y0049946D01*
X0150625Y0049200D01*
X0152575Y0049200D01*
X0154376Y0049946D01*
X0155754Y0051324D01*
X0156500Y0053125D01*
X0156500Y0055075D01*
X0155754Y0056876D01*
X0154376Y0058254D01*
X0152575Y0059000D01*
X0150625Y0059000D01*
X0148824Y0058254D01*
X0147446Y0056876D01*
X0146700Y0055075D01*
X0146700Y0053125D01*
X0147446Y0051324D01*
X0148031Y0050739D02*
X0094391Y0050739D01*
X0094376Y0050754D02*
X0092575Y0051500D01*
X0090625Y0051500D01*
X0088824Y0050754D01*
X0087446Y0049376D01*
X0086700Y0047575D01*
X0086700Y0045625D01*
X0087446Y0043824D01*
X0088824Y0042446D01*
X0090625Y0041700D01*
X0092575Y0041700D01*
X0094376Y0042446D01*
X0095754Y0043824D01*
X0096500Y0045625D01*
X0096500Y0047575D01*
X0095754Y0049376D01*
X0094376Y0050754D01*
X0095589Y0049540D02*
X0110167Y0049540D01*
X0110794Y0049800D02*
X0109158Y0049123D01*
X0107906Y0047871D01*
X0107229Y0046235D01*
X0107229Y0044465D01*
X0107906Y0042829D01*
X0109158Y0041577D01*
X0110794Y0040900D01*
X0112564Y0040900D01*
X0114199Y0041577D01*
X0115451Y0042829D01*
X0116129Y0044465D01*
X0116129Y0046235D01*
X0115451Y0047871D01*
X0114199Y0049123D01*
X0112564Y0049800D01*
X0110794Y0049800D01*
X0113190Y0049540D02*
X0117515Y0049540D01*
X0117774Y0049800D02*
X0117071Y0049097D01*
X0117071Y0041603D01*
X0117774Y0040900D01*
X0125268Y0040900D01*
X0125971Y0041603D01*
X0125971Y0049097D01*
X0125268Y0049800D01*
X0117774Y0049800D01*
X0117071Y0048342D02*
X0114980Y0048342D01*
X0115753Y0047143D02*
X0117071Y0047143D01*
X0117071Y0045945D02*
X0116129Y0045945D01*
X0116129Y0044746D02*
X0117071Y0044746D01*
X0117071Y0043548D02*
X0115749Y0043548D01*
X0114971Y0042349D02*
X0117071Y0042349D01*
X0117523Y0041151D02*
X0113170Y0041151D01*
X0110188Y0041151D02*
X0003500Y0041151D01*
X0003500Y0042349D02*
X0079058Y0042349D01*
X0077722Y0043548D02*
X0003500Y0043548D01*
X0003500Y0044746D02*
X0077064Y0044746D01*
X0076700Y0045945D02*
X0003500Y0045945D01*
X0003500Y0047143D02*
X0076700Y0047143D01*
X0077018Y0048342D02*
X0003500Y0048342D01*
X0003500Y0049540D02*
X0077611Y0049540D01*
X0075052Y0051937D02*
X0070117Y0051937D01*
X0071316Y0053136D02*
X0073134Y0053136D01*
X0072235Y0054334D02*
X0071838Y0054334D01*
X0071847Y0057930D02*
X0071693Y0057930D01*
X0072344Y0059129D02*
X0070964Y0059129D01*
X0069460Y0060327D02*
X0073397Y0060327D01*
X0079803Y0060327D02*
X0083443Y0060327D01*
X0080856Y0059129D02*
X0101511Y0059129D01*
X0101511Y0059090D02*
X0096750Y0059090D01*
X0096750Y0055718D01*
X0096859Y0055311D01*
X0097070Y0054946D01*
X0097368Y0054648D01*
X0097732Y0054438D01*
X0098139Y0054329D01*
X0101511Y0054329D01*
X0101511Y0059090D01*
X0101511Y0059268D01*
X0101511Y0064029D01*
X0098139Y0064029D01*
X0097732Y0063920D01*
X0097368Y0063709D01*
X0097070Y0063411D01*
X0096859Y0063046D01*
X0096750Y0062639D01*
X0096750Y0059268D01*
X0101511Y0059268D01*
X0101689Y0059268D01*
X0101689Y0064029D01*
X0105061Y0064029D01*
X0105468Y0063920D01*
X0105832Y0063709D01*
X0106130Y0063411D01*
X0106341Y0063046D01*
X0106450Y0062639D01*
X0106450Y0059268D01*
X0101689Y0059268D01*
X0101689Y0059090D01*
X0106450Y0059090D01*
X0106450Y0055718D01*
X0106341Y0055311D01*
X0106130Y0054946D01*
X0105832Y0054648D01*
X0105468Y0054438D01*
X0105061Y0054329D01*
X0101689Y0054329D01*
X0101689Y0059090D01*
X0101511Y0059090D01*
X0101689Y0059129D02*
X0126511Y0059129D01*
X0126511Y0059090D02*
X0121750Y0059090D01*
X0121750Y0055718D01*
X0121859Y0055311D01*
X0122070Y0054946D01*
X0122368Y0054648D01*
X0122732Y0054438D01*
X0123139Y0054329D01*
X0126511Y0054329D01*
X0126511Y0059090D01*
X0126511Y0059268D01*
X0126511Y0064029D01*
X0123139Y0064029D01*
X0122732Y0063920D01*
X0122368Y0063709D01*
X0122070Y0063411D01*
X0121859Y0063046D01*
X0121750Y0062639D01*
X0121750Y0059268D01*
X0126511Y0059268D01*
X0126689Y0059268D01*
X0126689Y0064029D01*
X0130061Y0064029D01*
X0130468Y0063920D01*
X0130832Y0063709D01*
X0131130Y0063411D01*
X0131341Y0063046D01*
X0131450Y0062639D01*
X0131450Y0059268D01*
X0126689Y0059268D01*
X0126689Y0059090D01*
X0131450Y0059090D01*
X0131450Y0055718D01*
X0131341Y0055311D01*
X0131130Y0054946D01*
X0130832Y0054648D01*
X0130468Y0054438D01*
X0130061Y0054329D01*
X0126689Y0054329D01*
X0126689Y0059090D01*
X0126511Y0059090D01*
X0126689Y0059129D02*
X0225950Y0059129D01*
X0225950Y0060327D02*
X0144757Y0060327D01*
X0144376Y0059946D02*
X0145754Y0061324D01*
X0146500Y0063125D01*
X0146500Y0065075D01*
X0145754Y0066876D01*
X0144376Y0068254D01*
X0142575Y0069000D01*
X0140625Y0069000D01*
X0138824Y0068254D01*
X0137446Y0066876D01*
X0136700Y0065075D01*
X0136700Y0063125D01*
X0137446Y0061324D01*
X0138824Y0059946D01*
X0140625Y0059200D01*
X0142575Y0059200D01*
X0144376Y0059946D01*
X0145837Y0061526D02*
X0225950Y0061526D01*
X0225950Y0062724D02*
X0146334Y0062724D01*
X0146500Y0063923D02*
X0225950Y0063923D01*
X0225950Y0065121D02*
X0146481Y0065121D01*
X0145984Y0066320D02*
X0225950Y0066320D01*
X0225950Y0067518D02*
X0221187Y0067518D01*
X0219739Y0067518D02*
X0218539Y0067518D01*
X0218539Y0068717D02*
X0219739Y0068717D01*
X0219739Y0069915D02*
X0218539Y0069915D01*
X0218539Y0071114D02*
X0219739Y0071114D01*
X0219739Y0072312D02*
X0218539Y0072312D01*
X0218539Y0073511D02*
X0199661Y0073511D01*
X0199661Y0073461D02*
X0199661Y0074661D01*
X0205891Y0074661D01*
X0205794Y0075400D01*
X0205561Y0076268D01*
X0205218Y0077097D01*
X0204769Y0077875D01*
X0204222Y0078587D01*
X0203587Y0079222D01*
X0202875Y0079769D01*
X0202097Y0080218D01*
X0201268Y0080561D01*
X0200400Y0080794D01*
X0199661Y0080891D01*
X0199661Y0074661D01*
X0198461Y0074661D01*
X0198461Y0073461D01*
X0199661Y0073461D01*
X0199661Y0067231D01*
X0200400Y0067328D01*
X0201268Y0067561D01*
X0202097Y0067904D01*
X0202875Y0068353D01*
X0203587Y0068900D01*
X0204222Y0069535D01*
X0204769Y0070247D01*
X0205218Y0071025D01*
X0205561Y0071854D01*
X0205794Y0072722D01*
X0205891Y0073461D01*
X0199661Y0073461D01*
X0199661Y0072312D02*
X0198461Y0072312D01*
X0198461Y0073461D02*
X0198461Y0067231D01*
X0197722Y0067328D01*
X0196854Y0067561D01*
X0196025Y0067904D01*
X0195247Y0068353D01*
X0194535Y0068900D01*
X0193900Y0069535D01*
X0193353Y0070247D01*
X0192904Y0071025D01*
X0192561Y0071854D01*
X0192328Y0072722D01*
X0192231Y0073461D01*
X0198461Y0073461D01*
X0198461Y0073511D02*
X0035288Y0073511D01*
X0035734Y0074709D02*
X0192237Y0074709D01*
X0192231Y0074661D02*
X0198461Y0074661D01*
X0198461Y0080891D01*
X0197722Y0080794D01*
X0196854Y0080561D01*
X0196025Y0080218D01*
X0195247Y0079769D01*
X0194535Y0079222D01*
X0193900Y0078587D01*
X0193353Y0077875D01*
X0192904Y0077097D01*
X0192561Y0076268D01*
X0192328Y0075400D01*
X0192231Y0074661D01*
X0192464Y0075908D02*
X0035962Y0075908D01*
X0035763Y0078305D02*
X0193683Y0078305D01*
X0193307Y0079503D02*
X0194901Y0079503D01*
X0194376Y0079946D02*
X0195754Y0081324D01*
X0196500Y0083125D01*
X0196500Y0085075D01*
X0195754Y0086876D01*
X0194376Y0088254D01*
X0192575Y0089000D01*
X0190625Y0089000D01*
X0188824Y0088254D01*
X0187446Y0086876D01*
X0186700Y0085075D01*
X0186700Y0083125D01*
X0187446Y0081324D01*
X0188824Y0079946D01*
X0190625Y0079200D01*
X0192575Y0079200D01*
X0194376Y0079946D01*
X0195131Y0080702D02*
X0197378Y0080702D01*
X0198461Y0080702D02*
X0199661Y0080702D01*
X0200744Y0080702D02*
X0205498Y0080702D01*
X0204904Y0081296D02*
X0206296Y0079904D01*
X0208115Y0079150D01*
X0210085Y0079150D01*
X0211904Y0079904D01*
X0213296Y0081296D01*
X0214050Y0083115D01*
X0214050Y0085085D01*
X0213296Y0086904D01*
X0211904Y0088296D01*
X0210085Y0089050D01*
X0208115Y0089050D01*
X0206296Y0088296D01*
X0204904Y0086904D01*
X0204150Y0085085D01*
X0204150Y0083115D01*
X0204904Y0081296D01*
X0204653Y0081900D02*
X0195993Y0081900D01*
X0196489Y0083099D02*
X0204157Y0083099D01*
X0204150Y0084297D02*
X0196500Y0084297D01*
X0196326Y0085496D02*
X0204320Y0085496D01*
X0204817Y0086694D02*
X0195829Y0086694D01*
X0196241Y0087893D02*
X0194737Y0087893D01*
X0195247Y0088431D02*
X0194535Y0088978D01*
X0193900Y0089613D01*
X0193353Y0090325D01*
X0192904Y0091103D01*
X0192561Y0091932D01*
X0192328Y0092800D01*
X0192231Y0093539D01*
X0198461Y0093539D01*
X0198461Y0094739D01*
X0198461Y0100969D01*
X0197722Y0100872D01*
X0196854Y0100639D01*
X0196025Y0100296D01*
X0195247Y0099847D01*
X0194535Y0099300D01*
X0193900Y0098665D01*
X0193353Y0097953D01*
X0192904Y0097175D01*
X0192561Y0096346D01*
X0192328Y0095478D01*
X0192231Y0094739D01*
X0198461Y0094739D01*
X0199661Y0094739D01*
X0199661Y0100969D01*
X0200400Y0100872D01*
X0201268Y0100639D01*
X0202097Y0100296D01*
X0202875Y0099847D01*
X0203587Y0099300D01*
X0204222Y0098665D01*
X0204769Y0097953D01*
X0205218Y0097175D01*
X0205561Y0096346D01*
X0205794Y0095478D01*
X0205891Y0094739D01*
X0199661Y0094739D01*
X0199661Y0093539D01*
X0205891Y0093539D01*
X0205794Y0092800D01*
X0205561Y0091932D01*
X0205218Y0091103D01*
X0204769Y0090325D01*
X0204222Y0089613D01*
X0203587Y0088978D01*
X0202875Y0088431D01*
X0202097Y0087982D01*
X0201268Y0087639D01*
X0200400Y0087406D01*
X0199661Y0087309D01*
X0199661Y0093539D01*
X0198461Y0093539D01*
X0198461Y0087309D01*
X0197722Y0087406D01*
X0196854Y0087639D01*
X0196025Y0087982D01*
X0195247Y0088431D01*
X0194421Y0089091D02*
X0080872Y0089091D01*
X0080754Y0089376D02*
X0079376Y0090754D01*
X0077575Y0091500D01*
X0075625Y0091500D01*
X0073824Y0090754D01*
X0072446Y0089376D01*
X0071700Y0087575D01*
X0071700Y0085625D01*
X0072446Y0083824D01*
X0073824Y0082446D01*
X0075625Y0081700D01*
X0077575Y0081700D01*
X0079376Y0082446D01*
X0080754Y0083824D01*
X0081500Y0085625D01*
X0081500Y0087575D01*
X0080754Y0089376D01*
X0079840Y0090290D02*
X0083481Y0090290D01*
X0083824Y0089946D02*
X0085625Y0089200D01*
X0087575Y0089200D01*
X0089376Y0089946D01*
X0090754Y0091324D01*
X0091500Y0093125D01*
X0091500Y0095075D01*
X0090754Y0096876D01*
X0089376Y0098254D01*
X0087575Y0099000D01*
X0085625Y0099000D01*
X0083824Y0098254D01*
X0082446Y0096876D01*
X0081700Y0095075D01*
X0081700Y0093125D01*
X0082446Y0091324D01*
X0083824Y0089946D01*
X0082378Y0091488D02*
X0077603Y0091488D01*
X0075597Y0091488D02*
X0067603Y0091488D01*
X0067575Y0091500D02*
X0065625Y0091500D01*
X0063824Y0090754D01*
X0062446Y0089376D01*
X0061700Y0087575D01*
X0061700Y0085625D01*
X0062446Y0083824D01*
X0063824Y0082446D01*
X0065625Y0081700D01*
X0067575Y0081700D01*
X0069376Y0082446D01*
X0070754Y0083824D01*
X0071500Y0085625D01*
X0071500Y0087575D01*
X0070754Y0089376D01*
X0069376Y0090754D01*
X0067575Y0091500D01*
X0065597Y0091488D02*
X0037603Y0091488D01*
X0037575Y0091500D02*
X0035625Y0091500D01*
X0033824Y0090754D01*
X0032446Y0089376D01*
X0031700Y0087575D01*
X0031700Y0085625D01*
X0032446Y0083824D01*
X0033824Y0082446D01*
X0035625Y0081700D01*
X0037575Y0081700D01*
X0039376Y0082446D01*
X0040754Y0083824D01*
X0041500Y0085625D01*
X0041500Y0087575D01*
X0040754Y0089376D01*
X0039376Y0090754D01*
X0037575Y0091500D01*
X0035597Y0091488D02*
X0033676Y0091488D01*
X0033665Y0091478D02*
X0034300Y0092113D01*
X0034847Y0092825D01*
X0035296Y0093603D01*
X0035639Y0094432D01*
X0035872Y0095300D01*
X0035969Y0096039D01*
X0029739Y0096039D01*
X0029739Y0097239D01*
X0035969Y0097239D01*
X0035872Y0097978D01*
X0035639Y0098846D01*
X0035296Y0099675D01*
X0034847Y0100453D01*
X0034300Y0101165D01*
X0033665Y0101800D01*
X0032953Y0102347D01*
X0032175Y0102796D01*
X0031346Y0103139D01*
X0030478Y0103372D01*
X0029739Y0103469D01*
X0029739Y0097239D01*
X0028539Y0097239D01*
X0028539Y0103469D01*
X0027800Y0103372D01*
X0026932Y0103139D01*
X0026103Y0102796D01*
X0025325Y0102347D01*
X0024613Y0101800D01*
X0023978Y0101165D01*
X0023431Y0100453D01*
X0022982Y0099675D01*
X0022639Y0098846D01*
X0022406Y0097978D01*
X0022309Y0097239D01*
X0028539Y0097239D01*
X0028539Y0096039D01*
X0029739Y0096039D01*
X0029739Y0089809D01*
X0030478Y0089906D01*
X0031346Y0090139D01*
X0032175Y0090482D01*
X0032953Y0090931D01*
X0033665Y0091478D01*
X0033360Y0090290D02*
X0031711Y0090290D01*
X0032328Y0089091D02*
X0023426Y0089091D01*
X0023296Y0089404D02*
X0021904Y0090796D01*
X0020085Y0091550D01*
X0018115Y0091550D01*
X0016296Y0090796D01*
X0014904Y0089404D01*
X0014150Y0087585D01*
X0014150Y0085615D01*
X0014904Y0083796D01*
X0016296Y0082404D01*
X0018115Y0081650D01*
X0020085Y0081650D01*
X0021904Y0082404D01*
X0023296Y0083796D01*
X0024050Y0085615D01*
X0024050Y0087585D01*
X0023296Y0089404D01*
X0022410Y0090290D02*
X0026567Y0090290D01*
X0026932Y0090139D02*
X0027800Y0089906D01*
X0028539Y0089809D01*
X0028539Y0096039D01*
X0022309Y0096039D01*
X0022406Y0095300D01*
X0022639Y0094432D01*
X0022982Y0093603D01*
X0023431Y0092825D01*
X0023978Y0092113D01*
X0024613Y0091478D01*
X0025325Y0090931D01*
X0026103Y0090482D01*
X0026932Y0090139D01*
X0028539Y0090290D02*
X0029739Y0090290D01*
X0029739Y0091488D02*
X0028539Y0091488D01*
X0028539Y0092687D02*
X0029739Y0092687D01*
X0029739Y0093885D02*
X0028539Y0093885D01*
X0028539Y0095084D02*
X0029739Y0095084D01*
X0029739Y0096282D02*
X0082200Y0096282D01*
X0081704Y0095084D02*
X0035814Y0095084D01*
X0035413Y0093885D02*
X0081700Y0093885D01*
X0081882Y0092687D02*
X0034741Y0092687D01*
X0039840Y0090290D02*
X0063360Y0090290D01*
X0062328Y0089091D02*
X0040872Y0089091D01*
X0041368Y0087893D02*
X0061832Y0087893D01*
X0061700Y0086694D02*
X0041500Y0086694D01*
X0041446Y0085496D02*
X0061754Y0085496D01*
X0062250Y0084297D02*
X0040950Y0084297D01*
X0040028Y0083099D02*
X0063172Y0083099D01*
X0065142Y0081900D02*
X0038058Y0081900D01*
X0035142Y0081900D02*
X0033433Y0081900D01*
X0033172Y0083099D02*
X0031206Y0083099D01*
X0029739Y0083099D02*
X0028539Y0083099D01*
X0028539Y0081900D02*
X0029739Y0081900D01*
X0029739Y0080702D02*
X0028539Y0080702D01*
X0028539Y0079503D02*
X0029739Y0079503D01*
X0029739Y0078305D02*
X0028539Y0078305D01*
X0028539Y0077106D02*
X0009661Y0077106D01*
X0009661Y0075908D02*
X0008461Y0075908D01*
X0008461Y0074709D02*
X0009661Y0074709D01*
X0009661Y0073511D02*
X0008461Y0073511D01*
X0008461Y0072312D02*
X0009661Y0072312D01*
X0009661Y0071114D02*
X0008461Y0071114D01*
X0013214Y0071114D02*
X0024986Y0071114D01*
X0023765Y0072312D02*
X0014435Y0072312D01*
X0015210Y0073511D02*
X0022990Y0073511D01*
X0022544Y0074709D02*
X0015656Y0074709D01*
X0015884Y0075908D02*
X0022316Y0075908D01*
X0022515Y0078305D02*
X0015685Y0078305D01*
X0015257Y0079503D02*
X0022943Y0079503D01*
X0023682Y0080702D02*
X0014518Y0080702D01*
X0013355Y0081900D02*
X0017511Y0081900D01*
X0015601Y0083099D02*
X0011128Y0083099D01*
X0009661Y0083099D02*
X0008461Y0083099D01*
X0008461Y0081900D02*
X0009661Y0081900D01*
X0009661Y0080702D02*
X0008461Y0080702D01*
X0008461Y0079503D02*
X0009661Y0079503D01*
X0009661Y0078305D02*
X0008461Y0078305D01*
X0004767Y0081900D02*
X0003500Y0081900D01*
X0003500Y0080702D02*
X0003604Y0080702D01*
X0003500Y0083099D02*
X0006994Y0083099D01*
X0003500Y0084297D02*
X0014696Y0084297D01*
X0014200Y0085496D02*
X0003500Y0085496D01*
X0003500Y0086694D02*
X0014150Y0086694D01*
X0014278Y0087893D02*
X0003500Y0087893D01*
X0003500Y0089091D02*
X0014774Y0089091D01*
X0015789Y0090290D02*
X0011633Y0090290D01*
X0009661Y0090290D02*
X0008461Y0090290D01*
X0008461Y0091488D02*
X0009661Y0091488D01*
X0009661Y0092687D02*
X0008461Y0092687D01*
X0008461Y0093885D02*
X0009661Y0093885D01*
X0009661Y0095084D02*
X0008461Y0095084D01*
X0009661Y0096282D02*
X0028539Y0096282D01*
X0028539Y0097481D02*
X0029739Y0097481D01*
X0029739Y0098679D02*
X0028539Y0098679D01*
X0028539Y0099878D02*
X0029739Y0099878D01*
X0029739Y0101076D02*
X0028539Y0101076D01*
X0028539Y0102275D02*
X0029739Y0102275D01*
X0033046Y0102275D02*
X0092068Y0102275D01*
X0092105Y0102159D02*
X0092452Y0101479D01*
X0092901Y0100862D01*
X0093440Y0100322D01*
X0094058Y0099873D01*
X0094738Y0099527D01*
X0095464Y0099291D01*
X0096218Y0099171D01*
X0096511Y0099171D01*
X0096511Y0103932D01*
X0096689Y0103932D01*
X0096689Y0099171D01*
X0096982Y0099171D01*
X0097736Y0099291D01*
X0098462Y0099527D01*
X0099142Y0099873D01*
X0099760Y0100322D01*
X0100299Y0100862D01*
X0100748Y0101479D01*
X0101095Y0102159D01*
X0101331Y0102886D01*
X0101450Y0103640D01*
X0101450Y0103932D01*
X0096689Y0103932D01*
X0096689Y0104110D01*
X0101450Y0104110D01*
X0101450Y0104403D01*
X0101331Y0105157D01*
X0101095Y0105883D01*
X0100748Y0106563D01*
X0100299Y0107181D01*
X0099760Y0107721D01*
X0099142Y0108169D01*
X0098462Y0108516D01*
X0097736Y0108752D01*
X0096982Y0108871D01*
X0096689Y0108871D01*
X0096689Y0104110D01*
X0096511Y0104110D01*
X0096511Y0103932D01*
X0091750Y0103932D01*
X0091750Y0103640D01*
X0091869Y0102886D01*
X0092105Y0102159D01*
X0092745Y0101076D02*
X0034368Y0101076D01*
X0035179Y0099878D02*
X0094051Y0099878D01*
X0092853Y0098629D02*
X0092150Y0097926D01*
X0092150Y0090432D01*
X0092853Y0089729D01*
X0100347Y0089729D01*
X0101050Y0090432D01*
X0101050Y0097926D01*
X0100347Y0098629D01*
X0092853Y0098629D01*
X0092150Y0097481D02*
X0090149Y0097481D01*
X0091000Y0096282D02*
X0092150Y0096282D01*
X0092150Y0095084D02*
X0091496Y0095084D01*
X0091500Y0093885D02*
X0092150Y0093885D01*
X0092150Y0092687D02*
X0091318Y0092687D01*
X0090822Y0091488D02*
X0092150Y0091488D01*
X0092292Y0090290D02*
X0089719Y0090290D01*
X0081368Y0087893D02*
X0148463Y0087893D01*
X0148824Y0088254D02*
X0147446Y0086876D01*
X0146700Y0085075D01*
X0146700Y0083125D01*
X0147446Y0081324D01*
X0148824Y0079946D01*
X0150625Y0079200D01*
X0152575Y0079200D01*
X0154376Y0079946D01*
X0155754Y0081324D01*
X0156500Y0083125D01*
X0156500Y0085075D01*
X0155754Y0086876D01*
X0154376Y0088254D01*
X0152575Y0089000D01*
X0150625Y0089000D01*
X0148824Y0088254D01*
X0147371Y0086694D02*
X0081500Y0086694D01*
X0081446Y0085496D02*
X0146874Y0085496D01*
X0146700Y0084297D02*
X0080950Y0084297D01*
X0080028Y0083099D02*
X0146711Y0083099D01*
X0147207Y0081900D02*
X0078058Y0081900D01*
X0075142Y0081900D02*
X0068058Y0081900D01*
X0070028Y0083099D02*
X0073172Y0083099D01*
X0072250Y0084297D02*
X0070950Y0084297D01*
X0071446Y0085496D02*
X0071754Y0085496D01*
X0071700Y0086694D02*
X0071500Y0086694D01*
X0071368Y0087893D02*
X0071832Y0087893D01*
X0072328Y0089091D02*
X0070872Y0089091D01*
X0069840Y0090290D02*
X0073360Y0090290D01*
X0083051Y0097481D02*
X0035937Y0097481D01*
X0035684Y0098679D02*
X0084851Y0098679D01*
X0088349Y0098679D02*
X0139851Y0098679D01*
X0140625Y0099000D02*
X0138824Y0098254D01*
X0137446Y0096876D01*
X0136700Y0095075D01*
X0136700Y0093125D01*
X0137446Y0091324D01*
X0138824Y0089946D01*
X0140625Y0089200D01*
X0142575Y0089200D01*
X0144376Y0089946D01*
X0145754Y0091324D01*
X0146500Y0093125D01*
X0146500Y0095075D01*
X0145754Y0096876D01*
X0144376Y0098254D01*
X0142575Y0099000D01*
X0140625Y0099000D01*
X0143349Y0098679D02*
X0193914Y0098679D01*
X0193081Y0097481D02*
X0145149Y0097481D01*
X0146000Y0096282D02*
X0192544Y0096282D01*
X0192276Y0095084D02*
X0146496Y0095084D01*
X0146500Y0093885D02*
X0198461Y0093885D01*
X0198461Y0092687D02*
X0199661Y0092687D01*
X0199661Y0093885D02*
X0218539Y0093885D01*
X0218539Y0093539D02*
X0212309Y0093539D01*
X0212406Y0092800D01*
X0212639Y0091932D01*
X0212982Y0091103D01*
X0213431Y0090325D01*
X0213978Y0089613D01*
X0214613Y0088978D01*
X0215325Y0088431D01*
X0216103Y0087982D01*
X0216932Y0087639D01*
X0217800Y0087406D01*
X0218539Y0087309D01*
X0218539Y0093539D01*
X0218539Y0092687D02*
X0219739Y0092687D01*
X0219739Y0093885D02*
X0225950Y0093885D01*
X0225950Y0092687D02*
X0225842Y0092687D01*
X0225950Y0091488D02*
X0225455Y0091488D01*
X0225950Y0090290D02*
X0224820Y0090290D01*
X0223779Y0089091D02*
X0225950Y0089091D01*
X0225950Y0087893D02*
X0221959Y0087893D01*
X0219739Y0087893D02*
X0218539Y0087893D01*
X0218539Y0089091D02*
X0219739Y0089091D01*
X0219739Y0090290D02*
X0218539Y0090290D01*
X0218539Y0091488D02*
X0219739Y0091488D01*
X0214499Y0089091D02*
X0203701Y0089091D01*
X0204742Y0090290D02*
X0213458Y0090290D01*
X0212823Y0091488D02*
X0205377Y0091488D01*
X0205764Y0092687D02*
X0212436Y0092687D01*
X0212354Y0095084D02*
X0205846Y0095084D01*
X0205578Y0096282D02*
X0212622Y0096282D01*
X0213159Y0097481D02*
X0205041Y0097481D01*
X0204208Y0098679D02*
X0213992Y0098679D01*
X0215379Y0099878D02*
X0202821Y0099878D01*
X0199661Y0099878D02*
X0198461Y0099878D01*
X0198461Y0098679D02*
X0199661Y0098679D01*
X0199661Y0097481D02*
X0198461Y0097481D01*
X0198461Y0096282D02*
X0199661Y0096282D01*
X0199661Y0095084D02*
X0198461Y0095084D01*
X0198461Y0091488D02*
X0199661Y0091488D01*
X0199661Y0090290D02*
X0198461Y0090290D01*
X0198461Y0089091D02*
X0199661Y0089091D01*
X0199661Y0087893D02*
X0198461Y0087893D01*
X0201881Y0087893D02*
X0205892Y0087893D01*
X0212308Y0087893D02*
X0216319Y0087893D01*
X0213383Y0086694D02*
X0225950Y0086694D01*
X0225950Y0085496D02*
X0213880Y0085496D01*
X0214050Y0084297D02*
X0225950Y0084297D01*
X0225950Y0083099D02*
X0214043Y0083099D01*
X0213547Y0081900D02*
X0225950Y0081900D01*
X0225950Y0080702D02*
X0220822Y0080702D01*
X0219739Y0080702D02*
X0218539Y0080702D01*
X0217456Y0080702D02*
X0212702Y0080702D01*
X0210937Y0079503D02*
X0214979Y0079503D01*
X0213761Y0078305D02*
X0204439Y0078305D01*
X0205213Y0077106D02*
X0212987Y0077106D01*
X0212542Y0075908D02*
X0205658Y0075908D01*
X0205885Y0074709D02*
X0212315Y0074709D01*
X0212516Y0072312D02*
X0205684Y0072312D01*
X0205255Y0071114D02*
X0212945Y0071114D01*
X0213686Y0069915D02*
X0204514Y0069915D01*
X0203348Y0068717D02*
X0214852Y0068717D01*
X0217091Y0067518D02*
X0201109Y0067518D01*
X0199661Y0067518D02*
X0198461Y0067518D01*
X0198461Y0068717D02*
X0199661Y0068717D01*
X0199661Y0069915D02*
X0198461Y0069915D01*
X0198461Y0071114D02*
X0199661Y0071114D01*
X0199661Y0074709D02*
X0198461Y0074709D01*
X0198461Y0075908D02*
X0199661Y0075908D01*
X0199661Y0077106D02*
X0198461Y0077106D01*
X0198461Y0078305D02*
X0199661Y0078305D01*
X0199661Y0079503D02*
X0198461Y0079503D01*
X0203221Y0079503D02*
X0207263Y0079503D01*
X0218539Y0079503D02*
X0219739Y0079503D01*
X0219739Y0078305D02*
X0218539Y0078305D01*
X0218539Y0077106D02*
X0219739Y0077106D01*
X0219739Y0075908D02*
X0218539Y0075908D01*
X0218539Y0074709D02*
X0219739Y0074709D01*
X0219739Y0073511D02*
X0225950Y0073511D01*
X0225950Y0072312D02*
X0225762Y0072312D01*
X0225950Y0071114D02*
X0225333Y0071114D01*
X0225950Y0069915D02*
X0224592Y0069915D01*
X0223426Y0068717D02*
X0225950Y0068717D01*
X0225950Y0075908D02*
X0225736Y0075908D01*
X0225950Y0077106D02*
X0225291Y0077106D01*
X0225950Y0078305D02*
X0224517Y0078305D01*
X0223299Y0079503D02*
X0225950Y0079503D01*
X0225924Y0095084D02*
X0225950Y0095084D01*
X0225950Y0096282D02*
X0225656Y0096282D01*
X0225950Y0097481D02*
X0225119Y0097481D01*
X0225950Y0098679D02*
X0224286Y0098679D01*
X0222899Y0099878D02*
X0225950Y0099878D01*
X0225950Y0101076D02*
X0122955Y0101076D01*
X0122799Y0100862D02*
X0123248Y0101479D01*
X0123595Y0102159D01*
X0123831Y0102886D01*
X0123950Y0103640D01*
X0123950Y0103932D01*
X0119189Y0103932D01*
X0119189Y0099171D01*
X0119482Y0099171D01*
X0120236Y0099291D01*
X0120962Y0099527D01*
X0121642Y0099873D01*
X0122260Y0100322D01*
X0122799Y0100862D01*
X0121648Y0099878D02*
X0195301Y0099878D01*
X0192358Y0092687D02*
X0146318Y0092687D01*
X0145822Y0091488D02*
X0192745Y0091488D01*
X0193380Y0090290D02*
X0144719Y0090290D01*
X0138481Y0090290D02*
X0123408Y0090290D01*
X0123550Y0090432D02*
X0123550Y0097926D01*
X0122847Y0098629D01*
X0115353Y0098629D01*
X0114650Y0097926D01*
X0114650Y0090432D01*
X0115353Y0089729D01*
X0122847Y0089729D01*
X0123550Y0090432D01*
X0123550Y0091488D02*
X0137378Y0091488D01*
X0136882Y0092687D02*
X0123550Y0092687D01*
X0123550Y0093885D02*
X0136700Y0093885D01*
X0136704Y0095084D02*
X0123550Y0095084D01*
X0123550Y0096282D02*
X0137200Y0096282D01*
X0138051Y0097481D02*
X0123550Y0097481D01*
X0119011Y0099171D02*
X0119011Y0103932D01*
X0119189Y0103932D01*
X0119189Y0104110D01*
X0123950Y0104110D01*
X0123950Y0104403D01*
X0123831Y0105157D01*
X0123595Y0105883D01*
X0123248Y0106563D01*
X0122799Y0107181D01*
X0122260Y0107721D01*
X0121642Y0108169D01*
X0120962Y0108516D01*
X0120236Y0108752D01*
X0119482Y0108871D01*
X0119189Y0108871D01*
X0119189Y0104110D01*
X0119011Y0104110D01*
X0119011Y0103932D01*
X0114250Y0103932D01*
X0114250Y0103640D01*
X0114369Y0102886D01*
X0114605Y0102159D01*
X0114952Y0101479D01*
X0115401Y0100862D01*
X0115940Y0100322D01*
X0116558Y0099873D01*
X0117238Y0099527D01*
X0117964Y0099291D01*
X0118718Y0099171D01*
X0119011Y0099171D01*
X0119011Y0099878D02*
X0119189Y0099878D01*
X0119189Y0101076D02*
X0119011Y0101076D01*
X0119011Y0102275D02*
X0119189Y0102275D01*
X0119189Y0103473D02*
X0119011Y0103473D01*
X0119011Y0104110D02*
X0114250Y0104110D01*
X0114250Y0104403D01*
X0114369Y0105157D01*
X0114605Y0105883D01*
X0114952Y0106563D01*
X0115401Y0107181D01*
X0115940Y0107721D01*
X0116558Y0108169D01*
X0117238Y0108516D01*
X0117964Y0108752D01*
X0118718Y0108871D01*
X0119011Y0108871D01*
X0119011Y0104110D01*
X0119011Y0104672D02*
X0119189Y0104672D01*
X0119189Y0105870D02*
X0119011Y0105870D01*
X0119011Y0107069D02*
X0119189Y0107069D01*
X0119189Y0108268D02*
X0119011Y0108268D01*
X0116751Y0108268D02*
X0098949Y0108268D01*
X0100381Y0107069D02*
X0115319Y0107069D01*
X0114601Y0105870D02*
X0101099Y0105870D01*
X0101407Y0104672D02*
X0114293Y0104672D01*
X0114276Y0103473D02*
X0101424Y0103473D01*
X0101132Y0102275D02*
X0114568Y0102275D01*
X0115245Y0101076D02*
X0100455Y0101076D01*
X0099148Y0099878D02*
X0116551Y0099878D01*
X0114650Y0097481D02*
X0101050Y0097481D01*
X0101050Y0096282D02*
X0114650Y0096282D01*
X0114650Y0095084D02*
X0101050Y0095084D01*
X0101050Y0093885D02*
X0114650Y0093885D01*
X0114650Y0092687D02*
X0101050Y0092687D01*
X0101050Y0091488D02*
X0114650Y0091488D01*
X0114792Y0090290D02*
X0100908Y0090290D01*
X0096689Y0099878D02*
X0096511Y0099878D01*
X0096511Y0101076D02*
X0096689Y0101076D01*
X0096689Y0102275D02*
X0096511Y0102275D01*
X0096511Y0103473D02*
X0096689Y0103473D01*
X0096511Y0104110D02*
X0091750Y0104110D01*
X0091750Y0104403D01*
X0091869Y0105157D01*
X0092105Y0105883D01*
X0092452Y0106563D01*
X0092901Y0107181D01*
X0093440Y0107721D01*
X0094058Y0108169D01*
X0094738Y0108516D01*
X0095464Y0108752D01*
X0096218Y0108871D01*
X0096511Y0108871D01*
X0096511Y0104110D01*
X0096511Y0104672D02*
X0096689Y0104672D01*
X0096689Y0105870D02*
X0096511Y0105870D01*
X0096511Y0107069D02*
X0096689Y0107069D01*
X0096689Y0108268D02*
X0096511Y0108268D01*
X0094251Y0108268D02*
X0003500Y0108268D01*
X0003500Y0109466D02*
X0225950Y0109466D01*
X0225950Y0108268D02*
X0121449Y0108268D01*
X0122881Y0107069D02*
X0225950Y0107069D01*
X0225950Y0105870D02*
X0123599Y0105870D01*
X0123907Y0104672D02*
X0225950Y0104672D01*
X0225950Y0103473D02*
X0123924Y0103473D01*
X0123632Y0102275D02*
X0225950Y0102275D01*
X0219739Y0099878D02*
X0218539Y0099878D01*
X0218539Y0098679D02*
X0219739Y0098679D01*
X0219739Y0097481D02*
X0218539Y0097481D01*
X0218539Y0096282D02*
X0219739Y0096282D01*
X0219739Y0095084D02*
X0218539Y0095084D01*
X0225950Y0110665D02*
X0003500Y0110665D01*
X0003500Y0111863D02*
X0225950Y0111863D01*
X0225950Y0113062D02*
X0003500Y0113062D01*
X0003500Y0114260D02*
X0225950Y0114260D01*
X0225950Y0115459D02*
X0003500Y0115459D01*
X0003500Y0116657D02*
X0225950Y0116657D01*
X0225950Y0117856D02*
X0003500Y0117856D01*
X0003500Y0119054D02*
X0225950Y0119054D01*
X0225950Y0120253D02*
X0003500Y0120253D01*
X0003500Y0121451D02*
X0225950Y0121451D01*
X0225950Y0122650D02*
X0003500Y0122650D01*
X0003500Y0123848D02*
X0225950Y0123848D01*
X0188463Y0087893D02*
X0164737Y0087893D01*
X0164376Y0088254D02*
X0162575Y0089000D01*
X0160625Y0089000D01*
X0158824Y0088254D01*
X0157446Y0086876D01*
X0156700Y0085075D01*
X0156700Y0083125D01*
X0157446Y0081324D01*
X0158824Y0079946D01*
X0160625Y0079200D01*
X0162575Y0079200D01*
X0164376Y0079946D01*
X0165754Y0081324D01*
X0166500Y0083125D01*
X0166500Y0085075D01*
X0165754Y0086876D01*
X0164376Y0088254D01*
X0165829Y0086694D02*
X0187371Y0086694D01*
X0186874Y0085496D02*
X0166326Y0085496D01*
X0166500Y0084297D02*
X0186700Y0084297D01*
X0186711Y0083099D02*
X0166489Y0083099D01*
X0165993Y0081900D02*
X0187207Y0081900D01*
X0188069Y0080702D02*
X0165131Y0080702D01*
X0163307Y0079503D02*
X0189893Y0079503D01*
X0192909Y0077106D02*
X0029739Y0077106D01*
X0029739Y0075908D02*
X0028539Y0075908D01*
X0028539Y0074709D02*
X0029739Y0074709D01*
X0029739Y0073511D02*
X0028539Y0073511D01*
X0028539Y0072312D02*
X0029739Y0072312D01*
X0029739Y0071114D02*
X0028539Y0071114D01*
X0033292Y0071114D02*
X0097650Y0071114D01*
X0098598Y0072312D02*
X0034513Y0072312D01*
X0035335Y0079503D02*
X0149893Y0079503D01*
X0148069Y0080702D02*
X0034596Y0080702D01*
X0032250Y0084297D02*
X0023504Y0084297D01*
X0024000Y0085496D02*
X0031754Y0085496D01*
X0031700Y0086694D02*
X0024050Y0086694D01*
X0023922Y0087893D02*
X0031832Y0087893D01*
X0024602Y0091488D02*
X0020233Y0091488D01*
X0017967Y0091488D02*
X0013598Y0091488D01*
X0014663Y0092687D02*
X0023537Y0092687D01*
X0022865Y0093885D02*
X0015335Y0093885D01*
X0015736Y0095084D02*
X0022464Y0095084D01*
X0022341Y0097481D02*
X0015859Y0097481D01*
X0015606Y0098679D02*
X0022594Y0098679D01*
X0023099Y0099878D02*
X0015101Y0099878D01*
X0014290Y0101076D02*
X0023910Y0101076D01*
X0025232Y0102275D02*
X0012968Y0102275D01*
X0009661Y0102275D02*
X0008461Y0102275D01*
X0008461Y0101076D02*
X0009661Y0101076D01*
X0009661Y0099878D02*
X0008461Y0099878D01*
X0008461Y0098679D02*
X0009661Y0098679D01*
X0009661Y0097481D02*
X0008461Y0097481D01*
X0003832Y0101076D02*
X0003500Y0101076D01*
X0003500Y0102275D02*
X0005154Y0102275D01*
X0003500Y0103473D02*
X0091776Y0103473D01*
X0091793Y0104672D02*
X0003500Y0104672D01*
X0003500Y0105870D02*
X0092101Y0105870D01*
X0092819Y0107069D02*
X0003500Y0107069D01*
X0003500Y0091488D02*
X0004524Y0091488D01*
X0003500Y0090290D02*
X0006489Y0090290D01*
X0020689Y0081900D02*
X0024845Y0081900D01*
X0027072Y0083099D02*
X0022599Y0083099D01*
X0080066Y0053136D02*
X0146700Y0053136D01*
X0146700Y0054334D02*
X0130082Y0054334D01*
X0131400Y0055533D02*
X0146890Y0055533D01*
X0147386Y0056732D02*
X0131450Y0056732D01*
X0131450Y0057930D02*
X0148500Y0057930D01*
X0154700Y0057930D02*
X0161198Y0057930D01*
X0161067Y0057876D02*
X0159688Y0056497D01*
X0158943Y0054696D01*
X0158943Y0052747D01*
X0159688Y0050946D01*
X0161067Y0049568D01*
X0162868Y0048822D01*
X0164817Y0048822D01*
X0166618Y0049568D01*
X0167997Y0050946D01*
X0168743Y0052747D01*
X0168743Y0054696D01*
X0167997Y0056497D01*
X0166618Y0057876D01*
X0164817Y0058622D01*
X0162868Y0058622D01*
X0161067Y0057876D01*
X0159923Y0056732D02*
X0155814Y0056732D01*
X0156310Y0055533D02*
X0159289Y0055533D01*
X0158943Y0054334D02*
X0156500Y0054334D01*
X0156500Y0053136D02*
X0158943Y0053136D01*
X0159278Y0051937D02*
X0156008Y0051937D01*
X0155169Y0050739D02*
X0159896Y0050739D01*
X0161133Y0049540D02*
X0153397Y0049540D01*
X0149803Y0049540D02*
X0125528Y0049540D01*
X0125971Y0048342D02*
X0225950Y0048342D01*
X0225950Y0049540D02*
X0166552Y0049540D01*
X0167789Y0050739D02*
X0225950Y0050739D01*
X0225950Y0051937D02*
X0168407Y0051937D01*
X0168743Y0053136D02*
X0225950Y0053136D01*
X0225950Y0054334D02*
X0168743Y0054334D01*
X0168396Y0055533D02*
X0225950Y0055533D01*
X0225950Y0056732D02*
X0167762Y0056732D01*
X0166487Y0057930D02*
X0225950Y0057930D01*
X0225950Y0047143D02*
X0125971Y0047143D01*
X0125971Y0045945D02*
X0139285Y0045945D01*
X0138824Y0045754D02*
X0137446Y0044376D01*
X0136700Y0042575D01*
X0136700Y0040625D01*
X0137446Y0038824D01*
X0138824Y0037446D01*
X0140625Y0036700D01*
X0142575Y0036700D01*
X0144376Y0037446D01*
X0145754Y0038824D01*
X0146500Y0040625D01*
X0146500Y0042575D01*
X0145754Y0044376D01*
X0144376Y0045754D01*
X0142575Y0046500D01*
X0140625Y0046500D01*
X0138824Y0045754D01*
X0137817Y0044746D02*
X0125971Y0044746D01*
X0125971Y0043548D02*
X0137103Y0043548D01*
X0136700Y0042349D02*
X0125971Y0042349D01*
X0125519Y0041151D02*
X0136700Y0041151D01*
X0136979Y0039952D02*
X0003500Y0039952D01*
X0003500Y0038754D02*
X0043074Y0038754D01*
X0043218Y0038897D02*
X0041839Y0037519D01*
X0041093Y0035718D01*
X0041093Y0033769D01*
X0041839Y0031968D01*
X0043218Y0030589D01*
X0045019Y0029843D01*
X0046968Y0029843D01*
X0048769Y0030589D01*
X0050147Y0031968D01*
X0050893Y0033769D01*
X0050893Y0035718D01*
X0050147Y0037519D01*
X0048769Y0038897D01*
X0046968Y0039643D01*
X0045019Y0039643D01*
X0043218Y0038897D01*
X0041876Y0037555D02*
X0003500Y0037555D01*
X0003500Y0036357D02*
X0041358Y0036357D01*
X0041093Y0035158D02*
X0003500Y0035158D01*
X0003500Y0033960D02*
X0041093Y0033960D01*
X0041511Y0032761D02*
X0003500Y0032761D01*
X0003500Y0031563D02*
X0042244Y0031563D01*
X0043761Y0030364D02*
X0003500Y0030364D01*
X0003500Y0029166D02*
X0225950Y0029166D01*
X0225950Y0030364D02*
X0189673Y0030364D01*
X0189633Y0030324D02*
X0191011Y0031703D01*
X0191757Y0033504D01*
X0191757Y0035453D01*
X0191011Y0037254D01*
X0189633Y0038632D01*
X0187832Y0039378D01*
X0185883Y0039378D01*
X0184082Y0038632D01*
X0182703Y0037254D01*
X0181957Y0035453D01*
X0181957Y0033504D01*
X0182703Y0031703D01*
X0184082Y0030324D01*
X0185883Y0029578D01*
X0187832Y0029578D01*
X0189633Y0030324D01*
X0190872Y0031563D02*
X0225950Y0031563D01*
X0225950Y0032761D02*
X0191450Y0032761D01*
X0191757Y0033960D02*
X0225950Y0033960D01*
X0225950Y0035158D02*
X0191757Y0035158D01*
X0191383Y0036357D02*
X0225950Y0036357D01*
X0225950Y0037555D02*
X0190710Y0037555D01*
X0189340Y0038754D02*
X0225950Y0038754D01*
X0225950Y0039952D02*
X0156221Y0039952D01*
X0156500Y0040625D02*
X0155754Y0038824D01*
X0154376Y0037446D01*
X0152575Y0036700D01*
X0150625Y0036700D01*
X0148824Y0037446D01*
X0147446Y0038824D01*
X0146700Y0040625D01*
X0146700Y0042575D01*
X0147446Y0044376D01*
X0148824Y0045754D01*
X0150625Y0046500D01*
X0152575Y0046500D01*
X0154376Y0045754D01*
X0155754Y0044376D01*
X0156500Y0042575D01*
X0156500Y0040625D01*
X0156500Y0041151D02*
X0225950Y0041151D01*
X0225950Y0042349D02*
X0156500Y0042349D01*
X0156097Y0043548D02*
X0225950Y0043548D01*
X0225950Y0044746D02*
X0155383Y0044746D01*
X0153915Y0045945D02*
X0225950Y0045945D01*
X0225950Y0027967D02*
X0179096Y0027967D01*
X0178961Y0028102D02*
X0180134Y0026930D01*
X0180768Y0025398D01*
X0180768Y0017802D01*
X0180134Y0016270D01*
X0178961Y0015098D01*
X0177429Y0014463D01*
X0175771Y0014463D01*
X0174239Y0015098D01*
X0173066Y0016270D01*
X0172431Y0017802D01*
X0172431Y0025398D01*
X0173066Y0026930D01*
X0174239Y0028102D01*
X0175771Y0028737D01*
X0177429Y0028737D01*
X0178961Y0028102D01*
X0180201Y0026769D02*
X0225950Y0026769D01*
X0225950Y0025570D02*
X0180697Y0025570D01*
X0180768Y0024372D02*
X0225950Y0024372D01*
X0225950Y0023173D02*
X0180768Y0023173D01*
X0180768Y0021975D02*
X0225950Y0021975D01*
X0225950Y0020776D02*
X0180768Y0020776D01*
X0180768Y0019578D02*
X0225950Y0019578D01*
X0225950Y0018379D02*
X0180768Y0018379D01*
X0180511Y0017181D02*
X0225950Y0017181D01*
X0225950Y0015982D02*
X0179846Y0015982D01*
X0178203Y0014784D02*
X0225950Y0014784D01*
X0225950Y0013585D02*
X0156081Y0013585D01*
X0155754Y0014376D02*
X0154376Y0015754D01*
X0152575Y0016500D01*
X0150625Y0016500D01*
X0148824Y0015754D01*
X0147446Y0014376D01*
X0146781Y0012770D01*
X0146769Y0012841D01*
X0146512Y0013634D01*
X0146133Y0014378D01*
X0145643Y0015053D01*
X0145053Y0015643D01*
X0144378Y0016133D01*
X0143634Y0016512D01*
X0142841Y0016769D01*
X0142017Y0016900D01*
X0141886Y0016900D01*
X0141886Y0011886D01*
X0141314Y0011886D01*
X0141314Y0016900D01*
X0141183Y0016900D01*
X0140359Y0016769D01*
X0139566Y0016512D01*
X0138822Y0016133D01*
X0138147Y0015643D01*
X0137557Y0015053D01*
X0137067Y0014378D01*
X0136688Y0013634D01*
X0136430Y0012841D01*
X0136300Y0012017D01*
X0136300Y0011886D01*
X0141314Y0011886D01*
X0141314Y0011314D01*
X0136300Y0011314D01*
X0136300Y0011183D01*
X0136430Y0010359D01*
X0136688Y0009566D01*
X0137067Y0008822D01*
X0137557Y0008147D01*
X0138147Y0007557D01*
X0138822Y0007067D01*
X0139566Y0006688D01*
X0140359Y0006430D01*
X0141183Y0006300D01*
X0141314Y0006300D01*
X0141314Y0011314D01*
X0141886Y0011314D01*
X0141886Y0006300D01*
X0142017Y0006300D01*
X0142841Y0006430D01*
X0143634Y0006688D01*
X0144378Y0007067D01*
X0145053Y0007557D01*
X0145643Y0008147D01*
X0146133Y0008822D01*
X0146512Y0009566D01*
X0146769Y0010359D01*
X0146781Y0010430D01*
X0147446Y0008824D01*
X0148824Y0007446D01*
X0150625Y0006700D01*
X0152575Y0006700D01*
X0154376Y0007446D01*
X0155754Y0008824D01*
X0156500Y0010625D01*
X0156500Y0012575D01*
X0155754Y0014376D01*
X0155346Y0014784D02*
X0164997Y0014784D01*
X0164239Y0015098D02*
X0165771Y0014463D01*
X0167429Y0014463D01*
X0168961Y0015098D01*
X0170134Y0016270D01*
X0170768Y0017802D01*
X0170768Y0025398D01*
X0170134Y0026930D01*
X0168961Y0028102D01*
X0167429Y0028737D01*
X0165771Y0028737D01*
X0164239Y0028102D01*
X0163066Y0026930D01*
X0162431Y0025398D01*
X0162431Y0017802D01*
X0163066Y0016270D01*
X0164239Y0015098D01*
X0163354Y0015982D02*
X0153825Y0015982D01*
X0149375Y0015982D02*
X0144585Y0015982D01*
X0145838Y0014784D02*
X0147854Y0014784D01*
X0147119Y0013585D02*
X0146528Y0013585D01*
X0141886Y0013585D02*
X0141314Y0013585D01*
X0141314Y0012387D02*
X0141886Y0012387D01*
X0141886Y0011188D02*
X0141314Y0011188D01*
X0141314Y0009990D02*
X0141886Y0009990D01*
X0141886Y0008791D02*
X0141314Y0008791D01*
X0141314Y0007593D02*
X0141886Y0007593D01*
X0141886Y0006394D02*
X0141314Y0006394D01*
X0140589Y0006394D02*
X0003500Y0006394D01*
X0003500Y0005196D02*
X0225950Y0005196D01*
X0225950Y0006394D02*
X0142611Y0006394D01*
X0145088Y0007593D02*
X0148678Y0007593D01*
X0147479Y0008791D02*
X0146110Y0008791D01*
X0146649Y0009990D02*
X0146963Y0009990D01*
X0154522Y0007593D02*
X0225950Y0007593D01*
X0225950Y0008791D02*
X0155721Y0008791D01*
X0156237Y0009990D02*
X0225950Y0009990D01*
X0225950Y0011188D02*
X0156500Y0011188D01*
X0156500Y0012387D02*
X0225950Y0012387D01*
X0225950Y0003997D02*
X0003500Y0003997D01*
X0003500Y0007593D02*
X0138112Y0007593D01*
X0137090Y0008791D02*
X0003500Y0008791D01*
X0003500Y0009990D02*
X0136551Y0009990D01*
X0136300Y0011188D02*
X0003500Y0011188D01*
X0003500Y0012387D02*
X0078968Y0012387D01*
X0078824Y0012446D02*
X0080625Y0011700D01*
X0082575Y0011700D01*
X0084376Y0012446D01*
X0085754Y0013824D01*
X0086419Y0015430D01*
X0086430Y0015359D01*
X0086688Y0014566D01*
X0087067Y0013822D01*
X0087557Y0013147D01*
X0088147Y0012557D01*
X0088822Y0012067D01*
X0089566Y0011688D01*
X0090359Y0011430D01*
X0091183Y0011300D01*
X0091314Y0011300D01*
X0091314Y0016314D01*
X0091886Y0016314D01*
X0091886Y0016886D01*
X0091314Y0016886D01*
X0091314Y0021900D01*
X0091183Y0021900D01*
X0090359Y0021769D01*
X0089566Y0021512D01*
X0088822Y0021133D01*
X0088147Y0020643D01*
X0087557Y0020053D01*
X0087067Y0019378D01*
X0086688Y0018634D01*
X0086430Y0017841D01*
X0086419Y0017770D01*
X0085754Y0019376D01*
X0084376Y0020754D01*
X0082575Y0021500D01*
X0080625Y0021500D01*
X0078824Y0020754D01*
X0077446Y0019376D01*
X0076700Y0017575D01*
X0076700Y0015625D01*
X0077446Y0013824D01*
X0078824Y0012446D01*
X0077685Y0013585D02*
X0003500Y0013585D01*
X0003500Y0014784D02*
X0054997Y0014784D01*
X0054239Y0015098D02*
X0055771Y0014463D01*
X0057429Y0014463D01*
X0058961Y0015098D01*
X0060134Y0016270D01*
X0060768Y0017802D01*
X0060768Y0025398D01*
X0060134Y0026930D01*
X0058961Y0028102D01*
X0057429Y0028737D01*
X0055771Y0028737D01*
X0054239Y0028102D01*
X0053066Y0026930D01*
X0052431Y0025398D01*
X0052431Y0017802D01*
X0053066Y0016270D01*
X0054239Y0015098D01*
X0053354Y0015982D02*
X0003500Y0015982D01*
X0003500Y0017181D02*
X0052689Y0017181D01*
X0052431Y0018379D02*
X0003500Y0018379D01*
X0003500Y0019578D02*
X0052431Y0019578D01*
X0052431Y0020776D02*
X0003500Y0020776D01*
X0003500Y0021975D02*
X0052431Y0021975D01*
X0052431Y0023173D02*
X0003500Y0023173D01*
X0003500Y0024372D02*
X0052431Y0024372D01*
X0052503Y0025570D02*
X0003500Y0025570D01*
X0003500Y0026769D02*
X0052999Y0026769D01*
X0054104Y0027967D02*
X0003500Y0027967D01*
X0048226Y0030364D02*
X0184042Y0030364D01*
X0182843Y0031563D02*
X0049742Y0031563D01*
X0050476Y0032761D02*
X0182265Y0032761D01*
X0181957Y0033960D02*
X0050893Y0033960D01*
X0050893Y0035158D02*
X0181957Y0035158D01*
X0182332Y0036357D02*
X0050629Y0036357D01*
X0050111Y0037555D02*
X0138715Y0037555D01*
X0137516Y0038754D02*
X0048913Y0038754D01*
X0064239Y0028102D02*
X0065771Y0028737D01*
X0067429Y0028737D01*
X0068961Y0028102D01*
X0070134Y0026930D01*
X0070768Y0025398D01*
X0070768Y0017802D01*
X0070134Y0016270D01*
X0068961Y0015098D01*
X0067429Y0014463D01*
X0065771Y0014463D01*
X0064239Y0015098D01*
X0063066Y0016270D01*
X0062431Y0017802D01*
X0062431Y0025398D01*
X0063066Y0026930D01*
X0064239Y0028102D01*
X0064104Y0027967D02*
X0059096Y0027967D01*
X0060201Y0026769D02*
X0062999Y0026769D01*
X0062503Y0025570D02*
X0060697Y0025570D01*
X0060768Y0024372D02*
X0062431Y0024372D01*
X0062431Y0023173D02*
X0060768Y0023173D01*
X0060768Y0021975D02*
X0062431Y0021975D01*
X0062431Y0020776D02*
X0060768Y0020776D01*
X0060768Y0019578D02*
X0062431Y0019578D01*
X0062431Y0018379D02*
X0060768Y0018379D01*
X0060511Y0017181D02*
X0062689Y0017181D01*
X0063354Y0015982D02*
X0059846Y0015982D01*
X0058203Y0014784D02*
X0064997Y0014784D01*
X0068203Y0014784D02*
X0077049Y0014784D01*
X0076700Y0015982D02*
X0069846Y0015982D01*
X0070511Y0017181D02*
X0076700Y0017181D01*
X0077033Y0018379D02*
X0070768Y0018379D01*
X0070768Y0019578D02*
X0077648Y0019578D01*
X0078878Y0020776D02*
X0070768Y0020776D01*
X0070768Y0021975D02*
X0102431Y0021975D01*
X0102431Y0023173D02*
X0070768Y0023173D01*
X0070768Y0024372D02*
X0102431Y0024372D01*
X0102431Y0025398D02*
X0103066Y0026930D01*
X0104239Y0028102D01*
X0105771Y0028737D01*
X0107429Y0028737D01*
X0108961Y0028102D01*
X0110134Y0026930D01*
X0110768Y0025398D01*
X0110768Y0017802D01*
X0110134Y0016270D01*
X0108961Y0015098D01*
X0107429Y0014463D01*
X0105771Y0014463D01*
X0104239Y0015098D01*
X0103066Y0016270D01*
X0102431Y0017802D01*
X0102431Y0025398D01*
X0102503Y0025570D02*
X0070697Y0025570D01*
X0070201Y0026769D02*
X0102999Y0026769D01*
X0104104Y0027967D02*
X0069096Y0027967D01*
X0084322Y0020776D02*
X0088331Y0020776D01*
X0087212Y0019578D02*
X0085552Y0019578D01*
X0086167Y0018379D02*
X0086605Y0018379D01*
X0091314Y0018379D02*
X0091886Y0018379D01*
X0091886Y0017181D02*
X0091314Y0017181D01*
X0091886Y0016886D02*
X0091886Y0021900D01*
X0092017Y0021900D01*
X0092841Y0021769D01*
X0093634Y0021512D01*
X0094378Y0021133D01*
X0095053Y0020643D01*
X0095643Y0020053D01*
X0096133Y0019378D01*
X0096512Y0018634D01*
X0096769Y0017841D01*
X0096900Y0017017D01*
X0096900Y0016886D01*
X0091886Y0016886D01*
X0091886Y0016314D02*
X0096900Y0016314D01*
X0096900Y0016183D01*
X0096769Y0015359D01*
X0096512Y0014566D01*
X0096133Y0013822D01*
X0095643Y0013147D01*
X0095053Y0012557D01*
X0094378Y0012067D01*
X0093634Y0011688D01*
X0092841Y0011430D01*
X0092017Y0011300D01*
X0091886Y0011300D01*
X0091886Y0016314D01*
X0091886Y0015982D02*
X0091314Y0015982D01*
X0091314Y0014784D02*
X0091886Y0014784D01*
X0091886Y0013585D02*
X0091314Y0013585D01*
X0091314Y0012387D02*
X0091886Y0012387D01*
X0094818Y0012387D02*
X0136359Y0012387D01*
X0136672Y0013585D02*
X0095961Y0013585D01*
X0096583Y0014784D02*
X0104997Y0014784D01*
X0103354Y0015982D02*
X0096868Y0015982D01*
X0096874Y0017181D02*
X0102689Y0017181D01*
X0102431Y0018379D02*
X0096595Y0018379D01*
X0095988Y0019578D02*
X0102431Y0019578D01*
X0102431Y0020776D02*
X0094869Y0020776D01*
X0091886Y0020776D02*
X0091314Y0020776D01*
X0091314Y0019578D02*
X0091886Y0019578D01*
X0086617Y0014784D02*
X0086151Y0014784D01*
X0085515Y0013585D02*
X0087239Y0013585D01*
X0088382Y0012387D02*
X0084232Y0012387D01*
X0108203Y0014784D02*
X0114124Y0014784D01*
X0114206Y0014724D02*
X0114846Y0014398D01*
X0115530Y0014175D01*
X0116216Y0014067D01*
X0116216Y0021216D01*
X0116984Y0021216D01*
X0116984Y0014067D01*
X0117670Y0014175D01*
X0118354Y0014398D01*
X0118994Y0014724D01*
X0119576Y0015147D01*
X0120085Y0015655D01*
X0120507Y0016237D01*
X0120834Y0016878D01*
X0121056Y0017562D01*
X0121168Y0018272D01*
X0121168Y0021216D01*
X0116984Y0021216D01*
X0116984Y0021984D01*
X0121168Y0021984D01*
X0121168Y0024928D01*
X0121056Y0025638D01*
X0120834Y0026322D01*
X0120507Y0026963D01*
X0120085Y0027545D01*
X0119576Y0028053D01*
X0118994Y0028476D01*
X0118354Y0028802D01*
X0117670Y0029025D01*
X0116984Y0029133D01*
X0116984Y0021984D01*
X0116216Y0021984D01*
X0116216Y0021216D01*
X0112031Y0021216D01*
X0112031Y0018272D01*
X0112144Y0017562D01*
X0112366Y0016878D01*
X0112693Y0016237D01*
X0113115Y0015655D01*
X0113624Y0015147D01*
X0114206Y0014724D01*
X0112878Y0015982D02*
X0109846Y0015982D01*
X0110511Y0017181D02*
X0112268Y0017181D01*
X0112031Y0018379D02*
X0110768Y0018379D01*
X0110768Y0019578D02*
X0112031Y0019578D01*
X0112031Y0020776D02*
X0110768Y0020776D01*
X0110768Y0021975D02*
X0116216Y0021975D01*
X0116216Y0021984D02*
X0112031Y0021984D01*
X0112031Y0024928D01*
X0112144Y0025638D01*
X0112366Y0026322D01*
X0112693Y0026963D01*
X0113115Y0027545D01*
X0113624Y0028053D01*
X0114206Y0028476D01*
X0114846Y0028802D01*
X0115530Y0029025D01*
X0116216Y0029133D01*
X0116216Y0021984D01*
X0116984Y0021975D02*
X0122431Y0021975D01*
X0122431Y0023173D02*
X0121168Y0023173D01*
X0121168Y0024372D02*
X0122431Y0024372D01*
X0122431Y0025398D02*
X0123066Y0026930D01*
X0124239Y0028102D01*
X0125771Y0028737D01*
X0127429Y0028737D01*
X0128961Y0028102D01*
X0130134Y0026930D01*
X0130768Y0025398D01*
X0130768Y0017802D01*
X0130134Y0016270D01*
X0128961Y0015098D01*
X0127429Y0014463D01*
X0125771Y0014463D01*
X0124239Y0015098D01*
X0123066Y0016270D01*
X0122431Y0017802D01*
X0122431Y0025398D01*
X0122503Y0025570D02*
X0121067Y0025570D01*
X0120606Y0026769D02*
X0122999Y0026769D01*
X0124104Y0027967D02*
X0119662Y0027967D01*
X0116984Y0027967D02*
X0116216Y0027967D01*
X0116216Y0026769D02*
X0116984Y0026769D01*
X0116984Y0025570D02*
X0116216Y0025570D01*
X0116216Y0024372D02*
X0116984Y0024372D01*
X0116984Y0023173D02*
X0116216Y0023173D01*
X0116216Y0020776D02*
X0116984Y0020776D01*
X0116984Y0019578D02*
X0116216Y0019578D01*
X0116216Y0018379D02*
X0116984Y0018379D01*
X0116984Y0017181D02*
X0116216Y0017181D01*
X0116216Y0015982D02*
X0116984Y0015982D01*
X0116984Y0014784D02*
X0116216Y0014784D01*
X0119076Y0014784D02*
X0124997Y0014784D01*
X0123354Y0015982D02*
X0120322Y0015982D01*
X0120932Y0017181D02*
X0122689Y0017181D01*
X0122431Y0018379D02*
X0121168Y0018379D01*
X0121168Y0019578D02*
X0122431Y0019578D01*
X0122431Y0020776D02*
X0121168Y0020776D01*
X0112031Y0023173D02*
X0110768Y0023173D01*
X0110768Y0024372D02*
X0112031Y0024372D01*
X0112133Y0025570D02*
X0110697Y0025570D01*
X0110201Y0026769D02*
X0112594Y0026769D01*
X0113538Y0027967D02*
X0109096Y0027967D01*
X0129096Y0027967D02*
X0164104Y0027967D01*
X0162999Y0026769D02*
X0130201Y0026769D01*
X0130697Y0025570D02*
X0162503Y0025570D01*
X0162431Y0024372D02*
X0130768Y0024372D01*
X0130768Y0023173D02*
X0162431Y0023173D01*
X0162431Y0021975D02*
X0130768Y0021975D01*
X0130768Y0020776D02*
X0162431Y0020776D01*
X0162431Y0019578D02*
X0130768Y0019578D01*
X0130768Y0018379D02*
X0162431Y0018379D01*
X0162689Y0017181D02*
X0130511Y0017181D01*
X0129846Y0015982D02*
X0138615Y0015982D01*
X0137362Y0014784D02*
X0128203Y0014784D01*
X0141314Y0014784D02*
X0141886Y0014784D01*
X0141886Y0015982D02*
X0141314Y0015982D01*
X0168203Y0014784D02*
X0174997Y0014784D01*
X0173354Y0015982D02*
X0169846Y0015982D01*
X0170511Y0017181D02*
X0172689Y0017181D01*
X0172431Y0018379D02*
X0170768Y0018379D01*
X0170768Y0019578D02*
X0172431Y0019578D01*
X0172431Y0020776D02*
X0170768Y0020776D01*
X0170768Y0021975D02*
X0172431Y0021975D01*
X0172431Y0023173D02*
X0170768Y0023173D01*
X0170768Y0024372D02*
X0172431Y0024372D01*
X0172503Y0025570D02*
X0170697Y0025570D01*
X0170201Y0026769D02*
X0172999Y0026769D01*
X0174104Y0027967D02*
X0169096Y0027967D01*
X0183005Y0037555D02*
X0154485Y0037555D01*
X0155683Y0038754D02*
X0184375Y0038754D01*
X0149285Y0045945D02*
X0143915Y0045945D01*
X0145383Y0044746D02*
X0147817Y0044746D01*
X0147103Y0043548D02*
X0146097Y0043548D01*
X0146500Y0042349D02*
X0146700Y0042349D01*
X0146700Y0041151D02*
X0146500Y0041151D01*
X0146221Y0039952D02*
X0146979Y0039952D01*
X0147516Y0038754D02*
X0145683Y0038754D01*
X0144485Y0037555D02*
X0148715Y0037555D01*
X0126689Y0054334D02*
X0126511Y0054334D01*
X0126511Y0055533D02*
X0126689Y0055533D01*
X0126689Y0056732D02*
X0126511Y0056732D01*
X0126511Y0057930D02*
X0126689Y0057930D01*
X0126689Y0060327D02*
X0126511Y0060327D01*
X0126511Y0061526D02*
X0126689Y0061526D01*
X0126689Y0062724D02*
X0126511Y0062724D01*
X0126511Y0063923D02*
X0126689Y0063923D01*
X0127485Y0064571D02*
X0125715Y0064571D01*
X0124079Y0065249D01*
X0122827Y0066501D01*
X0122150Y0068136D01*
X0122150Y0069906D01*
X0122827Y0071542D01*
X0124079Y0072794D01*
X0125715Y0073471D01*
X0127485Y0073471D01*
X0129121Y0072794D01*
X0130373Y0071542D01*
X0131050Y0069906D01*
X0131050Y0068136D01*
X0130373Y0066501D01*
X0129121Y0065249D01*
X0127485Y0064571D01*
X0128813Y0065121D02*
X0136719Y0065121D01*
X0136700Y0063923D02*
X0130457Y0063923D01*
X0131427Y0062724D02*
X0136866Y0062724D01*
X0137363Y0061526D02*
X0131450Y0061526D01*
X0131450Y0060327D02*
X0138443Y0060327D01*
X0137216Y0066320D02*
X0130192Y0066320D01*
X0130794Y0067518D02*
X0138088Y0067518D01*
X0139941Y0068717D02*
X0131050Y0068717D01*
X0131046Y0069915D02*
X0193608Y0069915D01*
X0192867Y0071114D02*
X0130550Y0071114D01*
X0129602Y0072312D02*
X0192438Y0072312D01*
X0194774Y0068717D02*
X0143259Y0068717D01*
X0145112Y0067518D02*
X0197013Y0067518D01*
X0159893Y0079503D02*
X0153307Y0079503D01*
X0155131Y0080702D02*
X0158069Y0080702D01*
X0157207Y0081900D02*
X0155993Y0081900D01*
X0156489Y0083099D02*
X0156711Y0083099D01*
X0156700Y0084297D02*
X0156500Y0084297D01*
X0156326Y0085496D02*
X0156874Y0085496D01*
X0157371Y0086694D02*
X0155829Y0086694D01*
X0154737Y0087893D02*
X0158463Y0087893D01*
X0123598Y0072312D02*
X0104602Y0072312D01*
X0105550Y0071114D02*
X0122650Y0071114D01*
X0122154Y0069915D02*
X0106046Y0069915D01*
X0106050Y0068717D02*
X0122150Y0068717D01*
X0122406Y0067518D02*
X0105794Y0067518D01*
X0105192Y0066320D02*
X0123008Y0066320D01*
X0124387Y0065121D02*
X0103813Y0065121D01*
X0105457Y0063923D02*
X0122743Y0063923D01*
X0121773Y0062724D02*
X0106427Y0062724D01*
X0106450Y0061526D02*
X0121750Y0061526D01*
X0121750Y0060327D02*
X0106450Y0060327D01*
X0106450Y0057930D02*
X0121750Y0057930D01*
X0121750Y0056732D02*
X0106450Y0056732D01*
X0106400Y0055533D02*
X0121800Y0055533D01*
X0123118Y0054334D02*
X0105082Y0054334D01*
X0101689Y0054334D02*
X0101511Y0054334D01*
X0101511Y0055533D02*
X0101689Y0055533D01*
X0101689Y0056732D02*
X0101511Y0056732D01*
X0101511Y0057930D02*
X0101689Y0057930D01*
X0101689Y0060327D02*
X0101511Y0060327D01*
X0101511Y0061526D02*
X0101689Y0061526D01*
X0101689Y0062724D02*
X0101511Y0062724D01*
X0101511Y0063923D02*
X0101689Y0063923D01*
X0099387Y0065121D02*
X0091481Y0065121D01*
X0091500Y0063923D02*
X0097743Y0063923D01*
X0096773Y0062724D02*
X0091334Y0062724D01*
X0090837Y0061526D02*
X0096750Y0061526D01*
X0096750Y0060327D02*
X0089757Y0060327D01*
X0096750Y0057930D02*
X0081353Y0057930D01*
X0081500Y0056732D02*
X0096750Y0056732D01*
X0096800Y0055533D02*
X0081462Y0055533D01*
X0080965Y0054334D02*
X0098118Y0054334D01*
X0088809Y0050739D02*
X0084391Y0050739D01*
X0085589Y0049540D02*
X0087611Y0049540D01*
X0087018Y0048342D02*
X0086182Y0048342D01*
X0086500Y0047143D02*
X0086700Y0047143D01*
X0086700Y0045945D02*
X0086500Y0045945D01*
X0086136Y0044746D02*
X0087064Y0044746D01*
X0087722Y0043548D02*
X0085478Y0043548D01*
X0084142Y0042349D02*
X0089058Y0042349D01*
X0094142Y0042349D02*
X0108386Y0042349D01*
X0107609Y0043548D02*
X0095478Y0043548D01*
X0096136Y0044746D02*
X0107229Y0044746D01*
X0107229Y0045945D02*
X0096500Y0045945D01*
X0096500Y0047143D02*
X0107605Y0047143D01*
X0108377Y0048342D02*
X0096182Y0048342D01*
X0098008Y0066320D02*
X0090984Y0066320D01*
X0090112Y0067518D02*
X0097406Y0067518D01*
M02*
