G04 EAGLE Gerber X2 export*
%TF.Part,Single*%
%TF.FileFunction,Other,Bottom Silkscreen*%
%TF.FilePolarity,Positive*%
%TF.GenerationSoftware,Autodesk,EAGLE,9.1.0*%
%TF.CreationDate,2018-07-18T02:57:18Z*%
G75*
%MOMM*%
%FSLAX34Y34*%
%LPD*%
%AMOC8*
5,1,8,0,0,1.08239X$1,22.5*%
G01*
%ADD10C,0.025400*%
%ADD11C,0.152400*%


D10*
X25305Y137668D02*
X28099Y137668D01*
X28099Y138444D01*
X28097Y138499D01*
X28091Y138554D01*
X28081Y138609D01*
X28068Y138663D01*
X28050Y138715D01*
X28029Y138766D01*
X28004Y138816D01*
X27976Y138864D01*
X27944Y138909D01*
X27909Y138952D01*
X27872Y138993D01*
X27831Y139030D01*
X27788Y139065D01*
X27743Y139097D01*
X27695Y139125D01*
X27645Y139150D01*
X27594Y139171D01*
X27542Y139189D01*
X27488Y139202D01*
X27433Y139212D01*
X27378Y139218D01*
X27323Y139220D01*
X26081Y139220D01*
X26026Y139218D01*
X25971Y139212D01*
X25916Y139202D01*
X25862Y139189D01*
X25810Y139171D01*
X25759Y139150D01*
X25709Y139125D01*
X25661Y139097D01*
X25616Y139065D01*
X25573Y139030D01*
X25532Y138993D01*
X25495Y138952D01*
X25460Y138909D01*
X25428Y138864D01*
X25400Y138816D01*
X25375Y138766D01*
X25354Y138715D01*
X25336Y138663D01*
X25323Y138609D01*
X25313Y138554D01*
X25307Y138499D01*
X25305Y138444D01*
X25305Y137668D01*
X25305Y140941D02*
X25305Y141717D01*
X25304Y140941D02*
X25306Y140900D01*
X25311Y140860D01*
X25320Y140820D01*
X25332Y140782D01*
X25348Y140744D01*
X25366Y140708D01*
X25388Y140674D01*
X25413Y140641D01*
X25440Y140611D01*
X25470Y140584D01*
X25503Y140559D01*
X25537Y140537D01*
X25573Y140519D01*
X25611Y140503D01*
X25649Y140491D01*
X25689Y140482D01*
X25729Y140477D01*
X25770Y140475D01*
X26547Y140475D01*
X26596Y140477D01*
X26644Y140483D01*
X26692Y140492D01*
X26739Y140505D01*
X26785Y140522D01*
X26829Y140543D01*
X26871Y140567D01*
X26912Y140594D01*
X26950Y140624D01*
X26986Y140657D01*
X27019Y140693D01*
X27049Y140731D01*
X27076Y140772D01*
X27100Y140814D01*
X27121Y140858D01*
X27138Y140904D01*
X27151Y140951D01*
X27160Y140999D01*
X27166Y141047D01*
X27168Y141096D01*
X27166Y141145D01*
X27160Y141193D01*
X27151Y141241D01*
X27138Y141288D01*
X27121Y141334D01*
X27100Y141378D01*
X27076Y141420D01*
X27049Y141461D01*
X27019Y141499D01*
X26986Y141535D01*
X26950Y141568D01*
X26912Y141598D01*
X26871Y141625D01*
X26829Y141649D01*
X26785Y141670D01*
X26739Y141687D01*
X26692Y141700D01*
X26644Y141709D01*
X26596Y141715D01*
X26547Y141717D01*
X26236Y141717D01*
X26236Y140475D01*
X26391Y143085D02*
X26081Y143861D01*
X26392Y143086D02*
X26408Y143051D01*
X26427Y143017D01*
X26449Y142986D01*
X26475Y142957D01*
X26502Y142931D01*
X26533Y142907D01*
X26565Y142886D01*
X26599Y142869D01*
X26635Y142855D01*
X26672Y142844D01*
X26710Y142837D01*
X26748Y142833D01*
X26787Y142834D01*
X26825Y142837D01*
X26863Y142845D01*
X26899Y142856D01*
X26935Y142871D01*
X26969Y142889D01*
X27001Y142910D01*
X27031Y142934D01*
X27059Y142961D01*
X27084Y142990D01*
X27106Y143021D01*
X27124Y143055D01*
X27140Y143090D01*
X27152Y143127D01*
X27161Y143164D01*
X27166Y143202D01*
X27167Y143241D01*
X27168Y143240D02*
X27165Y143320D01*
X27158Y143400D01*
X27148Y143479D01*
X27134Y143558D01*
X27117Y143636D01*
X27096Y143714D01*
X27072Y143790D01*
X27044Y143865D01*
X27013Y143939D01*
X26080Y143861D02*
X26064Y143896D01*
X26045Y143930D01*
X26023Y143961D01*
X25997Y143990D01*
X25970Y144016D01*
X25939Y144040D01*
X25907Y144061D01*
X25873Y144078D01*
X25837Y144092D01*
X25800Y144103D01*
X25762Y144110D01*
X25724Y144114D01*
X25685Y144113D01*
X25647Y144110D01*
X25609Y144102D01*
X25573Y144091D01*
X25537Y144076D01*
X25503Y144058D01*
X25471Y144037D01*
X25441Y144013D01*
X25413Y143986D01*
X25388Y143957D01*
X25366Y143926D01*
X25348Y143892D01*
X25332Y143857D01*
X25320Y143820D01*
X25311Y143783D01*
X25306Y143745D01*
X25305Y143706D01*
X25304Y143706D02*
X25307Y143610D01*
X25314Y143513D01*
X25324Y143417D01*
X25338Y143321D01*
X25356Y143225D01*
X25376Y143131D01*
X25401Y143037D01*
X25428Y142944D01*
X25460Y142853D01*
X25305Y145211D02*
X27167Y145211D01*
X27944Y145133D02*
X28099Y145133D01*
X28099Y145288D01*
X27944Y145288D01*
X27944Y145133D01*
X25305Y146778D02*
X25305Y147554D01*
X25304Y146778D02*
X25306Y146737D01*
X25311Y146697D01*
X25320Y146657D01*
X25332Y146619D01*
X25348Y146581D01*
X25366Y146545D01*
X25388Y146511D01*
X25413Y146478D01*
X25440Y146448D01*
X25470Y146421D01*
X25503Y146396D01*
X25537Y146374D01*
X25573Y146356D01*
X25611Y146340D01*
X25649Y146328D01*
X25689Y146319D01*
X25729Y146314D01*
X25770Y146312D01*
X25770Y146313D02*
X26702Y146313D01*
X26702Y146312D02*
X26743Y146314D01*
X26783Y146319D01*
X26823Y146328D01*
X26861Y146340D01*
X26899Y146356D01*
X26935Y146374D01*
X26969Y146396D01*
X27002Y146421D01*
X27032Y146448D01*
X27059Y146478D01*
X27084Y146511D01*
X27106Y146545D01*
X27124Y146581D01*
X27140Y146619D01*
X27152Y146657D01*
X27161Y146697D01*
X27166Y146737D01*
X27168Y146778D01*
X27167Y146778D02*
X27167Y147554D01*
X24839Y147554D01*
X24839Y147555D02*
X24796Y147553D01*
X24753Y147547D01*
X24711Y147537D01*
X24671Y147524D01*
X24631Y147506D01*
X24594Y147485D01*
X24558Y147461D01*
X24525Y147433D01*
X24495Y147403D01*
X24467Y147370D01*
X24443Y147334D01*
X24422Y147297D01*
X24404Y147257D01*
X24391Y147217D01*
X24381Y147175D01*
X24375Y147132D01*
X24373Y147089D01*
X24373Y146468D01*
X25305Y148887D02*
X27167Y148887D01*
X27167Y149663D01*
X27168Y149663D02*
X27166Y149704D01*
X27161Y149744D01*
X27152Y149784D01*
X27140Y149822D01*
X27124Y149860D01*
X27106Y149896D01*
X27084Y149930D01*
X27059Y149963D01*
X27032Y149993D01*
X27002Y150020D01*
X26969Y150045D01*
X26935Y150067D01*
X26899Y150085D01*
X26861Y150101D01*
X26823Y150113D01*
X26783Y150122D01*
X26743Y150127D01*
X26702Y150129D01*
X25305Y150129D01*
X25305Y151822D02*
X25305Y152598D01*
X25304Y151822D02*
X25306Y151781D01*
X25311Y151741D01*
X25320Y151701D01*
X25332Y151663D01*
X25348Y151625D01*
X25366Y151589D01*
X25388Y151555D01*
X25413Y151522D01*
X25440Y151492D01*
X25470Y151465D01*
X25503Y151440D01*
X25537Y151418D01*
X25573Y151400D01*
X25611Y151384D01*
X25649Y151372D01*
X25689Y151363D01*
X25729Y151358D01*
X25770Y151356D01*
X26547Y151356D01*
X26596Y151358D01*
X26644Y151364D01*
X26692Y151373D01*
X26739Y151386D01*
X26785Y151403D01*
X26829Y151424D01*
X26871Y151448D01*
X26912Y151475D01*
X26950Y151505D01*
X26986Y151538D01*
X27019Y151574D01*
X27049Y151612D01*
X27076Y151653D01*
X27100Y151695D01*
X27121Y151739D01*
X27138Y151785D01*
X27151Y151832D01*
X27160Y151880D01*
X27166Y151928D01*
X27168Y151977D01*
X27166Y152026D01*
X27160Y152074D01*
X27151Y152122D01*
X27138Y152169D01*
X27121Y152215D01*
X27100Y152259D01*
X27076Y152301D01*
X27049Y152342D01*
X27019Y152380D01*
X26986Y152416D01*
X26950Y152449D01*
X26912Y152479D01*
X26871Y152506D01*
X26829Y152530D01*
X26785Y152551D01*
X26739Y152568D01*
X26692Y152581D01*
X26644Y152590D01*
X26596Y152596D01*
X26547Y152598D01*
X26236Y152598D01*
X26236Y151356D01*
X25305Y154961D02*
X28099Y154961D01*
X25305Y154961D02*
X25305Y154185D01*
X25304Y154185D02*
X25306Y154144D01*
X25311Y154104D01*
X25320Y154064D01*
X25332Y154026D01*
X25348Y153988D01*
X25366Y153952D01*
X25388Y153918D01*
X25413Y153885D01*
X25440Y153855D01*
X25470Y153828D01*
X25503Y153803D01*
X25537Y153781D01*
X25573Y153763D01*
X25611Y153747D01*
X25649Y153735D01*
X25689Y153726D01*
X25729Y153721D01*
X25770Y153719D01*
X26702Y153719D01*
X26743Y153721D01*
X26783Y153726D01*
X26823Y153735D01*
X26861Y153747D01*
X26899Y153763D01*
X26935Y153781D01*
X26969Y153803D01*
X27002Y153828D01*
X27032Y153855D01*
X27059Y153885D01*
X27084Y153918D01*
X27106Y153952D01*
X27124Y153988D01*
X27140Y154026D01*
X27152Y154064D01*
X27161Y154104D01*
X27166Y154144D01*
X27168Y154185D01*
X27167Y154185D02*
X27167Y154961D01*
X26857Y157826D02*
X26857Y158602D01*
X26855Y158657D01*
X26849Y158712D01*
X26839Y158767D01*
X26826Y158821D01*
X26808Y158873D01*
X26787Y158924D01*
X26762Y158974D01*
X26734Y159022D01*
X26702Y159067D01*
X26667Y159110D01*
X26630Y159151D01*
X26589Y159188D01*
X26546Y159223D01*
X26501Y159255D01*
X26453Y159283D01*
X26403Y159308D01*
X26352Y159329D01*
X26300Y159347D01*
X26246Y159360D01*
X26191Y159370D01*
X26136Y159376D01*
X26081Y159378D01*
X26026Y159376D01*
X25971Y159370D01*
X25916Y159360D01*
X25862Y159347D01*
X25810Y159329D01*
X25759Y159308D01*
X25709Y159283D01*
X25661Y159255D01*
X25616Y159223D01*
X25573Y159188D01*
X25532Y159151D01*
X25495Y159110D01*
X25460Y159067D01*
X25428Y159022D01*
X25400Y158974D01*
X25375Y158924D01*
X25354Y158873D01*
X25336Y158821D01*
X25323Y158767D01*
X25313Y158712D01*
X25307Y158657D01*
X25305Y158602D01*
X25305Y157826D01*
X28099Y157826D01*
X28099Y158602D01*
X28097Y158651D01*
X28091Y158699D01*
X28082Y158747D01*
X28069Y158794D01*
X28052Y158840D01*
X28031Y158884D01*
X28007Y158926D01*
X27980Y158967D01*
X27950Y159005D01*
X27917Y159041D01*
X27881Y159074D01*
X27843Y159104D01*
X27802Y159131D01*
X27760Y159155D01*
X27716Y159176D01*
X27670Y159193D01*
X27623Y159206D01*
X27575Y159215D01*
X27527Y159221D01*
X27478Y159223D01*
X27429Y159221D01*
X27381Y159215D01*
X27333Y159206D01*
X27286Y159193D01*
X27240Y159176D01*
X27196Y159155D01*
X27154Y159131D01*
X27113Y159104D01*
X27075Y159074D01*
X27039Y159041D01*
X27006Y159005D01*
X26976Y158967D01*
X26949Y158926D01*
X26925Y158884D01*
X26904Y158840D01*
X26887Y158794D01*
X26874Y158747D01*
X26865Y158699D01*
X26859Y158651D01*
X26857Y158602D01*
X24373Y160317D02*
X24373Y160628D01*
X27167Y161559D01*
X27167Y160317D02*
X25305Y160938D01*
X22511Y137668D02*
X18955Y137668D01*
X20535Y138853D02*
X22511Y137668D01*
X20535Y138853D02*
X22511Y140039D01*
X18955Y140039D01*
X20338Y142282D02*
X20338Y143171D01*
X20337Y142282D02*
X20335Y142230D01*
X20329Y142179D01*
X20320Y142128D01*
X20306Y142078D01*
X20289Y142030D01*
X20269Y141982D01*
X20244Y141937D01*
X20217Y141893D01*
X20186Y141851D01*
X20153Y141812D01*
X20116Y141775D01*
X20077Y141742D01*
X20035Y141711D01*
X19992Y141684D01*
X19946Y141659D01*
X19898Y141639D01*
X19850Y141622D01*
X19800Y141608D01*
X19749Y141599D01*
X19698Y141593D01*
X19646Y141591D01*
X19594Y141593D01*
X19543Y141599D01*
X19492Y141608D01*
X19442Y141622D01*
X19394Y141639D01*
X19346Y141659D01*
X19301Y141684D01*
X19257Y141711D01*
X19215Y141742D01*
X19176Y141775D01*
X19139Y141812D01*
X19106Y141851D01*
X19075Y141893D01*
X19048Y141937D01*
X19023Y141982D01*
X19003Y142030D01*
X18986Y142078D01*
X18972Y142128D01*
X18963Y142179D01*
X18957Y142230D01*
X18955Y142282D01*
X18955Y143171D01*
X20733Y143171D01*
X20780Y143169D01*
X20826Y143164D01*
X20871Y143155D01*
X20916Y143142D01*
X20960Y143126D01*
X21002Y143106D01*
X21043Y143084D01*
X21082Y143058D01*
X21118Y143029D01*
X21152Y142997D01*
X21184Y142963D01*
X21213Y142927D01*
X21239Y142888D01*
X21261Y142847D01*
X21281Y142805D01*
X21297Y142761D01*
X21310Y142716D01*
X21319Y142671D01*
X21324Y142624D01*
X21326Y142578D01*
X21325Y142578D02*
X21325Y141788D01*
X21325Y144407D02*
X21325Y145593D01*
X22511Y144803D02*
X19547Y144803D01*
X19547Y144802D02*
X19500Y144804D01*
X19454Y144809D01*
X19409Y144818D01*
X19364Y144831D01*
X19320Y144847D01*
X19278Y144867D01*
X19237Y144889D01*
X19198Y144915D01*
X19162Y144944D01*
X19128Y144976D01*
X19096Y145010D01*
X19067Y145046D01*
X19041Y145085D01*
X19019Y145126D01*
X18999Y145168D01*
X18983Y145212D01*
X18970Y145257D01*
X18961Y145302D01*
X18956Y145348D01*
X18954Y145395D01*
X18955Y145395D02*
X18955Y145593D01*
X21325Y146579D02*
X21325Y147764D01*
X22511Y146974D02*
X19547Y146974D01*
X19500Y146976D01*
X19454Y146981D01*
X19409Y146990D01*
X19364Y147003D01*
X19320Y147019D01*
X19278Y147039D01*
X19237Y147061D01*
X19198Y147087D01*
X19162Y147116D01*
X19128Y147148D01*
X19096Y147182D01*
X19067Y147218D01*
X19041Y147257D01*
X19019Y147298D01*
X18999Y147340D01*
X18983Y147384D01*
X18970Y147429D01*
X18961Y147474D01*
X18956Y147520D01*
X18954Y147567D01*
X18955Y147567D02*
X18955Y147764D01*
X18955Y149150D02*
X22511Y149150D01*
X21325Y149150D02*
X21325Y150138D01*
X21326Y150138D02*
X21324Y150185D01*
X21319Y150231D01*
X21310Y150276D01*
X21297Y150321D01*
X21281Y150365D01*
X21261Y150407D01*
X21239Y150448D01*
X21213Y150487D01*
X21184Y150523D01*
X21152Y150557D01*
X21118Y150589D01*
X21082Y150618D01*
X21043Y150644D01*
X21002Y150666D01*
X20960Y150686D01*
X20916Y150702D01*
X20871Y150715D01*
X20826Y150724D01*
X20780Y150729D01*
X20733Y150731D01*
X18955Y150731D01*
X18955Y152829D02*
X18955Y153817D01*
X18954Y152829D02*
X18956Y152782D01*
X18961Y152736D01*
X18970Y152691D01*
X18983Y152646D01*
X18999Y152602D01*
X19019Y152560D01*
X19041Y152519D01*
X19067Y152480D01*
X19096Y152444D01*
X19128Y152410D01*
X19162Y152378D01*
X19198Y152349D01*
X19237Y152323D01*
X19278Y152301D01*
X19320Y152281D01*
X19364Y152265D01*
X19409Y152252D01*
X19454Y152243D01*
X19500Y152238D01*
X19547Y152236D01*
X20535Y152236D01*
X20590Y152238D01*
X20645Y152244D01*
X20699Y152253D01*
X20753Y152267D01*
X20805Y152284D01*
X20856Y152304D01*
X20906Y152328D01*
X20954Y152356D01*
X20999Y152387D01*
X21043Y152421D01*
X21084Y152458D01*
X21122Y152497D01*
X21158Y152540D01*
X21190Y152584D01*
X21219Y152631D01*
X21245Y152680D01*
X21267Y152730D01*
X21286Y152782D01*
X21302Y152835D01*
X21313Y152889D01*
X21321Y152943D01*
X21325Y152998D01*
X21325Y153054D01*
X21321Y153109D01*
X21313Y153163D01*
X21302Y153217D01*
X21286Y153270D01*
X21267Y153322D01*
X21245Y153372D01*
X21219Y153421D01*
X21190Y153468D01*
X21158Y153512D01*
X21122Y153555D01*
X21084Y153594D01*
X21043Y153631D01*
X20999Y153665D01*
X20954Y153696D01*
X20906Y153724D01*
X20856Y153748D01*
X20805Y153768D01*
X20753Y153785D01*
X20699Y153799D01*
X20645Y153808D01*
X20590Y153814D01*
X20535Y153816D01*
X20535Y153817D02*
X20140Y153817D01*
X20140Y152236D01*
X21325Y155156D02*
X18955Y155748D01*
X20535Y156341D01*
X18955Y156934D01*
X21325Y157526D01*
X20930Y162222D02*
X20930Y162815D01*
X18955Y162815D01*
X18955Y161630D01*
X18957Y161576D01*
X18962Y161522D01*
X18972Y161469D01*
X18984Y161417D01*
X19001Y161365D01*
X19020Y161315D01*
X19044Y161267D01*
X19070Y161220D01*
X19100Y161174D01*
X19132Y161131D01*
X19168Y161091D01*
X19206Y161053D01*
X19246Y161017D01*
X19289Y160985D01*
X19335Y160955D01*
X19382Y160929D01*
X19430Y160905D01*
X19480Y160886D01*
X19532Y160869D01*
X19584Y160857D01*
X19637Y160847D01*
X19691Y160842D01*
X19745Y160840D01*
X21721Y160840D01*
X21775Y160842D01*
X21829Y160847D01*
X21882Y160857D01*
X21934Y160869D01*
X21986Y160886D01*
X22036Y160905D01*
X22084Y160929D01*
X22131Y160955D01*
X22177Y160985D01*
X22220Y161017D01*
X22260Y161053D01*
X22298Y161091D01*
X22334Y161131D01*
X22366Y161174D01*
X22396Y161220D01*
X22422Y161267D01*
X22446Y161315D01*
X22465Y161365D01*
X22482Y161417D01*
X22494Y161469D01*
X22504Y161522D01*
X22509Y161576D01*
X22511Y161630D01*
X22511Y162815D01*
X18955Y164944D02*
X18955Y165932D01*
X18954Y164944D02*
X18956Y164897D01*
X18961Y164851D01*
X18970Y164806D01*
X18983Y164761D01*
X18999Y164717D01*
X19019Y164675D01*
X19041Y164634D01*
X19067Y164595D01*
X19096Y164559D01*
X19128Y164525D01*
X19162Y164493D01*
X19198Y164464D01*
X19237Y164438D01*
X19278Y164416D01*
X19320Y164396D01*
X19364Y164380D01*
X19409Y164367D01*
X19454Y164358D01*
X19500Y164353D01*
X19547Y164351D01*
X19547Y164352D02*
X20535Y164352D01*
X20590Y164354D01*
X20645Y164360D01*
X20699Y164369D01*
X20753Y164383D01*
X20805Y164400D01*
X20856Y164420D01*
X20906Y164444D01*
X20954Y164472D01*
X20999Y164503D01*
X21043Y164537D01*
X21084Y164574D01*
X21122Y164613D01*
X21158Y164656D01*
X21190Y164700D01*
X21219Y164747D01*
X21245Y164796D01*
X21267Y164846D01*
X21286Y164898D01*
X21302Y164951D01*
X21313Y165005D01*
X21321Y165059D01*
X21325Y165114D01*
X21325Y165170D01*
X21321Y165225D01*
X21313Y165279D01*
X21302Y165333D01*
X21286Y165386D01*
X21267Y165438D01*
X21245Y165488D01*
X21219Y165537D01*
X21190Y165584D01*
X21158Y165628D01*
X21122Y165671D01*
X21084Y165710D01*
X21043Y165747D01*
X20999Y165781D01*
X20954Y165812D01*
X20906Y165840D01*
X20856Y165864D01*
X20805Y165884D01*
X20753Y165901D01*
X20699Y165915D01*
X20645Y165924D01*
X20590Y165930D01*
X20535Y165932D01*
X20140Y165932D01*
X20140Y164352D01*
X18955Y167454D02*
X22511Y167454D01*
X18955Y167454D02*
X18955Y168442D01*
X18954Y168442D02*
X18956Y168489D01*
X18961Y168535D01*
X18970Y168580D01*
X18983Y168625D01*
X18999Y168669D01*
X19019Y168711D01*
X19041Y168752D01*
X19067Y168791D01*
X19096Y168827D01*
X19128Y168861D01*
X19162Y168893D01*
X19198Y168922D01*
X19237Y168948D01*
X19278Y168970D01*
X19320Y168990D01*
X19364Y169006D01*
X19409Y169019D01*
X19454Y169028D01*
X19500Y169033D01*
X19547Y169035D01*
X19547Y169034D02*
X20733Y169034D01*
X20733Y169035D02*
X20780Y169033D01*
X20826Y169028D01*
X20871Y169019D01*
X20916Y169006D01*
X20960Y168990D01*
X21002Y168970D01*
X21043Y168948D01*
X21082Y168922D01*
X21118Y168893D01*
X21152Y168861D01*
X21184Y168827D01*
X21213Y168791D01*
X21239Y168752D01*
X21261Y168711D01*
X21281Y168669D01*
X21297Y168625D01*
X21310Y168580D01*
X21319Y168535D01*
X21324Y168488D01*
X21326Y168442D01*
X21325Y168442D02*
X21325Y167454D01*
X18955Y171002D02*
X18955Y171990D01*
X18954Y171002D02*
X18956Y170955D01*
X18961Y170909D01*
X18970Y170864D01*
X18983Y170819D01*
X18999Y170775D01*
X19019Y170733D01*
X19041Y170692D01*
X19067Y170653D01*
X19096Y170617D01*
X19128Y170583D01*
X19162Y170551D01*
X19198Y170522D01*
X19237Y170496D01*
X19278Y170474D01*
X19320Y170454D01*
X19364Y170438D01*
X19409Y170425D01*
X19454Y170416D01*
X19500Y170411D01*
X19547Y170409D01*
X19547Y170410D02*
X20535Y170410D01*
X20590Y170412D01*
X20645Y170418D01*
X20699Y170427D01*
X20753Y170441D01*
X20805Y170458D01*
X20856Y170478D01*
X20906Y170502D01*
X20954Y170530D01*
X20999Y170561D01*
X21043Y170595D01*
X21084Y170632D01*
X21122Y170671D01*
X21158Y170714D01*
X21190Y170758D01*
X21219Y170805D01*
X21245Y170854D01*
X21267Y170904D01*
X21286Y170956D01*
X21302Y171009D01*
X21313Y171063D01*
X21321Y171117D01*
X21325Y171172D01*
X21325Y171228D01*
X21321Y171283D01*
X21313Y171337D01*
X21302Y171391D01*
X21286Y171444D01*
X21267Y171496D01*
X21245Y171546D01*
X21219Y171595D01*
X21190Y171642D01*
X21158Y171686D01*
X21122Y171729D01*
X21084Y171768D01*
X21043Y171805D01*
X20999Y171839D01*
X20954Y171870D01*
X20906Y171898D01*
X20856Y171922D01*
X20805Y171942D01*
X20753Y171959D01*
X20699Y171973D01*
X20645Y171982D01*
X20590Y171988D01*
X20535Y171990D01*
X20140Y171990D01*
X20140Y170410D01*
X18955Y173514D02*
X21325Y173514D01*
X21325Y174699D01*
X20930Y174699D01*
X21325Y175497D02*
X21325Y176682D01*
X22511Y175892D02*
X19547Y175892D01*
X19547Y175891D02*
X19500Y175893D01*
X19454Y175898D01*
X19409Y175907D01*
X19364Y175920D01*
X19320Y175936D01*
X19278Y175956D01*
X19237Y175978D01*
X19198Y176004D01*
X19162Y176033D01*
X19128Y176065D01*
X19096Y176099D01*
X19067Y176135D01*
X19041Y176174D01*
X19019Y176215D01*
X18999Y176257D01*
X18983Y176301D01*
X18970Y176346D01*
X18961Y176391D01*
X18956Y176437D01*
X18954Y176484D01*
X18955Y176484D02*
X18955Y176682D01*
X30702Y136970D02*
X34512Y136970D01*
X34512Y138028D01*
X34510Y138092D01*
X34504Y138156D01*
X34495Y138219D01*
X34481Y138281D01*
X34464Y138343D01*
X34443Y138403D01*
X34419Y138462D01*
X34391Y138520D01*
X34359Y138575D01*
X34325Y138629D01*
X34287Y138680D01*
X34246Y138730D01*
X34202Y138776D01*
X34156Y138820D01*
X34106Y138861D01*
X34055Y138899D01*
X34001Y138933D01*
X33946Y138965D01*
X33888Y138993D01*
X33829Y139017D01*
X33769Y139038D01*
X33707Y139055D01*
X33645Y139069D01*
X33582Y139078D01*
X33518Y139084D01*
X33454Y139086D01*
X33390Y139084D01*
X33326Y139078D01*
X33263Y139069D01*
X33201Y139055D01*
X33139Y139038D01*
X33079Y139017D01*
X33020Y138993D01*
X32962Y138965D01*
X32907Y138933D01*
X32853Y138899D01*
X32802Y138861D01*
X32752Y138820D01*
X32706Y138776D01*
X32662Y138730D01*
X32621Y138680D01*
X32583Y138629D01*
X32549Y138575D01*
X32517Y138520D01*
X32489Y138462D01*
X32465Y138403D01*
X32444Y138343D01*
X32427Y138281D01*
X32413Y138219D01*
X32404Y138156D01*
X32398Y138092D01*
X32396Y138028D01*
X32396Y136970D01*
X33242Y140566D02*
X30702Y140566D01*
X33242Y140566D02*
X33242Y141836D01*
X32819Y141836D01*
X32396Y142985D02*
X31549Y142985D01*
X32396Y142985D02*
X32453Y142987D01*
X32509Y142993D01*
X32565Y143002D01*
X32620Y143015D01*
X32674Y143032D01*
X32727Y143052D01*
X32778Y143076D01*
X32828Y143103D01*
X32875Y143134D01*
X32921Y143167D01*
X32964Y143204D01*
X33005Y143243D01*
X33043Y143285D01*
X33078Y143330D01*
X33110Y143376D01*
X33139Y143425D01*
X33164Y143475D01*
X33186Y143528D01*
X33205Y143581D01*
X33220Y143636D01*
X33231Y143691D01*
X33239Y143747D01*
X33243Y143804D01*
X33243Y143860D01*
X33239Y143917D01*
X33231Y143973D01*
X33220Y144028D01*
X33205Y144083D01*
X33186Y144136D01*
X33164Y144189D01*
X33139Y144239D01*
X33110Y144288D01*
X33078Y144334D01*
X33043Y144379D01*
X33005Y144421D01*
X32964Y144460D01*
X32921Y144497D01*
X32875Y144530D01*
X32828Y144561D01*
X32778Y144588D01*
X32727Y144612D01*
X32674Y144632D01*
X32620Y144649D01*
X32565Y144662D01*
X32509Y144671D01*
X32453Y144677D01*
X32396Y144679D01*
X32396Y144678D02*
X31549Y144678D01*
X31549Y144679D02*
X31492Y144677D01*
X31436Y144671D01*
X31380Y144662D01*
X31325Y144649D01*
X31271Y144632D01*
X31218Y144612D01*
X31167Y144588D01*
X31117Y144561D01*
X31070Y144530D01*
X31024Y144497D01*
X30981Y144460D01*
X30940Y144421D01*
X30902Y144379D01*
X30867Y144334D01*
X30835Y144288D01*
X30806Y144239D01*
X30781Y144189D01*
X30759Y144136D01*
X30740Y144083D01*
X30725Y144028D01*
X30714Y143973D01*
X30706Y143917D01*
X30702Y143860D01*
X30702Y143804D01*
X30706Y143747D01*
X30714Y143691D01*
X30725Y143636D01*
X30740Y143581D01*
X30759Y143528D01*
X30781Y143475D01*
X30806Y143425D01*
X30835Y143376D01*
X30867Y143330D01*
X30902Y143285D01*
X30940Y143243D01*
X30981Y143204D01*
X31024Y143167D01*
X31070Y143134D01*
X31117Y143103D01*
X31167Y143076D01*
X31218Y143052D01*
X31271Y143032D01*
X31325Y143015D01*
X31380Y143002D01*
X31436Y142993D01*
X31492Y142987D01*
X31549Y142985D01*
X30702Y146294D02*
X34512Y146294D01*
X30702Y146294D02*
X30702Y147352D01*
X30704Y147399D01*
X30709Y147447D01*
X30718Y147493D01*
X30730Y147539D01*
X30746Y147584D01*
X30765Y147628D01*
X30787Y147670D01*
X30812Y147710D01*
X30841Y147748D01*
X30872Y147784D01*
X30905Y147817D01*
X30941Y147848D01*
X30979Y147877D01*
X31020Y147902D01*
X31061Y147924D01*
X31105Y147943D01*
X31150Y147959D01*
X31196Y147971D01*
X31242Y147980D01*
X31290Y147985D01*
X31337Y147987D01*
X32607Y147987D01*
X32654Y147985D01*
X32702Y147980D01*
X32748Y147971D01*
X32794Y147959D01*
X32839Y147943D01*
X32883Y147924D01*
X32925Y147902D01*
X32965Y147877D01*
X33003Y147848D01*
X33039Y147817D01*
X33072Y147784D01*
X33103Y147748D01*
X33132Y147710D01*
X33157Y147670D01*
X33179Y147628D01*
X33198Y147584D01*
X33214Y147539D01*
X33226Y147493D01*
X33235Y147447D01*
X33240Y147399D01*
X33242Y147352D01*
X33242Y146294D01*
X30702Y150082D02*
X30702Y151140D01*
X30702Y150082D02*
X30704Y150035D01*
X30709Y149987D01*
X30718Y149941D01*
X30730Y149895D01*
X30746Y149850D01*
X30765Y149806D01*
X30787Y149765D01*
X30812Y149724D01*
X30841Y149686D01*
X30872Y149650D01*
X30905Y149617D01*
X30941Y149586D01*
X30979Y149557D01*
X31020Y149532D01*
X31061Y149510D01*
X31105Y149491D01*
X31150Y149475D01*
X31196Y149463D01*
X31242Y149454D01*
X31290Y149449D01*
X31337Y149447D01*
X32396Y149447D01*
X32396Y149446D02*
X32453Y149448D01*
X32509Y149454D01*
X32565Y149463D01*
X32620Y149476D01*
X32674Y149493D01*
X32727Y149513D01*
X32778Y149537D01*
X32828Y149564D01*
X32875Y149595D01*
X32921Y149628D01*
X32964Y149665D01*
X33005Y149704D01*
X33043Y149746D01*
X33078Y149791D01*
X33110Y149837D01*
X33139Y149886D01*
X33164Y149936D01*
X33186Y149989D01*
X33205Y150042D01*
X33220Y150097D01*
X33231Y150152D01*
X33239Y150208D01*
X33243Y150265D01*
X33243Y150321D01*
X33239Y150378D01*
X33231Y150434D01*
X33220Y150489D01*
X33205Y150544D01*
X33186Y150597D01*
X33164Y150650D01*
X33139Y150700D01*
X33110Y150749D01*
X33078Y150795D01*
X33043Y150840D01*
X33005Y150882D01*
X32964Y150921D01*
X32921Y150958D01*
X32875Y150991D01*
X32828Y151022D01*
X32778Y151049D01*
X32727Y151073D01*
X32674Y151093D01*
X32620Y151110D01*
X32565Y151123D01*
X32509Y151132D01*
X32453Y151138D01*
X32396Y151140D01*
X31972Y151140D01*
X31972Y149447D01*
X30702Y155747D02*
X30704Y155805D01*
X30710Y155862D01*
X30720Y155919D01*
X30733Y155976D01*
X30751Y156031D01*
X30772Y156084D01*
X30797Y156137D01*
X30825Y156187D01*
X30857Y156235D01*
X30892Y156282D01*
X30930Y156325D01*
X30971Y156366D01*
X31014Y156404D01*
X31061Y156439D01*
X31109Y156471D01*
X31159Y156499D01*
X31212Y156524D01*
X31265Y156545D01*
X31320Y156563D01*
X31377Y156576D01*
X31434Y156586D01*
X31491Y156592D01*
X31549Y156594D01*
X30703Y155747D02*
X30705Y155664D01*
X30711Y155581D01*
X30720Y155499D01*
X30734Y155417D01*
X30751Y155336D01*
X30772Y155255D01*
X30797Y155176D01*
X30825Y155098D01*
X30857Y155021D01*
X30892Y154946D01*
X30931Y154873D01*
X30974Y154801D01*
X31019Y154732D01*
X31068Y154665D01*
X31120Y154600D01*
X31174Y154537D01*
X31232Y154477D01*
X33666Y154583D02*
X33721Y154585D01*
X33777Y154590D01*
X33831Y154599D01*
X33885Y154612D01*
X33938Y154628D01*
X33990Y154647D01*
X34041Y154670D01*
X34090Y154696D01*
X34137Y154726D01*
X34182Y154758D01*
X34224Y154793D01*
X34265Y154831D01*
X34303Y154872D01*
X34338Y154914D01*
X34370Y154959D01*
X34400Y155007D01*
X34426Y155055D01*
X34449Y155106D01*
X34468Y155158D01*
X34484Y155211D01*
X34497Y155265D01*
X34506Y155319D01*
X34511Y155375D01*
X34513Y155430D01*
X34511Y155509D01*
X34505Y155587D01*
X34496Y155665D01*
X34482Y155742D01*
X34465Y155819D01*
X34443Y155895D01*
X34419Y155969D01*
X34390Y156043D01*
X34358Y156114D01*
X34322Y156184D01*
X34283Y156253D01*
X34241Y156319D01*
X34195Y156383D01*
X32925Y155006D02*
X32955Y154959D01*
X32988Y154914D01*
X33024Y154871D01*
X33062Y154831D01*
X33103Y154793D01*
X33146Y154758D01*
X33192Y154726D01*
X33239Y154696D01*
X33289Y154670D01*
X33340Y154647D01*
X33392Y154628D01*
X33445Y154612D01*
X33500Y154599D01*
X33555Y154590D01*
X33610Y154585D01*
X33666Y154583D01*
X32290Y156171D02*
X32260Y156218D01*
X32227Y156263D01*
X32191Y156306D01*
X32153Y156346D01*
X32112Y156384D01*
X32069Y156419D01*
X32023Y156451D01*
X31976Y156481D01*
X31926Y156507D01*
X31875Y156530D01*
X31823Y156549D01*
X31770Y156565D01*
X31715Y156578D01*
X31660Y156587D01*
X31605Y156592D01*
X31549Y156594D01*
X32290Y156171D02*
X32925Y155007D01*
X33242Y157679D02*
X33242Y158949D01*
X34512Y158102D02*
X31337Y158102D01*
X31290Y158104D01*
X31242Y158109D01*
X31196Y158118D01*
X31150Y158130D01*
X31105Y158146D01*
X31061Y158165D01*
X31020Y158187D01*
X30979Y158212D01*
X30941Y158241D01*
X30905Y158272D01*
X30872Y158305D01*
X30841Y158341D01*
X30812Y158379D01*
X30787Y158420D01*
X30765Y158461D01*
X30746Y158505D01*
X30730Y158550D01*
X30718Y158596D01*
X30709Y158642D01*
X30704Y158690D01*
X30702Y158737D01*
X30702Y158949D01*
X32184Y161021D02*
X32184Y161974D01*
X32184Y161021D02*
X32182Y160968D01*
X32176Y160916D01*
X32167Y160863D01*
X32154Y160812D01*
X32137Y160762D01*
X32117Y160713D01*
X32093Y160666D01*
X32066Y160620D01*
X32036Y160577D01*
X32003Y160536D01*
X31967Y160497D01*
X31928Y160461D01*
X31887Y160428D01*
X31844Y160398D01*
X31798Y160371D01*
X31751Y160347D01*
X31702Y160327D01*
X31652Y160310D01*
X31601Y160297D01*
X31548Y160288D01*
X31496Y160282D01*
X31443Y160280D01*
X31390Y160282D01*
X31338Y160288D01*
X31285Y160297D01*
X31234Y160310D01*
X31184Y160327D01*
X31135Y160347D01*
X31088Y160371D01*
X31042Y160398D01*
X30999Y160428D01*
X30958Y160461D01*
X30919Y160497D01*
X30883Y160536D01*
X30850Y160577D01*
X30820Y160620D01*
X30793Y160666D01*
X30769Y160713D01*
X30749Y160762D01*
X30732Y160812D01*
X30719Y160863D01*
X30710Y160916D01*
X30704Y160968D01*
X30702Y161021D01*
X30702Y161974D01*
X32607Y161974D01*
X32654Y161972D01*
X32702Y161967D01*
X32748Y161958D01*
X32794Y161946D01*
X32839Y161930D01*
X32883Y161911D01*
X32925Y161889D01*
X32965Y161864D01*
X33003Y161835D01*
X33039Y161804D01*
X33072Y161771D01*
X33103Y161735D01*
X33132Y161697D01*
X33157Y161657D01*
X33179Y161615D01*
X33198Y161571D01*
X33214Y161526D01*
X33226Y161480D01*
X33235Y161434D01*
X33240Y161386D01*
X33242Y161339D01*
X33242Y160492D01*
X33242Y163287D02*
X33242Y164557D01*
X34512Y163710D02*
X31337Y163710D01*
X31290Y163712D01*
X31242Y163717D01*
X31196Y163726D01*
X31150Y163738D01*
X31105Y163754D01*
X31061Y163773D01*
X31020Y163795D01*
X30979Y163820D01*
X30941Y163849D01*
X30905Y163880D01*
X30872Y163913D01*
X30841Y163949D01*
X30812Y163987D01*
X30787Y164028D01*
X30765Y164069D01*
X30746Y164113D01*
X30730Y164158D01*
X30718Y164204D01*
X30709Y164250D01*
X30704Y164298D01*
X30702Y164345D01*
X30702Y164557D01*
X30702Y165899D02*
X33242Y165899D01*
X34301Y165793D02*
X34512Y165793D01*
X34512Y166005D01*
X34301Y166005D01*
X34301Y165793D01*
X32396Y167369D02*
X31549Y167369D01*
X32396Y167368D02*
X32453Y167370D01*
X32509Y167376D01*
X32565Y167385D01*
X32620Y167398D01*
X32674Y167415D01*
X32727Y167435D01*
X32778Y167459D01*
X32828Y167486D01*
X32875Y167517D01*
X32921Y167550D01*
X32964Y167587D01*
X33005Y167626D01*
X33043Y167668D01*
X33078Y167713D01*
X33110Y167759D01*
X33139Y167808D01*
X33164Y167858D01*
X33186Y167911D01*
X33205Y167964D01*
X33220Y168019D01*
X33231Y168074D01*
X33239Y168130D01*
X33243Y168187D01*
X33243Y168243D01*
X33239Y168300D01*
X33231Y168356D01*
X33220Y168411D01*
X33205Y168466D01*
X33186Y168519D01*
X33164Y168572D01*
X33139Y168622D01*
X33110Y168671D01*
X33078Y168717D01*
X33043Y168762D01*
X33005Y168804D01*
X32964Y168843D01*
X32921Y168880D01*
X32875Y168913D01*
X32828Y168944D01*
X32778Y168971D01*
X32727Y168995D01*
X32674Y169015D01*
X32620Y169032D01*
X32565Y169045D01*
X32509Y169054D01*
X32453Y169060D01*
X32396Y169062D01*
X31549Y169062D01*
X31492Y169060D01*
X31436Y169054D01*
X31380Y169045D01*
X31325Y169032D01*
X31271Y169015D01*
X31218Y168995D01*
X31167Y168971D01*
X31117Y168944D01*
X31070Y168913D01*
X31024Y168880D01*
X30981Y168843D01*
X30940Y168804D01*
X30902Y168762D01*
X30867Y168717D01*
X30835Y168671D01*
X30806Y168622D01*
X30781Y168572D01*
X30759Y168519D01*
X30740Y168466D01*
X30725Y168411D01*
X30714Y168356D01*
X30706Y168300D01*
X30702Y168243D01*
X30702Y168187D01*
X30706Y168130D01*
X30714Y168074D01*
X30725Y168019D01*
X30740Y167964D01*
X30759Y167911D01*
X30781Y167858D01*
X30806Y167808D01*
X30835Y167759D01*
X30867Y167713D01*
X30902Y167668D01*
X30940Y167626D01*
X30981Y167587D01*
X31024Y167550D01*
X31070Y167517D01*
X31117Y167486D01*
X31167Y167459D01*
X31218Y167435D01*
X31271Y167415D01*
X31325Y167398D01*
X31380Y167385D01*
X31436Y167376D01*
X31492Y167370D01*
X31549Y167368D01*
X30702Y170660D02*
X33242Y170660D01*
X33242Y171719D01*
X33240Y171766D01*
X33235Y171814D01*
X33226Y171860D01*
X33214Y171906D01*
X33198Y171951D01*
X33179Y171995D01*
X33157Y172037D01*
X33132Y172077D01*
X33103Y172115D01*
X33072Y172151D01*
X33039Y172184D01*
X33003Y172215D01*
X32965Y172244D01*
X32925Y172269D01*
X32883Y172291D01*
X32839Y172310D01*
X32794Y172326D01*
X32748Y172338D01*
X32702Y172347D01*
X32654Y172352D01*
X32607Y172354D01*
X30702Y172354D01*
X32819Y176105D02*
X32819Y177164D01*
X32817Y177228D01*
X32811Y177292D01*
X32802Y177355D01*
X32788Y177417D01*
X32771Y177479D01*
X32750Y177539D01*
X32726Y177598D01*
X32698Y177656D01*
X32666Y177711D01*
X32632Y177765D01*
X32594Y177816D01*
X32553Y177866D01*
X32509Y177912D01*
X32463Y177956D01*
X32413Y177997D01*
X32362Y178035D01*
X32308Y178069D01*
X32253Y178101D01*
X32195Y178129D01*
X32136Y178153D01*
X32076Y178174D01*
X32014Y178191D01*
X31952Y178205D01*
X31889Y178214D01*
X31825Y178220D01*
X31761Y178222D01*
X31697Y178220D01*
X31633Y178214D01*
X31570Y178205D01*
X31508Y178191D01*
X31446Y178174D01*
X31386Y178153D01*
X31327Y178129D01*
X31269Y178101D01*
X31214Y178069D01*
X31160Y178035D01*
X31109Y177997D01*
X31059Y177956D01*
X31013Y177912D01*
X30969Y177866D01*
X30928Y177816D01*
X30890Y177765D01*
X30856Y177711D01*
X30824Y177656D01*
X30796Y177598D01*
X30772Y177539D01*
X30751Y177479D01*
X30734Y177417D01*
X30720Y177355D01*
X30711Y177292D01*
X30705Y177228D01*
X30703Y177164D01*
X30702Y177164D02*
X30702Y176105D01*
X34512Y176105D01*
X34512Y177164D01*
X34513Y177164D02*
X34511Y177221D01*
X34505Y177277D01*
X34496Y177333D01*
X34483Y177388D01*
X34466Y177442D01*
X34446Y177495D01*
X34422Y177546D01*
X34395Y177596D01*
X34364Y177643D01*
X34331Y177689D01*
X34294Y177732D01*
X34255Y177773D01*
X34213Y177811D01*
X34168Y177846D01*
X34122Y177878D01*
X34073Y177907D01*
X34023Y177932D01*
X33970Y177954D01*
X33917Y177973D01*
X33862Y177988D01*
X33807Y177999D01*
X33751Y178007D01*
X33694Y178011D01*
X33638Y178011D01*
X33581Y178007D01*
X33525Y177999D01*
X33470Y177988D01*
X33415Y177973D01*
X33362Y177954D01*
X33309Y177932D01*
X33259Y177907D01*
X33210Y177878D01*
X33164Y177846D01*
X33119Y177811D01*
X33077Y177773D01*
X33038Y177732D01*
X33001Y177689D01*
X32968Y177643D01*
X32937Y177596D01*
X32910Y177546D01*
X32886Y177495D01*
X32866Y177442D01*
X32849Y177388D01*
X32836Y177333D01*
X32827Y177277D01*
X32821Y177221D01*
X32819Y177164D01*
X32396Y179561D02*
X31549Y179561D01*
X32396Y179560D02*
X32453Y179562D01*
X32509Y179568D01*
X32565Y179577D01*
X32620Y179590D01*
X32674Y179607D01*
X32727Y179627D01*
X32778Y179651D01*
X32828Y179678D01*
X32875Y179709D01*
X32921Y179742D01*
X32964Y179779D01*
X33005Y179818D01*
X33043Y179860D01*
X33078Y179905D01*
X33110Y179951D01*
X33139Y180000D01*
X33164Y180050D01*
X33186Y180103D01*
X33205Y180156D01*
X33220Y180211D01*
X33231Y180266D01*
X33239Y180322D01*
X33243Y180379D01*
X33243Y180435D01*
X33239Y180492D01*
X33231Y180548D01*
X33220Y180603D01*
X33205Y180658D01*
X33186Y180711D01*
X33164Y180764D01*
X33139Y180814D01*
X33110Y180863D01*
X33078Y180909D01*
X33043Y180954D01*
X33005Y180996D01*
X32964Y181035D01*
X32921Y181072D01*
X32875Y181105D01*
X32828Y181136D01*
X32778Y181163D01*
X32727Y181187D01*
X32674Y181207D01*
X32620Y181224D01*
X32565Y181237D01*
X32509Y181246D01*
X32453Y181252D01*
X32396Y181254D01*
X31549Y181254D01*
X31492Y181252D01*
X31436Y181246D01*
X31380Y181237D01*
X31325Y181224D01*
X31271Y181207D01*
X31218Y181187D01*
X31167Y181163D01*
X31117Y181136D01*
X31070Y181105D01*
X31024Y181072D01*
X30981Y181035D01*
X30940Y180996D01*
X30902Y180954D01*
X30867Y180909D01*
X30835Y180863D01*
X30806Y180814D01*
X30781Y180764D01*
X30759Y180711D01*
X30740Y180658D01*
X30725Y180603D01*
X30714Y180548D01*
X30706Y180492D01*
X30702Y180435D01*
X30702Y180379D01*
X30706Y180322D01*
X30714Y180266D01*
X30725Y180211D01*
X30740Y180156D01*
X30759Y180103D01*
X30781Y180050D01*
X30806Y180000D01*
X30835Y179951D01*
X30867Y179905D01*
X30902Y179860D01*
X30940Y179818D01*
X30981Y179779D01*
X31024Y179742D01*
X31070Y179709D01*
X31117Y179678D01*
X31167Y179651D01*
X31218Y179627D01*
X31271Y179607D01*
X31325Y179590D01*
X31380Y179577D01*
X31436Y179568D01*
X31492Y179562D01*
X31549Y179560D01*
X32184Y183454D02*
X32184Y184407D01*
X32184Y183454D02*
X32182Y183401D01*
X32176Y183349D01*
X32167Y183296D01*
X32154Y183245D01*
X32137Y183195D01*
X32117Y183146D01*
X32093Y183099D01*
X32066Y183053D01*
X32036Y183010D01*
X32003Y182969D01*
X31967Y182930D01*
X31928Y182894D01*
X31887Y182861D01*
X31844Y182831D01*
X31798Y182804D01*
X31751Y182780D01*
X31702Y182760D01*
X31652Y182743D01*
X31601Y182730D01*
X31548Y182721D01*
X31496Y182715D01*
X31443Y182713D01*
X31390Y182715D01*
X31338Y182721D01*
X31285Y182730D01*
X31234Y182743D01*
X31184Y182760D01*
X31135Y182780D01*
X31088Y182804D01*
X31042Y182831D01*
X30999Y182861D01*
X30958Y182894D01*
X30919Y182930D01*
X30883Y182969D01*
X30850Y183010D01*
X30820Y183053D01*
X30793Y183099D01*
X30769Y183146D01*
X30749Y183195D01*
X30732Y183245D01*
X30719Y183296D01*
X30710Y183349D01*
X30704Y183401D01*
X30702Y183454D01*
X30702Y184407D01*
X32607Y184407D01*
X32654Y184405D01*
X32702Y184400D01*
X32748Y184391D01*
X32794Y184379D01*
X32839Y184363D01*
X32883Y184344D01*
X32925Y184322D01*
X32965Y184297D01*
X33003Y184268D01*
X33039Y184237D01*
X33072Y184204D01*
X33103Y184168D01*
X33132Y184130D01*
X33157Y184090D01*
X33179Y184048D01*
X33198Y184004D01*
X33214Y183959D01*
X33226Y183913D01*
X33235Y183867D01*
X33240Y183819D01*
X33242Y183772D01*
X33242Y182925D01*
X33242Y186163D02*
X30702Y186163D01*
X33242Y186163D02*
X33242Y187433D01*
X32819Y187433D01*
X34512Y190259D02*
X30702Y190259D01*
X30702Y189201D01*
X30704Y189154D01*
X30709Y189106D01*
X30718Y189060D01*
X30730Y189014D01*
X30746Y188969D01*
X30765Y188925D01*
X30787Y188884D01*
X30812Y188843D01*
X30841Y188805D01*
X30872Y188769D01*
X30905Y188736D01*
X30941Y188705D01*
X30979Y188676D01*
X31020Y188651D01*
X31061Y188629D01*
X31105Y188610D01*
X31150Y188594D01*
X31196Y188582D01*
X31242Y188573D01*
X31290Y188568D01*
X31337Y188566D01*
X32607Y188566D01*
X32654Y188568D01*
X32702Y188573D01*
X32748Y188582D01*
X32794Y188594D01*
X32839Y188610D01*
X32883Y188629D01*
X32925Y188651D01*
X32965Y188676D01*
X33003Y188705D01*
X33039Y188736D01*
X33072Y188769D01*
X33103Y188805D01*
X33132Y188843D01*
X33157Y188884D01*
X33179Y188925D01*
X33198Y188969D01*
X33214Y189014D01*
X33226Y189060D01*
X33235Y189106D01*
X33240Y189154D01*
X33242Y189201D01*
X33242Y190259D01*
X26480Y178051D02*
X26530Y178049D01*
X26579Y178044D01*
X26629Y178035D01*
X26677Y178023D01*
X26724Y178007D01*
X26770Y177988D01*
X26815Y177965D01*
X26858Y177940D01*
X26899Y177912D01*
X26938Y177880D01*
X26974Y177846D01*
X27008Y177810D01*
X27040Y177771D01*
X27068Y177730D01*
X27093Y177687D01*
X27116Y177642D01*
X27135Y177596D01*
X27151Y177549D01*
X27163Y177501D01*
X27172Y177451D01*
X27177Y177402D01*
X27179Y177352D01*
X27178Y177352D02*
X27176Y177296D01*
X27171Y177239D01*
X27162Y177184D01*
X27150Y177129D01*
X27134Y177075D01*
X27115Y177022D01*
X27093Y176970D01*
X27067Y176920D01*
X27038Y176871D01*
X27006Y176824D01*
X26972Y176780D01*
X26935Y176738D01*
X26895Y176698D01*
X26852Y176660D01*
X26808Y176626D01*
X26761Y176594D01*
X26713Y176566D01*
X26662Y176540D01*
X26610Y176518D01*
X26557Y176499D01*
X25937Y177817D02*
X25973Y177853D01*
X26011Y177886D01*
X26052Y177916D01*
X26095Y177943D01*
X26139Y177968D01*
X26185Y177989D01*
X26232Y178008D01*
X26280Y178023D01*
X26329Y178035D01*
X26379Y178043D01*
X26429Y178048D01*
X26480Y178050D01*
X25936Y177818D02*
X24384Y176498D01*
X24384Y178050D01*
X25781Y179241D02*
X25876Y179243D01*
X25971Y179249D01*
X26065Y179259D01*
X26159Y179272D01*
X26252Y179290D01*
X26345Y179311D01*
X26437Y179336D01*
X26527Y179365D01*
X26616Y179398D01*
X26704Y179434D01*
X26790Y179474D01*
X26790Y179475D02*
X26832Y179491D01*
X26872Y179510D01*
X26910Y179533D01*
X26947Y179558D01*
X26982Y179586D01*
X27014Y179616D01*
X27044Y179649D01*
X27071Y179684D01*
X27096Y179722D01*
X27117Y179761D01*
X27135Y179801D01*
X27151Y179843D01*
X27163Y179886D01*
X27171Y179929D01*
X27176Y179974D01*
X27178Y180018D01*
X27176Y180062D01*
X27171Y180107D01*
X27163Y180150D01*
X27151Y180193D01*
X27135Y180235D01*
X27117Y180275D01*
X27096Y180314D01*
X27071Y180352D01*
X27044Y180387D01*
X27014Y180420D01*
X26982Y180450D01*
X26947Y180478D01*
X26910Y180503D01*
X26872Y180526D01*
X26832Y180545D01*
X26790Y180561D01*
X26790Y180560D02*
X26704Y180600D01*
X26616Y180636D01*
X26527Y180669D01*
X26436Y180698D01*
X26345Y180723D01*
X26252Y180744D01*
X26159Y180762D01*
X26065Y180775D01*
X25971Y180785D01*
X25876Y180791D01*
X25781Y180793D01*
X25781Y179241D02*
X25686Y179243D01*
X25591Y179249D01*
X25497Y179259D01*
X25403Y179272D01*
X25310Y179290D01*
X25217Y179311D01*
X25126Y179336D01*
X25035Y179365D01*
X24946Y179398D01*
X24858Y179434D01*
X24772Y179474D01*
X24772Y179475D02*
X24730Y179491D01*
X24690Y179510D01*
X24652Y179533D01*
X24615Y179558D01*
X24580Y179586D01*
X24548Y179616D01*
X24518Y179649D01*
X24491Y179684D01*
X24466Y179722D01*
X24445Y179761D01*
X24427Y179801D01*
X24411Y179843D01*
X24399Y179886D01*
X24391Y179929D01*
X24386Y179974D01*
X24384Y180018D01*
X24772Y180561D02*
X24858Y180601D01*
X24946Y180637D01*
X25035Y180670D01*
X25125Y180699D01*
X25217Y180724D01*
X25310Y180745D01*
X25403Y180763D01*
X25497Y180776D01*
X25591Y180786D01*
X25686Y180792D01*
X25781Y180794D01*
X24772Y180561D02*
X24730Y180545D01*
X24690Y180526D01*
X24652Y180503D01*
X24615Y180478D01*
X24580Y180450D01*
X24548Y180420D01*
X24518Y180387D01*
X24491Y180352D01*
X24466Y180314D01*
X24445Y180275D01*
X24427Y180235D01*
X24411Y180193D01*
X24399Y180150D01*
X24391Y180107D01*
X24386Y180062D01*
X24384Y180018D01*
X25005Y179397D02*
X26557Y180638D01*
X26557Y181985D02*
X27178Y182761D01*
X24384Y182761D01*
X24384Y181985D02*
X24384Y183537D01*
X25160Y184728D02*
X25215Y184730D01*
X25270Y184736D01*
X25325Y184746D01*
X25379Y184759D01*
X25431Y184777D01*
X25482Y184798D01*
X25532Y184823D01*
X25580Y184851D01*
X25625Y184883D01*
X25668Y184918D01*
X25709Y184955D01*
X25746Y184996D01*
X25781Y185039D01*
X25813Y185084D01*
X25841Y185132D01*
X25866Y185182D01*
X25887Y185233D01*
X25905Y185285D01*
X25918Y185339D01*
X25928Y185394D01*
X25934Y185449D01*
X25936Y185504D01*
X25934Y185559D01*
X25928Y185614D01*
X25918Y185669D01*
X25905Y185723D01*
X25887Y185775D01*
X25866Y185826D01*
X25841Y185876D01*
X25813Y185924D01*
X25781Y185969D01*
X25746Y186012D01*
X25709Y186053D01*
X25668Y186090D01*
X25625Y186125D01*
X25580Y186157D01*
X25532Y186185D01*
X25482Y186210D01*
X25431Y186231D01*
X25379Y186249D01*
X25325Y186262D01*
X25270Y186272D01*
X25215Y186278D01*
X25160Y186280D01*
X25105Y186278D01*
X25050Y186272D01*
X24995Y186262D01*
X24941Y186249D01*
X24889Y186231D01*
X24838Y186210D01*
X24788Y186185D01*
X24740Y186157D01*
X24695Y186125D01*
X24652Y186090D01*
X24611Y186053D01*
X24574Y186012D01*
X24539Y185969D01*
X24507Y185924D01*
X24479Y185876D01*
X24454Y185826D01*
X24433Y185775D01*
X24415Y185723D01*
X24402Y185669D01*
X24392Y185614D01*
X24386Y185559D01*
X24384Y185504D01*
X24386Y185449D01*
X24392Y185394D01*
X24402Y185339D01*
X24415Y185285D01*
X24433Y185233D01*
X24454Y185182D01*
X24479Y185132D01*
X24507Y185084D01*
X24539Y185039D01*
X24574Y184996D01*
X24611Y184955D01*
X24652Y184918D01*
X24695Y184883D01*
X24740Y184851D01*
X24788Y184823D01*
X24838Y184798D01*
X24889Y184777D01*
X24941Y184759D01*
X24995Y184746D01*
X25050Y184736D01*
X25105Y184730D01*
X25160Y184728D01*
X26557Y184883D02*
X26606Y184885D01*
X26654Y184891D01*
X26702Y184900D01*
X26749Y184913D01*
X26795Y184930D01*
X26839Y184951D01*
X26881Y184975D01*
X26922Y185002D01*
X26960Y185032D01*
X26996Y185065D01*
X27029Y185101D01*
X27059Y185139D01*
X27086Y185180D01*
X27110Y185222D01*
X27131Y185266D01*
X27148Y185312D01*
X27161Y185359D01*
X27170Y185407D01*
X27176Y185455D01*
X27178Y185504D01*
X27176Y185553D01*
X27170Y185601D01*
X27161Y185649D01*
X27148Y185696D01*
X27131Y185742D01*
X27110Y185786D01*
X27086Y185828D01*
X27059Y185869D01*
X27029Y185907D01*
X26996Y185943D01*
X26960Y185976D01*
X26922Y186006D01*
X26881Y186033D01*
X26839Y186057D01*
X26795Y186078D01*
X26749Y186095D01*
X26702Y186108D01*
X26654Y186117D01*
X26606Y186123D01*
X26557Y186125D01*
X26508Y186123D01*
X26460Y186117D01*
X26412Y186108D01*
X26365Y186095D01*
X26319Y186078D01*
X26275Y186057D01*
X26233Y186033D01*
X26192Y186006D01*
X26154Y185976D01*
X26118Y185943D01*
X26085Y185907D01*
X26055Y185869D01*
X26028Y185828D01*
X26004Y185786D01*
X25983Y185742D01*
X25966Y185696D01*
X25953Y185649D01*
X25944Y185601D01*
X25938Y185553D01*
X25936Y185504D01*
X25938Y185455D01*
X25944Y185407D01*
X25953Y185359D01*
X25966Y185312D01*
X25983Y185266D01*
X26004Y185222D01*
X26028Y185180D01*
X26055Y185139D01*
X26085Y185101D01*
X26118Y185065D01*
X26154Y185032D01*
X26192Y185002D01*
X26233Y184975D01*
X26275Y184951D01*
X26319Y184930D01*
X26365Y184913D01*
X26412Y184900D01*
X26460Y184891D01*
X26508Y184885D01*
X26557Y184883D01*
X15081Y136363D02*
X15081Y135869D01*
X15082Y135869D02*
X15084Y135836D01*
X15089Y135803D01*
X15099Y135771D01*
X15111Y135741D01*
X15127Y135712D01*
X15147Y135684D01*
X15169Y135660D01*
X15193Y135638D01*
X15221Y135618D01*
X15250Y135602D01*
X15280Y135590D01*
X15312Y135580D01*
X15345Y135575D01*
X15378Y135573D01*
X15970Y135573D01*
X16003Y135575D01*
X16036Y135580D01*
X16068Y135590D01*
X16098Y135602D01*
X16127Y135618D01*
X16155Y135638D01*
X16179Y135660D01*
X16201Y135684D01*
X16221Y135712D01*
X16237Y135741D01*
X16249Y135771D01*
X16259Y135803D01*
X16264Y135836D01*
X16266Y135869D01*
X16267Y135869D02*
X16267Y136363D01*
X14785Y136363D01*
X14785Y136362D02*
X14752Y136360D01*
X14719Y136355D01*
X14687Y136345D01*
X14657Y136333D01*
X14628Y136317D01*
X14600Y136297D01*
X14576Y136275D01*
X14554Y136251D01*
X14534Y136223D01*
X14518Y136194D01*
X14506Y136164D01*
X14496Y136132D01*
X14491Y136099D01*
X14489Y136066D01*
X14489Y135671D01*
X15081Y137199D02*
X16267Y137199D01*
X16760Y137149D02*
X16859Y137149D01*
X16859Y137248D01*
X16760Y137248D01*
X16760Y137149D01*
X16267Y137798D02*
X16267Y138391D01*
X16859Y137996D02*
X15378Y137996D01*
X15345Y137998D01*
X15312Y138003D01*
X15280Y138013D01*
X15250Y138025D01*
X15221Y138041D01*
X15193Y138061D01*
X15169Y138083D01*
X15147Y138107D01*
X15127Y138135D01*
X15111Y138164D01*
X15099Y138194D01*
X15089Y138226D01*
X15084Y138259D01*
X15082Y138292D01*
X15081Y138292D02*
X15081Y138391D01*
X15081Y139181D02*
X16859Y139181D01*
X16267Y139181D02*
X16267Y139675D01*
X16266Y139675D02*
X16264Y139708D01*
X16259Y139741D01*
X16249Y139773D01*
X16237Y139803D01*
X16221Y139832D01*
X16201Y139860D01*
X16179Y139884D01*
X16155Y139906D01*
X16127Y139926D01*
X16098Y139942D01*
X16068Y139954D01*
X16036Y139964D01*
X16003Y139969D01*
X15970Y139971D01*
X15081Y139971D01*
X15378Y140888D02*
X16267Y140888D01*
X15378Y140888D02*
X15345Y140890D01*
X15312Y140895D01*
X15280Y140905D01*
X15250Y140917D01*
X15221Y140933D01*
X15193Y140953D01*
X15169Y140975D01*
X15147Y140999D01*
X15127Y141027D01*
X15111Y141056D01*
X15099Y141086D01*
X15089Y141118D01*
X15084Y141151D01*
X15082Y141184D01*
X15081Y141184D02*
X15081Y141678D01*
X16267Y141678D01*
X16859Y142607D02*
X15081Y142607D01*
X15081Y143101D01*
X15082Y143101D02*
X15084Y143134D01*
X15089Y143167D01*
X15099Y143199D01*
X15111Y143229D01*
X15127Y143258D01*
X15147Y143286D01*
X15169Y143310D01*
X15193Y143332D01*
X15221Y143352D01*
X15250Y143368D01*
X15280Y143380D01*
X15312Y143390D01*
X15345Y143395D01*
X15378Y143397D01*
X15970Y143397D01*
X16003Y143395D01*
X16036Y143390D01*
X16068Y143380D01*
X16098Y143368D01*
X16127Y143352D01*
X16155Y143332D01*
X16179Y143310D01*
X16201Y143286D01*
X16221Y143258D01*
X16237Y143229D01*
X16249Y143199D01*
X16259Y143167D01*
X16264Y143134D01*
X16266Y143101D01*
X16267Y143101D02*
X16267Y142607D01*
X15180Y144099D02*
X15081Y144099D01*
X15180Y144099D02*
X15180Y144198D01*
X15081Y144198D01*
X15081Y144099D01*
X15081Y145210D02*
X15081Y145605D01*
X15082Y145210D02*
X15084Y145177D01*
X15089Y145144D01*
X15099Y145112D01*
X15111Y145082D01*
X15127Y145053D01*
X15147Y145025D01*
X15169Y145001D01*
X15193Y144979D01*
X15221Y144959D01*
X15250Y144943D01*
X15280Y144931D01*
X15312Y144921D01*
X15345Y144916D01*
X15378Y144914D01*
X15970Y144914D01*
X16003Y144916D01*
X16036Y144921D01*
X16068Y144931D01*
X16098Y144943D01*
X16127Y144959D01*
X16155Y144979D01*
X16179Y145001D01*
X16201Y145025D01*
X16221Y145053D01*
X16237Y145082D01*
X16249Y145112D01*
X16259Y145144D01*
X16264Y145177D01*
X16266Y145210D01*
X16267Y145210D02*
X16267Y145605D01*
X15871Y146313D02*
X15476Y146313D01*
X15871Y146313D02*
X15910Y146315D01*
X15948Y146321D01*
X15986Y146330D01*
X16022Y146343D01*
X16057Y146360D01*
X16090Y146380D01*
X16122Y146403D01*
X16150Y146429D01*
X16176Y146457D01*
X16199Y146489D01*
X16219Y146522D01*
X16236Y146557D01*
X16249Y146593D01*
X16258Y146631D01*
X16264Y146669D01*
X16266Y146708D01*
X16264Y146747D01*
X16258Y146785D01*
X16249Y146823D01*
X16236Y146859D01*
X16219Y146894D01*
X16199Y146927D01*
X16176Y146959D01*
X16150Y146987D01*
X16122Y147013D01*
X16090Y147036D01*
X16057Y147056D01*
X16022Y147073D01*
X15986Y147086D01*
X15948Y147095D01*
X15910Y147101D01*
X15871Y147103D01*
X15871Y147104D02*
X15476Y147104D01*
X15476Y147103D02*
X15437Y147101D01*
X15399Y147095D01*
X15361Y147086D01*
X15325Y147073D01*
X15290Y147056D01*
X15257Y147036D01*
X15225Y147013D01*
X15197Y146987D01*
X15171Y146959D01*
X15148Y146927D01*
X15128Y146894D01*
X15111Y146859D01*
X15098Y146823D01*
X15089Y146785D01*
X15083Y146747D01*
X15081Y146708D01*
X15083Y146669D01*
X15089Y146631D01*
X15098Y146593D01*
X15111Y146557D01*
X15128Y146522D01*
X15148Y146489D01*
X15171Y146457D01*
X15197Y146429D01*
X15225Y146403D01*
X15257Y146380D01*
X15290Y146360D01*
X15325Y146343D01*
X15361Y146330D01*
X15399Y146321D01*
X15437Y146315D01*
X15476Y146313D01*
X15081Y148005D02*
X16267Y148005D01*
X16267Y148894D01*
X16266Y148894D02*
X16264Y148927D01*
X16259Y148960D01*
X16249Y148992D01*
X16237Y149022D01*
X16221Y149051D01*
X16201Y149079D01*
X16179Y149103D01*
X16155Y149125D01*
X16127Y149145D01*
X16098Y149161D01*
X16068Y149173D01*
X16036Y149183D01*
X16003Y149188D01*
X15970Y149190D01*
X15970Y149191D02*
X15081Y149191D01*
X15081Y148598D02*
X16267Y148598D01*
X14884Y150032D02*
X17057Y150822D01*
X16267Y151663D02*
X15081Y151663D01*
X16267Y151663D02*
X16267Y152552D01*
X16266Y152552D02*
X16264Y152585D01*
X16259Y152618D01*
X16249Y152650D01*
X16237Y152680D01*
X16221Y152709D01*
X16201Y152737D01*
X16179Y152761D01*
X16155Y152783D01*
X16127Y152803D01*
X16098Y152819D01*
X16068Y152831D01*
X16036Y152841D01*
X16003Y152846D01*
X15970Y152848D01*
X15081Y152848D01*
X15081Y152256D02*
X16267Y152256D01*
X15773Y154084D02*
X15773Y154528D01*
X15773Y154084D02*
X15771Y154048D01*
X15765Y154012D01*
X15756Y153977D01*
X15743Y153943D01*
X15727Y153911D01*
X15707Y153881D01*
X15684Y153852D01*
X15659Y153827D01*
X15630Y153804D01*
X15600Y153784D01*
X15568Y153768D01*
X15534Y153755D01*
X15499Y153746D01*
X15463Y153740D01*
X15427Y153738D01*
X15391Y153740D01*
X15355Y153746D01*
X15320Y153755D01*
X15286Y153768D01*
X15254Y153784D01*
X15224Y153804D01*
X15195Y153827D01*
X15170Y153852D01*
X15147Y153881D01*
X15127Y153911D01*
X15111Y153943D01*
X15098Y153977D01*
X15089Y154012D01*
X15083Y154048D01*
X15081Y154084D01*
X15081Y154528D01*
X15970Y154528D01*
X16003Y154526D01*
X16036Y154521D01*
X16068Y154511D01*
X16098Y154499D01*
X16127Y154483D01*
X16155Y154463D01*
X16179Y154441D01*
X16201Y154417D01*
X16221Y154389D01*
X16237Y154360D01*
X16249Y154330D01*
X16259Y154298D01*
X16264Y154265D01*
X16266Y154232D01*
X16267Y154232D02*
X16267Y153837D01*
X16267Y155232D02*
X16267Y155825D01*
X16859Y155430D02*
X15378Y155430D01*
X15345Y155432D01*
X15312Y155437D01*
X15280Y155447D01*
X15250Y155459D01*
X15221Y155475D01*
X15193Y155495D01*
X15169Y155517D01*
X15147Y155541D01*
X15127Y155569D01*
X15111Y155598D01*
X15099Y155628D01*
X15089Y155660D01*
X15084Y155693D01*
X15082Y155726D01*
X15081Y155726D02*
X15081Y155825D01*
X16267Y156390D02*
X16267Y156983D01*
X16859Y156588D02*
X15378Y156588D01*
X15345Y156590D01*
X15312Y156595D01*
X15280Y156605D01*
X15250Y156617D01*
X15221Y156633D01*
X15193Y156653D01*
X15169Y156675D01*
X15147Y156699D01*
X15127Y156727D01*
X15111Y156756D01*
X15099Y156786D01*
X15089Y156818D01*
X15084Y156851D01*
X15082Y156884D01*
X15081Y156884D02*
X15081Y156983D01*
X15081Y157997D02*
X15081Y158491D01*
X15082Y157997D02*
X15084Y157964D01*
X15089Y157931D01*
X15099Y157899D01*
X15111Y157869D01*
X15127Y157840D01*
X15147Y157812D01*
X15169Y157788D01*
X15193Y157766D01*
X15221Y157746D01*
X15250Y157730D01*
X15280Y157718D01*
X15312Y157708D01*
X15345Y157703D01*
X15378Y157701D01*
X15378Y157700D02*
X15970Y157700D01*
X15970Y157701D02*
X16003Y157703D01*
X16036Y157708D01*
X16068Y157718D01*
X16098Y157730D01*
X16127Y157746D01*
X16155Y157766D01*
X16179Y157788D01*
X16201Y157812D01*
X16221Y157840D01*
X16237Y157869D01*
X16249Y157899D01*
X16259Y157931D01*
X16264Y157964D01*
X16266Y157997D01*
X16267Y157997D02*
X16267Y158491D01*
X14785Y158491D01*
X14785Y158490D02*
X14752Y158488D01*
X14719Y158483D01*
X14687Y158473D01*
X14657Y158461D01*
X14628Y158445D01*
X14600Y158425D01*
X14576Y158403D01*
X14554Y158379D01*
X14534Y158351D01*
X14518Y158322D01*
X14506Y158292D01*
X14496Y158260D01*
X14491Y158227D01*
X14489Y158194D01*
X14489Y157799D01*
X15081Y159655D02*
X15081Y160149D01*
X15082Y159655D02*
X15084Y159622D01*
X15089Y159589D01*
X15099Y159557D01*
X15111Y159527D01*
X15127Y159498D01*
X15147Y159470D01*
X15169Y159446D01*
X15193Y159424D01*
X15221Y159404D01*
X15250Y159388D01*
X15280Y159376D01*
X15312Y159366D01*
X15345Y159361D01*
X15378Y159359D01*
X15378Y159358D02*
X15871Y159358D01*
X15910Y159360D01*
X15948Y159366D01*
X15986Y159375D01*
X16022Y159388D01*
X16057Y159405D01*
X16090Y159425D01*
X16122Y159448D01*
X16150Y159474D01*
X16176Y159502D01*
X16199Y159534D01*
X16219Y159567D01*
X16236Y159602D01*
X16249Y159638D01*
X16258Y159676D01*
X16264Y159714D01*
X16266Y159753D01*
X16264Y159792D01*
X16258Y159830D01*
X16249Y159868D01*
X16236Y159904D01*
X16219Y159939D01*
X16199Y159972D01*
X16176Y160004D01*
X16150Y160032D01*
X16122Y160058D01*
X16090Y160081D01*
X16057Y160101D01*
X16022Y160118D01*
X15986Y160131D01*
X15948Y160140D01*
X15910Y160146D01*
X15871Y160148D01*
X15871Y160149D02*
X15674Y160149D01*
X15674Y159358D01*
X15081Y161016D02*
X16859Y161016D01*
X15081Y161016D02*
X15081Y161510D01*
X15082Y161510D02*
X15084Y161543D01*
X15089Y161576D01*
X15099Y161608D01*
X15111Y161638D01*
X15127Y161667D01*
X15147Y161695D01*
X15169Y161719D01*
X15193Y161741D01*
X15221Y161761D01*
X15250Y161777D01*
X15280Y161789D01*
X15312Y161799D01*
X15345Y161804D01*
X15378Y161806D01*
X15378Y161807D02*
X15970Y161807D01*
X15970Y161806D02*
X16003Y161804D01*
X16036Y161799D01*
X16068Y161789D01*
X16098Y161777D01*
X16127Y161761D01*
X16155Y161741D01*
X16179Y161719D01*
X16201Y161695D01*
X16221Y161667D01*
X16237Y161638D01*
X16249Y161608D01*
X16259Y161576D01*
X16264Y161543D01*
X16266Y161510D01*
X16267Y161510D02*
X16267Y161016D01*
X15081Y162885D02*
X15081Y163379D01*
X15082Y162885D02*
X15084Y162852D01*
X15089Y162819D01*
X15099Y162787D01*
X15111Y162757D01*
X15127Y162728D01*
X15147Y162700D01*
X15169Y162676D01*
X15193Y162654D01*
X15221Y162634D01*
X15250Y162618D01*
X15280Y162606D01*
X15312Y162596D01*
X15345Y162591D01*
X15378Y162589D01*
X15871Y162589D01*
X15910Y162591D01*
X15948Y162597D01*
X15986Y162606D01*
X16022Y162619D01*
X16057Y162636D01*
X16090Y162656D01*
X16122Y162679D01*
X16150Y162705D01*
X16176Y162733D01*
X16199Y162765D01*
X16219Y162798D01*
X16236Y162833D01*
X16249Y162869D01*
X16258Y162907D01*
X16264Y162945D01*
X16266Y162984D01*
X16264Y163023D01*
X16258Y163061D01*
X16249Y163099D01*
X16236Y163135D01*
X16219Y163170D01*
X16199Y163203D01*
X16176Y163235D01*
X16150Y163263D01*
X16122Y163289D01*
X16090Y163312D01*
X16057Y163332D01*
X16022Y163349D01*
X15986Y163362D01*
X15948Y163371D01*
X15910Y163377D01*
X15871Y163379D01*
X15674Y163379D01*
X15674Y162589D01*
X15081Y164249D02*
X16267Y164249D01*
X16267Y164841D01*
X16069Y164841D01*
X16267Y165290D02*
X16267Y165883D01*
X16859Y165488D02*
X15378Y165488D01*
X15345Y165490D01*
X15312Y165495D01*
X15280Y165505D01*
X15250Y165517D01*
X15221Y165533D01*
X15193Y165553D01*
X15169Y165575D01*
X15147Y165599D01*
X15127Y165627D01*
X15111Y165656D01*
X15099Y165686D01*
X15089Y165718D01*
X15084Y165751D01*
X15082Y165784D01*
X15081Y165784D02*
X15081Y165883D01*
X14884Y166551D02*
X17057Y167342D01*
X15081Y168372D02*
X15081Y168866D01*
X15082Y168372D02*
X15084Y168339D01*
X15089Y168306D01*
X15099Y168274D01*
X15111Y168244D01*
X15127Y168215D01*
X15147Y168187D01*
X15169Y168163D01*
X15193Y168141D01*
X15221Y168121D01*
X15250Y168105D01*
X15280Y168093D01*
X15312Y168083D01*
X15345Y168078D01*
X15378Y168076D01*
X15378Y168075D02*
X15871Y168075D01*
X15910Y168077D01*
X15948Y168083D01*
X15986Y168092D01*
X16022Y168105D01*
X16057Y168122D01*
X16090Y168142D01*
X16122Y168165D01*
X16150Y168191D01*
X16176Y168219D01*
X16199Y168251D01*
X16219Y168284D01*
X16236Y168319D01*
X16249Y168355D01*
X16258Y168393D01*
X16264Y168431D01*
X16266Y168470D01*
X16264Y168509D01*
X16258Y168547D01*
X16249Y168585D01*
X16236Y168621D01*
X16219Y168656D01*
X16199Y168689D01*
X16176Y168721D01*
X16150Y168749D01*
X16122Y168775D01*
X16090Y168798D01*
X16057Y168818D01*
X16022Y168835D01*
X15986Y168848D01*
X15948Y168857D01*
X15910Y168863D01*
X15871Y168865D01*
X15871Y168866D02*
X15674Y168866D01*
X15674Y168075D01*
X15773Y169994D02*
X15773Y170438D01*
X15773Y169994D02*
X15771Y169958D01*
X15765Y169922D01*
X15756Y169887D01*
X15743Y169853D01*
X15727Y169821D01*
X15707Y169791D01*
X15684Y169762D01*
X15659Y169737D01*
X15630Y169714D01*
X15600Y169694D01*
X15568Y169678D01*
X15534Y169665D01*
X15499Y169656D01*
X15463Y169650D01*
X15427Y169648D01*
X15391Y169650D01*
X15355Y169656D01*
X15320Y169665D01*
X15286Y169678D01*
X15254Y169694D01*
X15224Y169714D01*
X15195Y169737D01*
X15170Y169762D01*
X15147Y169791D01*
X15127Y169821D01*
X15111Y169853D01*
X15098Y169887D01*
X15089Y169922D01*
X15083Y169958D01*
X15081Y169994D01*
X15081Y170438D01*
X15970Y170438D01*
X16003Y170436D01*
X16036Y170431D01*
X16068Y170421D01*
X16098Y170409D01*
X16127Y170393D01*
X16155Y170373D01*
X16179Y170351D01*
X16201Y170327D01*
X16221Y170299D01*
X16237Y170270D01*
X16249Y170240D01*
X16259Y170208D01*
X16264Y170175D01*
X16266Y170142D01*
X16267Y170142D02*
X16267Y169747D01*
X15081Y171590D02*
X15081Y172084D01*
X15082Y171590D02*
X15084Y171557D01*
X15089Y171524D01*
X15099Y171492D01*
X15111Y171462D01*
X15127Y171433D01*
X15147Y171405D01*
X15169Y171381D01*
X15193Y171359D01*
X15221Y171339D01*
X15250Y171323D01*
X15280Y171311D01*
X15312Y171301D01*
X15345Y171296D01*
X15378Y171294D01*
X15970Y171294D01*
X16003Y171296D01*
X16036Y171301D01*
X16068Y171311D01*
X16098Y171323D01*
X16127Y171339D01*
X16155Y171359D01*
X16179Y171381D01*
X16201Y171405D01*
X16221Y171433D01*
X16237Y171462D01*
X16249Y171492D01*
X16259Y171524D01*
X16264Y171557D01*
X16266Y171590D01*
X16267Y171590D02*
X16267Y172084D01*
X14785Y172084D01*
X14752Y172082D01*
X14719Y172077D01*
X14687Y172067D01*
X14657Y172055D01*
X14628Y172039D01*
X14600Y172019D01*
X14576Y171997D01*
X14554Y171973D01*
X14534Y171945D01*
X14518Y171916D01*
X14506Y171886D01*
X14496Y171854D01*
X14491Y171821D01*
X14489Y171788D01*
X14489Y171393D01*
X15378Y172966D02*
X16859Y172966D01*
X15378Y172966D02*
X15345Y172968D01*
X15312Y172973D01*
X15280Y172983D01*
X15250Y172995D01*
X15221Y173011D01*
X15193Y173031D01*
X15169Y173053D01*
X15147Y173077D01*
X15127Y173105D01*
X15111Y173134D01*
X15099Y173164D01*
X15089Y173196D01*
X15084Y173229D01*
X15082Y173262D01*
X15081Y174224D02*
X15081Y174718D01*
X15082Y174224D02*
X15084Y174191D01*
X15089Y174158D01*
X15099Y174126D01*
X15111Y174096D01*
X15127Y174067D01*
X15147Y174039D01*
X15169Y174015D01*
X15193Y173993D01*
X15221Y173973D01*
X15250Y173957D01*
X15280Y173945D01*
X15312Y173935D01*
X15345Y173930D01*
X15378Y173928D01*
X15378Y173927D02*
X15871Y173927D01*
X15910Y173929D01*
X15948Y173935D01*
X15986Y173944D01*
X16022Y173957D01*
X16057Y173974D01*
X16090Y173994D01*
X16122Y174017D01*
X16150Y174043D01*
X16176Y174071D01*
X16199Y174103D01*
X16219Y174136D01*
X16236Y174171D01*
X16249Y174207D01*
X16258Y174245D01*
X16264Y174283D01*
X16266Y174322D01*
X16264Y174361D01*
X16258Y174399D01*
X16249Y174437D01*
X16236Y174473D01*
X16219Y174508D01*
X16199Y174541D01*
X16176Y174573D01*
X16150Y174601D01*
X16122Y174627D01*
X16090Y174650D01*
X16057Y174670D01*
X16022Y174687D01*
X15986Y174700D01*
X15948Y174709D01*
X15910Y174715D01*
X15871Y174717D01*
X15871Y174718D02*
X15674Y174718D01*
X15674Y173927D01*
X15081Y175924D02*
X15081Y176319D01*
X15081Y175924D02*
X15083Y175885D01*
X15089Y175847D01*
X15098Y175809D01*
X15111Y175773D01*
X15128Y175738D01*
X15148Y175705D01*
X15171Y175673D01*
X15197Y175645D01*
X15225Y175619D01*
X15257Y175596D01*
X15290Y175576D01*
X15325Y175559D01*
X15361Y175546D01*
X15399Y175537D01*
X15437Y175531D01*
X15476Y175529D01*
X16464Y175529D01*
X16503Y175531D01*
X16541Y175537D01*
X16579Y175546D01*
X16615Y175559D01*
X16650Y175576D01*
X16683Y175596D01*
X16715Y175619D01*
X16743Y175645D01*
X16769Y175673D01*
X16792Y175705D01*
X16812Y175738D01*
X16829Y175773D01*
X16842Y175809D01*
X16851Y175847D01*
X16857Y175885D01*
X16859Y175924D01*
X16859Y176319D01*
X16267Y177005D02*
X15081Y177005D01*
X16760Y176955D02*
X16859Y176955D01*
X16859Y177054D01*
X16760Y177054D01*
X16760Y176955D01*
X16267Y177842D02*
X15081Y177842D01*
X16267Y177842D02*
X16267Y178435D01*
X16069Y178435D01*
X15081Y179347D02*
X15081Y179742D01*
X15082Y179347D02*
X15084Y179314D01*
X15089Y179281D01*
X15099Y179249D01*
X15111Y179219D01*
X15127Y179190D01*
X15147Y179162D01*
X15169Y179138D01*
X15193Y179116D01*
X15221Y179096D01*
X15250Y179080D01*
X15280Y179068D01*
X15312Y179058D01*
X15345Y179053D01*
X15378Y179051D01*
X15970Y179051D01*
X16003Y179053D01*
X16036Y179058D01*
X16068Y179068D01*
X16098Y179080D01*
X16127Y179096D01*
X16155Y179116D01*
X16179Y179138D01*
X16201Y179162D01*
X16221Y179190D01*
X16237Y179219D01*
X16249Y179249D01*
X16259Y179281D01*
X16264Y179314D01*
X16266Y179347D01*
X16267Y179347D02*
X16267Y179742D01*
X16267Y180511D02*
X15378Y180511D01*
X15345Y180513D01*
X15312Y180518D01*
X15280Y180528D01*
X15250Y180540D01*
X15221Y180556D01*
X15193Y180576D01*
X15169Y180598D01*
X15147Y180622D01*
X15127Y180650D01*
X15111Y180679D01*
X15099Y180709D01*
X15089Y180741D01*
X15084Y180774D01*
X15082Y180807D01*
X15081Y180807D02*
X15081Y181301D01*
X16267Y181301D01*
X16267Y182125D02*
X15081Y182125D01*
X16760Y182076D02*
X16859Y182076D01*
X16859Y182174D01*
X16760Y182174D01*
X16760Y182076D01*
X16267Y182724D02*
X16267Y183317D01*
X16859Y182922D02*
X15378Y182922D01*
X15345Y182924D01*
X15312Y182929D01*
X15280Y182939D01*
X15250Y182951D01*
X15221Y182967D01*
X15193Y182987D01*
X15169Y183009D01*
X15147Y183033D01*
X15127Y183061D01*
X15111Y183090D01*
X15099Y183120D01*
X15089Y183152D01*
X15084Y183185D01*
X15082Y183218D01*
X15081Y183218D02*
X15081Y183317D01*
X15773Y184195D02*
X15575Y184688D01*
X15772Y184195D02*
X15785Y184167D01*
X15802Y184141D01*
X15821Y184117D01*
X15844Y184095D01*
X15868Y184077D01*
X15895Y184061D01*
X15923Y184049D01*
X15953Y184040D01*
X15983Y184035D01*
X16014Y184034D01*
X16045Y184036D01*
X16075Y184042D01*
X16105Y184052D01*
X16133Y184065D01*
X16159Y184082D01*
X16183Y184101D01*
X16204Y184123D01*
X16223Y184148D01*
X16238Y184174D01*
X16251Y184203D01*
X16259Y184232D01*
X16265Y184263D01*
X16266Y184294D01*
X16267Y184293D02*
X16264Y184358D01*
X16257Y184424D01*
X16247Y184488D01*
X16233Y184552D01*
X16215Y184615D01*
X16193Y184677D01*
X16168Y184738D01*
X15575Y184688D02*
X15562Y184716D01*
X15545Y184742D01*
X15526Y184766D01*
X15503Y184788D01*
X15479Y184806D01*
X15452Y184822D01*
X15424Y184834D01*
X15394Y184843D01*
X15364Y184848D01*
X15333Y184849D01*
X15302Y184847D01*
X15272Y184841D01*
X15242Y184831D01*
X15214Y184818D01*
X15188Y184801D01*
X15164Y184782D01*
X15143Y184760D01*
X15124Y184735D01*
X15109Y184709D01*
X15096Y184680D01*
X15088Y184651D01*
X15082Y184620D01*
X15081Y184589D01*
X15081Y184590D02*
X15084Y184511D01*
X15091Y184432D01*
X15101Y184353D01*
X15116Y184275D01*
X15133Y184198D01*
X15155Y184122D01*
X15180Y184047D01*
D11*
X12700Y187325D02*
X12700Y136525D01*
X12700Y187325D02*
X15875Y190500D01*
X38100Y190500D01*
X38100Y136525D01*
X34925Y133350D01*
X12700Y133350D01*
X12700Y136525D01*
M02*
