G04 EAGLE Gerber X2 export*
%TF.Part,Single*%
%TF.FileFunction,Other,Top Silkscreen*%
%TF.FilePolarity,Positive*%
%TF.GenerationSoftware,Autodesk,EAGLE,9.1.0*%
%TF.CreationDate,2018-07-18T02:57:18Z*%
G75*
%MOMM*%
%FSLAX34Y34*%
%LPD*%
%AMOC8*
5,1,8,0,0,1.08239X$1,22.5*%
G01*
%ADD10C,0.152400*%
%ADD11C,0.025400*%


D10*
X50800Y50800D02*
X50800Y152400D01*
X152400Y152400D01*
X152400Y50800D01*
X50800Y50800D01*
D11*
X55203Y54102D02*
X55255Y54104D01*
X55307Y54109D01*
X55359Y54119D01*
X55410Y54132D01*
X55460Y54148D01*
X55508Y54168D01*
X55555Y54192D01*
X55600Y54219D01*
X55643Y54248D01*
X55684Y54281D01*
X55722Y54317D01*
X55758Y54355D01*
X55791Y54396D01*
X55820Y54439D01*
X55847Y54484D01*
X55871Y54531D01*
X55891Y54579D01*
X55907Y54629D01*
X55920Y54680D01*
X55930Y54732D01*
X55935Y54784D01*
X55937Y54836D01*
X55203Y54102D02*
X55127Y54104D01*
X55050Y54110D01*
X54974Y54119D01*
X54899Y54132D01*
X54824Y54149D01*
X54751Y54169D01*
X54678Y54194D01*
X54607Y54221D01*
X54537Y54252D01*
X54469Y54287D01*
X54402Y54325D01*
X54338Y54366D01*
X54275Y54410D01*
X54215Y54457D01*
X54158Y54508D01*
X54102Y54561D01*
X54193Y56670D02*
X54195Y56722D01*
X54200Y56774D01*
X54210Y56826D01*
X54223Y56877D01*
X54239Y56927D01*
X54259Y56975D01*
X54283Y57022D01*
X54310Y57067D01*
X54339Y57110D01*
X54372Y57151D01*
X54408Y57189D01*
X54446Y57225D01*
X54487Y57258D01*
X54530Y57287D01*
X54575Y57314D01*
X54622Y57338D01*
X54671Y57358D01*
X54720Y57374D01*
X54771Y57387D01*
X54823Y57397D01*
X54875Y57402D01*
X54927Y57404D01*
X55001Y57402D01*
X55074Y57396D01*
X55147Y57386D01*
X55220Y57372D01*
X55292Y57355D01*
X55362Y57333D01*
X55431Y57308D01*
X55499Y57279D01*
X55566Y57247D01*
X55630Y57211D01*
X55692Y57171D01*
X55753Y57129D01*
X54561Y56028D02*
X54517Y56056D01*
X54476Y56087D01*
X54437Y56120D01*
X54400Y56156D01*
X54365Y56195D01*
X54334Y56235D01*
X54305Y56278D01*
X54280Y56323D01*
X54257Y56369D01*
X54238Y56417D01*
X54222Y56466D01*
X54210Y56516D01*
X54201Y56567D01*
X54196Y56618D01*
X54194Y56670D01*
X55569Y55478D02*
X55613Y55450D01*
X55654Y55420D01*
X55693Y55386D01*
X55730Y55350D01*
X55765Y55311D01*
X55796Y55271D01*
X55825Y55228D01*
X55850Y55183D01*
X55873Y55137D01*
X55892Y55089D01*
X55908Y55040D01*
X55920Y54990D01*
X55929Y54939D01*
X55934Y54888D01*
X55936Y54836D01*
X55570Y55478D02*
X54561Y56028D01*
X57792Y55386D02*
X58618Y55386D01*
X57792Y55386D02*
X57743Y55384D01*
X57694Y55378D01*
X57646Y55369D01*
X57598Y55356D01*
X57552Y55339D01*
X57507Y55319D01*
X57464Y55296D01*
X57423Y55269D01*
X57384Y55239D01*
X57347Y55207D01*
X57313Y55171D01*
X57281Y55133D01*
X57253Y55093D01*
X57228Y55051D01*
X57206Y55007D01*
X57188Y54961D01*
X57173Y54914D01*
X57162Y54866D01*
X57154Y54818D01*
X57150Y54769D01*
X57150Y54719D01*
X57154Y54670D01*
X57162Y54622D01*
X57173Y54574D01*
X57188Y54527D01*
X57206Y54481D01*
X57228Y54437D01*
X57253Y54395D01*
X57281Y54355D01*
X57313Y54317D01*
X57347Y54281D01*
X57384Y54249D01*
X57423Y54219D01*
X57464Y54192D01*
X57507Y54169D01*
X57552Y54149D01*
X57598Y54132D01*
X57646Y54119D01*
X57694Y54110D01*
X57743Y54104D01*
X57792Y54102D01*
X58618Y54102D01*
X58618Y55753D01*
X58617Y55753D02*
X58615Y55798D01*
X58609Y55844D01*
X58600Y55888D01*
X58587Y55932D01*
X58571Y55974D01*
X58551Y56015D01*
X58527Y56054D01*
X58501Y56091D01*
X58472Y56126D01*
X58440Y56158D01*
X58405Y56187D01*
X58368Y56213D01*
X58329Y56237D01*
X58288Y56257D01*
X58246Y56273D01*
X58202Y56286D01*
X58158Y56295D01*
X58112Y56301D01*
X58067Y56303D01*
X57334Y56303D01*
X60213Y56303D02*
X60213Y54102D01*
X60213Y56303D02*
X61864Y56303D01*
X61909Y56301D01*
X61955Y56295D01*
X61999Y56286D01*
X62043Y56273D01*
X62085Y56257D01*
X62126Y56237D01*
X62165Y56213D01*
X62202Y56187D01*
X62237Y56158D01*
X62269Y56126D01*
X62298Y56091D01*
X62324Y56054D01*
X62348Y56015D01*
X62368Y55974D01*
X62384Y55932D01*
X62397Y55888D01*
X62406Y55844D01*
X62412Y55798D01*
X62414Y55753D01*
X62414Y54102D01*
X61313Y54102D02*
X61313Y56303D01*
X64009Y56303D02*
X64009Y53001D01*
X64009Y56303D02*
X64926Y56303D01*
X64971Y56301D01*
X65017Y56295D01*
X65061Y56286D01*
X65105Y56273D01*
X65147Y56257D01*
X65188Y56237D01*
X65227Y56213D01*
X65264Y56187D01*
X65299Y56158D01*
X65331Y56126D01*
X65360Y56091D01*
X65386Y56054D01*
X65410Y56015D01*
X65430Y55974D01*
X65446Y55932D01*
X65459Y55888D01*
X65468Y55844D01*
X65474Y55798D01*
X65476Y55753D01*
X65476Y54652D01*
X65474Y54607D01*
X65468Y54561D01*
X65459Y54517D01*
X65446Y54473D01*
X65430Y54431D01*
X65410Y54390D01*
X65386Y54351D01*
X65360Y54314D01*
X65331Y54279D01*
X65299Y54247D01*
X65264Y54218D01*
X65227Y54192D01*
X65188Y54168D01*
X65147Y54148D01*
X65105Y54132D01*
X65061Y54119D01*
X65017Y54110D01*
X64971Y54104D01*
X64926Y54102D01*
X64009Y54102D01*
X66812Y54652D02*
X66812Y57404D01*
X66813Y54652D02*
X66815Y54607D01*
X66821Y54561D01*
X66830Y54517D01*
X66843Y54473D01*
X66859Y54431D01*
X66879Y54390D01*
X66903Y54351D01*
X66929Y54314D01*
X66958Y54279D01*
X66990Y54247D01*
X67025Y54218D01*
X67062Y54192D01*
X67101Y54168D01*
X67142Y54148D01*
X67184Y54132D01*
X67228Y54119D01*
X67272Y54110D01*
X67318Y54104D01*
X67363Y54102D01*
X69024Y54102D02*
X69941Y54102D01*
X69024Y54102D02*
X68979Y54104D01*
X68933Y54110D01*
X68889Y54119D01*
X68845Y54132D01*
X68803Y54148D01*
X68762Y54168D01*
X68723Y54192D01*
X68686Y54218D01*
X68651Y54247D01*
X68619Y54279D01*
X68590Y54314D01*
X68564Y54351D01*
X68540Y54390D01*
X68520Y54431D01*
X68504Y54473D01*
X68491Y54517D01*
X68482Y54561D01*
X68476Y54607D01*
X68474Y54652D01*
X68474Y55570D01*
X68473Y55570D02*
X68475Y55622D01*
X68480Y55674D01*
X68490Y55726D01*
X68503Y55777D01*
X68519Y55827D01*
X68539Y55875D01*
X68563Y55922D01*
X68590Y55967D01*
X68619Y56010D01*
X68652Y56051D01*
X68688Y56089D01*
X68726Y56125D01*
X68767Y56158D01*
X68810Y56187D01*
X68855Y56214D01*
X68902Y56238D01*
X68950Y56258D01*
X69000Y56274D01*
X69051Y56287D01*
X69103Y56297D01*
X69155Y56302D01*
X69207Y56304D01*
X69259Y56302D01*
X69311Y56297D01*
X69363Y56287D01*
X69414Y56274D01*
X69464Y56258D01*
X69512Y56238D01*
X69559Y56214D01*
X69604Y56187D01*
X69647Y56158D01*
X69688Y56125D01*
X69726Y56089D01*
X69762Y56051D01*
X69795Y56010D01*
X69824Y55967D01*
X69851Y55922D01*
X69875Y55875D01*
X69895Y55827D01*
X69911Y55777D01*
X69924Y55726D01*
X69934Y55674D01*
X69939Y55622D01*
X69941Y55570D01*
X69941Y55203D01*
X68474Y55203D01*
X17554Y144554D02*
X17089Y144554D01*
X17554Y144554D02*
X17554Y143002D01*
X16623Y143002D01*
X16574Y143004D01*
X16526Y143010D01*
X16478Y143019D01*
X16431Y143032D01*
X16385Y143049D01*
X16341Y143070D01*
X16299Y143094D01*
X16258Y143121D01*
X16220Y143151D01*
X16184Y143184D01*
X16151Y143220D01*
X16121Y143258D01*
X16094Y143299D01*
X16070Y143341D01*
X16049Y143385D01*
X16032Y143431D01*
X16019Y143478D01*
X16010Y143526D01*
X16004Y143574D01*
X16002Y143623D01*
X16002Y145175D01*
X16004Y145224D01*
X16010Y145272D01*
X16019Y145320D01*
X16032Y145367D01*
X16049Y145413D01*
X16070Y145457D01*
X16094Y145499D01*
X16121Y145540D01*
X16151Y145578D01*
X16184Y145614D01*
X16220Y145647D01*
X16258Y145677D01*
X16299Y145704D01*
X16341Y145728D01*
X16385Y145749D01*
X16431Y145766D01*
X16478Y145779D01*
X16526Y145788D01*
X16574Y145794D01*
X16623Y145796D01*
X17554Y145796D01*
X19613Y145796D02*
X18681Y143002D01*
X20544Y143002D02*
X19613Y145796D01*
X20311Y143701D02*
X18914Y143701D01*
X22173Y143002D02*
X22173Y145796D01*
X21397Y145796D02*
X22949Y145796D01*
X24054Y143002D02*
X25296Y143002D01*
X24054Y143002D02*
X24054Y145796D01*
X25296Y145796D01*
X24986Y144554D02*
X24054Y144554D01*
X163139Y58829D02*
X163604Y58829D01*
X163604Y57277D01*
X162673Y57277D01*
X162624Y57279D01*
X162576Y57285D01*
X162528Y57294D01*
X162481Y57307D01*
X162435Y57324D01*
X162391Y57345D01*
X162349Y57369D01*
X162308Y57396D01*
X162270Y57426D01*
X162234Y57459D01*
X162201Y57495D01*
X162171Y57533D01*
X162144Y57574D01*
X162120Y57616D01*
X162099Y57660D01*
X162082Y57706D01*
X162069Y57753D01*
X162060Y57801D01*
X162054Y57849D01*
X162052Y57898D01*
X162052Y59450D01*
X162054Y59499D01*
X162060Y59547D01*
X162069Y59595D01*
X162082Y59642D01*
X162099Y59688D01*
X162120Y59732D01*
X162144Y59774D01*
X162171Y59815D01*
X162201Y59853D01*
X162234Y59889D01*
X162270Y59922D01*
X162308Y59952D01*
X162349Y59979D01*
X162391Y60003D01*
X162435Y60024D01*
X162481Y60041D01*
X162528Y60054D01*
X162576Y60063D01*
X162624Y60069D01*
X162673Y60071D01*
X163604Y60071D01*
X165663Y60071D02*
X164731Y57277D01*
X166594Y57277D02*
X165663Y60071D01*
X166361Y57976D02*
X164964Y57976D01*
X168223Y57277D02*
X168223Y60071D01*
X167447Y60071D02*
X168999Y60071D01*
X170104Y57277D02*
X171346Y57277D01*
X170104Y57277D02*
X170104Y60071D01*
X171346Y60071D01*
X171036Y58829D02*
X170104Y58829D01*
X89027Y193802D02*
X89027Y196596D01*
X89803Y196596D01*
X89858Y196594D01*
X89913Y196588D01*
X89968Y196578D01*
X90022Y196565D01*
X90074Y196547D01*
X90125Y196526D01*
X90175Y196501D01*
X90223Y196473D01*
X90268Y196441D01*
X90311Y196406D01*
X90352Y196369D01*
X90389Y196328D01*
X90424Y196285D01*
X90456Y196240D01*
X90484Y196192D01*
X90509Y196142D01*
X90530Y196091D01*
X90548Y196039D01*
X90561Y195985D01*
X90571Y195930D01*
X90577Y195875D01*
X90579Y195820D01*
X90577Y195765D01*
X90571Y195710D01*
X90561Y195655D01*
X90548Y195601D01*
X90530Y195549D01*
X90509Y195498D01*
X90484Y195448D01*
X90456Y195400D01*
X90424Y195355D01*
X90389Y195312D01*
X90352Y195271D01*
X90311Y195234D01*
X90268Y195199D01*
X90223Y195167D01*
X90175Y195139D01*
X90125Y195114D01*
X90074Y195093D01*
X90022Y195075D01*
X89968Y195062D01*
X89913Y195052D01*
X89858Y195046D01*
X89803Y195044D01*
X89027Y195044D01*
X91482Y193802D02*
X92413Y196596D01*
X93345Y193802D01*
X93112Y194501D02*
X91715Y194501D01*
X94472Y193802D02*
X94472Y196596D01*
X95248Y196596D01*
X95303Y196594D01*
X95358Y196588D01*
X95413Y196578D01*
X95467Y196565D01*
X95519Y196547D01*
X95570Y196526D01*
X95620Y196501D01*
X95668Y196473D01*
X95713Y196441D01*
X95756Y196406D01*
X95797Y196369D01*
X95834Y196328D01*
X95869Y196285D01*
X95901Y196240D01*
X95929Y196192D01*
X95954Y196142D01*
X95975Y196091D01*
X95993Y196039D01*
X96006Y195985D01*
X96016Y195930D01*
X96022Y195875D01*
X96024Y195820D01*
X96024Y194578D01*
X96022Y194525D01*
X96017Y194472D01*
X96008Y194420D01*
X95995Y194369D01*
X95979Y194318D01*
X95960Y194269D01*
X95937Y194221D01*
X95911Y194175D01*
X95882Y194130D01*
X95850Y194088D01*
X95815Y194048D01*
X95778Y194011D01*
X95738Y193976D01*
X95695Y193944D01*
X95651Y193915D01*
X95605Y193889D01*
X95557Y193866D01*
X95508Y193847D01*
X95457Y193831D01*
X95406Y193818D01*
X95354Y193809D01*
X95301Y193804D01*
X95248Y193802D01*
X94472Y193802D01*
X97306Y195199D02*
X97308Y195294D01*
X97314Y195389D01*
X97324Y195483D01*
X97337Y195577D01*
X97355Y195670D01*
X97376Y195763D01*
X97401Y195855D01*
X97430Y195945D01*
X97463Y196034D01*
X97499Y196122D01*
X97539Y196208D01*
X97540Y196208D02*
X97556Y196250D01*
X97575Y196290D01*
X97598Y196328D01*
X97623Y196365D01*
X97651Y196400D01*
X97681Y196432D01*
X97714Y196462D01*
X97749Y196489D01*
X97787Y196514D01*
X97826Y196535D01*
X97866Y196553D01*
X97908Y196569D01*
X97951Y196581D01*
X97994Y196589D01*
X98039Y196594D01*
X98083Y196596D01*
X98127Y196594D01*
X98172Y196589D01*
X98215Y196581D01*
X98258Y196569D01*
X98300Y196553D01*
X98340Y196535D01*
X98379Y196514D01*
X98417Y196489D01*
X98452Y196462D01*
X98485Y196432D01*
X98515Y196400D01*
X98543Y196365D01*
X98568Y196328D01*
X98591Y196290D01*
X98610Y196250D01*
X98626Y196208D01*
X98625Y196208D02*
X98665Y196122D01*
X98701Y196034D01*
X98734Y195945D01*
X98763Y195854D01*
X98788Y195763D01*
X98809Y195670D01*
X98827Y195577D01*
X98840Y195483D01*
X98850Y195389D01*
X98856Y195294D01*
X98858Y195199D01*
X97306Y195199D02*
X97308Y195104D01*
X97314Y195009D01*
X97324Y194915D01*
X97337Y194821D01*
X97355Y194728D01*
X97376Y194635D01*
X97401Y194544D01*
X97430Y194453D01*
X97463Y194364D01*
X97499Y194276D01*
X97539Y194190D01*
X97540Y194190D02*
X97556Y194148D01*
X97575Y194108D01*
X97598Y194070D01*
X97623Y194033D01*
X97651Y193998D01*
X97681Y193966D01*
X97714Y193936D01*
X97749Y193909D01*
X97787Y193884D01*
X97826Y193863D01*
X97866Y193845D01*
X97908Y193829D01*
X97951Y193817D01*
X97994Y193809D01*
X98039Y193804D01*
X98083Y193802D01*
X98626Y194190D02*
X98666Y194276D01*
X98702Y194364D01*
X98735Y194453D01*
X98764Y194543D01*
X98789Y194635D01*
X98810Y194728D01*
X98828Y194821D01*
X98841Y194915D01*
X98851Y195009D01*
X98857Y195104D01*
X98859Y195199D01*
X98626Y194190D02*
X98610Y194148D01*
X98591Y194108D01*
X98568Y194070D01*
X98543Y194033D01*
X98515Y193998D01*
X98485Y193966D01*
X98452Y193936D01*
X98417Y193909D01*
X98379Y193884D01*
X98340Y193863D01*
X98300Y193845D01*
X98258Y193829D01*
X98215Y193817D01*
X98172Y193809D01*
X98127Y193804D01*
X98083Y193802D01*
X97462Y194423D02*
X98704Y195975D01*
X100050Y195975D02*
X100826Y196596D01*
X100826Y193802D01*
X100050Y193802D02*
X101602Y193802D01*
X133477Y193802D02*
X133477Y196596D01*
X134253Y196596D01*
X134308Y196594D01*
X134363Y196588D01*
X134418Y196578D01*
X134472Y196565D01*
X134524Y196547D01*
X134575Y196526D01*
X134625Y196501D01*
X134673Y196473D01*
X134718Y196441D01*
X134761Y196406D01*
X134802Y196369D01*
X134839Y196328D01*
X134874Y196285D01*
X134906Y196240D01*
X134934Y196192D01*
X134959Y196142D01*
X134980Y196091D01*
X134998Y196039D01*
X135011Y195985D01*
X135021Y195930D01*
X135027Y195875D01*
X135029Y195820D01*
X135027Y195765D01*
X135021Y195710D01*
X135011Y195655D01*
X134998Y195601D01*
X134980Y195549D01*
X134959Y195498D01*
X134934Y195448D01*
X134906Y195400D01*
X134874Y195355D01*
X134839Y195312D01*
X134802Y195271D01*
X134761Y195234D01*
X134718Y195199D01*
X134673Y195167D01*
X134625Y195139D01*
X134575Y195114D01*
X134524Y195093D01*
X134472Y195075D01*
X134418Y195062D01*
X134363Y195052D01*
X134308Y195046D01*
X134253Y195044D01*
X133477Y195044D01*
X135932Y193802D02*
X136863Y196596D01*
X137795Y193802D01*
X137562Y194501D02*
X136165Y194501D01*
X138922Y193802D02*
X138922Y196596D01*
X139698Y196596D01*
X139753Y196594D01*
X139808Y196588D01*
X139863Y196578D01*
X139917Y196565D01*
X139969Y196547D01*
X140020Y196526D01*
X140070Y196501D01*
X140118Y196473D01*
X140163Y196441D01*
X140206Y196406D01*
X140247Y196369D01*
X140284Y196328D01*
X140319Y196285D01*
X140351Y196240D01*
X140379Y196192D01*
X140404Y196142D01*
X140425Y196091D01*
X140443Y196039D01*
X140456Y195985D01*
X140466Y195930D01*
X140472Y195875D01*
X140474Y195820D01*
X140474Y194578D01*
X140472Y194525D01*
X140467Y194472D01*
X140458Y194420D01*
X140445Y194369D01*
X140429Y194318D01*
X140410Y194269D01*
X140387Y194221D01*
X140361Y194175D01*
X140332Y194130D01*
X140300Y194088D01*
X140265Y194048D01*
X140228Y194011D01*
X140188Y193976D01*
X140145Y193944D01*
X140101Y193915D01*
X140055Y193889D01*
X140007Y193866D01*
X139958Y193847D01*
X139907Y193831D01*
X139856Y193818D01*
X139804Y193809D01*
X139751Y193804D01*
X139698Y193802D01*
X138922Y193802D01*
X141756Y195199D02*
X141758Y195294D01*
X141764Y195389D01*
X141774Y195483D01*
X141787Y195577D01*
X141805Y195670D01*
X141826Y195763D01*
X141851Y195855D01*
X141880Y195945D01*
X141913Y196034D01*
X141949Y196122D01*
X141989Y196208D01*
X141990Y196208D02*
X142006Y196250D01*
X142025Y196290D01*
X142048Y196328D01*
X142073Y196365D01*
X142101Y196400D01*
X142131Y196432D01*
X142164Y196462D01*
X142199Y196489D01*
X142237Y196514D01*
X142276Y196535D01*
X142316Y196553D01*
X142358Y196569D01*
X142401Y196581D01*
X142444Y196589D01*
X142489Y196594D01*
X142533Y196596D01*
X142577Y196594D01*
X142622Y196589D01*
X142665Y196581D01*
X142708Y196569D01*
X142750Y196553D01*
X142790Y196535D01*
X142829Y196514D01*
X142867Y196489D01*
X142902Y196462D01*
X142935Y196432D01*
X142965Y196400D01*
X142993Y196365D01*
X143018Y196328D01*
X143041Y196290D01*
X143060Y196250D01*
X143076Y196208D01*
X143075Y196208D02*
X143115Y196122D01*
X143151Y196034D01*
X143184Y195945D01*
X143213Y195854D01*
X143238Y195763D01*
X143259Y195670D01*
X143277Y195577D01*
X143290Y195483D01*
X143300Y195389D01*
X143306Y195294D01*
X143308Y195199D01*
X141756Y195199D02*
X141758Y195104D01*
X141764Y195009D01*
X141774Y194915D01*
X141787Y194821D01*
X141805Y194728D01*
X141826Y194635D01*
X141851Y194544D01*
X141880Y194453D01*
X141913Y194364D01*
X141949Y194276D01*
X141989Y194190D01*
X141990Y194190D02*
X142006Y194148D01*
X142025Y194108D01*
X142048Y194070D01*
X142073Y194033D01*
X142101Y193998D01*
X142131Y193966D01*
X142164Y193936D01*
X142199Y193909D01*
X142237Y193884D01*
X142276Y193863D01*
X142316Y193845D01*
X142358Y193829D01*
X142401Y193817D01*
X142444Y193809D01*
X142489Y193804D01*
X142533Y193802D01*
X143076Y194190D02*
X143116Y194276D01*
X143152Y194364D01*
X143185Y194453D01*
X143214Y194543D01*
X143239Y194635D01*
X143260Y194728D01*
X143278Y194821D01*
X143291Y194915D01*
X143301Y195009D01*
X143307Y195104D01*
X143309Y195199D01*
X143076Y194190D02*
X143060Y194148D01*
X143041Y194108D01*
X143018Y194070D01*
X142993Y194033D01*
X142965Y193998D01*
X142935Y193966D01*
X142902Y193936D01*
X142867Y193909D01*
X142829Y193884D01*
X142790Y193863D01*
X142750Y193845D01*
X142708Y193829D01*
X142665Y193817D01*
X142622Y193809D01*
X142577Y193804D01*
X142533Y193802D01*
X141912Y194423D02*
X143154Y195975D01*
X145353Y196597D02*
X145403Y196595D01*
X145452Y196590D01*
X145502Y196581D01*
X145550Y196569D01*
X145597Y196553D01*
X145643Y196534D01*
X145688Y196511D01*
X145731Y196486D01*
X145772Y196458D01*
X145811Y196426D01*
X145847Y196392D01*
X145881Y196356D01*
X145913Y196317D01*
X145941Y196276D01*
X145966Y196233D01*
X145989Y196188D01*
X146008Y196142D01*
X146024Y196095D01*
X146036Y196047D01*
X146045Y195997D01*
X146050Y195948D01*
X146052Y195898D01*
X145353Y196596D02*
X145297Y196594D01*
X145240Y196589D01*
X145185Y196580D01*
X145130Y196568D01*
X145076Y196552D01*
X145023Y196533D01*
X144971Y196511D01*
X144921Y196485D01*
X144872Y196456D01*
X144825Y196424D01*
X144781Y196390D01*
X144739Y196353D01*
X144699Y196313D01*
X144661Y196270D01*
X144627Y196226D01*
X144595Y196179D01*
X144567Y196131D01*
X144541Y196080D01*
X144519Y196028D01*
X144500Y195975D01*
X145819Y195355D02*
X145855Y195391D01*
X145888Y195429D01*
X145918Y195470D01*
X145945Y195513D01*
X145970Y195557D01*
X145991Y195603D01*
X146010Y195650D01*
X146025Y195698D01*
X146037Y195747D01*
X146045Y195797D01*
X146050Y195847D01*
X146052Y195898D01*
X145819Y195354D02*
X144500Y193802D01*
X146052Y193802D01*
X177927Y193802D02*
X177927Y196596D01*
X178703Y196596D01*
X178758Y196594D01*
X178813Y196588D01*
X178868Y196578D01*
X178922Y196565D01*
X178974Y196547D01*
X179025Y196526D01*
X179075Y196501D01*
X179123Y196473D01*
X179168Y196441D01*
X179211Y196406D01*
X179252Y196369D01*
X179289Y196328D01*
X179324Y196285D01*
X179356Y196240D01*
X179384Y196192D01*
X179409Y196142D01*
X179430Y196091D01*
X179448Y196039D01*
X179461Y195985D01*
X179471Y195930D01*
X179477Y195875D01*
X179479Y195820D01*
X179477Y195765D01*
X179471Y195710D01*
X179461Y195655D01*
X179448Y195601D01*
X179430Y195549D01*
X179409Y195498D01*
X179384Y195448D01*
X179356Y195400D01*
X179324Y195355D01*
X179289Y195312D01*
X179252Y195271D01*
X179211Y195234D01*
X179168Y195199D01*
X179123Y195167D01*
X179075Y195139D01*
X179025Y195114D01*
X178974Y195093D01*
X178922Y195075D01*
X178868Y195062D01*
X178813Y195052D01*
X178758Y195046D01*
X178703Y195044D01*
X177927Y195044D01*
X180382Y193802D02*
X181313Y196596D01*
X182245Y193802D01*
X182012Y194501D02*
X180615Y194501D01*
X183372Y193802D02*
X183372Y196596D01*
X184148Y196596D01*
X184203Y196594D01*
X184258Y196588D01*
X184313Y196578D01*
X184367Y196565D01*
X184419Y196547D01*
X184470Y196526D01*
X184520Y196501D01*
X184568Y196473D01*
X184613Y196441D01*
X184656Y196406D01*
X184697Y196369D01*
X184734Y196328D01*
X184769Y196285D01*
X184801Y196240D01*
X184829Y196192D01*
X184854Y196142D01*
X184875Y196091D01*
X184893Y196039D01*
X184906Y195985D01*
X184916Y195930D01*
X184922Y195875D01*
X184924Y195820D01*
X184924Y194578D01*
X184922Y194525D01*
X184917Y194472D01*
X184908Y194420D01*
X184895Y194369D01*
X184879Y194318D01*
X184860Y194269D01*
X184837Y194221D01*
X184811Y194175D01*
X184782Y194130D01*
X184750Y194088D01*
X184715Y194048D01*
X184678Y194011D01*
X184638Y193976D01*
X184595Y193944D01*
X184551Y193915D01*
X184505Y193889D01*
X184457Y193866D01*
X184408Y193847D01*
X184357Y193831D01*
X184306Y193818D01*
X184254Y193809D01*
X184201Y193804D01*
X184148Y193802D01*
X183372Y193802D01*
X186206Y195199D02*
X186208Y195294D01*
X186214Y195389D01*
X186224Y195483D01*
X186237Y195577D01*
X186255Y195670D01*
X186276Y195763D01*
X186301Y195855D01*
X186330Y195945D01*
X186363Y196034D01*
X186399Y196122D01*
X186439Y196208D01*
X186440Y196208D02*
X186456Y196250D01*
X186475Y196290D01*
X186498Y196328D01*
X186523Y196365D01*
X186551Y196400D01*
X186581Y196432D01*
X186614Y196462D01*
X186649Y196489D01*
X186687Y196514D01*
X186726Y196535D01*
X186766Y196553D01*
X186808Y196569D01*
X186851Y196581D01*
X186894Y196589D01*
X186939Y196594D01*
X186983Y196596D01*
X187027Y196594D01*
X187072Y196589D01*
X187115Y196581D01*
X187158Y196569D01*
X187200Y196553D01*
X187240Y196535D01*
X187279Y196514D01*
X187317Y196489D01*
X187352Y196462D01*
X187385Y196432D01*
X187415Y196400D01*
X187443Y196365D01*
X187468Y196328D01*
X187491Y196290D01*
X187510Y196250D01*
X187526Y196208D01*
X187525Y196208D02*
X187565Y196122D01*
X187601Y196034D01*
X187634Y195945D01*
X187663Y195854D01*
X187688Y195763D01*
X187709Y195670D01*
X187727Y195577D01*
X187740Y195483D01*
X187750Y195389D01*
X187756Y195294D01*
X187758Y195199D01*
X186206Y195199D02*
X186208Y195104D01*
X186214Y195009D01*
X186224Y194915D01*
X186237Y194821D01*
X186255Y194728D01*
X186276Y194635D01*
X186301Y194544D01*
X186330Y194453D01*
X186363Y194364D01*
X186399Y194276D01*
X186439Y194190D01*
X186440Y194190D02*
X186456Y194148D01*
X186475Y194108D01*
X186498Y194070D01*
X186523Y194033D01*
X186551Y193998D01*
X186581Y193966D01*
X186614Y193936D01*
X186649Y193909D01*
X186687Y193884D01*
X186726Y193863D01*
X186766Y193845D01*
X186808Y193829D01*
X186851Y193817D01*
X186894Y193809D01*
X186939Y193804D01*
X186983Y193802D01*
X187526Y194190D02*
X187566Y194276D01*
X187602Y194364D01*
X187635Y194453D01*
X187664Y194543D01*
X187689Y194635D01*
X187710Y194728D01*
X187728Y194821D01*
X187741Y194915D01*
X187751Y195009D01*
X187757Y195104D01*
X187759Y195199D01*
X187526Y194190D02*
X187510Y194148D01*
X187491Y194108D01*
X187468Y194070D01*
X187443Y194033D01*
X187415Y193998D01*
X187385Y193966D01*
X187352Y193936D01*
X187317Y193909D01*
X187279Y193884D01*
X187240Y193863D01*
X187200Y193845D01*
X187158Y193829D01*
X187115Y193817D01*
X187072Y193809D01*
X187027Y193804D01*
X186983Y193802D01*
X186362Y194423D02*
X187604Y195975D01*
X188950Y193802D02*
X189726Y193802D01*
X189781Y193804D01*
X189836Y193810D01*
X189891Y193820D01*
X189945Y193833D01*
X189997Y193851D01*
X190048Y193872D01*
X190098Y193897D01*
X190146Y193925D01*
X190191Y193957D01*
X190234Y193992D01*
X190275Y194029D01*
X190312Y194070D01*
X190347Y194113D01*
X190379Y194158D01*
X190407Y194206D01*
X190432Y194256D01*
X190453Y194307D01*
X190471Y194359D01*
X190484Y194413D01*
X190494Y194468D01*
X190500Y194523D01*
X190502Y194578D01*
X190500Y194633D01*
X190494Y194688D01*
X190484Y194743D01*
X190471Y194797D01*
X190453Y194849D01*
X190432Y194900D01*
X190407Y194950D01*
X190379Y194998D01*
X190347Y195043D01*
X190312Y195086D01*
X190275Y195127D01*
X190234Y195164D01*
X190191Y195199D01*
X190146Y195231D01*
X190098Y195259D01*
X190048Y195284D01*
X189997Y195305D01*
X189945Y195323D01*
X189891Y195336D01*
X189836Y195346D01*
X189781Y195352D01*
X189726Y195354D01*
X189881Y196596D02*
X188950Y196596D01*
X189881Y196596D02*
X189930Y196594D01*
X189978Y196588D01*
X190026Y196579D01*
X190073Y196566D01*
X190119Y196549D01*
X190163Y196528D01*
X190205Y196504D01*
X190246Y196477D01*
X190284Y196447D01*
X190320Y196414D01*
X190353Y196378D01*
X190383Y196340D01*
X190410Y196299D01*
X190434Y196257D01*
X190455Y196213D01*
X190472Y196167D01*
X190485Y196120D01*
X190494Y196072D01*
X190500Y196024D01*
X190502Y195975D01*
X190500Y195926D01*
X190494Y195878D01*
X190485Y195830D01*
X190472Y195783D01*
X190455Y195737D01*
X190434Y195693D01*
X190410Y195651D01*
X190383Y195610D01*
X190353Y195572D01*
X190320Y195536D01*
X190284Y195503D01*
X190246Y195473D01*
X190205Y195446D01*
X190163Y195422D01*
X190119Y195401D01*
X190073Y195384D01*
X190026Y195371D01*
X189978Y195362D01*
X189930Y195356D01*
X189881Y195354D01*
X189260Y195354D01*
X177927Y152146D02*
X177927Y149352D01*
X177927Y152146D02*
X178703Y152146D01*
X178758Y152144D01*
X178813Y152138D01*
X178868Y152128D01*
X178922Y152115D01*
X178974Y152097D01*
X179025Y152076D01*
X179075Y152051D01*
X179123Y152023D01*
X179168Y151991D01*
X179211Y151956D01*
X179252Y151919D01*
X179289Y151878D01*
X179324Y151835D01*
X179356Y151790D01*
X179384Y151742D01*
X179409Y151692D01*
X179430Y151641D01*
X179448Y151589D01*
X179461Y151535D01*
X179471Y151480D01*
X179477Y151425D01*
X179479Y151370D01*
X179477Y151315D01*
X179471Y151260D01*
X179461Y151205D01*
X179448Y151151D01*
X179430Y151099D01*
X179409Y151048D01*
X179384Y150998D01*
X179356Y150950D01*
X179324Y150905D01*
X179289Y150862D01*
X179252Y150821D01*
X179211Y150784D01*
X179168Y150749D01*
X179123Y150717D01*
X179075Y150689D01*
X179025Y150664D01*
X178974Y150643D01*
X178922Y150625D01*
X178868Y150612D01*
X178813Y150602D01*
X178758Y150596D01*
X178703Y150594D01*
X177927Y150594D01*
X180382Y149352D02*
X181313Y152146D01*
X182245Y149352D01*
X182012Y150051D02*
X180615Y150051D01*
X183372Y149352D02*
X183372Y152146D01*
X184148Y152146D01*
X184203Y152144D01*
X184258Y152138D01*
X184313Y152128D01*
X184367Y152115D01*
X184419Y152097D01*
X184470Y152076D01*
X184520Y152051D01*
X184568Y152023D01*
X184613Y151991D01*
X184656Y151956D01*
X184697Y151919D01*
X184734Y151878D01*
X184769Y151835D01*
X184801Y151790D01*
X184829Y151742D01*
X184854Y151692D01*
X184875Y151641D01*
X184893Y151589D01*
X184906Y151535D01*
X184916Y151480D01*
X184922Y151425D01*
X184924Y151370D01*
X184924Y150128D01*
X184922Y150075D01*
X184917Y150022D01*
X184908Y149970D01*
X184895Y149919D01*
X184879Y149868D01*
X184860Y149819D01*
X184837Y149771D01*
X184811Y149725D01*
X184782Y149680D01*
X184750Y149638D01*
X184715Y149598D01*
X184678Y149561D01*
X184638Y149526D01*
X184595Y149494D01*
X184551Y149465D01*
X184505Y149439D01*
X184457Y149416D01*
X184408Y149397D01*
X184357Y149381D01*
X184306Y149368D01*
X184254Y149359D01*
X184201Y149354D01*
X184148Y149352D01*
X183372Y149352D01*
X186206Y150749D02*
X186208Y150844D01*
X186214Y150939D01*
X186224Y151033D01*
X186237Y151127D01*
X186255Y151220D01*
X186276Y151313D01*
X186301Y151405D01*
X186330Y151495D01*
X186363Y151584D01*
X186399Y151672D01*
X186439Y151758D01*
X186440Y151758D02*
X186456Y151800D01*
X186475Y151840D01*
X186498Y151878D01*
X186523Y151915D01*
X186551Y151950D01*
X186581Y151982D01*
X186614Y152012D01*
X186649Y152039D01*
X186687Y152064D01*
X186726Y152085D01*
X186766Y152103D01*
X186808Y152119D01*
X186851Y152131D01*
X186894Y152139D01*
X186939Y152144D01*
X186983Y152146D01*
X187027Y152144D01*
X187072Y152139D01*
X187115Y152131D01*
X187158Y152119D01*
X187200Y152103D01*
X187240Y152085D01*
X187279Y152064D01*
X187317Y152039D01*
X187352Y152012D01*
X187385Y151982D01*
X187415Y151950D01*
X187443Y151915D01*
X187468Y151878D01*
X187491Y151840D01*
X187510Y151800D01*
X187526Y151758D01*
X187525Y151758D02*
X187565Y151672D01*
X187601Y151584D01*
X187634Y151495D01*
X187663Y151404D01*
X187688Y151313D01*
X187709Y151220D01*
X187727Y151127D01*
X187740Y151033D01*
X187750Y150939D01*
X187756Y150844D01*
X187758Y150749D01*
X186206Y150749D02*
X186208Y150654D01*
X186214Y150559D01*
X186224Y150465D01*
X186237Y150371D01*
X186255Y150278D01*
X186276Y150185D01*
X186301Y150094D01*
X186330Y150003D01*
X186363Y149914D01*
X186399Y149826D01*
X186439Y149740D01*
X186440Y149740D02*
X186456Y149698D01*
X186475Y149658D01*
X186498Y149620D01*
X186523Y149583D01*
X186551Y149548D01*
X186581Y149516D01*
X186614Y149486D01*
X186649Y149459D01*
X186687Y149434D01*
X186726Y149413D01*
X186766Y149395D01*
X186808Y149379D01*
X186851Y149367D01*
X186894Y149359D01*
X186939Y149354D01*
X186983Y149352D01*
X187526Y149740D02*
X187566Y149826D01*
X187602Y149914D01*
X187635Y150003D01*
X187664Y150093D01*
X187689Y150185D01*
X187710Y150278D01*
X187728Y150371D01*
X187741Y150465D01*
X187751Y150559D01*
X187757Y150654D01*
X187759Y150749D01*
X187526Y149740D02*
X187510Y149698D01*
X187491Y149658D01*
X187468Y149620D01*
X187443Y149583D01*
X187415Y149548D01*
X187385Y149516D01*
X187352Y149486D01*
X187317Y149459D01*
X187279Y149434D01*
X187240Y149413D01*
X187200Y149395D01*
X187158Y149379D01*
X187115Y149367D01*
X187072Y149359D01*
X187027Y149354D01*
X186983Y149352D01*
X186362Y149973D02*
X187604Y151525D01*
X188950Y149973D02*
X189571Y152146D01*
X188950Y149973D02*
X190502Y149973D01*
X190036Y150594D02*
X190036Y149352D01*
X101727Y9271D02*
X101727Y6477D01*
X101727Y9271D02*
X102503Y9271D01*
X102558Y9269D01*
X102613Y9263D01*
X102668Y9253D01*
X102722Y9240D01*
X102774Y9222D01*
X102825Y9201D01*
X102875Y9176D01*
X102923Y9148D01*
X102968Y9116D01*
X103011Y9081D01*
X103052Y9044D01*
X103089Y9003D01*
X103124Y8960D01*
X103156Y8915D01*
X103184Y8867D01*
X103209Y8817D01*
X103230Y8766D01*
X103248Y8714D01*
X103261Y8660D01*
X103271Y8605D01*
X103277Y8550D01*
X103279Y8495D01*
X103277Y8440D01*
X103271Y8385D01*
X103261Y8330D01*
X103248Y8276D01*
X103230Y8224D01*
X103209Y8173D01*
X103184Y8123D01*
X103156Y8075D01*
X103124Y8030D01*
X103089Y7987D01*
X103052Y7946D01*
X103011Y7909D01*
X102968Y7874D01*
X102923Y7842D01*
X102875Y7814D01*
X102825Y7789D01*
X102774Y7768D01*
X102722Y7750D01*
X102668Y7737D01*
X102613Y7727D01*
X102558Y7721D01*
X102503Y7719D01*
X101727Y7719D01*
X104182Y6477D02*
X105113Y9271D01*
X106045Y6477D01*
X105812Y7176D02*
X104415Y7176D01*
X107172Y6477D02*
X107172Y9271D01*
X107948Y9271D01*
X108003Y9269D01*
X108058Y9263D01*
X108113Y9253D01*
X108167Y9240D01*
X108219Y9222D01*
X108270Y9201D01*
X108320Y9176D01*
X108368Y9148D01*
X108413Y9116D01*
X108456Y9081D01*
X108497Y9044D01*
X108534Y9003D01*
X108569Y8960D01*
X108601Y8915D01*
X108629Y8867D01*
X108654Y8817D01*
X108675Y8766D01*
X108693Y8714D01*
X108706Y8660D01*
X108716Y8605D01*
X108722Y8550D01*
X108724Y8495D01*
X108724Y7253D01*
X108722Y7200D01*
X108717Y7147D01*
X108708Y7095D01*
X108695Y7044D01*
X108679Y6993D01*
X108660Y6944D01*
X108637Y6896D01*
X108611Y6850D01*
X108582Y6805D01*
X108550Y6763D01*
X108515Y6723D01*
X108478Y6686D01*
X108438Y6651D01*
X108395Y6619D01*
X108351Y6590D01*
X108305Y6564D01*
X108257Y6541D01*
X108208Y6522D01*
X108157Y6506D01*
X108106Y6493D01*
X108054Y6484D01*
X108001Y6479D01*
X107948Y6477D01*
X107172Y6477D01*
X110006Y7874D02*
X110008Y7969D01*
X110014Y8064D01*
X110024Y8158D01*
X110037Y8252D01*
X110055Y8345D01*
X110076Y8438D01*
X110101Y8530D01*
X110130Y8620D01*
X110163Y8709D01*
X110199Y8797D01*
X110239Y8883D01*
X110240Y8883D02*
X110256Y8925D01*
X110275Y8965D01*
X110298Y9003D01*
X110323Y9040D01*
X110351Y9075D01*
X110381Y9107D01*
X110414Y9137D01*
X110449Y9164D01*
X110487Y9189D01*
X110526Y9210D01*
X110566Y9228D01*
X110608Y9244D01*
X110651Y9256D01*
X110694Y9264D01*
X110739Y9269D01*
X110783Y9271D01*
X110827Y9269D01*
X110872Y9264D01*
X110915Y9256D01*
X110958Y9244D01*
X111000Y9228D01*
X111040Y9210D01*
X111079Y9189D01*
X111117Y9164D01*
X111152Y9137D01*
X111185Y9107D01*
X111215Y9075D01*
X111243Y9040D01*
X111268Y9003D01*
X111291Y8965D01*
X111310Y8925D01*
X111326Y8883D01*
X111325Y8883D02*
X111365Y8797D01*
X111401Y8709D01*
X111434Y8620D01*
X111463Y8529D01*
X111488Y8438D01*
X111509Y8345D01*
X111527Y8252D01*
X111540Y8158D01*
X111550Y8064D01*
X111556Y7969D01*
X111558Y7874D01*
X110006Y7874D02*
X110008Y7779D01*
X110014Y7684D01*
X110024Y7590D01*
X110037Y7496D01*
X110055Y7403D01*
X110076Y7310D01*
X110101Y7219D01*
X110130Y7128D01*
X110163Y7039D01*
X110199Y6951D01*
X110239Y6865D01*
X110240Y6865D02*
X110256Y6823D01*
X110275Y6783D01*
X110298Y6745D01*
X110323Y6708D01*
X110351Y6673D01*
X110381Y6641D01*
X110414Y6611D01*
X110449Y6584D01*
X110487Y6559D01*
X110526Y6538D01*
X110566Y6520D01*
X110608Y6504D01*
X110651Y6492D01*
X110694Y6484D01*
X110739Y6479D01*
X110783Y6477D01*
X111326Y6865D02*
X111366Y6951D01*
X111402Y7039D01*
X111435Y7128D01*
X111464Y7218D01*
X111489Y7310D01*
X111510Y7403D01*
X111528Y7496D01*
X111541Y7590D01*
X111551Y7684D01*
X111557Y7779D01*
X111559Y7874D01*
X111326Y6865D02*
X111310Y6823D01*
X111291Y6783D01*
X111268Y6745D01*
X111243Y6708D01*
X111215Y6673D01*
X111185Y6641D01*
X111152Y6611D01*
X111117Y6584D01*
X111079Y6559D01*
X111040Y6538D01*
X111000Y6520D01*
X110958Y6504D01*
X110915Y6492D01*
X110872Y6484D01*
X110827Y6479D01*
X110783Y6477D01*
X110162Y7098D02*
X111404Y8650D01*
X112750Y8029D02*
X113681Y8029D01*
X113730Y8027D01*
X113778Y8021D01*
X113826Y8012D01*
X113873Y7999D01*
X113919Y7982D01*
X113963Y7961D01*
X114005Y7937D01*
X114046Y7910D01*
X114084Y7880D01*
X114120Y7847D01*
X114153Y7811D01*
X114183Y7773D01*
X114210Y7732D01*
X114234Y7690D01*
X114255Y7646D01*
X114272Y7600D01*
X114285Y7553D01*
X114294Y7505D01*
X114300Y7457D01*
X114302Y7408D01*
X114302Y7253D01*
X114300Y7198D01*
X114294Y7143D01*
X114284Y7088D01*
X114271Y7034D01*
X114253Y6982D01*
X114232Y6931D01*
X114207Y6881D01*
X114179Y6833D01*
X114147Y6788D01*
X114112Y6745D01*
X114075Y6704D01*
X114034Y6667D01*
X113991Y6632D01*
X113946Y6600D01*
X113898Y6572D01*
X113848Y6547D01*
X113797Y6526D01*
X113745Y6508D01*
X113691Y6495D01*
X113636Y6485D01*
X113581Y6479D01*
X113526Y6477D01*
X113471Y6479D01*
X113416Y6485D01*
X113361Y6495D01*
X113307Y6508D01*
X113255Y6526D01*
X113204Y6547D01*
X113154Y6572D01*
X113106Y6600D01*
X113061Y6632D01*
X113018Y6667D01*
X112977Y6704D01*
X112940Y6745D01*
X112905Y6788D01*
X112873Y6833D01*
X112845Y6881D01*
X112820Y6931D01*
X112799Y6982D01*
X112781Y7034D01*
X112768Y7088D01*
X112758Y7143D01*
X112752Y7198D01*
X112750Y7253D01*
X112750Y8029D01*
X112752Y8099D01*
X112758Y8168D01*
X112768Y8237D01*
X112781Y8305D01*
X112799Y8373D01*
X112820Y8439D01*
X112845Y8504D01*
X112873Y8568D01*
X112905Y8630D01*
X112940Y8690D01*
X112979Y8748D01*
X113021Y8803D01*
X113066Y8857D01*
X113114Y8907D01*
X113164Y8955D01*
X113218Y9000D01*
X113273Y9042D01*
X113331Y9081D01*
X113391Y9116D01*
X113453Y9148D01*
X113517Y9176D01*
X113582Y9201D01*
X113648Y9222D01*
X113716Y9240D01*
X113784Y9253D01*
X113853Y9263D01*
X113922Y9269D01*
X113992Y9271D01*
X57277Y9271D02*
X57277Y6477D01*
X57277Y9271D02*
X58053Y9271D01*
X58108Y9269D01*
X58163Y9263D01*
X58218Y9253D01*
X58272Y9240D01*
X58324Y9222D01*
X58375Y9201D01*
X58425Y9176D01*
X58473Y9148D01*
X58518Y9116D01*
X58561Y9081D01*
X58602Y9044D01*
X58639Y9003D01*
X58674Y8960D01*
X58706Y8915D01*
X58734Y8867D01*
X58759Y8817D01*
X58780Y8766D01*
X58798Y8714D01*
X58811Y8660D01*
X58821Y8605D01*
X58827Y8550D01*
X58829Y8495D01*
X58827Y8440D01*
X58821Y8385D01*
X58811Y8330D01*
X58798Y8276D01*
X58780Y8224D01*
X58759Y8173D01*
X58734Y8123D01*
X58706Y8075D01*
X58674Y8030D01*
X58639Y7987D01*
X58602Y7946D01*
X58561Y7909D01*
X58518Y7874D01*
X58473Y7842D01*
X58425Y7814D01*
X58375Y7789D01*
X58324Y7768D01*
X58272Y7750D01*
X58218Y7737D01*
X58163Y7727D01*
X58108Y7721D01*
X58053Y7719D01*
X57277Y7719D01*
X59732Y6477D02*
X60663Y9271D01*
X61595Y6477D01*
X61362Y7176D02*
X59965Y7176D01*
X62722Y6477D02*
X62722Y9271D01*
X63498Y9271D01*
X63553Y9269D01*
X63608Y9263D01*
X63663Y9253D01*
X63717Y9240D01*
X63769Y9222D01*
X63820Y9201D01*
X63870Y9176D01*
X63918Y9148D01*
X63963Y9116D01*
X64006Y9081D01*
X64047Y9044D01*
X64084Y9003D01*
X64119Y8960D01*
X64151Y8915D01*
X64179Y8867D01*
X64204Y8817D01*
X64225Y8766D01*
X64243Y8714D01*
X64256Y8660D01*
X64266Y8605D01*
X64272Y8550D01*
X64274Y8495D01*
X64274Y7253D01*
X64272Y7200D01*
X64267Y7147D01*
X64258Y7095D01*
X64245Y7044D01*
X64229Y6993D01*
X64210Y6944D01*
X64187Y6896D01*
X64161Y6850D01*
X64132Y6805D01*
X64100Y6763D01*
X64065Y6723D01*
X64028Y6686D01*
X63988Y6651D01*
X63945Y6619D01*
X63901Y6590D01*
X63855Y6564D01*
X63807Y6541D01*
X63758Y6522D01*
X63707Y6506D01*
X63656Y6493D01*
X63604Y6484D01*
X63551Y6479D01*
X63498Y6477D01*
X62722Y6477D01*
X65556Y7874D02*
X65558Y7969D01*
X65564Y8064D01*
X65574Y8158D01*
X65587Y8252D01*
X65605Y8345D01*
X65626Y8438D01*
X65651Y8530D01*
X65680Y8620D01*
X65713Y8709D01*
X65749Y8797D01*
X65789Y8883D01*
X65790Y8883D02*
X65806Y8925D01*
X65825Y8965D01*
X65848Y9003D01*
X65873Y9040D01*
X65901Y9075D01*
X65931Y9107D01*
X65964Y9137D01*
X65999Y9164D01*
X66037Y9189D01*
X66076Y9210D01*
X66116Y9228D01*
X66158Y9244D01*
X66201Y9256D01*
X66244Y9264D01*
X66289Y9269D01*
X66333Y9271D01*
X66377Y9269D01*
X66422Y9264D01*
X66465Y9256D01*
X66508Y9244D01*
X66550Y9228D01*
X66590Y9210D01*
X66629Y9189D01*
X66667Y9164D01*
X66702Y9137D01*
X66735Y9107D01*
X66765Y9075D01*
X66793Y9040D01*
X66818Y9003D01*
X66841Y8965D01*
X66860Y8925D01*
X66876Y8883D01*
X66875Y8883D02*
X66915Y8797D01*
X66951Y8709D01*
X66984Y8620D01*
X67013Y8529D01*
X67038Y8438D01*
X67059Y8345D01*
X67077Y8252D01*
X67090Y8158D01*
X67100Y8064D01*
X67106Y7969D01*
X67108Y7874D01*
X65556Y7874D02*
X65558Y7779D01*
X65564Y7684D01*
X65574Y7590D01*
X65587Y7496D01*
X65605Y7403D01*
X65626Y7310D01*
X65651Y7219D01*
X65680Y7128D01*
X65713Y7039D01*
X65749Y6951D01*
X65789Y6865D01*
X65790Y6865D02*
X65806Y6823D01*
X65825Y6783D01*
X65848Y6745D01*
X65873Y6708D01*
X65901Y6673D01*
X65931Y6641D01*
X65964Y6611D01*
X65999Y6584D01*
X66037Y6559D01*
X66076Y6538D01*
X66116Y6520D01*
X66158Y6504D01*
X66201Y6492D01*
X66244Y6484D01*
X66289Y6479D01*
X66333Y6477D01*
X66876Y6865D02*
X66916Y6951D01*
X66952Y7039D01*
X66985Y7128D01*
X67014Y7218D01*
X67039Y7310D01*
X67060Y7403D01*
X67078Y7496D01*
X67091Y7590D01*
X67101Y7684D01*
X67107Y7779D01*
X67109Y7874D01*
X66876Y6865D02*
X66860Y6823D01*
X66841Y6783D01*
X66818Y6745D01*
X66793Y6708D01*
X66765Y6673D01*
X66735Y6641D01*
X66702Y6611D01*
X66667Y6584D01*
X66629Y6559D01*
X66590Y6538D01*
X66550Y6520D01*
X66508Y6504D01*
X66465Y6492D01*
X66422Y6484D01*
X66377Y6479D01*
X66333Y6477D01*
X65712Y7098D02*
X66954Y8650D01*
X68300Y8961D02*
X68300Y9271D01*
X69852Y9271D01*
X69076Y6477D01*
X12827Y6477D02*
X12827Y9271D01*
X13603Y9271D01*
X13658Y9269D01*
X13713Y9263D01*
X13768Y9253D01*
X13822Y9240D01*
X13874Y9222D01*
X13925Y9201D01*
X13975Y9176D01*
X14023Y9148D01*
X14068Y9116D01*
X14111Y9081D01*
X14152Y9044D01*
X14189Y9003D01*
X14224Y8960D01*
X14256Y8915D01*
X14284Y8867D01*
X14309Y8817D01*
X14330Y8766D01*
X14348Y8714D01*
X14361Y8660D01*
X14371Y8605D01*
X14377Y8550D01*
X14379Y8495D01*
X14377Y8440D01*
X14371Y8385D01*
X14361Y8330D01*
X14348Y8276D01*
X14330Y8224D01*
X14309Y8173D01*
X14284Y8123D01*
X14256Y8075D01*
X14224Y8030D01*
X14189Y7987D01*
X14152Y7946D01*
X14111Y7909D01*
X14068Y7874D01*
X14023Y7842D01*
X13975Y7814D01*
X13925Y7789D01*
X13874Y7768D01*
X13822Y7750D01*
X13768Y7737D01*
X13713Y7727D01*
X13658Y7721D01*
X13603Y7719D01*
X12827Y7719D01*
X15282Y6477D02*
X16213Y9271D01*
X17145Y6477D01*
X16912Y7176D02*
X15515Y7176D01*
X18272Y6477D02*
X18272Y9271D01*
X19048Y9271D01*
X19103Y9269D01*
X19158Y9263D01*
X19213Y9253D01*
X19267Y9240D01*
X19319Y9222D01*
X19370Y9201D01*
X19420Y9176D01*
X19468Y9148D01*
X19513Y9116D01*
X19556Y9081D01*
X19597Y9044D01*
X19634Y9003D01*
X19669Y8960D01*
X19701Y8915D01*
X19729Y8867D01*
X19754Y8817D01*
X19775Y8766D01*
X19793Y8714D01*
X19806Y8660D01*
X19816Y8605D01*
X19822Y8550D01*
X19824Y8495D01*
X19824Y7253D01*
X19822Y7200D01*
X19817Y7147D01*
X19808Y7095D01*
X19795Y7044D01*
X19779Y6993D01*
X19760Y6944D01*
X19737Y6896D01*
X19711Y6850D01*
X19682Y6805D01*
X19650Y6763D01*
X19615Y6723D01*
X19578Y6686D01*
X19538Y6651D01*
X19495Y6619D01*
X19451Y6590D01*
X19405Y6564D01*
X19357Y6541D01*
X19308Y6522D01*
X19257Y6506D01*
X19206Y6493D01*
X19154Y6484D01*
X19101Y6479D01*
X19048Y6477D01*
X18272Y6477D01*
X21106Y7874D02*
X21108Y7969D01*
X21114Y8064D01*
X21124Y8158D01*
X21137Y8252D01*
X21155Y8345D01*
X21176Y8438D01*
X21201Y8530D01*
X21230Y8620D01*
X21263Y8709D01*
X21299Y8797D01*
X21339Y8883D01*
X21340Y8883D02*
X21356Y8925D01*
X21375Y8965D01*
X21398Y9003D01*
X21423Y9040D01*
X21451Y9075D01*
X21481Y9107D01*
X21514Y9137D01*
X21549Y9164D01*
X21587Y9189D01*
X21626Y9210D01*
X21666Y9228D01*
X21708Y9244D01*
X21751Y9256D01*
X21794Y9264D01*
X21839Y9269D01*
X21883Y9271D01*
X21927Y9269D01*
X21972Y9264D01*
X22015Y9256D01*
X22058Y9244D01*
X22100Y9228D01*
X22140Y9210D01*
X22179Y9189D01*
X22217Y9164D01*
X22252Y9137D01*
X22285Y9107D01*
X22315Y9075D01*
X22343Y9040D01*
X22368Y9003D01*
X22391Y8965D01*
X22410Y8925D01*
X22426Y8883D01*
X22425Y8883D02*
X22465Y8797D01*
X22501Y8709D01*
X22534Y8620D01*
X22563Y8529D01*
X22588Y8438D01*
X22609Y8345D01*
X22627Y8252D01*
X22640Y8158D01*
X22650Y8064D01*
X22656Y7969D01*
X22658Y7874D01*
X21106Y7874D02*
X21108Y7779D01*
X21114Y7684D01*
X21124Y7590D01*
X21137Y7496D01*
X21155Y7403D01*
X21176Y7310D01*
X21201Y7219D01*
X21230Y7128D01*
X21263Y7039D01*
X21299Y6951D01*
X21339Y6865D01*
X21340Y6865D02*
X21356Y6823D01*
X21375Y6783D01*
X21398Y6745D01*
X21423Y6708D01*
X21451Y6673D01*
X21481Y6641D01*
X21514Y6611D01*
X21549Y6584D01*
X21587Y6559D01*
X21626Y6538D01*
X21666Y6520D01*
X21708Y6504D01*
X21751Y6492D01*
X21794Y6484D01*
X21839Y6479D01*
X21883Y6477D01*
X22426Y6865D02*
X22466Y6951D01*
X22502Y7039D01*
X22535Y7128D01*
X22564Y7218D01*
X22589Y7310D01*
X22610Y7403D01*
X22628Y7496D01*
X22641Y7590D01*
X22651Y7684D01*
X22657Y7779D01*
X22659Y7874D01*
X22426Y6865D02*
X22410Y6823D01*
X22391Y6783D01*
X22368Y6745D01*
X22343Y6708D01*
X22315Y6673D01*
X22285Y6641D01*
X22252Y6611D01*
X22217Y6584D01*
X22179Y6559D01*
X22140Y6538D01*
X22100Y6520D01*
X22058Y6504D01*
X22015Y6492D01*
X21972Y6484D01*
X21927Y6479D01*
X21883Y6477D01*
X21262Y7098D02*
X22504Y8650D01*
X23850Y7253D02*
X23852Y7308D01*
X23858Y7363D01*
X23868Y7418D01*
X23881Y7472D01*
X23899Y7524D01*
X23920Y7575D01*
X23945Y7625D01*
X23973Y7673D01*
X24005Y7718D01*
X24040Y7761D01*
X24077Y7802D01*
X24118Y7839D01*
X24161Y7874D01*
X24206Y7906D01*
X24254Y7934D01*
X24304Y7959D01*
X24355Y7980D01*
X24407Y7998D01*
X24461Y8011D01*
X24516Y8021D01*
X24571Y8027D01*
X24626Y8029D01*
X24681Y8027D01*
X24736Y8021D01*
X24791Y8011D01*
X24845Y7998D01*
X24897Y7980D01*
X24948Y7959D01*
X24998Y7934D01*
X25046Y7906D01*
X25091Y7874D01*
X25134Y7839D01*
X25175Y7802D01*
X25212Y7761D01*
X25247Y7718D01*
X25279Y7673D01*
X25307Y7625D01*
X25332Y7575D01*
X25353Y7524D01*
X25371Y7472D01*
X25384Y7418D01*
X25394Y7363D01*
X25400Y7308D01*
X25402Y7253D01*
X25400Y7198D01*
X25394Y7143D01*
X25384Y7088D01*
X25371Y7034D01*
X25353Y6982D01*
X25332Y6931D01*
X25307Y6881D01*
X25279Y6833D01*
X25247Y6788D01*
X25212Y6745D01*
X25175Y6704D01*
X25134Y6667D01*
X25091Y6632D01*
X25046Y6600D01*
X24998Y6572D01*
X24948Y6547D01*
X24897Y6526D01*
X24845Y6508D01*
X24791Y6495D01*
X24736Y6485D01*
X24681Y6479D01*
X24626Y6477D01*
X24571Y6479D01*
X24516Y6485D01*
X24461Y6495D01*
X24407Y6508D01*
X24355Y6526D01*
X24304Y6547D01*
X24254Y6572D01*
X24206Y6600D01*
X24161Y6632D01*
X24118Y6667D01*
X24077Y6704D01*
X24040Y6745D01*
X24005Y6788D01*
X23973Y6833D01*
X23945Y6881D01*
X23920Y6931D01*
X23899Y6982D01*
X23881Y7034D01*
X23868Y7088D01*
X23858Y7143D01*
X23852Y7198D01*
X23850Y7253D01*
X24005Y8650D02*
X24007Y8699D01*
X24013Y8747D01*
X24022Y8795D01*
X24035Y8842D01*
X24052Y8888D01*
X24073Y8932D01*
X24097Y8974D01*
X24124Y9015D01*
X24154Y9053D01*
X24187Y9089D01*
X24223Y9122D01*
X24261Y9152D01*
X24302Y9179D01*
X24344Y9203D01*
X24388Y9224D01*
X24434Y9241D01*
X24481Y9254D01*
X24529Y9263D01*
X24577Y9269D01*
X24626Y9271D01*
X24675Y9269D01*
X24723Y9263D01*
X24771Y9254D01*
X24818Y9241D01*
X24864Y9224D01*
X24908Y9203D01*
X24950Y9179D01*
X24991Y9152D01*
X25029Y9122D01*
X25065Y9089D01*
X25098Y9053D01*
X25128Y9015D01*
X25155Y8974D01*
X25179Y8932D01*
X25200Y8888D01*
X25217Y8842D01*
X25230Y8795D01*
X25239Y8747D01*
X25245Y8699D01*
X25247Y8650D01*
X25245Y8601D01*
X25239Y8553D01*
X25230Y8505D01*
X25217Y8458D01*
X25200Y8412D01*
X25179Y8368D01*
X25155Y8326D01*
X25128Y8285D01*
X25098Y8247D01*
X25065Y8211D01*
X25029Y8178D01*
X24991Y8148D01*
X24950Y8121D01*
X24908Y8097D01*
X24864Y8076D01*
X24818Y8059D01*
X24771Y8046D01*
X24723Y8037D01*
X24675Y8031D01*
X24626Y8029D01*
X24577Y8031D01*
X24529Y8037D01*
X24481Y8046D01*
X24434Y8059D01*
X24388Y8076D01*
X24344Y8097D01*
X24302Y8121D01*
X24261Y8148D01*
X24223Y8178D01*
X24187Y8211D01*
X24154Y8247D01*
X24124Y8285D01*
X24097Y8326D01*
X24073Y8368D01*
X24052Y8412D01*
X24035Y8458D01*
X24022Y8505D01*
X24013Y8553D01*
X24007Y8601D01*
X24005Y8650D01*
X12827Y50927D02*
X12827Y53721D01*
X13603Y53721D01*
X13658Y53719D01*
X13713Y53713D01*
X13768Y53703D01*
X13822Y53690D01*
X13874Y53672D01*
X13925Y53651D01*
X13975Y53626D01*
X14023Y53598D01*
X14068Y53566D01*
X14111Y53531D01*
X14152Y53494D01*
X14189Y53453D01*
X14224Y53410D01*
X14256Y53365D01*
X14284Y53317D01*
X14309Y53267D01*
X14330Y53216D01*
X14348Y53164D01*
X14361Y53110D01*
X14371Y53055D01*
X14377Y53000D01*
X14379Y52945D01*
X14377Y52890D01*
X14371Y52835D01*
X14361Y52780D01*
X14348Y52726D01*
X14330Y52674D01*
X14309Y52623D01*
X14284Y52573D01*
X14256Y52525D01*
X14224Y52480D01*
X14189Y52437D01*
X14152Y52396D01*
X14111Y52359D01*
X14068Y52324D01*
X14023Y52292D01*
X13975Y52264D01*
X13925Y52239D01*
X13874Y52218D01*
X13822Y52200D01*
X13768Y52187D01*
X13713Y52177D01*
X13658Y52171D01*
X13603Y52169D01*
X12827Y52169D01*
X15282Y50927D02*
X16213Y53721D01*
X17145Y50927D01*
X16912Y51626D02*
X15515Y51626D01*
X18272Y50927D02*
X18272Y53721D01*
X19048Y53721D01*
X19103Y53719D01*
X19158Y53713D01*
X19213Y53703D01*
X19267Y53690D01*
X19319Y53672D01*
X19370Y53651D01*
X19420Y53626D01*
X19468Y53598D01*
X19513Y53566D01*
X19556Y53531D01*
X19597Y53494D01*
X19634Y53453D01*
X19669Y53410D01*
X19701Y53365D01*
X19729Y53317D01*
X19754Y53267D01*
X19775Y53216D01*
X19793Y53164D01*
X19806Y53110D01*
X19816Y53055D01*
X19822Y53000D01*
X19824Y52945D01*
X19824Y51703D01*
X19822Y51650D01*
X19817Y51597D01*
X19808Y51545D01*
X19795Y51494D01*
X19779Y51443D01*
X19760Y51394D01*
X19737Y51346D01*
X19711Y51300D01*
X19682Y51255D01*
X19650Y51213D01*
X19615Y51173D01*
X19578Y51136D01*
X19538Y51101D01*
X19495Y51069D01*
X19451Y51040D01*
X19405Y51014D01*
X19357Y50991D01*
X19308Y50972D01*
X19257Y50956D01*
X19206Y50943D01*
X19154Y50934D01*
X19101Y50929D01*
X19048Y50927D01*
X18272Y50927D01*
X21106Y52324D02*
X21108Y52419D01*
X21114Y52514D01*
X21124Y52608D01*
X21137Y52702D01*
X21155Y52795D01*
X21176Y52888D01*
X21201Y52980D01*
X21230Y53070D01*
X21263Y53159D01*
X21299Y53247D01*
X21339Y53333D01*
X21340Y53333D02*
X21356Y53375D01*
X21375Y53415D01*
X21398Y53453D01*
X21423Y53490D01*
X21451Y53525D01*
X21481Y53557D01*
X21514Y53587D01*
X21549Y53614D01*
X21587Y53639D01*
X21626Y53660D01*
X21666Y53678D01*
X21708Y53694D01*
X21751Y53706D01*
X21794Y53714D01*
X21839Y53719D01*
X21883Y53721D01*
X21927Y53719D01*
X21972Y53714D01*
X22015Y53706D01*
X22058Y53694D01*
X22100Y53678D01*
X22140Y53660D01*
X22179Y53639D01*
X22217Y53614D01*
X22252Y53587D01*
X22285Y53557D01*
X22315Y53525D01*
X22343Y53490D01*
X22368Y53453D01*
X22391Y53415D01*
X22410Y53375D01*
X22426Y53333D01*
X22425Y53333D02*
X22465Y53247D01*
X22501Y53159D01*
X22534Y53070D01*
X22563Y52979D01*
X22588Y52888D01*
X22609Y52795D01*
X22627Y52702D01*
X22640Y52608D01*
X22650Y52514D01*
X22656Y52419D01*
X22658Y52324D01*
X21106Y52324D02*
X21108Y52229D01*
X21114Y52134D01*
X21124Y52040D01*
X21137Y51946D01*
X21155Y51853D01*
X21176Y51760D01*
X21201Y51669D01*
X21230Y51578D01*
X21263Y51489D01*
X21299Y51401D01*
X21339Y51315D01*
X21340Y51315D02*
X21356Y51273D01*
X21375Y51233D01*
X21398Y51195D01*
X21423Y51158D01*
X21451Y51123D01*
X21481Y51091D01*
X21514Y51061D01*
X21549Y51034D01*
X21587Y51009D01*
X21626Y50988D01*
X21666Y50970D01*
X21708Y50954D01*
X21751Y50942D01*
X21794Y50934D01*
X21839Y50929D01*
X21883Y50927D01*
X22426Y51315D02*
X22466Y51401D01*
X22502Y51489D01*
X22535Y51578D01*
X22564Y51668D01*
X22589Y51760D01*
X22610Y51853D01*
X22628Y51946D01*
X22641Y52040D01*
X22651Y52134D01*
X22657Y52229D01*
X22659Y52324D01*
X22426Y51315D02*
X22410Y51273D01*
X22391Y51233D01*
X22368Y51195D01*
X22343Y51158D01*
X22315Y51123D01*
X22285Y51091D01*
X22252Y51061D01*
X22217Y51034D01*
X22179Y51009D01*
X22140Y50988D01*
X22100Y50970D01*
X22058Y50954D01*
X22015Y50942D01*
X21972Y50934D01*
X21927Y50929D01*
X21883Y50927D01*
X21262Y51548D02*
X22504Y53100D01*
X24471Y52169D02*
X25402Y52169D01*
X24471Y52169D02*
X24422Y52171D01*
X24374Y52177D01*
X24326Y52186D01*
X24279Y52199D01*
X24233Y52216D01*
X24189Y52237D01*
X24147Y52261D01*
X24106Y52288D01*
X24068Y52318D01*
X24032Y52351D01*
X23999Y52387D01*
X23969Y52425D01*
X23941Y52466D01*
X23918Y52508D01*
X23897Y52552D01*
X23880Y52598D01*
X23867Y52645D01*
X23858Y52693D01*
X23852Y52741D01*
X23850Y52790D01*
X23850Y52945D01*
X23852Y53000D01*
X23858Y53055D01*
X23868Y53110D01*
X23881Y53164D01*
X23899Y53216D01*
X23920Y53267D01*
X23945Y53317D01*
X23973Y53365D01*
X24005Y53410D01*
X24040Y53453D01*
X24077Y53494D01*
X24118Y53531D01*
X24161Y53566D01*
X24206Y53598D01*
X24254Y53626D01*
X24304Y53651D01*
X24355Y53672D01*
X24407Y53690D01*
X24461Y53703D01*
X24516Y53713D01*
X24571Y53719D01*
X24626Y53721D01*
X24681Y53719D01*
X24736Y53713D01*
X24791Y53703D01*
X24845Y53690D01*
X24897Y53672D01*
X24948Y53651D01*
X24998Y53626D01*
X25046Y53598D01*
X25091Y53566D01*
X25134Y53531D01*
X25175Y53494D01*
X25212Y53453D01*
X25247Y53410D01*
X25279Y53365D01*
X25307Y53317D01*
X25332Y53267D01*
X25353Y53216D01*
X25371Y53164D01*
X25384Y53110D01*
X25394Y53055D01*
X25400Y53000D01*
X25402Y52945D01*
X25402Y52169D01*
X25400Y52099D01*
X25394Y52030D01*
X25384Y51961D01*
X25371Y51893D01*
X25353Y51825D01*
X25332Y51759D01*
X25307Y51694D01*
X25279Y51630D01*
X25247Y51568D01*
X25212Y51508D01*
X25173Y51450D01*
X25131Y51395D01*
X25086Y51341D01*
X25038Y51291D01*
X24988Y51243D01*
X24934Y51198D01*
X24879Y51156D01*
X24821Y51117D01*
X24761Y51082D01*
X24699Y51050D01*
X24635Y51022D01*
X24570Y50997D01*
X24504Y50976D01*
X24436Y50958D01*
X24368Y50945D01*
X24299Y50935D01*
X24230Y50929D01*
X24160Y50927D01*
X177927Y104902D02*
X177927Y107696D01*
X178703Y107696D01*
X178758Y107694D01*
X178813Y107688D01*
X178868Y107678D01*
X178922Y107665D01*
X178974Y107647D01*
X179025Y107626D01*
X179075Y107601D01*
X179123Y107573D01*
X179168Y107541D01*
X179211Y107506D01*
X179252Y107469D01*
X179289Y107428D01*
X179324Y107385D01*
X179356Y107340D01*
X179384Y107292D01*
X179409Y107242D01*
X179430Y107191D01*
X179448Y107139D01*
X179461Y107085D01*
X179471Y107030D01*
X179477Y106975D01*
X179479Y106920D01*
X179477Y106865D01*
X179471Y106810D01*
X179461Y106755D01*
X179448Y106701D01*
X179430Y106649D01*
X179409Y106598D01*
X179384Y106548D01*
X179356Y106500D01*
X179324Y106455D01*
X179289Y106412D01*
X179252Y106371D01*
X179211Y106334D01*
X179168Y106299D01*
X179123Y106267D01*
X179075Y106239D01*
X179025Y106214D01*
X178974Y106193D01*
X178922Y106175D01*
X178868Y106162D01*
X178813Y106152D01*
X178758Y106146D01*
X178703Y106144D01*
X177927Y106144D01*
X180382Y104902D02*
X181313Y107696D01*
X182245Y104902D01*
X182012Y105601D02*
X180615Y105601D01*
X183372Y104902D02*
X183372Y107696D01*
X184148Y107696D01*
X184203Y107694D01*
X184258Y107688D01*
X184313Y107678D01*
X184367Y107665D01*
X184419Y107647D01*
X184470Y107626D01*
X184520Y107601D01*
X184568Y107573D01*
X184613Y107541D01*
X184656Y107506D01*
X184697Y107469D01*
X184734Y107428D01*
X184769Y107385D01*
X184801Y107340D01*
X184829Y107292D01*
X184854Y107242D01*
X184875Y107191D01*
X184893Y107139D01*
X184906Y107085D01*
X184916Y107030D01*
X184922Y106975D01*
X184924Y106920D01*
X184924Y105678D01*
X184922Y105625D01*
X184917Y105572D01*
X184908Y105520D01*
X184895Y105469D01*
X184879Y105418D01*
X184860Y105369D01*
X184837Y105321D01*
X184811Y105275D01*
X184782Y105230D01*
X184750Y105188D01*
X184715Y105148D01*
X184678Y105111D01*
X184638Y105076D01*
X184595Y105044D01*
X184551Y105015D01*
X184505Y104989D01*
X184457Y104966D01*
X184408Y104947D01*
X184357Y104931D01*
X184306Y104918D01*
X184254Y104909D01*
X184201Y104904D01*
X184148Y104902D01*
X183372Y104902D01*
X186206Y106299D02*
X186208Y106394D01*
X186214Y106489D01*
X186224Y106583D01*
X186237Y106677D01*
X186255Y106770D01*
X186276Y106863D01*
X186301Y106955D01*
X186330Y107045D01*
X186363Y107134D01*
X186399Y107222D01*
X186439Y107308D01*
X186440Y107308D02*
X186456Y107350D01*
X186475Y107390D01*
X186498Y107428D01*
X186523Y107465D01*
X186551Y107500D01*
X186581Y107532D01*
X186614Y107562D01*
X186649Y107589D01*
X186687Y107614D01*
X186726Y107635D01*
X186766Y107653D01*
X186808Y107669D01*
X186851Y107681D01*
X186894Y107689D01*
X186939Y107694D01*
X186983Y107696D01*
X187027Y107694D01*
X187072Y107689D01*
X187115Y107681D01*
X187158Y107669D01*
X187200Y107653D01*
X187240Y107635D01*
X187279Y107614D01*
X187317Y107589D01*
X187352Y107562D01*
X187385Y107532D01*
X187415Y107500D01*
X187443Y107465D01*
X187468Y107428D01*
X187491Y107390D01*
X187510Y107350D01*
X187526Y107308D01*
X187525Y107308D02*
X187565Y107222D01*
X187601Y107134D01*
X187634Y107045D01*
X187663Y106954D01*
X187688Y106863D01*
X187709Y106770D01*
X187727Y106677D01*
X187740Y106583D01*
X187750Y106489D01*
X187756Y106394D01*
X187758Y106299D01*
X186206Y106299D02*
X186208Y106204D01*
X186214Y106109D01*
X186224Y106015D01*
X186237Y105921D01*
X186255Y105828D01*
X186276Y105735D01*
X186301Y105644D01*
X186330Y105553D01*
X186363Y105464D01*
X186399Y105376D01*
X186439Y105290D01*
X186440Y105290D02*
X186456Y105248D01*
X186475Y105208D01*
X186498Y105170D01*
X186523Y105133D01*
X186551Y105098D01*
X186581Y105066D01*
X186614Y105036D01*
X186649Y105009D01*
X186687Y104984D01*
X186726Y104963D01*
X186766Y104945D01*
X186808Y104929D01*
X186851Y104917D01*
X186894Y104909D01*
X186939Y104904D01*
X186983Y104902D01*
X187526Y105290D02*
X187566Y105376D01*
X187602Y105464D01*
X187635Y105553D01*
X187664Y105643D01*
X187689Y105735D01*
X187710Y105828D01*
X187728Y105921D01*
X187741Y106015D01*
X187751Y106109D01*
X187757Y106204D01*
X187759Y106299D01*
X187526Y105290D02*
X187510Y105248D01*
X187491Y105208D01*
X187468Y105170D01*
X187443Y105133D01*
X187415Y105098D01*
X187385Y105066D01*
X187352Y105036D01*
X187317Y105009D01*
X187279Y104984D01*
X187240Y104963D01*
X187200Y104945D01*
X187158Y104929D01*
X187115Y104917D01*
X187072Y104909D01*
X187027Y104904D01*
X186983Y104902D01*
X186362Y105523D02*
X187604Y107075D01*
X188950Y104902D02*
X189881Y104902D01*
X189930Y104904D01*
X189978Y104910D01*
X190026Y104919D01*
X190073Y104932D01*
X190119Y104949D01*
X190163Y104970D01*
X190205Y104994D01*
X190246Y105021D01*
X190284Y105051D01*
X190320Y105084D01*
X190353Y105120D01*
X190383Y105158D01*
X190410Y105199D01*
X190434Y105241D01*
X190455Y105285D01*
X190472Y105331D01*
X190485Y105378D01*
X190494Y105426D01*
X190500Y105474D01*
X190502Y105523D01*
X190502Y105833D01*
X190500Y105882D01*
X190494Y105930D01*
X190485Y105978D01*
X190472Y106025D01*
X190455Y106071D01*
X190434Y106115D01*
X190410Y106157D01*
X190383Y106198D01*
X190353Y106236D01*
X190320Y106272D01*
X190284Y106305D01*
X190246Y106335D01*
X190205Y106362D01*
X190163Y106386D01*
X190119Y106407D01*
X190073Y106424D01*
X190026Y106437D01*
X189978Y106446D01*
X189930Y106452D01*
X189881Y106454D01*
X188950Y106454D01*
X188950Y107696D01*
X190502Y107696D01*
X12827Y98171D02*
X12827Y95377D01*
X12827Y98171D02*
X13603Y98171D01*
X13658Y98169D01*
X13713Y98163D01*
X13768Y98153D01*
X13822Y98140D01*
X13874Y98122D01*
X13925Y98101D01*
X13975Y98076D01*
X14023Y98048D01*
X14068Y98016D01*
X14111Y97981D01*
X14152Y97944D01*
X14189Y97903D01*
X14224Y97860D01*
X14256Y97815D01*
X14284Y97767D01*
X14309Y97717D01*
X14330Y97666D01*
X14348Y97614D01*
X14361Y97560D01*
X14371Y97505D01*
X14377Y97450D01*
X14379Y97395D01*
X14377Y97340D01*
X14371Y97285D01*
X14361Y97230D01*
X14348Y97176D01*
X14330Y97124D01*
X14309Y97073D01*
X14284Y97023D01*
X14256Y96975D01*
X14224Y96930D01*
X14189Y96887D01*
X14152Y96846D01*
X14111Y96809D01*
X14068Y96774D01*
X14023Y96742D01*
X13975Y96714D01*
X13925Y96689D01*
X13874Y96668D01*
X13822Y96650D01*
X13768Y96637D01*
X13713Y96627D01*
X13658Y96621D01*
X13603Y96619D01*
X12827Y96619D01*
X15282Y95377D02*
X16213Y98171D01*
X17145Y95377D01*
X16912Y96076D02*
X15515Y96076D01*
X18272Y95377D02*
X18272Y98171D01*
X19048Y98171D01*
X19103Y98169D01*
X19158Y98163D01*
X19213Y98153D01*
X19267Y98140D01*
X19319Y98122D01*
X19370Y98101D01*
X19420Y98076D01*
X19468Y98048D01*
X19513Y98016D01*
X19556Y97981D01*
X19597Y97944D01*
X19634Y97903D01*
X19669Y97860D01*
X19701Y97815D01*
X19729Y97767D01*
X19754Y97717D01*
X19775Y97666D01*
X19793Y97614D01*
X19806Y97560D01*
X19816Y97505D01*
X19822Y97450D01*
X19824Y97395D01*
X19824Y96153D01*
X19822Y96100D01*
X19817Y96047D01*
X19808Y95995D01*
X19795Y95944D01*
X19779Y95893D01*
X19760Y95844D01*
X19737Y95796D01*
X19711Y95750D01*
X19682Y95705D01*
X19650Y95663D01*
X19615Y95623D01*
X19578Y95586D01*
X19538Y95551D01*
X19495Y95519D01*
X19451Y95490D01*
X19405Y95464D01*
X19357Y95441D01*
X19308Y95422D01*
X19257Y95406D01*
X19206Y95393D01*
X19154Y95384D01*
X19101Y95379D01*
X19048Y95377D01*
X18272Y95377D01*
X21107Y97550D02*
X21883Y98171D01*
X21883Y95377D01*
X21107Y95377D02*
X22659Y95377D01*
X23849Y96774D02*
X23851Y96869D01*
X23857Y96964D01*
X23867Y97058D01*
X23880Y97152D01*
X23898Y97245D01*
X23919Y97338D01*
X23944Y97430D01*
X23973Y97520D01*
X24006Y97609D01*
X24042Y97697D01*
X24082Y97783D01*
X24083Y97783D02*
X24099Y97825D01*
X24118Y97865D01*
X24141Y97903D01*
X24166Y97940D01*
X24194Y97975D01*
X24224Y98007D01*
X24257Y98037D01*
X24292Y98064D01*
X24330Y98089D01*
X24369Y98110D01*
X24409Y98128D01*
X24451Y98144D01*
X24494Y98156D01*
X24537Y98164D01*
X24582Y98169D01*
X24626Y98171D01*
X24670Y98169D01*
X24715Y98164D01*
X24758Y98156D01*
X24801Y98144D01*
X24843Y98128D01*
X24883Y98110D01*
X24922Y98089D01*
X24960Y98064D01*
X24995Y98037D01*
X25028Y98007D01*
X25058Y97975D01*
X25086Y97940D01*
X25111Y97903D01*
X25134Y97865D01*
X25153Y97825D01*
X25169Y97783D01*
X25209Y97697D01*
X25245Y97609D01*
X25278Y97520D01*
X25307Y97429D01*
X25332Y97338D01*
X25353Y97245D01*
X25371Y97152D01*
X25384Y97058D01*
X25394Y96964D01*
X25400Y96869D01*
X25402Y96774D01*
X23850Y96774D02*
X23852Y96679D01*
X23858Y96584D01*
X23868Y96490D01*
X23881Y96396D01*
X23899Y96303D01*
X23920Y96210D01*
X23945Y96119D01*
X23974Y96028D01*
X24007Y95939D01*
X24043Y95851D01*
X24083Y95765D01*
X24099Y95723D01*
X24118Y95683D01*
X24141Y95645D01*
X24166Y95608D01*
X24194Y95573D01*
X24224Y95541D01*
X24257Y95511D01*
X24292Y95484D01*
X24330Y95459D01*
X24369Y95438D01*
X24409Y95420D01*
X24451Y95404D01*
X24494Y95392D01*
X24537Y95384D01*
X24582Y95379D01*
X24626Y95377D01*
X25169Y95765D02*
X25209Y95851D01*
X25245Y95939D01*
X25278Y96028D01*
X25307Y96118D01*
X25332Y96210D01*
X25353Y96303D01*
X25371Y96396D01*
X25384Y96490D01*
X25394Y96584D01*
X25400Y96679D01*
X25402Y96774D01*
X25169Y95765D02*
X25153Y95723D01*
X25134Y95683D01*
X25111Y95645D01*
X25086Y95608D01*
X25058Y95573D01*
X25028Y95541D01*
X24995Y95511D01*
X24960Y95484D01*
X24922Y95459D01*
X24883Y95438D01*
X24843Y95420D01*
X24801Y95404D01*
X24758Y95392D01*
X24715Y95384D01*
X24670Y95379D01*
X24626Y95377D01*
X24005Y95998D02*
X25247Y97550D01*
X136112Y5398D02*
X136747Y5398D01*
X136112Y5398D02*
X136075Y5400D01*
X136038Y5405D01*
X136001Y5414D01*
X135966Y5427D01*
X135932Y5443D01*
X135900Y5462D01*
X135870Y5484D01*
X135843Y5510D01*
X135817Y5537D01*
X135795Y5567D01*
X135776Y5599D01*
X135760Y5633D01*
X135747Y5668D01*
X135738Y5705D01*
X135733Y5742D01*
X135731Y5779D01*
X135731Y6541D01*
X135733Y6578D01*
X135738Y6615D01*
X135747Y6652D01*
X135760Y6687D01*
X135776Y6721D01*
X135795Y6753D01*
X135817Y6783D01*
X135843Y6810D01*
X135870Y6836D01*
X135900Y6858D01*
X135932Y6877D01*
X135966Y6893D01*
X136001Y6906D01*
X136038Y6915D01*
X136075Y6920D01*
X136112Y6922D01*
X136747Y6922D01*
X136747Y5017D01*
X136745Y4980D01*
X136740Y4943D01*
X136731Y4906D01*
X136718Y4871D01*
X136702Y4837D01*
X136683Y4805D01*
X136661Y4775D01*
X136635Y4748D01*
X136608Y4722D01*
X136578Y4700D01*
X136546Y4681D01*
X136512Y4665D01*
X136477Y4652D01*
X136440Y4643D01*
X136403Y4638D01*
X136366Y4636D01*
X135858Y4636D01*
X137776Y5398D02*
X137776Y6922D01*
X137713Y7557D02*
X137713Y7684D01*
X137840Y7684D01*
X137840Y7557D01*
X137713Y7557D01*
X138518Y6922D02*
X139280Y6922D01*
X138772Y7684D02*
X138772Y5779D01*
X138774Y5742D01*
X138779Y5705D01*
X138788Y5668D01*
X138801Y5633D01*
X138817Y5599D01*
X138836Y5567D01*
X138858Y5537D01*
X138884Y5510D01*
X138911Y5484D01*
X138941Y5462D01*
X138973Y5443D01*
X139007Y5427D01*
X139042Y5414D01*
X139079Y5405D01*
X139116Y5400D01*
X139153Y5398D01*
X139280Y5398D01*
X140240Y5398D02*
X140240Y7684D01*
X140240Y6922D02*
X140875Y6922D01*
X140912Y6920D01*
X140949Y6915D01*
X140986Y6906D01*
X141021Y6893D01*
X141055Y6877D01*
X141087Y6858D01*
X141117Y6836D01*
X141144Y6810D01*
X141170Y6783D01*
X141192Y6753D01*
X141211Y6721D01*
X141227Y6687D01*
X141240Y6652D01*
X141249Y6615D01*
X141254Y6578D01*
X141256Y6541D01*
X141256Y5398D01*
X142374Y5779D02*
X142374Y6922D01*
X142374Y5779D02*
X142376Y5742D01*
X142381Y5705D01*
X142390Y5668D01*
X142403Y5633D01*
X142419Y5599D01*
X142438Y5567D01*
X142460Y5537D01*
X142486Y5510D01*
X142513Y5484D01*
X142543Y5462D01*
X142575Y5443D01*
X142609Y5427D01*
X142644Y5414D01*
X142681Y5405D01*
X142718Y5400D01*
X142755Y5398D01*
X143390Y5398D01*
X143390Y6922D01*
X144521Y7684D02*
X144521Y5398D01*
X145156Y5398D01*
X145193Y5400D01*
X145230Y5405D01*
X145267Y5414D01*
X145302Y5427D01*
X145336Y5443D01*
X145368Y5462D01*
X145398Y5484D01*
X145425Y5510D01*
X145451Y5537D01*
X145473Y5567D01*
X145492Y5599D01*
X145508Y5633D01*
X145521Y5668D01*
X145530Y5705D01*
X145535Y5742D01*
X145537Y5779D01*
X145537Y6541D01*
X145535Y6578D01*
X145530Y6615D01*
X145521Y6652D01*
X145508Y6687D01*
X145492Y6721D01*
X145473Y6753D01*
X145451Y6783D01*
X145425Y6810D01*
X145398Y6836D01*
X145368Y6858D01*
X145336Y6877D01*
X145302Y6893D01*
X145267Y6906D01*
X145230Y6915D01*
X145193Y6920D01*
X145156Y6922D01*
X144521Y6922D01*
X146400Y5525D02*
X146400Y5398D01*
X146400Y5525D02*
X146527Y5525D01*
X146527Y5398D01*
X146400Y5398D01*
X147787Y5398D02*
X148295Y5398D01*
X147787Y5398D02*
X147750Y5400D01*
X147713Y5405D01*
X147676Y5414D01*
X147641Y5427D01*
X147607Y5443D01*
X147575Y5462D01*
X147545Y5484D01*
X147518Y5510D01*
X147492Y5537D01*
X147470Y5567D01*
X147451Y5599D01*
X147435Y5633D01*
X147422Y5668D01*
X147413Y5705D01*
X147408Y5742D01*
X147406Y5779D01*
X147406Y6541D01*
X147408Y6578D01*
X147413Y6615D01*
X147422Y6652D01*
X147435Y6687D01*
X147451Y6721D01*
X147470Y6753D01*
X147492Y6783D01*
X147518Y6810D01*
X147545Y6836D01*
X147575Y6858D01*
X147607Y6877D01*
X147641Y6893D01*
X147676Y6906D01*
X147713Y6915D01*
X147750Y6920D01*
X147787Y6922D01*
X148295Y6922D01*
X149155Y6414D02*
X149155Y5906D01*
X149155Y6414D02*
X149157Y6458D01*
X149163Y6502D01*
X149172Y6545D01*
X149186Y6588D01*
X149203Y6629D01*
X149223Y6668D01*
X149247Y6705D01*
X149274Y6741D01*
X149304Y6773D01*
X149336Y6803D01*
X149372Y6830D01*
X149409Y6854D01*
X149448Y6874D01*
X149489Y6891D01*
X149532Y6905D01*
X149575Y6914D01*
X149619Y6920D01*
X149663Y6922D01*
X149707Y6920D01*
X149751Y6914D01*
X149794Y6905D01*
X149837Y6891D01*
X149878Y6874D01*
X149917Y6854D01*
X149954Y6830D01*
X149990Y6803D01*
X150022Y6773D01*
X150052Y6741D01*
X150079Y6705D01*
X150103Y6668D01*
X150123Y6629D01*
X150140Y6588D01*
X150154Y6545D01*
X150163Y6502D01*
X150169Y6458D01*
X150171Y6414D01*
X150171Y5906D01*
X150169Y5862D01*
X150163Y5818D01*
X150154Y5775D01*
X150140Y5732D01*
X150123Y5691D01*
X150103Y5652D01*
X150079Y5615D01*
X150052Y5579D01*
X150022Y5547D01*
X149990Y5517D01*
X149954Y5490D01*
X149917Y5466D01*
X149878Y5446D01*
X149837Y5429D01*
X149794Y5415D01*
X149751Y5406D01*
X149707Y5400D01*
X149663Y5398D01*
X149619Y5400D01*
X149575Y5406D01*
X149532Y5415D01*
X149489Y5429D01*
X149448Y5446D01*
X149409Y5466D01*
X149372Y5490D01*
X149336Y5517D01*
X149304Y5547D01*
X149274Y5579D01*
X149247Y5615D01*
X149223Y5652D01*
X149203Y5691D01*
X149186Y5732D01*
X149172Y5775D01*
X149163Y5818D01*
X149157Y5862D01*
X149155Y5906D01*
X151264Y5398D02*
X151264Y6922D01*
X152407Y6922D01*
X152444Y6920D01*
X152481Y6915D01*
X152518Y6906D01*
X152553Y6893D01*
X152587Y6877D01*
X152619Y6858D01*
X152649Y6836D01*
X152676Y6810D01*
X152702Y6783D01*
X152724Y6753D01*
X152743Y6721D01*
X152759Y6687D01*
X152772Y6652D01*
X152781Y6615D01*
X152786Y6578D01*
X152788Y6541D01*
X152788Y5398D01*
X152026Y5398D02*
X152026Y6922D01*
X153804Y5144D02*
X154820Y7938D01*
X155835Y6922D02*
X155835Y5398D01*
X155835Y6922D02*
X156978Y6922D01*
X157015Y6920D01*
X157052Y6915D01*
X157089Y6906D01*
X157124Y6893D01*
X157158Y6877D01*
X157190Y6858D01*
X157220Y6836D01*
X157247Y6810D01*
X157273Y6783D01*
X157295Y6753D01*
X157314Y6721D01*
X157330Y6687D01*
X157343Y6652D01*
X157352Y6615D01*
X157357Y6578D01*
X157359Y6541D01*
X157359Y5398D01*
X156597Y5398D02*
X156597Y6922D01*
X158883Y6287D02*
X159454Y6287D01*
X158883Y6287D02*
X158842Y6285D01*
X158801Y6279D01*
X158761Y6270D01*
X158722Y6257D01*
X158685Y6240D01*
X158649Y6220D01*
X158615Y6197D01*
X158583Y6171D01*
X158554Y6142D01*
X158528Y6110D01*
X158505Y6076D01*
X158485Y6040D01*
X158468Y6003D01*
X158455Y5964D01*
X158446Y5924D01*
X158440Y5883D01*
X158438Y5842D01*
X158440Y5801D01*
X158446Y5760D01*
X158455Y5720D01*
X158468Y5681D01*
X158485Y5644D01*
X158505Y5608D01*
X158528Y5574D01*
X158554Y5542D01*
X158583Y5513D01*
X158615Y5487D01*
X158649Y5464D01*
X158685Y5444D01*
X158722Y5427D01*
X158761Y5414D01*
X158801Y5405D01*
X158842Y5399D01*
X158883Y5397D01*
X158883Y5398D02*
X159454Y5398D01*
X159454Y6541D01*
X159452Y6578D01*
X159447Y6615D01*
X159438Y6652D01*
X159425Y6687D01*
X159409Y6721D01*
X159390Y6753D01*
X159368Y6783D01*
X159342Y6810D01*
X159315Y6836D01*
X159285Y6858D01*
X159253Y6877D01*
X159219Y6893D01*
X159184Y6906D01*
X159147Y6915D01*
X159110Y6920D01*
X159073Y6922D01*
X158565Y6922D01*
X160310Y6922D02*
X161072Y6922D01*
X160564Y7684D02*
X160564Y5779D01*
X160566Y5742D01*
X160571Y5705D01*
X160580Y5668D01*
X160593Y5633D01*
X160609Y5599D01*
X160628Y5567D01*
X160650Y5537D01*
X160676Y5510D01*
X160703Y5484D01*
X160733Y5462D01*
X160765Y5443D01*
X160799Y5427D01*
X160834Y5414D01*
X160871Y5405D01*
X160908Y5400D01*
X160945Y5398D01*
X161072Y5398D01*
X161758Y6922D02*
X162520Y6922D01*
X162012Y7684D02*
X162012Y5779D01*
X162014Y5742D01*
X162019Y5705D01*
X162028Y5668D01*
X162041Y5633D01*
X162057Y5599D01*
X162076Y5567D01*
X162098Y5537D01*
X162124Y5510D01*
X162151Y5484D01*
X162181Y5462D01*
X162213Y5443D01*
X162247Y5427D01*
X162282Y5414D01*
X162319Y5405D01*
X162356Y5400D01*
X162393Y5398D01*
X162520Y5398D01*
X163772Y5398D02*
X164407Y5398D01*
X163772Y5398D02*
X163735Y5400D01*
X163698Y5405D01*
X163661Y5414D01*
X163626Y5427D01*
X163592Y5443D01*
X163560Y5462D01*
X163530Y5484D01*
X163503Y5510D01*
X163477Y5537D01*
X163455Y5567D01*
X163436Y5599D01*
X163420Y5633D01*
X163407Y5668D01*
X163398Y5705D01*
X163393Y5742D01*
X163391Y5779D01*
X163391Y6541D01*
X163393Y6578D01*
X163398Y6615D01*
X163407Y6652D01*
X163420Y6687D01*
X163436Y6721D01*
X163455Y6753D01*
X163477Y6783D01*
X163503Y6810D01*
X163530Y6836D01*
X163560Y6858D01*
X163592Y6877D01*
X163626Y6893D01*
X163661Y6906D01*
X163698Y6915D01*
X163735Y6920D01*
X163772Y6922D01*
X164407Y6922D01*
X164407Y5017D01*
X164405Y4980D01*
X164400Y4943D01*
X164391Y4906D01*
X164378Y4871D01*
X164362Y4837D01*
X164343Y4805D01*
X164321Y4775D01*
X164295Y4748D01*
X164268Y4722D01*
X164238Y4700D01*
X164206Y4681D01*
X164172Y4665D01*
X164137Y4652D01*
X164100Y4643D01*
X164063Y4638D01*
X164026Y4636D01*
X163518Y4636D01*
X165843Y5398D02*
X166478Y5398D01*
X165843Y5398D02*
X165806Y5400D01*
X165769Y5405D01*
X165732Y5414D01*
X165697Y5427D01*
X165663Y5443D01*
X165631Y5462D01*
X165601Y5484D01*
X165574Y5510D01*
X165548Y5537D01*
X165526Y5567D01*
X165507Y5599D01*
X165491Y5633D01*
X165478Y5668D01*
X165469Y5705D01*
X165464Y5742D01*
X165462Y5779D01*
X165462Y6414D01*
X165464Y6458D01*
X165470Y6502D01*
X165479Y6545D01*
X165493Y6588D01*
X165510Y6629D01*
X165530Y6668D01*
X165554Y6705D01*
X165581Y6741D01*
X165611Y6773D01*
X165643Y6803D01*
X165679Y6830D01*
X165716Y6854D01*
X165755Y6874D01*
X165796Y6891D01*
X165839Y6905D01*
X165882Y6914D01*
X165926Y6920D01*
X165970Y6922D01*
X166014Y6920D01*
X166058Y6914D01*
X166101Y6905D01*
X166144Y6891D01*
X166185Y6874D01*
X166224Y6854D01*
X166261Y6830D01*
X166297Y6803D01*
X166329Y6773D01*
X166359Y6741D01*
X166386Y6705D01*
X166410Y6668D01*
X166430Y6629D01*
X166447Y6588D01*
X166461Y6545D01*
X166470Y6502D01*
X166476Y6458D01*
X166478Y6414D01*
X166478Y6160D01*
X165462Y6160D01*
X167532Y5398D02*
X167532Y7684D01*
X167532Y5398D02*
X168167Y5398D01*
X168204Y5400D01*
X168241Y5405D01*
X168278Y5414D01*
X168313Y5427D01*
X168347Y5443D01*
X168379Y5462D01*
X168409Y5484D01*
X168436Y5510D01*
X168462Y5537D01*
X168484Y5567D01*
X168503Y5599D01*
X168519Y5633D01*
X168532Y5668D01*
X168541Y5705D01*
X168546Y5742D01*
X168548Y5779D01*
X168548Y6541D01*
X168546Y6578D01*
X168541Y6615D01*
X168532Y6652D01*
X168519Y6687D01*
X168503Y6721D01*
X168484Y6753D01*
X168462Y6783D01*
X168436Y6810D01*
X168409Y6836D01*
X168379Y6858D01*
X168347Y6877D01*
X168313Y6893D01*
X168278Y6906D01*
X168241Y6915D01*
X168204Y6920D01*
X168167Y6922D01*
X167532Y6922D01*
X169881Y5398D02*
X170516Y5398D01*
X169881Y5398D02*
X169844Y5400D01*
X169807Y5405D01*
X169770Y5414D01*
X169735Y5427D01*
X169701Y5443D01*
X169669Y5462D01*
X169639Y5484D01*
X169612Y5510D01*
X169586Y5537D01*
X169564Y5567D01*
X169545Y5599D01*
X169529Y5633D01*
X169516Y5668D01*
X169507Y5705D01*
X169502Y5742D01*
X169500Y5779D01*
X169500Y6414D01*
X169502Y6458D01*
X169508Y6502D01*
X169517Y6545D01*
X169531Y6588D01*
X169548Y6629D01*
X169568Y6668D01*
X169592Y6705D01*
X169619Y6741D01*
X169649Y6773D01*
X169681Y6803D01*
X169717Y6830D01*
X169754Y6854D01*
X169793Y6874D01*
X169834Y6891D01*
X169877Y6905D01*
X169920Y6914D01*
X169964Y6920D01*
X170008Y6922D01*
X170052Y6920D01*
X170096Y6914D01*
X170139Y6905D01*
X170182Y6891D01*
X170223Y6874D01*
X170262Y6854D01*
X170299Y6830D01*
X170335Y6803D01*
X170367Y6773D01*
X170397Y6741D01*
X170424Y6705D01*
X170448Y6668D01*
X170468Y6629D01*
X170485Y6588D01*
X170499Y6545D01*
X170508Y6502D01*
X170514Y6458D01*
X170516Y6414D01*
X170516Y6160D01*
X169500Y6160D01*
X171573Y5398D02*
X171573Y6922D01*
X172335Y6922D01*
X172335Y6668D01*
X172883Y6922D02*
X173645Y6922D01*
X173137Y7684D02*
X173137Y5779D01*
X173139Y5742D01*
X173144Y5705D01*
X173153Y5668D01*
X173166Y5633D01*
X173182Y5599D01*
X173201Y5567D01*
X173223Y5537D01*
X173249Y5510D01*
X173276Y5484D01*
X173306Y5462D01*
X173338Y5443D01*
X173372Y5427D01*
X173407Y5414D01*
X173444Y5405D01*
X173481Y5400D01*
X173518Y5398D01*
X173645Y5398D01*
X174453Y5144D02*
X175469Y7938D01*
X176739Y5398D02*
X177374Y5398D01*
X176739Y5398D02*
X176702Y5400D01*
X176665Y5405D01*
X176628Y5414D01*
X176593Y5427D01*
X176559Y5443D01*
X176527Y5462D01*
X176497Y5484D01*
X176470Y5510D01*
X176444Y5537D01*
X176422Y5567D01*
X176403Y5599D01*
X176387Y5633D01*
X176374Y5668D01*
X176365Y5705D01*
X176360Y5742D01*
X176358Y5779D01*
X176358Y6414D01*
X176360Y6458D01*
X176366Y6502D01*
X176375Y6545D01*
X176389Y6588D01*
X176406Y6629D01*
X176426Y6668D01*
X176450Y6705D01*
X176477Y6741D01*
X176507Y6773D01*
X176539Y6803D01*
X176575Y6830D01*
X176612Y6854D01*
X176651Y6874D01*
X176692Y6891D01*
X176735Y6905D01*
X176778Y6914D01*
X176822Y6920D01*
X176866Y6922D01*
X176910Y6920D01*
X176954Y6914D01*
X176997Y6905D01*
X177040Y6891D01*
X177081Y6874D01*
X177120Y6854D01*
X177157Y6830D01*
X177193Y6803D01*
X177225Y6773D01*
X177255Y6741D01*
X177282Y6705D01*
X177306Y6668D01*
X177326Y6629D01*
X177343Y6588D01*
X177357Y6545D01*
X177366Y6502D01*
X177372Y6458D01*
X177374Y6414D01*
X177374Y6160D01*
X176358Y6160D01*
X178771Y6287D02*
X179342Y6287D01*
X178771Y6287D02*
X178730Y6285D01*
X178689Y6279D01*
X178649Y6270D01*
X178610Y6257D01*
X178573Y6240D01*
X178537Y6220D01*
X178503Y6197D01*
X178471Y6171D01*
X178442Y6142D01*
X178416Y6110D01*
X178393Y6076D01*
X178373Y6040D01*
X178356Y6003D01*
X178343Y5964D01*
X178334Y5924D01*
X178328Y5883D01*
X178326Y5842D01*
X178328Y5801D01*
X178334Y5760D01*
X178343Y5720D01*
X178356Y5681D01*
X178373Y5644D01*
X178393Y5608D01*
X178416Y5574D01*
X178442Y5542D01*
X178471Y5513D01*
X178503Y5487D01*
X178537Y5464D01*
X178573Y5444D01*
X178610Y5427D01*
X178649Y5414D01*
X178689Y5405D01*
X178730Y5399D01*
X178771Y5397D01*
X178771Y5398D02*
X179342Y5398D01*
X179342Y6541D01*
X179340Y6578D01*
X179335Y6615D01*
X179326Y6652D01*
X179313Y6687D01*
X179297Y6721D01*
X179278Y6753D01*
X179256Y6783D01*
X179230Y6810D01*
X179203Y6836D01*
X179173Y6858D01*
X179141Y6877D01*
X179107Y6893D01*
X179072Y6906D01*
X179035Y6915D01*
X178998Y6920D01*
X178961Y6922D01*
X178453Y6922D01*
X180765Y5398D02*
X181400Y5398D01*
X180765Y5398D02*
X180728Y5400D01*
X180691Y5405D01*
X180654Y5414D01*
X180619Y5427D01*
X180585Y5443D01*
X180553Y5462D01*
X180523Y5484D01*
X180496Y5510D01*
X180470Y5537D01*
X180448Y5567D01*
X180429Y5599D01*
X180413Y5633D01*
X180400Y5668D01*
X180391Y5705D01*
X180386Y5742D01*
X180384Y5779D01*
X180384Y6541D01*
X180386Y6578D01*
X180391Y6615D01*
X180400Y6652D01*
X180413Y6687D01*
X180429Y6721D01*
X180448Y6753D01*
X180470Y6783D01*
X180496Y6810D01*
X180523Y6836D01*
X180553Y6858D01*
X180585Y6877D01*
X180619Y6893D01*
X180654Y6906D01*
X180691Y6915D01*
X180728Y6920D01*
X180765Y6922D01*
X181400Y6922D01*
X181400Y5017D01*
X181398Y4980D01*
X181393Y4943D01*
X181384Y4906D01*
X181371Y4871D01*
X181355Y4837D01*
X181336Y4805D01*
X181314Y4775D01*
X181288Y4748D01*
X181261Y4722D01*
X181231Y4700D01*
X181199Y4681D01*
X181165Y4665D01*
X181130Y4652D01*
X181093Y4643D01*
X181056Y4638D01*
X181019Y4636D01*
X180511Y4636D01*
X182478Y5779D02*
X182478Y7684D01*
X182478Y5779D02*
X182480Y5742D01*
X182485Y5705D01*
X182494Y5668D01*
X182507Y5633D01*
X182523Y5599D01*
X182542Y5567D01*
X182564Y5537D01*
X182590Y5510D01*
X182617Y5484D01*
X182647Y5462D01*
X182679Y5443D01*
X182713Y5427D01*
X182748Y5414D01*
X182785Y5405D01*
X182822Y5400D01*
X182859Y5398D01*
X184054Y5398D02*
X184689Y5398D01*
X184054Y5398D02*
X184017Y5400D01*
X183980Y5405D01*
X183943Y5414D01*
X183908Y5427D01*
X183874Y5443D01*
X183842Y5462D01*
X183812Y5484D01*
X183785Y5510D01*
X183759Y5537D01*
X183737Y5567D01*
X183718Y5599D01*
X183702Y5633D01*
X183689Y5668D01*
X183680Y5705D01*
X183675Y5742D01*
X183673Y5779D01*
X183673Y6414D01*
X183675Y6458D01*
X183681Y6502D01*
X183690Y6545D01*
X183704Y6588D01*
X183721Y6629D01*
X183741Y6668D01*
X183765Y6705D01*
X183792Y6741D01*
X183822Y6773D01*
X183854Y6803D01*
X183890Y6830D01*
X183927Y6854D01*
X183966Y6874D01*
X184007Y6891D01*
X184050Y6905D01*
X184093Y6914D01*
X184137Y6920D01*
X184181Y6922D01*
X184225Y6920D01*
X184269Y6914D01*
X184312Y6905D01*
X184355Y6891D01*
X184396Y6874D01*
X184435Y6854D01*
X184472Y6830D01*
X184508Y6803D01*
X184540Y6773D01*
X184570Y6741D01*
X184597Y6705D01*
X184621Y6668D01*
X184641Y6629D01*
X184658Y6588D01*
X184672Y6545D01*
X184681Y6502D01*
X184687Y6458D01*
X184689Y6414D01*
X184689Y6160D01*
X183673Y6160D01*
X186180Y5398D02*
X186688Y5398D01*
X186180Y5398D02*
X186136Y5400D01*
X186092Y5406D01*
X186049Y5415D01*
X186006Y5429D01*
X185965Y5446D01*
X185926Y5466D01*
X185889Y5490D01*
X185853Y5517D01*
X185821Y5547D01*
X185791Y5579D01*
X185764Y5615D01*
X185740Y5652D01*
X185720Y5691D01*
X185703Y5732D01*
X185689Y5775D01*
X185680Y5818D01*
X185674Y5862D01*
X185672Y5906D01*
X185672Y7176D01*
X185674Y7220D01*
X185680Y7264D01*
X185689Y7307D01*
X185703Y7350D01*
X185720Y7391D01*
X185740Y7430D01*
X185764Y7467D01*
X185791Y7503D01*
X185821Y7535D01*
X185853Y7565D01*
X185889Y7592D01*
X185926Y7616D01*
X185965Y7636D01*
X186006Y7653D01*
X186049Y7667D01*
X186092Y7676D01*
X186136Y7682D01*
X186180Y7684D01*
X186688Y7684D01*
X187534Y6922D02*
X187534Y5398D01*
X187471Y7557D02*
X187471Y7684D01*
X187598Y7684D01*
X187598Y7557D01*
X187471Y7557D01*
X188565Y6922D02*
X188565Y5398D01*
X188565Y6922D02*
X189327Y6922D01*
X189327Y6668D01*
X190458Y5398D02*
X190966Y5398D01*
X190458Y5398D02*
X190421Y5400D01*
X190384Y5405D01*
X190347Y5414D01*
X190312Y5427D01*
X190278Y5443D01*
X190246Y5462D01*
X190216Y5484D01*
X190189Y5510D01*
X190163Y5537D01*
X190141Y5567D01*
X190122Y5599D01*
X190106Y5633D01*
X190093Y5668D01*
X190084Y5705D01*
X190079Y5742D01*
X190077Y5779D01*
X190077Y6541D01*
X190079Y6578D01*
X190084Y6615D01*
X190093Y6652D01*
X190106Y6687D01*
X190122Y6721D01*
X190141Y6753D01*
X190163Y6783D01*
X190189Y6810D01*
X190216Y6836D01*
X190246Y6858D01*
X190278Y6877D01*
X190312Y6893D01*
X190347Y6906D01*
X190384Y6915D01*
X190421Y6920D01*
X190458Y6922D01*
X190966Y6922D01*
X191903Y6922D02*
X191903Y5779D01*
X191905Y5742D01*
X191910Y5705D01*
X191919Y5668D01*
X191932Y5633D01*
X191948Y5599D01*
X191967Y5567D01*
X191989Y5537D01*
X192015Y5510D01*
X192042Y5484D01*
X192072Y5462D01*
X192104Y5443D01*
X192138Y5427D01*
X192173Y5414D01*
X192210Y5405D01*
X192247Y5400D01*
X192284Y5398D01*
X192919Y5398D01*
X192919Y6922D01*
X193935Y6922D02*
X193935Y5398D01*
X193871Y7557D02*
X193871Y7684D01*
X193998Y7684D01*
X193998Y7557D01*
X193871Y7557D01*
X194676Y6922D02*
X195438Y6922D01*
X194930Y7684D02*
X194930Y5779D01*
X194932Y5742D01*
X194937Y5705D01*
X194946Y5668D01*
X194959Y5633D01*
X194975Y5599D01*
X194994Y5567D01*
X195016Y5537D01*
X195042Y5510D01*
X195069Y5484D01*
X195099Y5462D01*
X195131Y5443D01*
X195165Y5427D01*
X195200Y5414D01*
X195237Y5405D01*
X195274Y5400D01*
X195311Y5398D01*
X195438Y5398D01*
X196513Y6287D02*
X197148Y6033D01*
X196513Y6287D02*
X196481Y6301D01*
X196451Y6319D01*
X196423Y6341D01*
X196397Y6365D01*
X196374Y6391D01*
X196354Y6420D01*
X196338Y6451D01*
X196324Y6483D01*
X196315Y6517D01*
X196308Y6552D01*
X196306Y6587D01*
X196307Y6622D01*
X196312Y6657D01*
X196321Y6691D01*
X196333Y6723D01*
X196349Y6755D01*
X196368Y6784D01*
X196390Y6812D01*
X196415Y6837D01*
X196442Y6859D01*
X196472Y6878D01*
X196503Y6893D01*
X196536Y6906D01*
X196570Y6914D01*
X196605Y6920D01*
X196640Y6921D01*
X196640Y6922D02*
X196713Y6919D01*
X196787Y6912D01*
X196860Y6902D01*
X196932Y6888D01*
X197004Y6870D01*
X197074Y6848D01*
X197143Y6823D01*
X197211Y6795D01*
X197147Y6032D02*
X197179Y6018D01*
X197209Y6000D01*
X197237Y5978D01*
X197263Y5954D01*
X197286Y5928D01*
X197306Y5899D01*
X197322Y5868D01*
X197336Y5836D01*
X197345Y5802D01*
X197352Y5767D01*
X197354Y5732D01*
X197353Y5697D01*
X197348Y5662D01*
X197339Y5628D01*
X197327Y5596D01*
X197311Y5564D01*
X197292Y5535D01*
X197270Y5507D01*
X197245Y5482D01*
X197218Y5460D01*
X197188Y5441D01*
X197157Y5426D01*
X197124Y5413D01*
X197090Y5405D01*
X197055Y5399D01*
X197020Y5398D01*
X197021Y5398D02*
X196932Y5401D01*
X196843Y5408D01*
X196755Y5419D01*
X196667Y5433D01*
X196579Y5450D01*
X196493Y5472D01*
X196407Y5497D01*
X196323Y5525D01*
X8477Y194120D02*
X8477Y197930D01*
X9536Y197930D01*
X9536Y197929D02*
X9600Y197927D01*
X9664Y197921D01*
X9727Y197912D01*
X9789Y197898D01*
X9851Y197881D01*
X9911Y197860D01*
X9970Y197836D01*
X10028Y197808D01*
X10083Y197776D01*
X10137Y197742D01*
X10188Y197704D01*
X10238Y197663D01*
X10284Y197619D01*
X10328Y197573D01*
X10369Y197523D01*
X10407Y197472D01*
X10441Y197418D01*
X10473Y197363D01*
X10501Y197305D01*
X10525Y197246D01*
X10546Y197186D01*
X10563Y197124D01*
X10577Y197062D01*
X10586Y196999D01*
X10592Y196935D01*
X10594Y196871D01*
X10592Y196807D01*
X10586Y196743D01*
X10577Y196680D01*
X10563Y196618D01*
X10546Y196556D01*
X10525Y196496D01*
X10501Y196437D01*
X10473Y196379D01*
X10441Y196324D01*
X10407Y196270D01*
X10369Y196219D01*
X10328Y196169D01*
X10284Y196123D01*
X10238Y196079D01*
X10188Y196038D01*
X10137Y196000D01*
X10083Y195966D01*
X10028Y195934D01*
X9970Y195906D01*
X9911Y195882D01*
X9851Y195861D01*
X9789Y195844D01*
X9727Y195830D01*
X9664Y195821D01*
X9600Y195815D01*
X9536Y195813D01*
X8477Y195813D01*
X12073Y196660D02*
X12073Y194120D01*
X12073Y196660D02*
X13343Y196660D01*
X13343Y196236D01*
X14493Y195813D02*
X14493Y194966D01*
X14492Y195813D02*
X14494Y195870D01*
X14500Y195926D01*
X14509Y195982D01*
X14522Y196037D01*
X14539Y196091D01*
X14559Y196144D01*
X14583Y196195D01*
X14610Y196245D01*
X14641Y196292D01*
X14674Y196338D01*
X14711Y196381D01*
X14750Y196422D01*
X14792Y196460D01*
X14837Y196495D01*
X14883Y196527D01*
X14932Y196556D01*
X14982Y196581D01*
X15035Y196603D01*
X15088Y196622D01*
X15143Y196637D01*
X15198Y196648D01*
X15254Y196656D01*
X15311Y196660D01*
X15367Y196660D01*
X15424Y196656D01*
X15480Y196648D01*
X15535Y196637D01*
X15590Y196622D01*
X15643Y196603D01*
X15696Y196581D01*
X15746Y196556D01*
X15795Y196527D01*
X15841Y196495D01*
X15886Y196460D01*
X15928Y196422D01*
X15967Y196381D01*
X16004Y196338D01*
X16037Y196292D01*
X16068Y196245D01*
X16095Y196195D01*
X16119Y196144D01*
X16139Y196091D01*
X16156Y196037D01*
X16169Y195982D01*
X16178Y195926D01*
X16184Y195870D01*
X16186Y195813D01*
X16186Y194966D01*
X16184Y194909D01*
X16178Y194853D01*
X16169Y194797D01*
X16156Y194742D01*
X16139Y194688D01*
X16119Y194635D01*
X16095Y194584D01*
X16068Y194534D01*
X16037Y194487D01*
X16004Y194441D01*
X15967Y194398D01*
X15928Y194357D01*
X15886Y194319D01*
X15841Y194284D01*
X15795Y194252D01*
X15746Y194223D01*
X15696Y194198D01*
X15643Y194176D01*
X15590Y194157D01*
X15535Y194142D01*
X15480Y194131D01*
X15424Y194123D01*
X15367Y194119D01*
X15311Y194119D01*
X15254Y194123D01*
X15198Y194131D01*
X15143Y194142D01*
X15088Y194157D01*
X15035Y194176D01*
X14982Y194198D01*
X14932Y194223D01*
X14883Y194252D01*
X14837Y194284D01*
X14792Y194319D01*
X14750Y194357D01*
X14711Y194398D01*
X14674Y194441D01*
X14641Y194487D01*
X14610Y194534D01*
X14583Y194584D01*
X14559Y194635D01*
X14539Y194688D01*
X14522Y194742D01*
X14509Y194797D01*
X14500Y194853D01*
X14494Y194909D01*
X14492Y194966D01*
X17801Y194120D02*
X17801Y197930D01*
X17801Y194120D02*
X18860Y194120D01*
X18907Y194122D01*
X18955Y194127D01*
X19001Y194136D01*
X19047Y194148D01*
X19092Y194164D01*
X19136Y194183D01*
X19178Y194205D01*
X19218Y194230D01*
X19256Y194259D01*
X19292Y194290D01*
X19325Y194323D01*
X19356Y194359D01*
X19385Y194397D01*
X19410Y194438D01*
X19432Y194479D01*
X19451Y194523D01*
X19467Y194568D01*
X19479Y194614D01*
X19488Y194660D01*
X19493Y194708D01*
X19495Y194755D01*
X19495Y196025D01*
X19493Y196072D01*
X19488Y196120D01*
X19479Y196166D01*
X19467Y196212D01*
X19451Y196257D01*
X19432Y196301D01*
X19410Y196343D01*
X19385Y196383D01*
X19356Y196421D01*
X19325Y196457D01*
X19292Y196490D01*
X19256Y196521D01*
X19218Y196550D01*
X19178Y196575D01*
X19136Y196597D01*
X19092Y196616D01*
X19047Y196632D01*
X19001Y196644D01*
X18955Y196653D01*
X18907Y196658D01*
X18860Y196660D01*
X17801Y196660D01*
X21589Y194120D02*
X22648Y194120D01*
X21589Y194120D02*
X21542Y194122D01*
X21494Y194127D01*
X21448Y194136D01*
X21402Y194148D01*
X21357Y194164D01*
X21313Y194183D01*
X21272Y194205D01*
X21231Y194230D01*
X21193Y194259D01*
X21157Y194290D01*
X21124Y194323D01*
X21093Y194359D01*
X21064Y194397D01*
X21039Y194438D01*
X21017Y194479D01*
X20998Y194523D01*
X20982Y194568D01*
X20970Y194614D01*
X20961Y194660D01*
X20956Y194708D01*
X20954Y194755D01*
X20954Y195813D01*
X20956Y195870D01*
X20962Y195926D01*
X20971Y195982D01*
X20984Y196037D01*
X21001Y196091D01*
X21021Y196144D01*
X21045Y196195D01*
X21072Y196245D01*
X21103Y196292D01*
X21136Y196338D01*
X21173Y196381D01*
X21212Y196422D01*
X21254Y196460D01*
X21299Y196495D01*
X21345Y196527D01*
X21394Y196556D01*
X21444Y196581D01*
X21497Y196603D01*
X21550Y196622D01*
X21605Y196637D01*
X21660Y196648D01*
X21716Y196656D01*
X21773Y196660D01*
X21829Y196660D01*
X21886Y196656D01*
X21942Y196648D01*
X21997Y196637D01*
X22052Y196622D01*
X22105Y196603D01*
X22158Y196581D01*
X22208Y196556D01*
X22257Y196527D01*
X22303Y196495D01*
X22348Y196460D01*
X22390Y196422D01*
X22429Y196381D01*
X22466Y196338D01*
X22499Y196292D01*
X22530Y196245D01*
X22557Y196195D01*
X22581Y196144D01*
X22601Y196091D01*
X22618Y196037D01*
X22631Y195982D01*
X22640Y195926D01*
X22646Y195870D01*
X22648Y195813D01*
X22648Y195390D01*
X20954Y195390D01*
X27255Y194119D02*
X27313Y194121D01*
X27370Y194127D01*
X27427Y194137D01*
X27484Y194150D01*
X27539Y194168D01*
X27592Y194189D01*
X27645Y194214D01*
X27695Y194242D01*
X27743Y194274D01*
X27790Y194309D01*
X27833Y194347D01*
X27874Y194388D01*
X27912Y194431D01*
X27947Y194478D01*
X27979Y194526D01*
X28007Y194576D01*
X28032Y194629D01*
X28053Y194682D01*
X28071Y194737D01*
X28084Y194794D01*
X28094Y194851D01*
X28100Y194908D01*
X28102Y194966D01*
X27255Y194120D02*
X27172Y194122D01*
X27089Y194128D01*
X27007Y194137D01*
X26925Y194151D01*
X26844Y194168D01*
X26763Y194189D01*
X26684Y194214D01*
X26606Y194242D01*
X26529Y194274D01*
X26454Y194309D01*
X26381Y194348D01*
X26309Y194391D01*
X26240Y194436D01*
X26173Y194485D01*
X26108Y194537D01*
X26045Y194591D01*
X25985Y194649D01*
X26091Y197083D02*
X26093Y197138D01*
X26098Y197194D01*
X26107Y197248D01*
X26120Y197302D01*
X26136Y197355D01*
X26155Y197407D01*
X26178Y197458D01*
X26204Y197507D01*
X26234Y197554D01*
X26266Y197599D01*
X26301Y197641D01*
X26339Y197682D01*
X26380Y197720D01*
X26422Y197755D01*
X26467Y197787D01*
X26515Y197817D01*
X26563Y197843D01*
X26614Y197866D01*
X26666Y197885D01*
X26719Y197901D01*
X26773Y197914D01*
X26827Y197923D01*
X26883Y197928D01*
X26938Y197930D01*
X27017Y197928D01*
X27095Y197922D01*
X27173Y197913D01*
X27250Y197899D01*
X27327Y197882D01*
X27403Y197860D01*
X27477Y197836D01*
X27551Y197807D01*
X27622Y197775D01*
X27692Y197739D01*
X27761Y197700D01*
X27827Y197658D01*
X27891Y197612D01*
X26514Y196342D02*
X26467Y196372D01*
X26422Y196405D01*
X26379Y196441D01*
X26339Y196479D01*
X26301Y196520D01*
X26266Y196563D01*
X26234Y196609D01*
X26204Y196656D01*
X26178Y196706D01*
X26155Y196757D01*
X26136Y196809D01*
X26120Y196862D01*
X26107Y196917D01*
X26098Y196972D01*
X26093Y197027D01*
X26091Y197083D01*
X27679Y195707D02*
X27726Y195677D01*
X27771Y195644D01*
X27814Y195608D01*
X27854Y195570D01*
X27892Y195529D01*
X27927Y195486D01*
X27959Y195440D01*
X27989Y195393D01*
X28015Y195343D01*
X28038Y195292D01*
X28057Y195240D01*
X28073Y195187D01*
X28086Y195132D01*
X28095Y195077D01*
X28100Y195022D01*
X28102Y194966D01*
X27679Y195707D02*
X26514Y196342D01*
X29186Y196660D02*
X30456Y196660D01*
X29610Y197930D02*
X29610Y194755D01*
X29612Y194708D01*
X29617Y194660D01*
X29626Y194614D01*
X29638Y194568D01*
X29654Y194523D01*
X29673Y194479D01*
X29695Y194438D01*
X29720Y194397D01*
X29749Y194359D01*
X29780Y194323D01*
X29813Y194290D01*
X29849Y194259D01*
X29887Y194230D01*
X29928Y194205D01*
X29969Y194183D01*
X30013Y194164D01*
X30058Y194148D01*
X30104Y194136D01*
X30150Y194127D01*
X30198Y194122D01*
X30245Y194120D01*
X30456Y194120D01*
X32529Y195601D02*
X33482Y195601D01*
X32529Y195601D02*
X32476Y195599D01*
X32424Y195593D01*
X32371Y195584D01*
X32320Y195571D01*
X32270Y195554D01*
X32221Y195534D01*
X32174Y195510D01*
X32128Y195483D01*
X32085Y195453D01*
X32044Y195420D01*
X32005Y195384D01*
X31969Y195345D01*
X31936Y195304D01*
X31906Y195261D01*
X31879Y195215D01*
X31855Y195168D01*
X31835Y195119D01*
X31818Y195069D01*
X31805Y195018D01*
X31796Y194965D01*
X31790Y194913D01*
X31788Y194860D01*
X31790Y194807D01*
X31796Y194755D01*
X31805Y194702D01*
X31818Y194651D01*
X31835Y194601D01*
X31855Y194552D01*
X31879Y194505D01*
X31906Y194459D01*
X31936Y194416D01*
X31969Y194375D01*
X32005Y194336D01*
X32044Y194300D01*
X32085Y194267D01*
X32128Y194237D01*
X32174Y194210D01*
X32221Y194186D01*
X32270Y194166D01*
X32320Y194149D01*
X32371Y194136D01*
X32424Y194127D01*
X32476Y194121D01*
X32529Y194119D01*
X32529Y194120D02*
X33482Y194120D01*
X33482Y196025D01*
X33480Y196072D01*
X33475Y196120D01*
X33466Y196166D01*
X33454Y196212D01*
X33438Y196257D01*
X33419Y196301D01*
X33397Y196343D01*
X33372Y196383D01*
X33343Y196421D01*
X33312Y196457D01*
X33279Y196490D01*
X33243Y196521D01*
X33205Y196550D01*
X33165Y196575D01*
X33123Y196597D01*
X33079Y196616D01*
X33034Y196632D01*
X32988Y196644D01*
X32942Y196653D01*
X32894Y196658D01*
X32847Y196660D01*
X32000Y196660D01*
X34795Y196660D02*
X36065Y196660D01*
X35218Y197930D02*
X35218Y194755D01*
X35220Y194708D01*
X35225Y194660D01*
X35234Y194614D01*
X35246Y194568D01*
X35262Y194523D01*
X35281Y194479D01*
X35303Y194438D01*
X35328Y194397D01*
X35357Y194359D01*
X35388Y194323D01*
X35421Y194290D01*
X35457Y194259D01*
X35495Y194230D01*
X35536Y194205D01*
X35577Y194183D01*
X35621Y194164D01*
X35666Y194148D01*
X35712Y194136D01*
X35758Y194127D01*
X35806Y194122D01*
X35853Y194120D01*
X36065Y194120D01*
X37407Y194120D02*
X37407Y196660D01*
X37301Y197718D02*
X37301Y197930D01*
X37512Y197930D01*
X37512Y197718D01*
X37301Y197718D01*
X38876Y195813D02*
X38876Y194966D01*
X38876Y195813D02*
X38878Y195870D01*
X38884Y195926D01*
X38893Y195982D01*
X38906Y196037D01*
X38923Y196091D01*
X38943Y196144D01*
X38967Y196195D01*
X38994Y196245D01*
X39025Y196292D01*
X39058Y196338D01*
X39095Y196381D01*
X39134Y196422D01*
X39176Y196460D01*
X39221Y196495D01*
X39267Y196527D01*
X39316Y196556D01*
X39366Y196581D01*
X39419Y196603D01*
X39472Y196622D01*
X39527Y196637D01*
X39582Y196648D01*
X39638Y196656D01*
X39695Y196660D01*
X39751Y196660D01*
X39808Y196656D01*
X39864Y196648D01*
X39919Y196637D01*
X39974Y196622D01*
X40027Y196603D01*
X40080Y196581D01*
X40130Y196556D01*
X40179Y196527D01*
X40225Y196495D01*
X40270Y196460D01*
X40312Y196422D01*
X40351Y196381D01*
X40388Y196338D01*
X40421Y196292D01*
X40452Y196245D01*
X40479Y196195D01*
X40503Y196144D01*
X40523Y196091D01*
X40540Y196037D01*
X40553Y195982D01*
X40562Y195926D01*
X40568Y195870D01*
X40570Y195813D01*
X40570Y194966D01*
X40568Y194909D01*
X40562Y194853D01*
X40553Y194797D01*
X40540Y194742D01*
X40523Y194688D01*
X40503Y194635D01*
X40479Y194584D01*
X40452Y194534D01*
X40421Y194487D01*
X40388Y194441D01*
X40351Y194398D01*
X40312Y194357D01*
X40270Y194319D01*
X40225Y194284D01*
X40179Y194252D01*
X40130Y194223D01*
X40080Y194198D01*
X40027Y194176D01*
X39974Y194157D01*
X39919Y194142D01*
X39864Y194131D01*
X39808Y194123D01*
X39751Y194119D01*
X39695Y194119D01*
X39638Y194123D01*
X39582Y194131D01*
X39527Y194142D01*
X39472Y194157D01*
X39419Y194176D01*
X39366Y194198D01*
X39316Y194223D01*
X39267Y194252D01*
X39221Y194284D01*
X39176Y194319D01*
X39134Y194357D01*
X39095Y194398D01*
X39058Y194441D01*
X39025Y194487D01*
X38994Y194534D01*
X38967Y194584D01*
X38943Y194635D01*
X38923Y194688D01*
X38906Y194742D01*
X38893Y194797D01*
X38884Y194853D01*
X38878Y194909D01*
X38876Y194966D01*
X42168Y194120D02*
X42168Y196660D01*
X43227Y196660D01*
X43274Y196658D01*
X43322Y196653D01*
X43368Y196644D01*
X43414Y196632D01*
X43459Y196616D01*
X43503Y196597D01*
X43545Y196575D01*
X43585Y196550D01*
X43623Y196521D01*
X43659Y196490D01*
X43692Y196457D01*
X43723Y196421D01*
X43752Y196383D01*
X43777Y196343D01*
X43799Y196301D01*
X43818Y196257D01*
X43834Y196212D01*
X43846Y196166D01*
X43855Y196120D01*
X43860Y196072D01*
X43862Y196025D01*
X43862Y194120D01*
X47613Y196236D02*
X48671Y196236D01*
X48735Y196234D01*
X48799Y196228D01*
X48862Y196219D01*
X48924Y196205D01*
X48986Y196188D01*
X49046Y196167D01*
X49105Y196143D01*
X49163Y196115D01*
X49218Y196083D01*
X49272Y196049D01*
X49323Y196011D01*
X49373Y195970D01*
X49419Y195926D01*
X49463Y195880D01*
X49504Y195830D01*
X49542Y195779D01*
X49576Y195725D01*
X49608Y195670D01*
X49636Y195612D01*
X49660Y195553D01*
X49681Y195493D01*
X49698Y195431D01*
X49712Y195369D01*
X49721Y195306D01*
X49727Y195242D01*
X49729Y195178D01*
X49727Y195114D01*
X49721Y195050D01*
X49712Y194987D01*
X49698Y194925D01*
X49681Y194863D01*
X49660Y194803D01*
X49636Y194744D01*
X49608Y194686D01*
X49576Y194631D01*
X49542Y194577D01*
X49504Y194526D01*
X49463Y194476D01*
X49419Y194430D01*
X49373Y194386D01*
X49323Y194345D01*
X49272Y194307D01*
X49218Y194273D01*
X49163Y194241D01*
X49105Y194213D01*
X49046Y194189D01*
X48986Y194168D01*
X48924Y194151D01*
X48862Y194137D01*
X48799Y194128D01*
X48735Y194122D01*
X48671Y194120D01*
X47613Y194120D01*
X47613Y197930D01*
X48671Y197930D01*
X48728Y197928D01*
X48784Y197922D01*
X48840Y197913D01*
X48895Y197900D01*
X48949Y197883D01*
X49002Y197863D01*
X49053Y197839D01*
X49103Y197812D01*
X49150Y197781D01*
X49196Y197748D01*
X49239Y197711D01*
X49280Y197672D01*
X49318Y197630D01*
X49353Y197585D01*
X49385Y197539D01*
X49414Y197490D01*
X49439Y197440D01*
X49461Y197387D01*
X49480Y197334D01*
X49495Y197279D01*
X49506Y197224D01*
X49514Y197168D01*
X49518Y197111D01*
X49518Y197055D01*
X49514Y196998D01*
X49506Y196942D01*
X49495Y196887D01*
X49480Y196832D01*
X49461Y196779D01*
X49439Y196726D01*
X49414Y196676D01*
X49385Y196627D01*
X49353Y196581D01*
X49318Y196536D01*
X49280Y196494D01*
X49239Y196455D01*
X49196Y196418D01*
X49150Y196385D01*
X49103Y196354D01*
X49053Y196327D01*
X49002Y196303D01*
X48949Y196283D01*
X48895Y196266D01*
X48840Y196253D01*
X48784Y196244D01*
X48728Y196238D01*
X48671Y196236D01*
X51068Y195813D02*
X51068Y194966D01*
X51068Y195813D02*
X51070Y195870D01*
X51076Y195926D01*
X51085Y195982D01*
X51098Y196037D01*
X51115Y196091D01*
X51135Y196144D01*
X51159Y196195D01*
X51186Y196245D01*
X51217Y196292D01*
X51250Y196338D01*
X51287Y196381D01*
X51326Y196422D01*
X51368Y196460D01*
X51413Y196495D01*
X51459Y196527D01*
X51508Y196556D01*
X51558Y196581D01*
X51611Y196603D01*
X51664Y196622D01*
X51719Y196637D01*
X51774Y196648D01*
X51830Y196656D01*
X51887Y196660D01*
X51943Y196660D01*
X52000Y196656D01*
X52056Y196648D01*
X52111Y196637D01*
X52166Y196622D01*
X52219Y196603D01*
X52272Y196581D01*
X52322Y196556D01*
X52371Y196527D01*
X52417Y196495D01*
X52462Y196460D01*
X52504Y196422D01*
X52543Y196381D01*
X52580Y196338D01*
X52613Y196292D01*
X52644Y196245D01*
X52671Y196195D01*
X52695Y196144D01*
X52715Y196091D01*
X52732Y196037D01*
X52745Y195982D01*
X52754Y195926D01*
X52760Y195870D01*
X52762Y195813D01*
X52762Y194966D01*
X52760Y194909D01*
X52754Y194853D01*
X52745Y194797D01*
X52732Y194742D01*
X52715Y194688D01*
X52695Y194635D01*
X52671Y194584D01*
X52644Y194534D01*
X52613Y194487D01*
X52580Y194441D01*
X52543Y194398D01*
X52504Y194357D01*
X52462Y194319D01*
X52417Y194284D01*
X52371Y194252D01*
X52322Y194223D01*
X52272Y194198D01*
X52219Y194176D01*
X52166Y194157D01*
X52111Y194142D01*
X52056Y194131D01*
X52000Y194123D01*
X51943Y194119D01*
X51887Y194119D01*
X51830Y194123D01*
X51774Y194131D01*
X51719Y194142D01*
X51664Y194157D01*
X51611Y194176D01*
X51558Y194198D01*
X51508Y194223D01*
X51459Y194252D01*
X51413Y194284D01*
X51368Y194319D01*
X51326Y194357D01*
X51287Y194398D01*
X51250Y194441D01*
X51217Y194487D01*
X51186Y194534D01*
X51159Y194584D01*
X51135Y194635D01*
X51115Y194688D01*
X51098Y194742D01*
X51085Y194797D01*
X51076Y194853D01*
X51070Y194909D01*
X51068Y194966D01*
X54962Y195601D02*
X55915Y195601D01*
X54962Y195601D02*
X54909Y195599D01*
X54857Y195593D01*
X54804Y195584D01*
X54753Y195571D01*
X54703Y195554D01*
X54654Y195534D01*
X54607Y195510D01*
X54561Y195483D01*
X54518Y195453D01*
X54477Y195420D01*
X54438Y195384D01*
X54402Y195345D01*
X54369Y195304D01*
X54339Y195261D01*
X54312Y195215D01*
X54288Y195168D01*
X54268Y195119D01*
X54251Y195069D01*
X54238Y195018D01*
X54229Y194965D01*
X54223Y194913D01*
X54221Y194860D01*
X54223Y194807D01*
X54229Y194755D01*
X54238Y194702D01*
X54251Y194651D01*
X54268Y194601D01*
X54288Y194552D01*
X54312Y194505D01*
X54339Y194459D01*
X54369Y194416D01*
X54402Y194375D01*
X54438Y194336D01*
X54477Y194300D01*
X54518Y194267D01*
X54561Y194237D01*
X54607Y194210D01*
X54654Y194186D01*
X54703Y194166D01*
X54753Y194149D01*
X54804Y194136D01*
X54857Y194127D01*
X54909Y194121D01*
X54962Y194119D01*
X54962Y194120D02*
X55915Y194120D01*
X55915Y196025D01*
X55913Y196072D01*
X55908Y196120D01*
X55899Y196166D01*
X55887Y196212D01*
X55871Y196257D01*
X55852Y196301D01*
X55830Y196343D01*
X55805Y196383D01*
X55776Y196421D01*
X55745Y196457D01*
X55712Y196490D01*
X55676Y196521D01*
X55638Y196550D01*
X55598Y196575D01*
X55556Y196597D01*
X55512Y196616D01*
X55467Y196632D01*
X55421Y196644D01*
X55375Y196653D01*
X55327Y196658D01*
X55280Y196660D01*
X54433Y196660D01*
X57671Y196660D02*
X57671Y194120D01*
X57671Y196660D02*
X58941Y196660D01*
X58941Y196236D01*
X61767Y197930D02*
X61767Y194120D01*
X60708Y194120D01*
X60661Y194122D01*
X60613Y194127D01*
X60567Y194136D01*
X60521Y194148D01*
X60476Y194164D01*
X60432Y194183D01*
X60391Y194205D01*
X60350Y194230D01*
X60312Y194259D01*
X60276Y194290D01*
X60243Y194323D01*
X60212Y194359D01*
X60183Y194397D01*
X60158Y194438D01*
X60136Y194479D01*
X60117Y194523D01*
X60101Y194568D01*
X60089Y194614D01*
X60080Y194660D01*
X60075Y194708D01*
X60073Y194755D01*
X60073Y196025D01*
X60075Y196072D01*
X60080Y196120D01*
X60089Y196166D01*
X60101Y196212D01*
X60117Y196257D01*
X60136Y196301D01*
X60158Y196343D01*
X60183Y196383D01*
X60212Y196421D01*
X60243Y196457D01*
X60276Y196490D01*
X60312Y196521D01*
X60350Y196550D01*
X60391Y196575D01*
X60432Y196597D01*
X60476Y196616D01*
X60521Y196632D01*
X60567Y196644D01*
X60613Y196653D01*
X60661Y196658D01*
X60708Y196660D01*
X61767Y196660D01*
M02*
