G04 EAGLE Gerber X2 export*
%TF.Part,Single*%
%TF.FileFunction,Other,Top Paste*%
%TF.FilePolarity,Positive*%
%TF.GenerationSoftware,Autodesk,EAGLE,9.1.0*%
%TF.CreationDate,2018-07-18T05:01:02Z*%
G75*
%MOMM*%
%FSLAX34Y34*%
%LPD*%
%AMOC8*
5,1,8,0,0,1.08239X$1,22.5*%
G01*
%ADD10R,3.175000X3.175000*%
%ADD11R,4.127500X4.127500*%
%ADD12R,6.350000X6.350000*%

G36*
X130217Y62873D02*
X130217Y62873D01*
X130259Y62871D01*
X130326Y62893D01*
X130396Y62905D01*
X130432Y62927D01*
X130473Y62940D01*
X130546Y62994D01*
X130589Y63020D01*
X130602Y63036D01*
X130623Y63052D01*
X140148Y72577D01*
X140173Y72611D01*
X140204Y72640D01*
X140229Y72689D01*
X140244Y72708D01*
X140249Y72720D01*
X140277Y72761D01*
X140287Y72802D01*
X140307Y72840D01*
X140320Y72929D01*
X140333Y72978D01*
X140330Y72999D01*
X140334Y73025D01*
X140334Y130175D01*
X140327Y130217D01*
X140329Y130259D01*
X140307Y130326D01*
X140295Y130396D01*
X140273Y130432D01*
X140260Y130473D01*
X140206Y130546D01*
X140180Y130589D01*
X140164Y130602D01*
X140148Y130623D01*
X130623Y140148D01*
X130589Y140173D01*
X130560Y140204D01*
X130497Y140236D01*
X130439Y140277D01*
X130398Y140287D01*
X130360Y140307D01*
X130271Y140320D01*
X130222Y140333D01*
X130201Y140330D01*
X130175Y140334D01*
X73025Y140334D01*
X72983Y140327D01*
X72941Y140329D01*
X72874Y140307D01*
X72804Y140295D01*
X72768Y140273D01*
X72727Y140260D01*
X72654Y140206D01*
X72611Y140180D01*
X72598Y140164D01*
X72577Y140148D01*
X63052Y130623D01*
X63027Y130589D01*
X62996Y130560D01*
X62964Y130497D01*
X62923Y130439D01*
X62913Y130398D01*
X62893Y130360D01*
X62880Y130271D01*
X62868Y130222D01*
X62870Y130201D01*
X62866Y130175D01*
X62866Y73025D01*
X62873Y72983D01*
X62871Y72941D01*
X62893Y72874D01*
X62905Y72804D01*
X62927Y72768D01*
X62940Y72727D01*
X62971Y72686D01*
X62975Y72675D01*
X62994Y72655D01*
X62994Y72654D01*
X63020Y72611D01*
X63036Y72598D01*
X63052Y72577D01*
X72577Y63052D01*
X72611Y63027D01*
X72640Y62996D01*
X72703Y62964D01*
X72761Y62923D01*
X72802Y62913D01*
X72840Y62893D01*
X72929Y62880D01*
X72978Y62868D01*
X72999Y62870D01*
X73025Y62866D01*
X130175Y62866D01*
X130217Y62873D01*
G37*
D10*
X85725Y174625D03*
X130175Y174625D03*
X174625Y174625D03*
X174625Y130175D03*
X174625Y85725D03*
X117475Y28575D03*
X73025Y28575D03*
X28575Y28575D03*
X28575Y73025D03*
X28575Y117475D03*
D11*
X171450Y31750D03*
X31750Y171450D03*
D12*
X101600Y101600D03*
M02*
