M48
;GenerationSoftware,Autodesk,EAGLE,9.5.2*%
;CreationDate,2020-01-09T12:06:23Z*%
FMAT,2
ICI,OFF
METRIC,TZ,000.000
T4C0.500
T3C1.016
T2C1.270
T1C8.890
%
G90
M71
T1
X17780Y14986
T2
X13335Y19685
X22225Y19685
X13335Y10160
X22225Y10160
T3
X6350Y10795
X6350Y13335
X10160Y17526
X6350Y15875
X6350Y18415
X10160Y7366
X10160Y9906
X10160Y12446
X10160Y14986
X6350Y20955
X10160Y20066
X10160Y22606
X12700Y22606
X15240Y22606
X17780Y22606
X20320Y22606
X22860Y22606
X25400Y22606
X25400Y20066
X25400Y17526
X25400Y14986
X25400Y12446
X25400Y9906
X25400Y7366
X22860Y7366
X20320Y7366
X17780Y7366
X15240Y7366
X12700Y7366
X32385Y20955
X32385Y18415
X32385Y15875
X32385Y13335
X32385Y10795
X32385Y8255
X29210Y20955
X29210Y18415
X29210Y15875
X29210Y13335
X29210Y10795
X29210Y8255
X3175Y8255
X3175Y10795
X3175Y13335
X3175Y15875
X3175Y18415
X3175Y20955
X6350Y8255
T4
X2540Y1905
X18415Y1905
X33020Y24765
X33020Y1905
X2540Y24765
M30